<svg id="Layer_1" data-name="Layer 1" xmlns="http://www.w3.org/2000/svg" xmlns:xlink="http://www.w3.org/1999/xlink" viewBox="0 0 2071.51 1517.78"><defs><style>.cls-1,.cls-73,.cls-9{fill:#fff;}.cls-11,.cls-2,.cls-20,.cls-21{fill:none;}.cls-10,.cls-12,.cls-13,.cls-14,.cls-15,.cls-16,.cls-17,.cls-18,.cls-19,.cls-2,.cls-20,.cls-21,.cls-22,.cls-23,.cls-24,.cls-25,.cls-26,.cls-27,.cls-28,.cls-29,.cls-3,.cls-30,.cls-31,.cls-32,.cls-33,.cls-34,.cls-35,.cls-36,.cls-37,.cls-38,.cls-39,.cls-4,.cls-40,.cls-41,.cls-42,.cls-43,.cls-44,.cls-45,.cls-46,.cls-47,.cls-48,.cls-49,.cls-5,.cls-50,.cls-51,.cls-52,.cls-53,.cls-54,.cls-55,.cls-56,.cls-57,.cls-58,.cls-59,.cls-6,.cls-60,.cls-61,.cls-62,.cls-63,.cls-64,.cls-65,.cls-66,.cls-67,.cls-68,.cls-69,.cls-7,.cls-70,.cls-71,.cls-72,.cls-73,.cls-74,.cls-75,.cls-8,.cls-9{stroke:#000;}.cls-10,.cls-11,.cls-12,.cls-13,.cls-14,.cls-15,.cls-16,.cls-17,.cls-18,.cls-19,.cls-2,.cls-21,.cls-22,.cls-23,.cls-24,.cls-25,.cls-26,.cls-27,.cls-28,.cls-29,.cls-3,.cls-30,.cls-31,.cls-32,.cls-33,.cls-34,.cls-35,.cls-36,.cls-37,.cls-38,.cls-39,.cls-4,.cls-40,.cls-41,.cls-42,.cls-43,.cls-44,.cls-45,.cls-46,.cls-47,.cls-48,.cls-49,.cls-5,.cls-50,.cls-51,.cls-52,.cls-53,.cls-54,.cls-55,.cls-56,.cls-57,.cls-58,.cls-59,.cls-6,.cls-60,.cls-61,.cls-62,.cls-63,.cls-64,.cls-65,.cls-66,.cls-67,.cls-68,.cls-69,.cls-7,.cls-70,.cls-71,.cls-72,.cls-73,.cls-74,.cls-75,.cls-8,.cls-9{stroke-miterlimit:10;}.cls-18,.cls-2,.cls-25,.cls-26,.cls-27,.cls-28,.cls-3,.cls-37,.cls-38,.cls-4,.cls-43,.cls-44,.cls-45,.cls-46,.cls-47,.cls-48,.cls-49,.cls-5,.cls-50,.cls-6,.cls-7,.cls-8,.cls-9{stroke-width:3px;}.cls-3,.cls-64{fill:#fae02f;}.cls-4,.cls-59,.cls-61{fill:#ad70af;}.cls-5{fill:#0e7dc1;}.cls-6{fill:#009444;}.cls-24,.cls-56,.cls-7{fill:#ee356f;}.cls-65,.cls-8{fill:#ec6b55;}.cls-10,.cls-46{fill:#515251;}.cls-10,.cls-22,.cls-23,.cls-24,.cls-29,.cls-30,.cls-31,.cls-32,.cls-57,.cls-58,.cls-61,.cls-62,.cls-63,.cls-64,.cls-65,.cls-66,.cls-67,.cls-68,.cls-69,.cls-70,.cls-74,.cls-75{stroke-width:6px;}.cls-11{stroke:#fcce0c;}.cls-11,.cls-12,.cls-13,.cls-15,.cls-16,.cls-33,.cls-34,.cls-35,.cls-36{stroke-width:4px;}.cls-12{fill:#5e461d;}.cls-13{fill:#473f34;}.cls-14{fill:#b09f8e;}.cls-14,.cls-17,.cls-19,.cls-21,.cls-39,.cls-40,.cls-42,.cls-51,.cls-52,.cls-53{stroke-width:2px;}.cls-15,.cls-19{fill:#e2d3c4;}.cls-16,.cls-70{fill:#fcce0c;}.cls-17{fill:#dc7f39;}.cls-18{fill:#b0a99b;}.cls-20{stroke-miterlimit:10;stroke-width:2px;}.cls-22,.cls-43,.cls-54{fill:#f0d590;}.cls-23,.cls-44,.cls-55{fill:#d4127f;}.cls-25{fill:#b0a78d;}.cls-26{fill:#9c4a23;}.cls-28{fill:#e2e2e2;}.cls-29,.cls-35,.cls-40{fill:#c8bfda;}.cls-30,.cls-33,.cls-37,.cls-42{fill:#ccb3d6;}.cls-31,.cls-36{fill:#cbc7e3;}.cls-32,.cls-34,.cls-38,.cls-39,.cls-41{fill:#a68db7;}.cls-45,.cls-66{fill:#fab53a;}.cls-47,.cls-75{fill:#b667aa;}.cls-48,.cls-63{fill:#00acc0;}.cls-49,.cls-58{fill:#c2e7f3;}.cls-50,.cls-60,.cls-62{fill:#e64744;}.cls-51{fill:#d7c6a3;}.cls-52{fill:#ba8072;}.cls-53{fill:#df5526;}.cls-54,.cls-55,.cls-56,.cls-59,.cls-60,.cls-71,.cls-72,.cls-73{stroke-width:5px;}.cls-57{fill:#2fc1d4;}.cls-67{fill:#d781ab;}.cls-68{fill:#b093bf;}.cls-69{fill:url(#linear-gradient);}.cls-71{fill:#167db2;}.cls-72{fill:#0cb7dd;}.cls-74{fill:#f06795;}</style><linearGradient id="linear-gradient" x1="661.62" y1="-542.9" x2="661.62" y2="367" gradientTransform="translate(1531.32 974) rotate(180)" gradientUnits="userSpaceOnUse"><stop offset="0" stop-color="#0c6534"/><stop offset="1" stop-color="#b1b935"/></linearGradient></defs><g id="Sky_Dec" data-name="Sky Dec"><path class="cls-1" d="M1266.8,26.8a13.2,13.2,0,0,0,11,0c3-1.6,5-.1,4.5,3.2a13.94,13.94,0,0,0,3.4,10.5c2.5,2.4,1.7,4.8-1.7,5.2a12.88,12.88,0,0,0-8.9,6.5c-1.5,3.1-4,3.1-5.5,0a13.18,13.18,0,0,0-8.9-6.5c-3.4-.5-4.2-2.9-1.7-5.2s4-7.1,3.4-10.5S1263.8,25.3,1266.8,26.8Z" transform="translate(226.47 -2.14)"/><path class="cls-2" d="M1266.8,26.8a13.2,13.2,0,0,0,11,0c3-1.6,5-.1,4.5,3.2a13.94,13.94,0,0,0,3.4,10.5c2.5,2.4,1.7,4.8-1.7,5.2a12.88,12.88,0,0,0-8.9,6.5c-1.5,3.1-4,3.1-5.5,0a13.18,13.18,0,0,0-8.9-6.5c-3.4-.5-4.2-2.9-1.7-5.2s4-7.1,3.4-10.5S1263.8,25.3,1266.8,26.8Z" transform="translate(226.47 -2.14)"/><path class="cls-1" d="M1207.1,46.3a15.17,15.17,0,0,0,12.3-3.3l.5-.5c2.9-2.7,5.6-1.6,5.9,2.3l.1.7c.4,3.9,3.5,8.8,6.9,10.7l.6.3c3.4,1.9,3.3,4.8-.4,6.4l-.6.3c-3.6,1.6-7.3,6-8,9.9l-.1.7c-.8,3.9-3.6,4.6-6.2,1.6l-.5-.5a15.23,15.23,0,0,0-11.9-4.6l-.7.1c-3.9.5-5.5-2-3.5-5.4l.4-.6a15.63,15.63,0,0,0,.7-12.7l-.3-.6c-1.6-3.6.2-5.8,4-4.9Z" transform="translate(226.47 -2.14)"/><path class="cls-2" d="M1207.1,46.3a15.17,15.17,0,0,0,12.3-3.3l.5-.5c2.9-2.7,5.6-1.6,5.9,2.3l.1.7c.4,3.9,3.5,8.8,6.9,10.7l.6.3c3.4,1.9,3.3,4.8-.4,6.4l-.6.3c-3.6,1.6-7.3,6-8,9.9l-.1.7c-.8,3.9-3.6,4.6-6.2,1.6l-.5-.5a15.23,15.23,0,0,0-11.9-4.6l-.7.1c-3.9.5-5.5-2-3.5-5.4l.4-.6a15.63,15.63,0,0,0,.7-12.7l-.3-.6c-1.6-3.6.2-5.8,4-4.9Z" transform="translate(226.47 -2.14)"/><path class="cls-1" d="M1262.7,87.5a9.16,9.16,0,0,0,7.5,1.4c2.2-.7,3.5.6,2.6,2.8a9.24,9.24,0,0,0,1,7.6c1.4,1.9.5,3.5-1.8,3.4a9.3,9.3,0,0,0-6.9,3.3c-1.4,1.9-3.1,1.6-3.8-.7a9.17,9.17,0,0,0-5.3-5.6c-2.3-.8-2.5-2.5-.5-3.8a9.31,9.31,0,0,0,3.7-6.7C1259.2,86.8,1260.8,86,1262.7,87.5Z" transform="translate(226.47 -2.14)"/><path class="cls-2" d="M1262.7,87.5a9.16,9.16,0,0,0,7.5,1.4c2.2-.7,3.5.6,2.6,2.8a9.24,9.24,0,0,0,1,7.6c1.4,1.9.5,3.5-1.8,3.4a9.3,9.3,0,0,0-6.9,3.3c-1.4,1.9-3.1,1.6-3.8-.7a9.17,9.17,0,0,0-5.3-5.6c-2.3-.8-2.5-2.5-.5-3.8a9.31,9.31,0,0,0,3.7-6.7C1259.2,86.8,1260.8,86,1262.7,87.5Z" transform="translate(226.47 -2.14)"/><path class="cls-1" d="M1593.3,89.1a6.37,6.37,0,0,0,5.4,0c1.5-.8,2.5-.1,2.2,1.6a6.61,6.61,0,0,0,1.7,5.2c1.2,1.2.8,2.3-.8,2.6a7.12,7.12,0,0,0-4.4,3.2c-.8,1.5-2,1.5-2.7,0a6.62,6.62,0,0,0-4.4-3.2c-1.7-.2-2-1.4-.8-2.6a6.61,6.61,0,0,0,1.7-5.2C1590.8,89,1591.8,88.3,1593.3,89.1Z" transform="translate(226.47 -2.14)"/><path class="cls-2" d="M1593.3,89.1a6.37,6.37,0,0,0,5.4,0c1.5-.8,2.5-.1,2.2,1.6a6.61,6.61,0,0,0,1.7,5.2c1.2,1.2.8,2.3-.8,2.6a7.12,7.12,0,0,0-4.4,3.2c-.8,1.5-2,1.5-2.7,0a6.62,6.62,0,0,0-4.4-3.2c-1.7-.2-2-1.4-.8-2.6a6.61,6.61,0,0,0,1.7-5.2C1590.8,89,1591.8,88.3,1593.3,89.1Z" transform="translate(226.47 -2.14)"/><path class="cls-1" d="M1555.3,43.7a10.66,10.66,0,0,0,8.3,2.9c2.7-.4,3.8,1.2,2.5,3.6a10.79,10.79,0,0,0-.2,8.8c1.2,2.4,0,4-2.6,3.5a10.31,10.31,0,0,0-8.4,2.6c-1.9,1.9-3.8,1.3-4.2-1.4a10.62,10.62,0,0,0-5-7.2c-2.4-1.2-2.4-3.2.1-4.4a10.75,10.75,0,0,0,5.3-7C1551.5,42.3,1553.4,41.7,1555.3,43.7Z" transform="translate(226.47 -2.14)"/><path class="cls-2" d="M1555.3,43.7a10.66,10.66,0,0,0,8.3,2.9c2.7-.4,3.8,1.2,2.5,3.6a10.79,10.79,0,0,0-.2,8.8c1.2,2.4,0,4-2.6,3.5a10.31,10.31,0,0,0-8.4,2.6c-1.9,1.9-3.8,1.3-4.2-1.4a10.62,10.62,0,0,0-5-7.2c-2.4-1.2-2.4-3.2.1-4.4a10.75,10.75,0,0,0,5.3-7C1551.5,42.3,1553.4,41.7,1555.3,43.7Z" transform="translate(226.47 -2.14)"/><path class="cls-1" d="M358.2,263.1a10.42,10.42,0,0,0,8.8,0c2.4-1.3,4-.1,3.6,2.6a10.89,10.89,0,0,0,2.7,8.3c2,1.9,1.3,3.8-1.4,4.2a10.49,10.49,0,0,0-7.1,5.2c-1.2,2.4-3.2,2.4-4.4,0a10.8,10.8,0,0,0-7.1-5.2c-2.7-.4-3.3-2.3-1.4-4.2a10.28,10.28,0,0,0,2.7-8.3C354.1,263.1,355.8,261.8,358.2,263.1Z" transform="translate(226.47 -2.14)"/><path class="cls-2" d="M358.2,263.1a10.42,10.42,0,0,0,8.8,0c2.4-1.3,4-.1,3.6,2.6a10.89,10.89,0,0,0,2.7,8.3c2,1.9,1.3,3.8-1.4,4.2a10.49,10.49,0,0,0-7.1,5.2c-1.2,2.4-3.2,2.4-4.4,0a10.8,10.8,0,0,0-7.1-5.2c-2.7-.4-3.3-2.3-1.4-4.2a10.28,10.28,0,0,0,2.7-8.3C354.1,263.1,355.8,261.8,358.2,263.1Z" transform="translate(226.47 -2.14)"/><path class="cls-1" d="M377.9,226.3a6.54,6.54,0,0,0,4.6,2.9c1.7.1,2.1,1.3,1,2.5a6.69,6.69,0,0,0-1.3,5.3c.4,1.6-.5,2.4-2.1,1.7a6.4,6.4,0,0,0-5.4.4c-1.4.9-2.5.2-2.3-1.4a6.42,6.42,0,0,0-2-5c-1.3-1.1-1-2.3.7-2.6a6.39,6.39,0,0,0,4.2-3.5C375.8,224.9,377.1,224.8,377.9,226.3Z" transform="translate(226.47 -2.14)"/><path class="cls-2" d="M377.9,226.3a6.54,6.54,0,0,0,4.6,2.9c1.7.1,2.1,1.3,1,2.5a6.69,6.69,0,0,0-1.3,5.3c.4,1.6-.5,2.4-2.1,1.7a6.4,6.4,0,0,0-5.4.4c-1.4.9-2.5.2-2.3-1.4a6.42,6.42,0,0,0-2-5c-1.3-1.1-1-2.3.7-2.6a6.39,6.39,0,0,0,4.2-3.5C375.8,224.9,377.1,224.8,377.9,226.3Z" transform="translate(226.47 -2.14)"/><path class="cls-1" d="M1041.5,122.3a10.81,10.81,0,0,0,8.5-2.3c2-1.8,3.8-1.2,4.1,1.5a10.88,10.88,0,0,0,4.8,7.3c2.4,1.3,2.3,3.3-.2,4.4a10.61,10.61,0,0,0-5.5,6.9c-.5,2.7-2.4,3.2-4.2,1.2a10.84,10.84,0,0,0-8.2-3.1c-2.7.3-3.8-1.3-2.4-3.7a10.81,10.81,0,0,0,.4-8.8C1037.6,123.3,1038.9,121.7,1041.5,122.3Z" transform="translate(226.47 -2.14)"/><path class="cls-2" d="M1041.5,122.3a10.81,10.81,0,0,0,8.5-2.3c2-1.8,3.8-1.2,4.1,1.5a10.88,10.88,0,0,0,4.8,7.3c2.4,1.3,2.3,3.3-.2,4.4a10.61,10.61,0,0,0-5.5,6.9c-.5,2.7-2.4,3.2-4.2,1.2a10.84,10.84,0,0,0-8.2-3.1c-2.7.3-3.8-1.3-2.4-3.7a10.81,10.81,0,0,0,.4-8.8C1037.6,123.3,1038.9,121.7,1041.5,122.3Z" transform="translate(226.47 -2.14)"/><circle class="cls-3" cx="1424.57" cy="378.46" r="11.5"/><circle class="cls-3" cx="1326.67" cy="33.86" r="5.8"/><circle class="cls-3" cx="696.77" cy="34.96" r="5.8"/><circle class="cls-4" cx="1296.47" cy="48.76" r="5.8"/><circle class="cls-4" cx="1696.67" cy="119.76" r="8.1"/><circle class="cls-4" cx="1666.17" cy="418.76" r="5.8"/><circle class="cls-5" cx="1731.07" cy="390.96" r="5.8"/><circle class="cls-5" cx="1463.57" cy="385.16" r="5.8"/><circle class="cls-5" cx="796.27" cy="431.86" r="5.8"/><circle class="cls-6" cx="1665.97" cy="145.66" r="5.8"/><circle class="cls-6" cx="726.97" cy="21.66" r="5.8"/><circle class="cls-7" cx="1732.77" cy="158.06" r="5.8"/><circle class="cls-4" cx="1427.57" cy="413.56" r="5.8"/><circle class="cls-8" cx="1379.87" cy="153.26" r="16.6"/><circle class="cls-7" cx="1325.97" cy="168.76" r="5.8"/><circle class="cls-6" cx="1028.2" cy="261.5" r="5.8" transform="translate(818.74 1226.59) rotate(-80.01)"/><circle class="cls-8" cx="776.37" cy="45.06" r="6.7"/><circle class="cls-8" cx="754.37" cy="433.86" r="8.3"/><circle class="cls-4" cx="803.87" cy="268.36" r="5.8"/><circle class="cls-7" cx="754.57" cy="249.06" r="5.8"/><circle class="cls-6" cx="620.27" cy="404.16" r="5.8"/><g id="Birds"><path class="cls-9" d="M883.9,128.6c2.4-.6-2.5-10.3-2-11.5s12.7-2.2,12.2-4.8-10.8,3-11.9,2.1,6.3-7.8,3.8-8a11.93,11.93,0,0,0-8.8,5.4c-3.2,5.1-4.4,6.5-6.8,7.3s-1.3,2.6.7,1.8,4.3-1.7,5.9,1S879.6,129.7,883.9,128.6Z" transform="translate(226.47 -2.14)"/><path class="cls-9" d="M827.7,104.5l-3.2,7.8s7.2-4.2,8.2-2.2-7.6,3.9-7.6,3.9l3.7,9.4s-6.8,0-9.5-2.4-1.5-3.8-1.5-3.8-4,1.8-4.3.3,3.9-2.6,3.9-2.6-.5-3.3,1.4-5S827.7,104.5,827.7,104.5Z" transform="translate(226.47 -2.14)"/><path class="cls-9" d="M751.8,113.4c.7.8,3.7.8,4.8.2s2.8,5.2,6.8,3.5.4-6.3.4-6.3,8.3-2.6,8.3-3.3-8.4,1.2-8.4,1.2.8-7.7-.2-9.8-5.3,2.3-5.8,5,.6,4.9-.2,6S750.3,111.7,751.8,113.4Z" transform="translate(226.47 -2.14)"/><path class="cls-9" d="M775.4,188.8l-4.2-10.5-3.7.6-.8-2.1,4.7-1.9,1.9-2.5,8.8-3.5-1.8,4.7,6-1.5.5,1.4-6.9,2s1.2,3.6.8,6C780.5,183.9,775.4,188.8,775.4,188.8Z" transform="translate(226.47 -2.14)"/><path class="cls-9" d="M836,142.6s-7.6,3.9-8.6,3.4-2.4-8-5.4-7-1.4,7.1-2.5,8.2-5,2-4.6,2.9,3.9.7,3.9.7l-1.5,5.5,7.2-6.9,10.7-4.9Z" transform="translate(226.47 -2.14)"/><path class="cls-9" d="M739.8,198.3l-2.2-5.6s-4.3,1-5.7,3.3-.6,4.3-1.2,4.9-3.9,1.2-3.5,2.4,3.6-.2,4.1.5-1.9,5.1-1.9,5.1,3.6-.7,4.7-1.9a70.2,70.2,0,0,0,4.1-6.2l8.7-3.8-.5-1.3Z" transform="translate(226.47 -2.14)"/><path class="cls-9" d="M690.4,236.5s4.6-4.8,5.6-6.8a12.73,12.73,0,0,0,1.1-4.5l7.4-2.9-.6-1.5-7,2.8-.9-4.9a33,33,0,0,0-5.3,3.7,4.36,4.36,0,0,0-1.3,2.7s-5.5.6-5.2,2.1,5.4.4,5.4.4S688.2,236.7,690.4,236.5Z" transform="translate(226.47 -2.14)"/><path class="cls-9" d="M714.5,83.6l4.3,10.8s-5.6,1.5-5,3.7,4.5.3,4.5.3l-.7,4.8,8.2-8.2,11-4.4-9.3,1.6s-2.2-5.6-6-7.3S717.8,82.2,714.5,83.6Z" transform="translate(226.47 -2.14)"/></g></g><g id="Road_Back" data-name="Road Back"><path class="cls-10" d="M1555.6,265c0-50.1-408.1-51.3-743.5-69.1S-12.5,140.2-12.5,140.2v9.1s246,26.6,447.8,40.8,531.6,35.4,679.8,37.2,399.8,16.1,399.8,39.1Z" transform="translate(226.47 -2.14)"/><path class="cls-11" d="M1533.9,266.3c0-32.5-258-42.8-414.3-47.9-148-4.8-485.4-22.2-687.2-36.4S-12.4,144.9-12.4,144.9" transform="translate(226.47 -2.14)"/></g><g id="Bus"><path class="cls-12" d="M289.7,156.5a25.75,25.75,0,0,0,5.6-.1c2.8-.4,23.5,3.9,25.9,4.1s3-.2,4.5-.1,2,1.5,4.2,1.3,2-1.7,2.9-1.8,4.5,1.8,5.6,1.6,4.3-2.1,4.8-3-21.7-13.7-21.7-13.7l-31.3-1.9s-3.9,8.8-3.6,9.7A22.53,22.53,0,0,0,289.7,156.5Z" transform="translate(226.47 -2.14)"/><path class="cls-12" d="M391,165.7s.8.6,3.1,0,2.3-2.7,4.5-3,22.9,4.7,23.6,5.9a5.18,5.18,0,0,0,3.2,3.1c1.7.4,1.4-.8,2.2-.7s1.9.8,2.8.7,2.8-3.6,2.8-3.6l-11-19.9-29.3-2.7-.4,15.6Z" transform="translate(226.47 -2.14)"/><path class="cls-13" d="M301.9,146.7s-6.5,4.4-6.5,11.4,3,14.6,6.9,16.1,9.5,1.7,11.8,1.1,8.8-2.3,9.7-10.7-4.3-18.1-4.3-18.1Z" transform="translate(226.47 -2.14)"/><path class="cls-14" d="M306.1,149.2c6.4-.1,9.7,5.7,9.5,10.7s-2.5,11.3-9.2,10.6c-5.7-.6-7.7-5.5-7.8-11.4C298.6,153.5,302.1,149.2,306.1,149.2Z" transform="translate(226.47 -2.14)"/><path class="cls-13" d="M410.1,151.1c7.5.4,15.2,7.7,15.5,18.9s-6.8,16.7-15,16.9-13.9-7.1-13.8-19.3S402.3,150.7,410.1,151.1Z" transform="translate(226.47 -2.14)"/><path class="cls-13" d="M364.7,160.4a13.85,13.85,0,0,1-8.4,6.1c-5.6,1.2-10.3-1-11.9-2.8s-4.1-7.3-4.1-7.3Z" transform="translate(226.47 -2.14)"/><path class="cls-13" d="M465.1,168.2s-3.2,6.1-8.4,8.3-9.7.4-12.8-2.7-4.6-8.5-4.6-8.5Z" transform="translate(226.47 -2.14)"/><path class="cls-14" d="M406.8,158.6c6.2-.1,8.8,6.1,8.9,11.3s-2.6,11.1-6.2,11.1c-3.9.1-8.4-3.3-9.5-9.7C398.8,164,401.6,158.7,406.8,158.6Z" transform="translate(226.47 -2.14)"/><path class="cls-15" d="M285.1,86.3s2.6-6.3,3.5-6.8,1.1-2.8,2.1-3.5,16.4-3,23.2-3.6,94.9,1.2,96.9,1.7,10.1-.6,14.8-.4,15.2,3.7,19.7,3.7,12.8-1.1,16.3-.2,7.3,4.7,7.8,6.7a8.66,8.66,0,0,1,.1,3.7l-35.6,6.3Z" transform="translate(226.47 -2.14)"/><path class="cls-16" d="M480.7,163.6s11.8-7.2,12-8.8-2.1-2.5-2.1-3.5,1.9-11,1.9-14.4-1.9-16.5-2.8-18.2-1.9-4.1-2.3-4.6-6-3.9-6-3.9L472,89.4a2,2,0,0,0,.9-1.4c0-.8-2.4-3-6.9-3.2s-17.7,1.5-22.4,3.1-7,3-7.9,3.1-149.8-5-150.6-4.9a1.59,1.59,0,0,0-1.4,1.3c0,.5-5.2,15-5.8,28.3-.9,19,.6,37.4,1.2,38.7s9.6,2.3,10.6,2,2.5-8.6,2.5-8.6a1.86,1.86,0,0,1,.8-1.3,3.69,3.69,0,0,1,1.6-.4l20.3,1.3a5.31,5.31,0,0,1,2.6.7,4.68,4.68,0,0,1,1.3,1.6l5.6,7.9s.6,1,1.2,1,64.4,5.1,64.4,5.1a2.17,2.17,0,0,0,1,1.9c1.1.6,2-.3,2.2-1.9s1.4-11.4,4.5-14.4,15.9-1,18.7.5,7.8,13.8,8.6,15.5,1,3.4,2.9,3.8,18.1,1.9,19.9,2.1,29.2-4.5,29.8-5.2A26.73,26.73,0,0,1,480.7,163.6Z" transform="translate(226.47 -2.14)"/><path class="cls-15" d="M450.1,161.9c1.1-1.4,8.6.1,12.6-.2s24.7-5,26.1-5.7,4.5-2.6,5.1-3.5,2.4-1.4,2.9-.6.5,4.3.1,5.9-4.9,5.2-7.7,5.9-26.9,6-33.2,5.8-6.2-1.2-6.5-2.9S449,163.2,450.1,161.9Z" transform="translate(226.47 -2.14)"/><path class="cls-17" d="M458,125.8c.2-.5,5.5-1.6,5.8-1s1.1,5.1.7,5.9-4.9,1.7-5.5,1.1S457.5,126.8,458,125.8Z" transform="translate(226.47 -2.14)"/><path class="cls-17" d="M488.8,121.7c-.3.4-.6,4,.1,4.3s2.7-.5,2.8-1-.2-4-.5-4.2A2.17,2.17,0,0,0,488.8,121.7Z" transform="translate(226.47 -2.14)"/><path class="cls-18" d="M449.3,118.4c4.2-.1,17-1.1,19.8-1.6s12.4-2.1,14-2.6.9-2.7-.9-5.9-7.6-15.5-9-17.1a7,7,0,0,0-5.3-2.6c-2.1,0-25,3.5-27.5,4.7s-3.4,1.9-3.1,4.9,3,15.8,4.3,18S446.2,118.5,449.3,118.4Z" transform="translate(226.47 -2.14)"/><path class="cls-18" d="M432.6,98.3c.4,1.5,3.5,15.1,3.6,16.6a3,3,0,0,1-2.8,3.2c-1.9.3-36.2-1.1-37.4-1.5a3,3,0,0,1-2.2-3.1c.1-1.7,1.5-15.8,1.9-16.9s1.2-1.8,2.9-1.8,30.8,1,31.9,1.2A2.79,2.79,0,0,1,432.6,98.3Z" transform="translate(226.47 -2.14)"/><path class="cls-18" d="M344,92.8c1.3,0,40.5.7,41.8.9a2.68,2.68,0,0,1,2.4,2.1c.2,1.1-1.5,17.5-2,18.7s-1.2,1.2-2.7,1.3-41.6-2-42.5-2.2-1.3-.6-1.3-1.7,2.4-16.6,2.7-17.5S342.9,92.8,344,92.8Z" transform="translate(226.47 -2.14)"/><path class="cls-18" d="M336.6,94.4c-.1,1.1-1.9,16.8-2.1,17.6s-.6.9-1.6,1.1-41.1-1.8-41.8-1.9-.5-.5-.7-1.4,1.3-12.4,2.8-14.9,3-3.3,6.1-3.5,34.9,1.1,36,1.4S336.8,93.3,336.6,94.4Z" transform="translate(226.47 -2.14)"/><path class="cls-14" d="M465.4,142.5c.2,2.8-1.4,7.7-3.9,7.9s-5.1-1.8-5.3-6.6,3.1-7,5.1-7.1S465.1,139.1,465.4,142.5Z" transform="translate(226.47 -2.14)"/><path class="cls-14" d="M493.2,136.6c.1,2.7.4,6.7-1.5,6.9s-3.7-1.4-4-5.9,1.7-6,3.1-6S493.1,133.8,493.2,136.6Z" transform="translate(226.47 -2.14)"/><path class="cls-19" d="M462,138.5c1.5,0,2.5,1.4,2.8,4.5s-1.1,6.1-2.6,6.1-3.1-1.8-3.3-4.5S460.3,138.5,462,138.5Z" transform="translate(226.47 -2.14)"/><path class="cls-19" d="M491.2,133.7c1.3,0,2,2,2.1,3.9s-.4,4.9-1.4,5-3-1.3-3.1-3.9C488.5,136.1,489.8,133.8,491.2,133.7Z" transform="translate(226.47 -2.14)"/><ellipse class="cls-20" cx="480.5" cy="139.8" rx="2.7" ry="5" transform="translate(218.58 28.55) rotate(-3.63)"/><line class="cls-21" x1="706.67" y1="132.66" x2="707.27" y2="142.76"/><polyline class="cls-21" points="708.67 141.76 706.97 137.66 705.77 141.96"/><path class="cls-15" d="M398.8,128.7c-.1-.5-8.3-2.1-8.3-.6S399,129.8,398.8,128.7Z" transform="translate(226.47 -2.14)"/><path class="cls-15" d="M384.4,127.2c0,.8-1.2,1.3-4.6,1.4s-4-.1-4.1-.9,1.3-1.1,4.3-1.2S384.4,126.3,384.4,127.2Z" transform="translate(226.47 -2.14)"/><path class="cls-22" d="M82.7,242.4s-54.8,52.4-61.2,98.2S84.1,540.5,57.3,564.1s-252.7-1.3-271.3-30.5-9.8-138.1,26.5-218.4,148-145.4,148-145.4l105-55.5Z" transform="translate(226.47 -2.14)"/><path class="cls-23" d="M-187.2,79.6S-134.9,169.4-76.1,181,54,237.2,88.2,252.4s133.1,51.4,172.5,27.3L93.2,80.5Z" transform="translate(226.47 -2.14)"/><path class="cls-24" d="M194.7,72.1c87.8,36.9,123,99.6,126.2,140.2s-73.4,94.6-114.6,65.8-89.6-100-147.8-116.8S-52.6,185.7-150.7,118-145.8.4-45,5.5,110.6,36.8,194.7,72.1Z" transform="translate(226.47 -2.14)"/></g><g id="Rocket"><path class="cls-9" d="M1343.2,235.6s1.4-4.2-1.7-11.7a75.87,75.87,0,0,0,2.1-16.8c0-8.7-3-13.1-3-13.1l-6.7-7.6-6.6,4.2a39.11,39.11,0,0,0-4.5,14.4,58.44,58.44,0,0,0,0,14.7,46.48,46.48,0,0,0-14.3,28.1c-2.1,17.8.4,27.8.4,27.8a74,74,0,0,0-12.9,34c-2.2,20,2.5,39.2,2.5,39.2s-10.1,17.4-12.9,37.4-.3,42.9-.3,42.9-15.8,24.5-19.1,56.4,0,63.6,0,63.6l20.6,8.9,49.8-7.5s21.8-29.9,25.8-55,0-55.6,0-55.6,10.5-13.9,12.9-37.6-7.1-46.6-7.1-46.6,8.1-8.1,10.3-31.4a89.7,89.7,0,0,0-5.9-41.3s3.8-7.6,4.8-24.7-6.8-31.1-6.8-31.1a85,85,0,0,0,2.1-17.7c.1-9.7-2.6-14.8-2.6-14.8l-4.6-7.5-8.8,4.4a71.83,71.83,0,0,0-5,15.1,180.21,180.21,0,0,0-2,18.7c2.6-2.2-3.7,2.1-6.5,10.2" transform="translate(226.47 -2.14)"/><path class="cls-25" d="M1356.1,84.4a14.48,14.48,0,0,1,2.5,11.7c-1.5,6.4-18.7,92-18.7,92l.8,5.8a21.1,21.1,0,0,0-6.2-2.7,44.08,44.08,0,0,0-7.1-.6l3-4.5,19.7-92.4A18.1,18.1,0,0,1,1356.1,84.4Z" transform="translate(226.47 -2.14)"/><path class="cls-26" d="M1346.5,150.4s10.9-68.2,15.4-78,11.2-13.6,13.1-13.3,6.9,13.3,6.6,20.1-3.2,21.1-3.2,21.1l-13,59.1Z" transform="translate(226.47 -2.14)"/><path class="cls-25" d="M1383.8,84.8a14.28,14.28,0,0,1,2.7,11.6c-1.4,6.5-17.2,92.3-17.2,92.3l.9,5.8a20.44,20.44,0,0,0-6.3-2.6,52.73,52.73,0,0,0-7.1-.5l2.9-4.6L1377.8,94A19.45,19.45,0,0,1,1383.8,84.8Z" transform="translate(226.47 -2.14)"/><path class="cls-27" d="M1353.9,96.1s1.9-6,4.4-5.4,4.1,4.8,4.3,10.6-1.7,17.3-.8,22.8-1.8,15.1-.7,17.7,11.9,13.3,12.1,20-.5,7.5-.5,7.5l-21.8,5.9-1.4-13-3.9-3.5,12.3-55.4Z" transform="translate(226.47 -2.14)"/><path class="cls-28" d="M1350.8,175.2l.6-7.9.7-3.4,18.7,1s1-4.3-.8-7.2-8.2-8.5-10.2-13,.7-15.5,1-17.3-1-5.2-1.4-9.3,1.7-14.5.9-18.8-3-5.7-4.4-5.9-2.3,3.6-4.7,5.3-6.1,9.1-7.9,17-5.3,28.5-5.3,28.5l-18.5,14.7-2.3,9.5,7.3,1.7-1,4,3.5.8,6.3-2.3Z" transform="translate(226.47 -2.14)"/><polygon class="cls-28" points="1578.87 165.36 1578.37 171.36 1588.37 168.76 1588.77 164.66 1578.87 165.36"/><polygon class="cls-28" points="1590.17 164.56 1589.77 168.06 1596.87 166.56 1597.17 163.66 1590.17 164.56"/><polygon class="cls-27" points="1552.27 164.26 1564.77 153.26 1566.27 153.66 1565.77 155.66 1552.77 165.36 1552.27 164.26"/><polygon class="cls-27" points="1552.47 168.16 1560.87 163.66 1561.57 165.06 1552.77 169.26 1552.47 168.16"/><polygon class="cls-27" points="1564.07 162.76 1565.57 163.16 1564.57 167.66 1562.67 168.86 1564.07 162.76"/><polygon class="cls-27" points="1574.27 155.56 1577.57 159.76 1581.57 142.86 1579.97 140.66 1585.07 119.06 1583.37 117.36 1585.57 107.96 1584.17 106.46 1574.27 155.56"/><polygon class="cls-27" points="1574.47 106.26 1577.27 106.96 1578.47 105.16 1575.87 104.56 1574.47 106.26"/><path class="cls-27" d="M1355,104.7l1.3.9s.5-1.8-.2-2.7a7.07,7.07,0,0,0-3.3-2.4c-1.1-.2-3.5-.1-4.2,1.3l-.7,1.4,1.9-1.3,2.5-.1,2.1,1.2Z" transform="translate(226.47 -2.14)"/><path class="cls-27" d="M1333.4,172.7l-.7,3.2s.2,1.5,1.3,1.7a1.41,1.41,0,0,0,1.6-.5l-.4,1.5a1.76,1.76,0,0,0,1.3,1,2,2,0,0,0,1.6-.3l.5-2.3a2.79,2.79,0,0,0,1.7,1.2,2.87,2.87,0,0,0,1.9-.3l-.2,1.1a1.43,1.43,0,0,0,1.1.9,2.9,2.9,0,0,0,1.8-.3l.4-1.7a2.11,2.11,0,0,0,1.5,1,1.67,1.67,0,0,0,1.7-.4l.9-3.9Z" transform="translate(226.47 -2.14)"/><path class="cls-9" d="M1328.5,312.7c4.3-23.2,10.6-33.4,10.6-33.4s-3.5-10.9-1.5-26.2,12.2-27.9,12.2-27.9" transform="translate(226.47 -2.14)"/></g><g id="Road_Middle" data-name="Road Middle"><path class="cls-10" d="M1555.6,265c0,50.1-506.6,57.8-722.9,60.7-342.3,4.6-433.1,6.2-851.9,50.4V343s295.4-35.7,723.1-39.4c534.2-4.7,810.8-14.2,810.8-37.2Z" transform="translate(226.47 -2.14)"/><path class="cls-11" d="M-12.4,358.6s294.1-39.6,720-43.3c531.9-4.7,826.4-16.8,826.4-49.5" transform="translate(226.47 -2.14)"/></g><g id="Busmore"><g id="Layer_3" data-name="Layer 3"><path class="cls-29" d="M612.2,515.6s-12,10.8-19,14.3-21.7,13.8-23,20.7-14.1,9.6-14.1,20.9,39.3,104.2,39.3,104.2l-39.3,150,4.4,180.7h985.4l-18.7-190.2L1193.7,558.1,1036.6,411.8,858.9,349Z" transform="translate(226.47 -2.14)"/><path class="cls-29" d="M785.9,349s-19.1-.3-31.1,3.3-23.1,12.2-34.8,16.6-27.8,6.6-39.6,11.6-41.8,23.8-42.2,32.7,51.1,32.3,51.1,32.3l137,12.9Z" transform="translate(226.47 -2.14)"/><path class="cls-30" d="M898.5,277.5s11.7,6.2,18.9,6.6,7.1,11.2,9.1,16.4,6.5,7.8,11.2,14.3-57-12.7-57-12.7l1.5-19.7Z" transform="translate(226.47 -2.14)"/><path class="cls-31" d="M1015,567.9s-4.1,20.6,5.2,28.7,30,8,30.5,13.5-20.4,9.8-35.7,16.5-39.3,29.7-51.3,37.2-52.8,10.7-60.8,7.8.5-9.9-2.2-16.6-21.9-1.1-31.8-11.7-14.6-30.1-31.1-33.9-34.5-1.3-57.6-6.1-66.3-19.2-66.5-22.6,12.8-4.6,26.1-10.6,17.8-13.2,30.2-20.3-20.5-4.7-20.5-4.7l-53.9-17.8-32.3-68.2,149.4-22.9s-10.8-133.4-4.2-140.4c3-4,12.9-5.5,18.1-11.5,5.9-6.9,22.8-6.5,27.9-8.5,2.8-1.1,25-5.5,35.6-3.5,8.5,1.6,11.5,10.8,17.2,11.5,12.8,1.7,14.9,16.4,14.9,16.4L975.6,377s10.2-8.8,18.8-8.5,31.2,14.9,31.2,14.9l96.4,74.4a70.36,70.36,0,0,0,3.5,14.2c2.6,6.9,4.2,6,7.3,10.3.9,1.3,9.4,5.1,12.2,13.5,6.2,18.9,8.6,49.9,8.6,49.9Z" transform="translate(226.47 -2.14)"/><path class="cls-30" d="M835.1,529.1c4.3-2.6,2.9,8.8,10.1,13.6s32.3,32.3,35.4,38.8,9.5,2.2,8.9-4.6,5.8-11.1,15.3-13.1,17.3,3.3,24.5,0,3.7-21.2,10.5-22.5,20.1,8.4,16.5,22.5-33.4,44.1-34.3,49-12.9,18.5-22.1,16.7-28.4-14.9-41.6-30.9S827.4,533.9,835.1,529.1Z" transform="translate(226.47 -2.14)"/><path class="cls-30" d="M1008,376.4s-10.3,8-17.3,10.4-19.8,4.8-19.8,4.8l-22.4,95.1s34.3-1.7,43.1-20.6S1008,376.4,1008,376.4Z" transform="translate(226.47 -2.14)"/><path class="cls-32" d="M951.4,504.3s14.2-3.5,15.8-14.7-1.6-24,0-37.2,10.3-19.6,9.1-29.9S971.8,408,960,409.1,951.4,504.3,951.4,504.3Z" transform="translate(226.47 -2.14)"/><path class="cls-30" d="M798.7,518.9c3.1,5.7-15.1,36.7-28.7,37.2s-22.7-7.7-47.7-10.5-30.1-13.4-46-13.6-36.7-1.6-41-8.8-23.1-7.5-23.1-7.5,8.2-17.9,6.9-34,16.5-31.8,17.6-43,1.6-25.3,1.6-25.3,21.6,15,34.1,16.5,39.1-11.3,46.4-5.7c.4.3,5.2-8.4,10.5-22.2,1.9-4.8,11.4-20.2,11.4-32,0-6.8,9.9,8,16.3,6.2,8.2-2.3,8.4-16.3,10.3-16.2,3.9.2,5,17,5,17.3-.1,6.3-57.5,69.2-62.5,82.3-5.1,13.3-10,27.6-9.3,37.6,1.5,22.7,18.1,36.1,31.5,34.8s10.5,6.4,16.6,6,11-9.6,21.5-13.4C780.5,520.6,793.8,510,798.7,518.9Z" transform="translate(226.47 -2.14)"/><path class="cls-30" d="M1132.9,486.8s-7.9,8.1-7,13-4.9,10-3.6,14.8-.1,19.1-.2,23.4,6.7,32.1,6.7,32.1l15.9-19.2V490.6Z" transform="translate(226.47 -2.14)"/><path class="cls-31" d="M1136,635.7a102.38,102.38,0,0,0,11.5,40c10.7,19.8,18.4,28.5,22.7,31.6s35.1,13.9,45.6,14.2,19,165.3,21.2,158.5c1.1-3.2,227.4-43.6,290.1-63.8,69.6-22.4,18.7-82.6,18.7-82.6S1189.6,495,1185.3,486.7s-12.9-4-29.6-4.6-24.4-1.9-24.4,7.3,7.2,5.5,9.5,8.6C1143.3,501.3,1136,635.7,1136,635.7Z" transform="translate(226.47 -2.14)"/><path class="cls-30" d="M1248.1,531.9s33.7-4.4,42-9.7,23.1-13.5,36.4-13.8S1358,660.1,1358,660.1s-4.8,27.9-11.2,37.6-25.7,22.3-36.4,20-16.8,3.9-20.2,2.4,7.2-9,5.8-15.6-26.8,3.1-23.3,9.5,9.2,5.4,8.2,9.9-30.9-.5-39.7-6.7-6.1-14.2-11.2-17.8-33.3-.7-45-5.8,5.3,1.2,13.2-2.8,14.3,3.3,20.1,0,10.5-7.6,13.6-18.5,21.2-14.5,28.3-17.8,18.5-12.6,17.8-15.8S1248.1,531.9,1248.1,531.9Z" transform="translate(226.47 -2.14)"/><path class="cls-30" d="M1478.9,478.2s86.6-27.6,88.9-30.3,2.2-7.2,9.1-6.7,13.8,15.7,20.7,37,10.3,47.5,15.8,61.7,5.5,29,14.6,48.4,17.3,216.9,13.5,277.7-16.1,164.1-16.1,164.1l-150.3,8.3s14.3-174.9,9.5-180.8-26.9-4.5-36.4,0-44.4,2.8-56.1-3-13.6-26.9-24.9-34.6-60.2-1.4-67.1-8.8,19.3-23.1,32.5-21.4,39.7,2.2,49.3-2,14.4-22.6,21.6-22.4,25.5,1.2,27.1,10.5,10.9,18.3,27.4,16.1,26.9-16.1,32.7-16.1,12.4,10.4,25.4,13,29.4-18.8,26.7-34.7-24.9-18.8-39.8-14.5-22.5,17.1-36.9,15.7-38.7-3.2-42-2.4-9.9-.4-9.9-.4,9.7-8,20.4-6,23.6-.9,28.9-.8,19.2-1.2,18.8-4-5.2-3.7-8.5-3.7-12.7-3-23.1-2.1-18.2,2.3-24.5,1.3-12.6.9-15.2.6-7.2-1.7-11.7-2-12.6.2-13.2-1.9,8.2-5.4,14.5-6.9,14-7.6,14-7.6Z" transform="translate(226.47 -2.14)"/><path class="cls-29" d="M1440.2,460.6s21.7,1.2,25.6-1,7.6-4.3,13.3-4.6,10.9,7.3,18.5,7.6,19.8-5.1,22.9-8.6,10.4-5.2,15.4-6,13.1,6.4,18.6,2.8,12.1-7,16.2-7.6,7.6-.5,8.8,2.9-3.4,17-1.7,26,6.4,16.3,6.9,22.1-2.6,12.1-6.5,12.8-7.8,2.2-7.4,4.4c0,0,10-1.7,14-.7s3.2,2.4,3.2,2.4-1.9,4.1-.9,7.8,1.3,9.2-.7,12.1-5.4,3.3-9.4,3.2-9.1,3.7-14.3,3.5-14.9,3.6-25.9,2-15.6-5.7-17.7-11.2,17.5-5.5,18.8-9.8-6.9-15.3-6.9-15.3l-79-3.4-28-34.4Z" transform="translate(226.47 -2.14)"/><path class="cls-29" d="M1584.8,567.5s-.5-8.4,3.2-12.7,6.9-.9,6.3-5.4-6.5-2.8-8-5.2-3.8-4.6-6.1-4.6-8.3,2.9-14.6,4.6-22.5,3.3-25.9,3-8.6.8-8.5,2.4,4.6,10.6,13.3,14.4,18.1,3.7,21.3,4.2,6.8,2.6,11.2,1.8A28.75,28.75,0,0,0,1584.8,567.5Z" transform="translate(226.47 -2.14)"/><path class="cls-29" d="M1586.2,579.6s-3.2-3-6.9-3.3-13.7-.3-17.9,1.3-9.7,1.5-10.3,2.1-3,2.8-.5,5.4,9,1.7,15.7,1.6,10.3-.1,10.9,1,3.1,2.6,4.8.6S1588.4,581.3,1586.2,579.6Z" transform="translate(226.47 -2.14)"/><path class="cls-29" d="M1500.4,557s17.4.9,25.4,11.4,1.4,14.4,5.5,20.8,19.1,12.2,24.9,19.2,13.4,5.3,13,11.4-12.3,4.3-20.9,5.9a43,43,0,0,0-13.5,4.6,174.08,174.08,0,0,1,21.3-1.1c9.2.3,12.1,2.1,14.1,12.3s-3.1,13.2,0,19.7,13.2,9.4,15,16.7-21.9,12.9-30.7,7.6-6.5-10.9-11.7-15.2-14.7-7.4-16.3-4,.4,17.3-8.3,20-40.9-16.7-40.9-16.7Z" transform="translate(226.47 -2.14)"/><path class="cls-32" d="M1116.4,600.7c-4.4-.8-5.7-4.9-7.5-7.9-3.5-5.8-8.5-8.4-14.8-9.2-12-1.5-24.1-2.3-35.7-6.1-3.3-1.1-6.6-2.5-10.1-3.3-3-.7-2.3-3.2-3.2-5.2-8,.1-14.9-4.6-22.9-5.3-2-2.4-.6-3.6,1.7-4.2,2.9-.7,5.9-.6,8.8-1.7,5.1.7,10.3.5,15.1,3,10.4,1.5,20.6,4,31.3,2.3,11.5-1.8,17.5-7.6,18.4-19.3.4-5.8,0-11.6.6-17.4.4-3.9,1.3-7.1,6.2-6.7,2,0,4,.6,5.9-.2,1.6-1.6-.7-2.6-.5-4.3,5.7-2.3,9.7,1.4,14,4.1a2.52,2.52,0,0,1,2.1-.3c4,5.3,5.2,18.7,2.3,28.3,2.7,1.3,6.6-1,8.6,2.6,1.7,3,.2,5.9.2,8.9-2.6,6.9-3.3,14.3-5.4,21.2C1129,588.2,1125.9,597.2,1116.4,600.7Z" transform="translate(226.47 -2.14)"/><path class="cls-30" d="M556,571.5s25-2,30.3,2.7.8,7.7,8.1,14,26,1.3,29.4,3.8,8.9,21.9,2.3,25.1-26-2.5-23,7.6,31.2-3.7,53.8-1,38.2,12.8,59.3,19,47.5,15.6,47.5,15.6-26.5.3-47.5-4.3-42.4-12.5-41.6-7.5,75.7,24.4,89.8,25.8,4.7,21.4.5,30.9-12,10.6-27.6,9.8-60.6-20.1-85.1-16.9-1.6,9,15.6,12.4,87.9,10.1,89.5,16.2-29.8,135.1-29.8,135.1L556,825.8Z" transform="translate(226.47 -2.14)"/><path class="cls-30" d="M629.8,524.8s-2.2,9.5-6.3,14.9-13.4,3.9-17,5.6-8.4,12.1-13.3,15.2-16.3,7.2-16.7,5.7,11.2-7.8,12-12.7,10.6-5.3,12.4-10.1,13.8-8.2,15.9-11.5S627.9,518.1,629.8,524.8Z" transform="translate(226.47 -2.14)"/><path class="cls-30" d="M703.7,590.5a148.69,148.69,0,0,1,25.4,4.7c11.7,3.5,21,8.7,22.1,12s-11,22.4-3.9,29.7-9.1,3.8-15.2,0-7.2-17-14.5-21.1-19.4,5.5-27.3,5.5-27.3-.7-28.4-5.5,27.3-6.2,33.8-10.3C702.4,601.5,697,589.7,703.7,590.5Z" transform="translate(226.47 -2.14)"/><path class="cls-30" d="M806.2,832.6c-1.6,5.4-5.1,8.4-3.8,12.4s0,0-.3,4.4,35,3.8,39.7,12.4,10.7,22.3,27.1,29.7,27.5-2.4,46.5,0S944.2,908.2,957,914s39.7,2.1,49.5,8.9-4.4,18.7-15,16.5-32.8-14.4-57.2-15.3-63.5-2.6-60.7,5.3,64.2,1.7,72.5,10.2,1.1,17,7,26.4,34.7,25.5,58,18.6,52.4-6.2,63.9,3.6,43.2,31.7,97.7,31.3,101.9-11,118.8-37.8,10.6-52.1,17.5-65.2,26.3-29.8,23.2-46.2-26.8-28-51.4-22-43.8-27.1-45.4-39.5,6.7-53.2,12.2-59.8,20.6-1.6,20.6-6.9-7.5-12.8-20.6-13.9-33.3-9.3-41.5-9.7-35.3-11.8-43.2-5.3,1.6,8.3-2.4,13.9-12,1.2-11.4,7.1,20.3,4.6,24.3,16,1.2,22.2-8.9,22.5-18.5-5-25.6.5-9.2,8-4.4,12.2,18.9,6.5,19.8,9.9-12.7,6.2-12.7,6.2,27.2.2,26.5,11.2-32,.1-35.1,3.6,20.7,15.2,20.7,15.2,14.6,23.4-21.6,24.3-22.5-21.6-17-25.4-5.9-7.5-11.8-7.6S1091,830,1088.5,834s-16.7,19.4-22.8,20.2-9.8-18.4-17.7-21.9-10.6-14-14.4-14.3-15.8,8.3-32.8,6.9-48.5-12.4-53.6-15.5-20.7-29.8-14.6-34.7,5.6-8.7,2.3-10.3-11.1-1-10.9,7.3-8.6,17.2-19.2,23.3-30.6,8.5-41,13-15.6,19.7-15.8,24.2-18,3.5-21.5,1.1S807.8,827.1,806.2,832.6Z" transform="translate(226.47 -2.14)"/><path class="cls-30" d="M753.5,810.5c4.6,2.8,26.3,8.5,41.2,8.9s32,2.3,32.8-1.3-5.8-4.1-9.9-4.1-11.7-3-13.2-13.7,41.3-1,48.2-2.8,8.9-15.5-8.6-17.2-17.9,3.5-25.9,3.3-20.5-11.4-19.5-17.5,5-11,14-11.4,20-2,19.2-6.8-11.4-10.3-18.3-10.3-19.3,4.2-27.9,2.2-17.5-7-22-4.5-6.1,35.2-7.1,42.1S745.9,805.9,753.5,810.5Z" transform="translate(226.47 -2.14)"/><path class="cls-30" d="M761.4,720.4s.8-7.4,2.5-11.3,5.9-2.9,8.1-7.8,4.8-18.1,10.7-20.1,9.8-8.6,11.6-13.4.9-8,3-10.3,13.4-5.8,15.9-9.2,6.8-10.6,10.2-14.6,10.6-7,14.4-7.3,12.7,2.6,16.6,6.7,14.2,7.1,14.5,10.9-2.5,5.8-8.7,5.4-8.9-7.9-18.8-8.5,14.7,11.4,13.2,17.1-12.8,18.7-18.4,19.2-21.5-5.6-28-3.7,9.2,4.7,10.2,10.1-18.5,7.5-26.1,13.3S779.9,718,773,720.5,761.4,720.4,761.4,720.4Z" transform="translate(226.47 -2.14)"/><path class="cls-30" d="M785.5,724.3a42.67,42.67,0,0,1,8.6-12.5c5.9-5.9,15.6-8.4,19.8-11.5s20.4-17.2,28.5-18.5,8.3,1.3,11.6-1.7,2.9-3.6,9.5-2.2,27.7,1.9,29.2,3.9-4.7,2.6-4.7,4,10.6,3.6,9.9,6.9-15.4-3-19.7-.8,9.1,11.1,17.3,13.4,32.4,11.7,32.4,14.4-1.7,4.3-8.8,4.5-41.1-17.3-52.3-16.4-12.3,3-10.1,7.1,22,7.7,24.1,12-11.9,3.5-19.5,2.3-26.2-9.5-32.5-7.9,15.5,7.1,16.6,11.1-12,3.9-20.5,2.5-21.8-8.3-25.2-8S789.9,731.6,785.5,724.3Z" transform="translate(226.47 -2.14)"/></g><path class="cls-33" d="M1270.3,567.4s5.9-.2,6.4-1.2-1.7-8.1-.2-9.3,7,0,7.2,1.2,1.4,9.8.1,11.5-6,2.1-7,1.1.4-2.4-.5-2.6-5.5.7-5.5.7Z" transform="translate(226.47 -2.14)"/><path class="cls-34" d="M1267.3,502.7s7.9,7.6,10,21.4-2.8,19.4-.4,25.9,6.9,2.3,9.2,6,1.4,18.3-.6,24,4.6,20.9,4.1,26.3,3.7,27.9-4.6,36.2-15.7-1.8-45.2,1.6-46.6,3.3-51.9,8-29.1,1.6-36.6-2-25.3-16.9-25.3-16.9Z" transform="translate(226.47 -2.14)"/><path class="cls-35" d="M1178.3,648.5c6.9-1,7.8-7.6,9.7-10.6s84.6-3.8,87.1-6.5,1-26.4,1.4-28.6,3.5-4.5,4.2-6.5.1-2.9-2.1-5-.9-8.6-3.2-11.2-2.2-21.1-3.1-34.5.5-24.1,0-30.9-2.9-10-4.8-12-2.6-4.9-3.7-6.5-7.3-3.2-9.6-4.9-4-4.6-4.7-5.5-14.9-5.2-18.7-6.1-7.3-2-9.6.4-14,0-14,0-21.1,3.6-31.3,6.2-30.9,8.7-34.7,12.1-7.2,16.2-7.2,16.2c-1.7,11.1-5.5,67.5-10,72.6-9.4,10.6-11.1,22-3.6,27.7,5.8,4.4,2.4,14.7,5.8,18.5,1.9,2.1,26.1,11.3,32.1,13.4Z" transform="translate(226.47 -2.14)"/><path class="cls-36" d="M1186,504.5c3.2-2.2,8.2-2.7,8.2-2.7s21.5,3.3,36.7,7,32,6.9,34.1,9.5,3,18.1,5.2,24.9,4.1,15.2,4.3,21.7-.4,10.5-5.3,11.8-19.6-4.9-31-5-43.1,2.1-51.1,2-10.1-11.9-10.1-14.5C1177.1,556.8,1180.5,508.3,1186,504.5Z" transform="translate(226.47 -2.14)"/><path d="M1177.1,559.3s5.2-21.4,5.8-35.5,2.6-17.5,5.3-18.3,16.7-.4,25.9,1,19.7,5.9,26.9,7.1,19.5,5.7,21.5,9.2,4.2,12.1,6.1,12.4.9-14.2-1.5-17.3-7.6-4.8-11.3-5.6-5.8-.8-24.6-4.4-30.1-7.8-36.4-8-11.6,4-12.7,8.3-5.7,28.8-5.3,32.4S1174.9,557,1177.1,559.3Z" transform="translate(226.47 -2.14)"/><path class="cls-37" d="M1165.9,587.1c-2,1.4-2.3,10.2-1,12.5s21.4,2.8,23.6,2.4,3.6-3.8,3.6-6.8-2.5-6.5-4.3-7.2S1168.5,585.2,1165.9,587.1Z" transform="translate(226.47 -2.14)"/><path class="cls-37" d="M1194.5,594.9c-.1,4.2,1.1,9,8.6,10.7s12.4-1.1,13.9-2.4,2.7-3.6,6.9-3.5,14.6,2,17.6,1.8,6.9-2.5,11.3-2.2,5.6,3,8.5,5,10.6-.2,12.4-2.5,5.8-1.5,7.2-3.6,1.4-6.7-1-7.7-3.3-.5-6.5-2.6-11.8-2.4-13.7-.9-2.3,2.3-6.6,2.3-8.1-3.6-13.4-3.6-5.4,2.6-12.9,2.5-11.9-2.9-16.4-3.6S1194.7,584.4,1194.5,594.9Z" transform="translate(226.47 -2.14)"/><path class="cls-38" d="M1181.6,594.9c-.4,2.7,1,4.2,3.1,4.4a4.12,4.12,0,0,0,4.4-3.9,4.42,4.42,0,0,0-3.7-4.9C1183.2,590.2,1182.1,592.2,1181.6,594.9Z" transform="translate(226.47 -2.14)"/><path d="M1234,598.3c.4,1.2,3.2-8.2,3.7-8.7s4,.4,4.5.7.9,2.5,1.6,2.5.3-3.7-.8-4.3-5.7-2.3-6.3-1C1235.9,588.8,1233.3,595.8,1234,598.3Z" transform="translate(226.47 -2.14)"/><path class="cls-34" d="M1277.6,592.5s2-.5,2,2.4-.9,3.6-1.8,3.8-2.1-1.3-2-2.9S1275.7,592.7,1277.6,592.5Z" transform="translate(226.47 -2.14)"/><path d="M1206.7,595.9c.7.1-.4-6.5-4.8-6.4s-5.2,6.5-4.8,7.4,4.1,5,4.5,4.4-3.1-3.6-3.3-6.4,3.7-5.3,5.3-3.2S1205.4,595.7,1206.7,595.9Z" transform="translate(226.47 -2.14)"/><path d="M1217,595.7c.7.1-1.4-5.2-4.7-5.6s-4.4,3-4.4,6.3,3.2,5.8,4.3,5.6-2.6-1.3-3-4,.2-6.4,1.3-6.5,3.2.1,4,1.6S1215.5,595.5,1217,595.7Z" transform="translate(226.47 -2.14)"/><path d="M1266.6,595.6c1.1.5-.8-3.7-2-4.3s-6,.8-5.3,4.4,1.8,4.9,2.8,5.1,1.5.3.9-.8-3.5-2.7-2.3-6.3S1264.1,594.4,1266.6,595.6Z" transform="translate(226.47 -2.14)"/><path d="M1273.9,595.7s-.1-5.2-2.8-5.1-3.4,3.4-3.3,5.5,1.1,4.5,2.8,4.4.4-2-.2-2.2-2.3-3.8-1.3-4.9,2.5-1.6,3.1-.1S1271.9,595.5,1273.9,595.7Z" transform="translate(226.47 -2.14)"/><path class="cls-33" d="M1173.5,632.3s-.2,10.3,1.8,10.8a97.14,97.14,0,0,0,16.6,1.4c5.9-.1,36.9-4.1,44.4-4.8s38.4-3.5,40.9-4.3,4.8-5.1,4.9-10.6,1.1-6.4-2.3-6.9-8.9,2.9-23.6,3.9-65.4,3.3-69.8,3-6.8-3.7-8.7-2.4C1175.9,623.9,1173.5,628.7,1173.5,632.3Z" transform="translate(226.47 -2.14)"/><path d="M1165.5,515.8s-1.3-4.3-5.4-3.2-4.9,4.6-5.4,6.9-1.9,38.3-1.9,38.3-.6,5.7,1,8.2a4.32,4.32,0,0,0,4.6,1.7c1.2-1.9,2.3-1.8-.8-2.5s-2.7-2.4-2.8-4.4,1.7-39.7,1.7-39.7.4-4.7,4.3-5.9S1165.5,515.8,1165.5,515.8Z" transform="translate(226.47 -2.14)"/><path d="M1150.3,519.6s-.7-4.1-5.2-2.5-4.4,6.6-4.4,6.6l-1.4,36.4a6.74,6.74,0,0,0,2.7,6.4c3.4,2.3.6-3.6.2-9s.6-33.6.6-33.6.2-4,3.6-4.9S1150.3,519.6,1150.3,519.6Z" transform="translate(226.47 -2.14)"/><path d="M1161.8,585.6a4.76,4.76,0,0,0-5.5-3.6c-4.5.7-4.6,2.8-5,5.2s-1.5,30.8-1.5,30.8a7.77,7.77,0,0,0,1.9,5.4c2.1,2.1,2.8-2.4,1.9-3.5s-1.5-2.8-.7-17.3,0-18,4-18.4S1161.8,585.6,1161.8,585.6Z" transform="translate(226.47 -2.14)"/><path d="M1146.9,584.2a5.7,5.7,0,0,0-5.5-3.6c-4.3,0-4,10.9-4.5,18.6s-1.7,16.8.1,19.2,2.6-2.2,2.3-3.9a138.21,138.21,0,0,1-.5-17.8c.3-6.5,1-13.3,3.9-13.3A8.59,8.59,0,0,1,1146.9,584.2Z" transform="translate(226.47 -2.14)"/><path class="cls-33" d="M1165.5,515.8s4.1-4.3,6.7-3.1,1.5,4.4,1.5,4.4,3.9,1.7,4,7.7-4.4,7.4-7.3,7.7-7.5-4.2-7.6-7.6.8-6.2,3.2-6.9S1163.3,517.7,1165.5,515.8Z" transform="translate(226.47 -2.14)"/><path d="M1262.5,501.8s1.3-2.5.6-3.5-15.2-7-27.5-9.9-27.9-5.1-27.9-5.1a3.88,3.88,0,0,0-2.1.6c-.7.6-4.4,9.6-4.6,10.7s-.9,2.9.4,3.3,1.3-4.1,2.8-8.3,1.8-4.2,3.1-4.6,16.1,3.7,23.4,4.3,13.7,4.2,17.5,5.1,12.3,3.1,12.7,4.4S1260.5,501.1,1262.5,501.8Z" transform="translate(226.47 -2.14)"/><polygon class="cls-35" points="1331.27 516.66 1331.27 474.06 1333.07 474.06 1333.07 468.26 1333.07 463.96 1312.27 463.26 1282.87 462.56 1285.07 504.86 1320.57 508.46 1327.67 515.76 1331.27 516.66"/><path class="cls-34" d="M1125.3,461.2s-8.4,2.7-12,4.9-5.9,6.2-7.2,6.1,1.6-4.6-3.3-5.5-35.9-1.2-38.9.7,0-11.5,0-11.5l57.9,2.2Z" transform="translate(226.47 -2.14)"/><path class="cls-34" d="M1126.9,557.7c-1.3,3.3-.3,9.9-2.5,15.2s-7.3,12.4-10.2,12.7-11.5,1.3-14.8,0-3.9-8-8.1-8-6.6,5.8-21,5-24.8-4.5-26.3-7.1-13.4-6.8-17.3-4.7-5.2,12.3-8.6,14.5-10.8,4.8-13.8,3.7-10.1-6.9-10.1-10.2V562.3l10.1-12.2s116.9-26,120.9-22C1131.4,534.1,1128.1,554.4,1126.9,557.7Z" transform="translate(226.47 -2.14)"/><path class="cls-35" d="M1014.8,360.7a25.6,25.6,0,0,0-8,6.9c-3.3,4.5-8,17.5-10,21.7S981,426.1,981,426.1s-3.9,21.7-4.1,27.5-1.5,77.3-1.5,77.3l2.6,5,.4,8.9h3s4.1,9.7,5.4,11,5,5.2,5,5.2.3,9.8,2.4,14.3c5.6,12.3,5.6,12.3,17.5,11,8.6-.9,6-28.6,6-28.6Z" transform="translate(226.47 -2.14)"/><path class="cls-35" d="M1122.7,551.3s2.2,10.2,0,18.6-5,10.8-7.6,12.6-14.1,1.7-15.2,0-5.1-11-6-21.2S1122.7,551.3,1122.7,551.3Z" transform="translate(226.47 -2.14)"/><path d="M1061.7,474.8l35,1.1s2.7,0,3.5,1,1.1,21.8,0,21.9-.5-14.8-.8-17.3-.1-3.5-.9-4.1-36-1.3-36-1.3Z" transform="translate(226.47 -2.14)"/><path class="cls-36" d="M1125.3,461.2s-3.5-82.3-14.3-90.5-38.1-12.1-48.5-13-41.2-2.2-47.7,3-8.5,94.9-8.5,94.9l-1.6,96.2s-2.1,4.3,3.8,8.2,44.6,10.8,44.6,10.8v4.5h32.3l.2-5.7s14.5-.4,15.6-2.2.6-4.9.6-4.9,20.3-5.5,22.5-7.5,1.9-16.6-.4-22.4-6.2-11.6-11.4-13.5a59.92,59.92,0,0,0-7.7-2.4l-2.8-.3s-1.7-5.4-4.5-8-3.2-1.5-3.2-1.5-11.7-1.2-18.2-1.5-12-.4-12-.4l-.2-39.3a9.25,9.25,0,0,1,1.3-4,4,4,0,0,1,2.3-1.7Z" transform="translate(226.47 -2.14)"/><path d="M1011.1,501.9V464s.1-2.8,1.2-3.7a6,6,0,0,1,3-1l41.2,1.2s2.5.3,3.3,1.4,1.4,13.9,1.3,23.4-.4-20.6-1.7-22.1-2.2-2-21.5-2.3-22.1-1-23.8.3-1.2,33.6-1.6,36A23,23,0,0,1,1011.1,501.9Z" transform="translate(226.47 -2.14)"/><path d="M1026.8,545.2c1.2,1,1.9-5.3,1-6.9s-4.2-3.5-7.7-3.2-7.1,4.3-7.1,6.5-.1,6.4,2.7,8.1,5,1.6,4.9.6-4.4-1.4-5.4-4a6.73,6.73,0,0,1,2-7.7c2.5-1.9,6.9-1.7,8.1.6S1025.3,544.1,1026.8,545.2Z" transform="translate(226.47 -2.14)"/><path d="M1119.6,543.8c-1,.3,1-4.9-2.9-5.9-3.3-.9-5.5-.3-6.5,2.3s-2,4.6,0,6.5,4.3,1.7,4.2,2.9-5.7-.6-6.7-3.9.3-8.9,3.8-10.6,8.4,1.8,9.1,3.6S1121.1,543.4,1119.6,543.8Z" transform="translate(226.47 -2.14)"/><path class="cls-39" d="M1042.5,565.3V535.1a2.25,2.25,0,0,1,1.2-2.4,5.06,5.06,0,0,1,2.7-1.2h16.9s2.6-.1,4.5,3.1,1,5.8,2.6,6.3,2-5.5,3.5-7.5a4.44,4.44,0,0,1,3.6-1.9h17.8s2,.6,2.5,1.7,1.3,28.9-.9,31.2-5.6-3.3-9.1-4-19.3,2.9-27.3,3.6-13-6.9-15.4-6.8C1042.5,557.4,1045,564,1042.5,565.3Z" transform="translate(226.47 -2.14)"/><path class="cls-40" d="M1055.1,572.7c.9.6,0-5.2,0-5.2H1083v5.2s-4.1-2.8-8.4-2.6-8.4,2.5-10.6,2.6A85,85,0,0,1,1055.1,572.7Z" transform="translate(226.47 -2.14)"/><path d="M1059.2,490.7l-45.3-1.1s3.2,1.5,10.8,2.2,9.1-.4,16,0S1059.2,490.7,1059.2,490.7Z" transform="translate(226.47 -2.14)"/><path d="M1015,372l99.3,7.8s-4.7,1.5-13.4.9-24.1-2.9-41-4.2C1043,375,1024.6,373.8,1015,372Z" transform="translate(226.47 -2.14)"/><path d="M1016,399.1l-.9-21.7a3.59,3.59,0,0,1,1.6-2.3c1.3-.7,5.5-.7,5.5-.7l38.1,3.3a5.49,5.49,0,0,1,3.2,1.3c1.2,1.2,1.1,3.6,1.1,3.6s.7,8.8,0,9,0-8.2-1.3-10.8-5.6-2.3-10.2-2.2-19.4-2.6-27.9-3-8.5.9-8.8,2S1017.6,398,1016,399.1Z" transform="translate(226.47 -2.14)"/><path d="M1070.8,403.7c1.5,1.4-1.2-8.1-1.4-14.4s.1-8.3,1-8.5,39.3,2.7,40.8,3.4,2,3,2.5,5.8-1,9,0,10,1.2-11.6.1-14-.8-3-5.4-3.5-35.4-3.3-35.4-3.3-3.9-.4-4.3.9C1068.1,381.3,1068.5,401.6,1070.8,403.7Z" transform="translate(226.47 -2.14)"/><path d="M1040.1,432.3a41.35,41.35,0,0,1,8.2-.9c3.6.1,8.7,2.2,20.1,2.5s21.7-.6,23.5,0,1.9,2.7,3.5,2.3,2.8-2.2,0-3.6-14.3-.1-26.8-.6-18.6-2.2-22.5-2.2a38.83,38.83,0,0,0-7.2.7Z" transform="translate(226.47 -2.14)"/><path d="M1094.9,413.4s-11.8.1-20.2,0-12.8-2.3-13.7-1,1.2,8.5.7,11.7-1.7,3.3-2.5,2.7-.9-9.8-.8-12.4a4,4,0,0,1,2.2-3.5l19.9.1Z" transform="translate(226.47 -2.14)"/><path d="M1038.9,437.1V413s.4-2.6,1.1-3a19,19,0,0,1,3.6-.9c.9-.1,48.7,2.6,48.7,2.6s2.5.9,2.7,1.7.9,5.1,0,4.9,0-4-2.2-5.3-49.9-2.8-51.1-2.3c-2.5.9-2.1,10.7-1.7,18.5S1040.4,436.6,1038.9,437.1Z" transform="translate(226.47 -2.14)"/><path d="M1117.5,453c2.8.6,8,.7,6.2,2.9s-5.3,2-10.7,1.8-30.9-1.8-44.6-2.3-35.2,1.4-42.3.5-14.2-.9-15-4.2,7.4-2.4,11.3-1.5,29.5,1.5,34,1.1,39.3,0,44.4.4Z" transform="translate(226.47 -2.14)"/><path class="cls-34" d="M716.1,507.2l52.7-20.5,1.1,4.7s-2.7,15.5-13.6,22.4c-9.7,6.2-24.6,4.9-31.5,2.5C718.4,514,716.1,507.2,716.1,507.2Z" transform="translate(226.47 -2.14)"/><path class="cls-34" d="M783.4,319.2l-1.4,9.6s-2.9-.8-3.3,3.7,2.2,3.6,2.2,3.6l-.5,3.6s-6.6-1.5-7.9.2-2.7,6.2-3.4,14.5.1,14.2,2.3,15.3a8.37,8.37,0,0,0,4.6.7l-.9,5.9,92.4,9.6,66.3,2.7,11.3-7.5,7.8-24.8-6.5-34.9-157.3-5.1Z" transform="translate(226.47 -2.14)"/><polygon class="cls-36" points="969.97 386.36 998.77 375.06 1054.87 375.86 1126.37 386.26 1072.77 404.76 969.97 386.36"/><path class="cls-33" d="M751.7,512.6c6-3,16.9-14.9,19.7-38.7s-12.3-21.6-26.9-22.3-31.4-29.7-35.9,13.1,8.2,44.1,13,47.6S745.7,515.6,751.7,512.6Z" transform="translate(226.47 -2.14)"/><path class="cls-36" d="M789.2,325c1.8-.8,158.1,4.5,160.1,6.9s-3.3,58.3-5.5,59.6S783.6,380.2,780.3,376,785.2,326.8,789.2,325Z" transform="translate(226.47 -2.14)"/><path class="cls-34" d="M747.3,456.2s-1.2-8.4-7.6-7.7-11,12.3-12.1,27.4,2.4,23,4.6,25.7-2.6-15.1-1.8-25.3,4.8-22.7,9.1-24.8S743.6,455.3,747.3,456.2Z" transform="translate(226.47 -2.14)"/><path class="cls-34" d="M705.8,428.5s-5.4,5.9-5.4,17.8,1.2,13.5,2.7,15.1,41.3,6.7,47,13.5,13.2,15,20.8,20.6,12.4,1.7,38.1,5.8,53.5,6.3,55.5,4.9c1-.7-6.6,23.2,4.6,32.3s35.1,7.1,37.2,4.7c7.3-8.4,11.1-21,11.1-21l8.4-3.9,9.5-51.7L919.7,427l-200.8-3Z" transform="translate(226.47 -2.14)"/><path class="cls-35" d="M783.5,315.2s3-10.1,14.8-17.3,53.3-10.1,72.1-9.5,41.6,3.4,60.3,12,20.9,22.5,20.9,22.5-.4,2.4,2.5,5.8,14.6,8.9,21.1,15,9.2,11.6,10.3,22.3-1.8,23.1-1.8,23.1l-14.1,34.1-8.2,65.7-5.2,28.7-30.6.8s4.2-33.7,1.2-60.8-16.3-23-23.2-18.5-3.7,6.2-8.5,10-73.4-3.7-124.4-9.7-65-10.9-65-10.9,3.6-15.2,12.6-19.2,15.8-2.9,15.8-2.9,3.2-15,9.3-17.8,39.8-.3,56.1,1.7,27.2,4,27.2,4,64.3-3.2,63.9-5.4-27.9-5.5-51.4-7.9-66.1.2-67-3.8,84.4,2.9,97.2,3.7,60.2,9.5,69.7,2.1,10.7-49.3,5.9-54.5-51.8-5.5-87-6.4c-30.9-.8-62.3-1.2-71.9-2.3-1.4-.2-9.3,59.2-9.7,59-1.1-.5-7.7-.8-9.2-9.8-1.9-11.7,2.3-33.4,9.6-40.2C781.2,324.9,783.5,315.2,783.5,315.2Z" transform="translate(226.47 -2.14)"/><path class="cls-33" d="M700.2,440c3.3,4.1,38.2,3.7,83.6,8.9s81.7,13.3,83.6,12.2,2-5,1-6.9-64.9-8.4-90.2-11.4-57.2-8-63.5-9.3-8.6-4.1-11.5-2.9S698.5,438,700.2,440Z" transform="translate(226.47 -2.14)"/><path class="cls-33" d="M902.5,540.9c6-3,13.5-15.6,16.3-39.3s-1.7-48.3-16.3-49-34.2-1.1-38.7,41.7,3.9,43,8.6,46.5S896.4,543.9,902.5,540.9Z" transform="translate(226.47 -2.14)"/><path class="cls-34" d="M911,478s-1.2-8.4-7.6-7.7-11,12.3-12.1,27.4,2.4,23,4.6,25.7-2.6-15.1-1.8-25.3,4.8-22.7,9.1-24.8S907.2,477.1,911,478Z" transform="translate(226.47 -2.14)"/><path class="cls-41" d="M856.1,299.8c-.4-1.6-1.4-3.1-3.2-2.8s-2.1,2-2,3.5c.2,2.9.5,5.9.8,8.8a5.66,5.66,0,0,0,.8,2.5,2.55,2.55,0,0,0,2.7,1.4c1.2-.2,1.6-1.1,1.8-2.2.4-1.9-.1-3.8-.2-6C856.6,303.4,856.5,301.6,856.1,299.8Zm-.7,10c0,.5,0,1.2-.7,1.3s-1.1-.6-1.1-1.2c-.4-3.2-.7-6.4-1-9.6-.1-.6,0-1.4.8-1.4s1,.7,1,1.3c.2,1.6.3,3.3.4,4.9h.3C855.2,306.7,855.3,308.2,855.4,309.8Z" transform="translate(226.47 -2.14)"/><path class="cls-41" d="M844.9,304.5c-.2-2.2-.3-4.4-.5-6.6,0-.5-.3-1.2.6-1.2.7,0,1,.3,1,1,.1,1.5.3,3,.4,4.5.1.8.4,1.3,1.3,1.2,1.1,0,.7-.8.6-1.4l-.3-3.9c0-.5-.2-1.2.6-1.3s1,.3,1,1c.4,4.5.9,9,1.3,13.5,0,.6.2,1.3-.8,1.3s-.9-.7-.9-1.3c-.1-1.6-.3-3.1-.4-4.7-.1-.7-.3-1.2-1.1-1.2-1.1,0-.7.8-.7,1.3.1,1.3.3,2.6.3,3.9,0,.6.7,1.7-.6,1.8s-1.1-1-1.1-1.8c-.2-2.1-.3-4.2-.5-6.4C845.1,304.5,845,304.5,844.9,304.5Z" transform="translate(226.47 -2.14)"/><path class="cls-41" d="M858.4,311.4c.5,1.3,1.3,2.2,2.7,2.1s2-1.3,2.1-2.6a44.12,44.12,0,0,0-.7-8.8,8.19,8.19,0,0,0-.7-3c-.6-1.2-1.5-2.1-2.9-1.9s-1.8,1.4-1.9,2.6a23.68,23.68,0,0,0,.4,5.3C857.9,307.2,857.7,309.4,858.4,311.4Zm.6-11c0-.5,0-1,.6-1.2s1,.4,1.1,1c.4,3.3.7,6.6,1,10,0,.5-.1,1.2-.8,1.3s-1-.5-1-1.1c-.2-1.7-.3-3.4-.4-5.1h-.2C859.2,303.6,859.1,302,859,300.4Z" transform="translate(226.47 -2.14)"/><path class="cls-41" d="M872.5,305.9c.2,2,.3,4.1.4,6.1.1,1.1.3,1.8,1.6,1.8s2.7.2,3-1.6a9.08,9.08,0,0,0-.5-5.4,3.34,3.34,0,0,1-.2-2.4,7.91,7.91,0,0,0-.7-5c-.8-1.6-2.4-1.5-3.8-1.2s-.5,1.5-.5,2.2c.1,1.8.2,3.7.4,5.5A.19.19,0,0,0,872.5,305.9Zm2.2,1.1c1.3-.1,1.2,1.4,1.4,2.3,0,.2.1.4,0,.6-.1.7.1,1.7-.9,1.9-1.2.1-.8-1-.9-1.7-.1-.3,0-.5-.1-1C874.5,308.5,873.4,307.1,874.7,307Zm-.7-6.6c1.2-.1,1.1,1.3,1.2,2.2s.4,2-.7,1.9c-1.5,0-.3-1.6-1-2.2C873.9,301.6,873,300.4,874,300.4Z" transform="translate(226.47 -2.14)"/><path class="cls-41" d="M883.3,305.8c.1,1.9.4,3.8.4,5.7,0,1.4-.3,2.7-2,2.9a2.41,2.41,0,0,1-2.8-2.3c-.5-4.2-.9-8.4-1.4-12.6,0-.4-.1-.9.5-1a.86.86,0,0,1,1.1.9c.1,1.7.3,3.4.5,5.1l.6,6.3c.1.6.3,1.5,1.2,1.4s.7-1,.7-1.7c-.3-3.3-.6-6.7-.8-10,0-.6-.5-1.6.5-1.7s1,1,1,1.7c.2,1.8.3,3.5.4,5.3Z" transform="translate(226.47 -2.14)"/><path class="cls-41" d="M833.6,296c1.9-.2,3.9,2.3,3.5,4-.1.4-.4.5-.7.6-.6,0-.8-.3-1-.8s-.3-1.8-1.3-1.4-.5,1.5-.2,2.4a15.56,15.56,0,0,0,2.7,3.5,7.47,7.47,0,0,1,1.7,5.7,2.44,2.44,0,0,1-2.8,2.5c-1.5-.2-3-2.3-2.7-3.6.1-.3.2-.5.5-.5.5,0,1,.1,1.2.6.3.8.5,1.9,1.6,1.3s.7-1.8.2-2.6a17.22,17.22,0,0,0-2.4-3.1,8.37,8.37,0,0,1-2.3-6C831.7,297.2,832.3,296.2,833.6,296Z" transform="translate(226.47 -2.14)"/><path class="cls-41" d="M840.3,303.5c.3,2,.6,4.1.9,6.1.1.6.3,1.1,1,1.1s.7-.6.7-1.1-.1-1.3.9-1.3.8.8.9,1.4c.1,1.4-.3,2.7-1.8,3s-2.5-.6-3.1-1.8a13.09,13.09,0,0,1-.8-4.8c-.2-2.1-.4-4.2-.5-6.3-.1-1.6.1-3.1,2.2-3.3,1.6-.2,2.8,1,3.1,2.9.1.4.3,1-.3,1.2a.9.9,0,0,1-1.3-.6c-.2-.6-.3-1.6-1.2-1.3s-.6,1.3-.6,2a12.89,12.89,0,0,0-.1,2.8Z" transform="translate(226.47 -2.14)"/><path class="cls-41" d="M885.5,302.1a6.83,6.83,0,0,0,2.1,3.7,8.26,8.26,0,0,1,2.3,5.5c0,1.5-.2,3.1-2.1,3.2s-2.6-1.3-3-2.8c-.1-.4-.3-1,.4-1.2a.83.83,0,0,1,1.1.6c.2.7.5,1.7,1.5,1.1s.6-1.5.3-2.2a12.43,12.43,0,0,0-2.5-3.5,8.59,8.59,0,0,1-1.9-5.3,2.48,2.48,0,0,1,1.3-2.6c.9-.5,1.7,0,2.4.6a4.72,4.72,0,0,1,1.2,3.2c0,.3-.3.4-.6.4-.8.1-.8-.6-1-1.1s-.3-1.2-1-1.1C885.4,300.9,885.5,301.6,885.5,302.1Z" transform="translate(226.47 -2.14)"/><path class="cls-41" d="M863.6,305.3c-.2-2-.3-4.1-.4-6.1,0-.5-.4-1.3.5-1.5s1,.7,1.1,1.4c.4,3.5.8,6.9,1.1,10.4.1,1.2.2,2.2,1.8,2,.9-.1,1.5.3,1.4,1.3s-1,.8-1.6.8c-3,.1-3,.1-3.2-2.9-.1-1.8-.3-3.5-.4-5.3A.37.37,0,0,0,863.6,305.3Z" transform="translate(226.47 -2.14)"/><path d="M817.2,304.3c1.3-.8-3.1-4.1-6.3-2.8a7.48,7.48,0,0,0-4.7,6.1c-.2,2-.5,6,2,6.7s-3.3-2.5-.4-8.5S815.9,305.1,817.2,304.3Z" transform="translate(226.47 -2.14)"/><path d="M804,303.6c1.2-1-3.2-2.3-5.5-1.2s-3.9,3.3-3.6,6.8,1.8,6,2.6,5.5-2.9-5.5-.9-8.9S802.5,304.8,804,303.6Z" transform="translate(226.47 -2.14)"/><path d="M917.1,306.7c1.4.5-2.4-4.3-6.6-3.3s-6.8,4.2-6.7,6.9,1.5,7.6,3.7,6.2-4.7-3.6-1.6-8.7S915.1,305.9,917.1,306.7Z" transform="translate(226.47 -2.14)"/><path d="M932.7,308.5c.9-.4-2.7-3.8-5.5-4s-6.8,1.7-6.9,4.7-1.4,6.1,1.1,8.4-1.7-5.8.1-9.6S930.9,309.4,932.7,308.5Z" transform="translate(226.47 -2.14)"/><path class="cls-41" d="M763.7,417.6c1.7-9,3.3-17,5.4-24.9.1-.6,1.1-1.5-.4-1.7-1-.1-2.1-.6-2.5.9a18,18,0,0,0-.6,3.2c-.7,7.2-2.6,14.1-3.7,21.2-.6,3.8-1.1,7.6-1.6,11.4-.1.7-.5,1.8.7,2s1.1-1,1.2-1.7C762.8,424.2,763.3,420.4,763.7,417.6Z" transform="translate(226.47 -2.14)"/><path class="cls-41" d="M809.7,433.4c0,.5-.4,1.1.4,1.1a1,1,0,0,0,1.3-.8c.5-1.3.9-2.6,1.4-3.9a264.13,264.13,0,0,1,13.5-31.5c.3-.5.4-.9-.2-1.1-.8-.2-1.8-.8-2.4.3s-.8,2-1.3,3c-4.5,10.4-8.8,20.9-12.4,31.7A6.81,6.81,0,0,1,809.7,433.4Z" transform="translate(226.47 -2.14)"/><path class="cls-41" d="M756.8,414.7a181.1,181.1,0,0,1,3.9-21.8c.1-.6,1-1.7-.4-2-1.2-.3-1.6.5-1.8,1.6-2.1,9.7-3.7,19.5-4.9,29.3-.3,2.4-.4,4.9-.7,7.4-.1.6-.2,1.3.7,1.4,1.1.2.9-.7,1-1.3C755.4,424.5,756.1,419.6,756.8,414.7Z" transform="translate(226.47 -2.14)"/><path class="cls-41" d="M760.7,413.5c1-5.5,2.3-12.9,4.1-20.1.2-.7,1.2-2-.4-2.3s-1.5.9-1.8,1.9c-1.6,7.8-3.3,15.7-4.5,23.6-.6,4.3-1.1,8.7-1.6,13-.1.7-.4,1.7.6,1.9,1.3.2,1-1,1.1-1.7C759,424.9,759.7,420.1,760.7,413.5Z" transform="translate(226.47 -2.14)"/><path class="cls-41" d="M804.8,434.5c0,.8-.6,1.6.5,1.8s.9-.6,1.1-1.3c2.9-8.8,6-17.6,9.6-26.1,1.5-3.7,3.2-7.3,4.7-10.9.2-.5,1.3-1.1.1-1.6-.9-.3-1.7-.4-2.2.8-1,2.6-2.1,5.1-3.1,7.6-2.4,6.3-4.8,12.5-7.1,18.8C807.1,427.3,805.9,431.1,804.8,434.5Z" transform="translate(226.47 -2.14)"/><path class="cls-41" d="M765.2,420.8c-.5,3.3-1,6.5-1.4,9.8-.1.6-.4,1.5.6,1.7,1.2.2,1-.8,1.1-1.5a274,274,0,0,1,7.4-35.8,4.94,4.94,0,0,1,.5-1.6c.6-1,.2-1.5-.8-1.8s-1.5.2-1.7,1.2c-1,4.7-2.1,9.4-3.1,14S765.9,416.2,765.2,420.8Z" transform="translate(226.47 -2.14)"/><path class="cls-41" d="M800.4,434.8c-.2.5-.1,1,.5,1.1s.9,0,1.1-.8a299.25,299.25,0,0,1,13.7-37.8c.2-.5,1.5-1.2,0-1.7-1.1-.4-1.7,0-2.1,1.2-1.6,4.4-3.3,8.7-4.9,13.1-3,8-5.8,16.1-8,24.4C800.6,434.5,800.5,434.6,800.4,434.8Z" transform="translate(226.47 -2.14)"/><path class="cls-41" d="M768.4,424.2c-.3,2.3-.7,4.6-1,6.9-.1.6-.4,1.5.6,1.6,1.2.2,1.1-.8,1.2-1.4a290.9,290.9,0,0,1,6.9-32.1c.3-1.3,1.6-2.6.1-4-.3-.3-.5-.9-1.1-.8-.4.1-.4.7-.5,1C772.4,405,769.9,414.5,768.4,424.2Z" transform="translate(226.47 -2.14)"/><path class="cls-41" d="M796.2,434.7c.1.4-.5,1,.4,1.1.6,0,1.1.1,1.3-.8a273.77,273.77,0,0,1,12.4-36.4l.9-1.8c.3-.5.8-1.2,0-1.6a1.21,1.21,0,0,0-1.9.5,3.55,3.55,0,0,0-.4.9,385.12,385.12,0,0,0-12.5,37.6A.76.76,0,0,0,796.2,434.7Z" transform="translate(226.47 -2.14)"/><path class="cls-41" d="M778.2,398.5c-1.1,4.3-2.2,8.5-3.1,12.6-1.5,6.6-3,13.2-3.9,19.9,0,.1-.1.3-.1.4,0,.7-.5,1.6.8,1.7,1.1.1.9-.8,1.1-1.4,1.4-4.7,1.7-9.7,2.9-14.4,1.2-5.1,2.4-10.1,3.9-15.1C780.3,400.5,779.7,399.5,778.2,398.5Z" transform="translate(226.47 -2.14)"/><path class="cls-41" d="M794.7,430.7c1.1-4.1,2.4-8.2,3.7-12.3,2.3-7.8,5.1-15.3,8-22.8.2-.5.4-.9-.3-1.1s-1.4-.2-1.8.8c-.8,2.5-1.7,4.9-2.6,7.4-3.5,10.2-6.9,20.4-9.4,30.8-.1.6-.6,1.5.3,1.7,1.2.4,1-.7,1.1-1.4C793.9,432.8,794.9,431.9,794.7,430.7Z" transform="translate(226.47 -2.14)"/><path class="cls-41" d="M754,394.9c-1.6,7.5-2.7,15.6-3.7,23.7-.4,3.4-.5,6.8-.8,10.2-.1.7-.2,1.5.9,1.4s.7-.8.7-1.4a254.9,254.9,0,0,1,5.4-35.9c.1-.7.9-1.7-.5-2s-1.6.6-1.7,1.7C754.2,393.2,754.1,393.8,754,394.9Z" transform="translate(226.47 -2.14)"/><path class="cls-41" d="M745,400.2c-1,8.2-2.1,16.4-2.4,24.7,0,.6-.5,1.7.7,1.8,1.4.1,1-1.1,1-1.8a246.28,246.28,0,0,1,3.4-28.5c.2-1.3.9-2.5.7-3.9-.1-.6.4-1.4-.7-1.5a1.26,1.26,0,0,0-1.6,1.3C745.8,394.9,745.4,397.5,745,400.2Z" transform="translate(226.47 -2.14)"/><path class="cls-41" d="M748.3,405.4a170.53,170.53,0,0,0-2.2,21.4c0,.9-1,2.6.6,2.7s1-1.8,1.1-2.7a262.87,262.87,0,0,1,4.3-31.9,3.16,3.16,0,0,1,.6-1.7c.6-.8.3-1.4-.1-2.1a1.26,1.26,0,0,0-1.3-.3c-.9.2-.9.9-1,1.6C749.6,396.7,748.9,401.1,748.3,405.4Z" transform="translate(226.47 -2.14)"/><path class="cls-41" d="M790.7,429.8c1.2-4.9,2.6-10.2,4.3-15.5,2.1-6.4,4.1-12.9,6.7-19.2.2-.4.7-.8-.1-1.1-.6-.2-1.2-.4-1.7.3a7.54,7.54,0,0,0-.6,1.3c-3.8,11.4-7.6,22.9-10.4,34.6-.2.8-1.2,2.3.2,2.6C790.6,432.9,790.5,431.3,790.7,429.8Z" transform="translate(226.47 -2.14)"/><path class="cls-41" d="M787.6,425c1.6-6.4,3.5-13,5.6-19.5,1.2-3.8,2.6-7.5,4-11.2.4-1-.1-1.1-.8-1a2.18,2.18,0,0,0-1.6,1.5c-3.8,12-7.5,24-10.2,36.3-.2,1.1-1.2,3,.1,3.2,1.6.3.9-1.8,1.2-2.8C786.4,429.4,787.6,427.4,787.6,425Z" transform="translate(226.47 -2.14)"/><path class="cls-41" d="M814.9,432.7c5.7-10.5,10.8-21.2,13.6-32.9C823.2,410.4,818.3,421.3,814.9,432.7Z" transform="translate(226.47 -2.14)"/><path class="cls-41" d="M791.5,395.9a2.65,2.65,0,0,0-2.2,2.2c-2.5,8.2-4.8,16.4-6.7,24.7l-2.1,9.6c-.1.6-.6,1.4.4,1.7s1-.6,1.1-1.3c1.7-10.6,4.7-20.9,7.8-31.2C790.4,399.9,791.5,398.2,791.5,395.9Z" transform="translate(226.47 -2.14)"/><path class="cls-41" d="M785.8,399.2c-2.9,1-2.4,3.7-3,5.7a269.9,269.9,0,0,0-6.2,26.6c-.1.4-.1.8-.2,1.2s0,1,.6,1.1.6-.5.7-1c2.1-9.9,4.1-19.9,7.2-29.6C785.3,401.9,786.1,400.7,785.8,399.2Z" transform="translate(226.47 -2.14)"/><path class="cls-41" d="M740.7,426.1c.7-11.1,2.1-22,3.9-33.3C741,397.1,738.3,420.5,740.7,426.1Z" transform="translate(226.47 -2.14)"/><path class="cls-34" d="M974.4,350.3c1.1,2.4-18.2,160.5-21.4,163.9s-20.4,1.9-23.3.7,20.9-172.3,23.1-174.4S973.5,348.5,974.4,350.3Z" transform="translate(226.47 -2.14)"/><path class="cls-35" d="M960,346.3c.5,1.1-9.1,78.3-10.5,79.9s-9.3,1-10.7.4,10.3-84,11.3-85S959.7,345.4,960,346.3Z" transform="translate(226.47 -2.14)"/><path class="cls-35" d="M973.4,352.2c.5,1.1-9,77.6-10.4,79.2s-9.3,1-10.7.4,10.2-83.2,11.2-84.3S973.1,351.3,973.4,352.2Z" transform="translate(226.47 -2.14)"/><path class="cls-35" d="M948.5,433.7c.5,1.2-9.4,80.7-10.9,82.4s-9.3,1.1-10.7.5,10.7-86.6,11.7-87.7S948.1,432.8,948.5,433.7Z" transform="translate(226.47 -2.14)"/><path class="cls-35" d="M961.8,439.8c.5,1.1-8.5,74.8-10,76.4s-9.3.9-10.7.3,9.8-80.3,10.8-81.3S961.4,438.9,961.8,439.8Z" transform="translate(226.47 -2.14)"/><path class="cls-34" d="M777,376.1l-.5-5.1a7.43,7.43,0,0,1-4.6-.7c-2.2-1.1-3-7-2.3-15.3s2.1-12.8,3.4-14.5,7.9-.2,7.9-.2l.5-3.6s-2.6.9-2.2-3.6,3.3-3.7,3.3-3.7l3.6-9.8.5,4.2-4.7,25.4Z" transform="translate(226.47 -2.14)"/><path class="cls-34" d="M1509.9,667.3s4.5,6.4-12.9,20.6-39.9,15.2-47,19.8-21.1,25.9-37.6,18.8-27.5-25.7-54.5-35.4-55.9-7.7-55.9-15.4-6-79.9-6-121.1c0-28.3,16.4-53.6,57.3-53.6S1509.9,667.3,1509.9,667.3Z" transform="translate(226.47 -2.14)"/><path class="cls-35" d="M1314.4,512.1a635.16,635.16,0,0,0-1.7,69.4c1.3,35.3,4.7,70.5,6.9,73.9a13.19,13.19,0,0,0,4.7,4.7s20.2,10.3,39.5,16.7,62,22.6,68.7,16.8c3.5-3,73.9-15.1,75-35.1,1-18.8-2-121.1-2-145.6,0-50.5-67.2-12.3-67.2-12.3l-26.5-12.1-80.6,8.6Z" transform="translate(226.47 -2.14)"/><path class="cls-33" d="M1504.6,515.6s3.4,5.1,14.4,6.2,7.1-.7,10.7-.4,3.7,3.2,9.3,3.7,9.2-.6,9.3-3.6-3.7-10.3-3.7-10.3l-37.1-14.7-7.2,10.6Z" transform="translate(226.47 -2.14)"/><path class="cls-33" d="M1436.5,511s-1.9,45.7,0,50,1.4,3,6.6,4.7,51.9.9,54.5,0,3.4-38.6,2.6-44.2-3.9-18.4-3.9-18.4l-58.8-6Z" transform="translate(226.47 -2.14)"/><path class="cls-36" d="M1314.4,512.1s4.3-15,10.3-22.7,12.8-8.6,12.8-8.6.1-12.9,3.1-15.9,37.3-12.4,42.9-13.1,23.2,6.4,26.8,7.3,27.7-.4,44,3.6,35.5,12.9,38.6,14.2,54.7,27,55.8,29.2,2.9,7.7,1.3,10.3-2.1,3.6-3.6,1.9-4.9-3.9-8.3-5-5-1-6.1.9.1,5.3-1.7,5-2-6.7-3-8.4-5.7-4.7-9.3-6-7.7-2.9-9.3-1.4-1.6,8.9-3.1,9.7-12.2-1.6-24.7-4.7-32-6.7-36.6-4.1-4.7,7.3-7.6,6.9-7.3-8.1-12.9-10.9-12.3-3.4-18.6-3-29.9.6-49.6,3.4C1335.6,503.3,1326.2,509.6,1314.4,512.1Z" transform="translate(226.47 -2.14)"/><path class="cls-37" d="M1419.2,579.2c-.1,2.9-16.7,3.4-33.5,2.3s-25.7-2.2-25.4,0,16.4,3.1,25.4,3.4,30.9-.6,31.2,3.2-20.3,3.8-33.5,2.7-21.9-2.7-23.2-2.1-10.9-1-14.8-1.3-7.7-1.5-8.7-2.2-20.8-1.2-24.2-3.8-1.1-5,2.4-4.9,10.3,2.9,14.6,3.6,6.7.3,6.9-1-4.9-2.6-11.3-3.3-14.1-2.1-14.3-4.4,14.2,0,20.2.6,8-.1,10-.1,20.2,1,20.6,1.6,16.4,1.7,29.9,2.3S1419.4,574.8,1419.2,579.2Z" transform="translate(226.47 -2.14)"/><path class="cls-39" d="M1409.1,625.4c1.8.6,4-5.7-.7-13s-14.6-7-18.2-4.4-5.6,10.2-3.7,16.9,6.7,10.7,8.1,11,5.4.6,5.6-1.3-3.1-1.6-6.6-4.7-5.9-10.7-5-15.2,8-6.6,11.4-4.1,7.4,4.9,7.6,7.9S1407.1,624.6,1409.1,625.4Z" transform="translate(226.47 -2.14)"/><path class="cls-39" d="M1323.8,610.8c1,.4,1.5-5.6,0-10.5s-3.2-6.9-5.4-6.6-3.2,9.8-2.8,12.6,1.5,10.7,4.5,11.6,2.1-1.1,1.5-2.8-2.1,1.8-4.1-4.4-.3-13.7.2-14,2.4-2.1,3.6,1.1,2.5,6.4,2.4,8.1S1322.8,610.4,1323.8,610.8Z" transform="translate(226.47 -2.14)"/><path class="cls-38" d="M1330.2,619.1s-.9,1.3,2.6,3.2,10.1,3.6,11.2,3.2,1.9-4.1,1.5-6.4.5.2-1.5,3.2C1342,625.5,1330.2,619.1,1330.2,619.1Z" transform="translate(226.47 -2.14)"/><path class="cls-38" d="M1355.6,625.6l14.7,3.5s1.7.9,2.9,0,1.2-7.6,1.1-8.9,1.7,6.4,1.3,9.3-1.6,3.3-3.1,3.3-15.1-3.3-16.3-4.7A2.26,2.26,0,0,1,1355.6,625.6Z" transform="translate(226.47 -2.14)"/><path class="cls-33" d="M1305.8,645.5s19.6,12.9,49.7,21,55,17.2,63.8,17.2,13.7-.9,16.4,5.6.5,6.9-7.6,9.4-52.1-12.9-80.5-24-40.9-18-41.7-21.4A19,19,0,0,1,1305.8,645.5Z" transform="translate(226.47 -2.14)"/><path class="cls-34" d="M1442.6,669.1s26.2-3.9,38.2-9,21-12.9,22.3-11.6-15,12.9-27.4,16.3S1448.2,671.3,1442.6,669.1Z" transform="translate(226.47 -2.14)"/><path class="cls-33" d="M1320.1,520.9s-.3,7.3,1.6,12.2a40.41,40.41,0,0,1,3,14c.2,5.1,11.2,5.7,11.2,5.7l11.9-25.4L1343,521h-22.9Z" transform="translate(226.47 -2.14)"/><path class="cls-36" d="M1424,557s.3,3.5-4.8,6.1-59.2,1.3-61.4,0-1.3-9.7-4.5-9.7-2.6,8-7.7,9.3-22.9,1.9-25.8-1.3,16.4-36.3,23.2-40.5,42.9-7.4,42.9-7.4l35.9,8.7Z" transform="translate(226.47 -2.14)"/><path class="cls-34" d="M1424,557c1.6,1.3,1.3-32.5,0-37.8s-6.1-8.2-10-9.5-41.4.6-48.5,1.3-42.8,6.8-45.4,10,9.3,3.2,19.6,2.3,23.8-5.5,34.4-6.1,33.9,5.2,42.1,5.5C1424.5,522.8,1420.5,554.1,1424,557Z" transform="translate(226.47 -2.14)"/><path class="cls-39" d="M1402.2,483.9c4,2.8,3.9-9.3,0-10.3s-26.1,1.6-43.7,5.1-31.3,11.3-33.7,14.5-3.9,9.6-1.8,11.2,5.3-3.8,5.6-7.4,10.3-10.3,22.5-13.2,37.3-8.4,43.7-7.1S1399,481.7,1402.2,483.9Z" transform="translate(226.47 -2.14)"/><path class="cls-42" d="M1385.8,455.3c4.3.7,3.3,7.7,0,10.3s-42,13.6-45.1,12.5-3.2-8,0-10.3S1380.1,454.3,1385.8,455.3Z" transform="translate(226.47 -2.14)"/><path class="cls-42" d="M1487.7,483.3s-18-1.5-25.1-5.1-4.6-2.4-4.4-4.8,7-4.9,11.5-3S1483,477.9,1487.7,483.3Z" transform="translate(226.47 -2.14)"/></g><g id="Mushrooms_Back" data-name="Mushrooms Back"><path class="cls-43" d="M1071,830.1a121.92,121.92,0,0,1-3.4,16.8c-2.2,6.7-8.5,18.1-10.1,19s-9.6-.7-13.9-2.1-11.8-6.3-12.3-9.1,9.5-8.7,15.6-15.2a59.61,59.61,0,0,0,10-15.3l9.1-11.9Z" transform="translate(226.47 -2.14)"/><path class="cls-44" d="M1037.5,810.8s-2.3,1.5,4.1,6.5,24.7,9.5,26.8,10.9,10.3,8.1,16.1,8.7l-17.3-29.7Z" transform="translate(226.47 -2.14)"/><path class="cls-7" d="M1037.5,810.8c-.9,3.7,7.6,5.7,11.8,6.8s8.9-3.4,14.2-1,13.9,20.1,20.9,20.4,8.2-13.7,6.6-17.2-7.8-14.4-18.5-18.9-19.9-3.4-23.7-1.7C1045.2,800.9,1039,804.4,1037.5,810.8Z" transform="translate(226.47 -2.14)"/><path class="cls-43" d="M917.4,783.6s-3.8,17-1.4,28.8,15.4,38.1,18,39.5,7.9,2.6,14.5,1.5,8.8-4.8,9.5-6.8-18.2-17.4-23.9-35.1-1.6-30.5-1.6-30.5l-8.2-9Z" transform="translate(226.47 -2.14)"/><path class="cls-8" d="M887.2,776s2.4,8.4,10.9,10,28.4-5.7,34.4-5,25.8,1.6,35.6-1l-25.5-13.2Z" transform="translate(226.47 -2.14)"/><path class="cls-45" d="M887.2,776c3.6,6.7,9.6,7.6,18.1,7.6s24-8.9,34.3-7.6,24,6.8,28.4,4,.2-16-17.1-21.7-23.8-9.9-37-7.5S884.2,770.6,887.2,776Z" transform="translate(226.47 -2.14)"/><path class="cls-43" d="M1023.1,880.6s3.7,5.5-.4,14-8.4,13.2-6.6,16.7,18.1,9.4,24.1,9.7,20.8-1.7,20.7-4.7-.5-20.1-3.1-24.8-12.1-14.1-12.1-14.1L1031,865.8Z" transform="translate(226.47 -2.14)"/><path class="cls-46" d="M1061.8,865.6s-.3,11.7-5.2,12.4-15.7-2.4-23.8,0-24.6,6.8-32.5-.2l28-21Z" transform="translate(226.47 -2.14)"/><path class="cls-47" d="M1000.3,877.8c3.1,5,24.5.7,27.4,0s18.5-4.5,22.2-3.5,12-1.8,12-8.7-6.1-13.8-15.9-13.8-17.8-7.7-24.8-6.3-19.5,14.5-20.8,19.2S997.8,873.6,1000.3,877.8Z" transform="translate(226.47 -2.14)"/><path class="cls-43" d="M922.4,873.1s-1.9,15.2,2.3,25.1,16.7,23.8,16.4,29.9-11.5,16.2-19.1,15.8-26.9-1.3-30-6.3-8.5-27.5-8.5-40.7,10.2-28.3,10.2-28.3l12.4-22Z" transform="translate(226.47 -2.14)"/><path class="cls-48" d="M955.9,861.3s-7.2,16.8-21.1,17.1-52.2-8.4-60.5-8.5-29.4-6.1-29.6-18.9l61.4-5.4Z" transform="translate(226.47 -2.14)"/><path class="cls-49" d="M960.2,851.9c-3.4,11.4-13.5,23.5-25.8,21s-36.5-6.7-52.8-5.5-40.6-8-36.5-22.2,21-27.8,41.4-30.2c15.9-1.9,46.4,9.8,54.1,14.1S962,845.7,960.2,851.9Z" transform="translate(226.47 -2.14)"/><path class="cls-43" d="M1053.6,919.8s-3.2,15.2-2.1,23.1,6.9,20,10.2,22.6,11.2,3,19.6,2.6,16.3-5.2,16.5-7.3-13.3-11.8-19.6-20.9a34.89,34.89,0,0,1-6.2-18.4l-8.3-14.1Z" transform="translate(226.47 -2.14)"/><path class="cls-4" d="M1017.5,913.5s27.8,10.8,44.4,11.3,41-4.6,40.8-15.9l-43.3-6.3Z" transform="translate(226.47 -2.14)"/><path class="cls-50" d="M1102.7,908.9c-1.1,6.4-13.9,11.3-27.7,11.7s-30.4-6.7-34.9-6.2-18.1,4-22.6-.9,1.7-16.6,19.3-22,34.5,6.7,43.1,6.3S1103.8,902.6,1102.7,908.9Z" transform="translate(226.47 -2.14)"/><path class="cls-43" d="M759.2,781.1s9,18.9,6.7,26.4-9.2,28.9-15.5,30.5-26.6,2.6-30.3,0,12-24.2,14.6-32.5-.9-22.5-.9-22.5l3.7-26.1Z" transform="translate(226.47 -2.14)"/><path class="cls-48" d="M780.7,778.6S746,783,733.8,783s-33.5-2.2-43-2.2-11.8-4.3-11.4-11,58.1-12.9,58.1-12.9Z" transform="translate(226.47 -2.14)"/><path class="cls-3" d="M730,736.1c23-7,38.8,5.2,50.8,7.2s23.5,7.4,21.5,14.5-13.6,25.8-33.5,20.6-50.3-5.1-59.7-2.3-32.1,3.2-29.7-6.2,25.5-19.1,29.7-21.3S715.3,740.5,730,736.1Z" transform="translate(226.47 -2.14)"/><path class="cls-43" d="M797.8,814.6s-6.3,12-5.2,25.7,7.1,34.4,9.6,37,26.8,2.6,29.6,0-12.7-23.2-16-37.6,3.8-28.2,3.8-28.2Z" transform="translate(226.47 -2.14)"/><path class="cls-44" d="M858.6,800.9s-8.3,14.9-19.8,16.5-34.1-1-39.3,0-29.1,2.3-33.5-3.7l44-19.3Z" transform="translate(226.47 -2.14)"/><path class="cls-7" d="M858.6,800.9c-2.6,8.6-21.4,10.5-27.4,10.6s-25.7-3.2-35.3-3.1-22.7,8.3-30,5.2-6.3-21.4,0-22.7,25.2-4.8,34.6-7.8,22.5-3.3,35.6,0S861.2,792.3,858.6,800.9Z" transform="translate(226.47 -2.14)"/><path class="cls-51" d="M1280.1,855.7s3,9.7,2.1,16.3-10.3,21.1-8.5,22.8,18.6,6.2,22.8,3.7,6.6-20.9,5.7-26.4-8.7-19.6-8.7-19.6Z" transform="translate(226.47 -2.14)"/><path class="cls-51" d="M1345.7,810.2s5,13,4.5,22.9-13.4,34.5-11.4,38.7,21.6,11.1,29.8,9.3,6.8-43.2,4.7-55.9-7.6-19.2-7.6-19.2Z" transform="translate(226.47 -2.14)"/><path class="cls-52" d="M1301.8,799s5.4,14.6,30.6,12.5,33.7-4.8,51.5-5.5,22.2,5.2,33.3-2L1359,790.1Z" transform="translate(226.47 -2.14)"/><path class="cls-53" d="M1298.8,788.6c0,7.7,9.6,20.9,25.2,19.3s23.3-8.8,34.9-8.1,56.5,9.9,58.2,4.3-12-22.3-44.4-23.6-38.6,3.3-48.6,4.4C1314,785.8,1298.8,778.3,1298.8,788.6Z" transform="translate(226.47 -2.14)"/><path class="cls-54" d="M1432.9,760.2s16.7,26.4,9.9,46-41.2,64.4-35.3,78.2,59.4,25.8,69.7,22.5,38.8-87,32.6-104.5-23-47.8-23-47.8l-37.5-33.3Z" transform="translate(226.47 -2.14)"/><path class="cls-55" d="M1325.9,756.4s60.9,10.9,81.6,7.5,89.8-13.8,112.1-6.2,65.9,11.7,69.7,1.8l-87.4-47.8Z" transform="translate(226.47 -2.14)"/><path class="cls-56" d="M1441.4,687.4c81.4-13.8,118.8,12.1,132.7,17.8s34.9,62.9,0,58.8-73-25-116.1-20.2-107.6,16-132.1,12.7S1357.6,701.6,1441.4,687.4Z" transform="translate(226.47 -2.14)"/></g><g id="Mushrooms_Middle" data-name="Mushrooms Middle"><path class="cls-22" d="M476.9,652.7S457.7,692,463.4,718s73.8,95.6,64,113.7-136.9,49.8-152.8,37.8-32.9-72.7-29.3-123.4,51-108.3,51-108.3l45.7-51Z" transform="translate(226.47 -2.14)"/><path class="cls-57" d="M297.6,597.6s42.6,42.2,77,39.9,80.8,11.9,102.2,15.2,81.8,8.8,100.1-10.5L454,556.2Z" transform="translate(226.47 -2.14)"/><path class="cls-58" d="M509.2,536.4c54.4,7.4,83.4,37.1,91.2,59.2s-26.7,63.6-54,53.8-64.9-42.3-99.8-42.9-58.2,30.1-123,7.1-14.8-66.2,42.1-78.4S457.1,529.2,509.2,536.4Z" transform="translate(226.47 -2.14)"/><path class="cls-54" d="M586.3,728.1s-20.6,19.3-23.1,36.4,22.7,74.6,12.6,83.3-94.1-1.3-100.9-12.2-3.2-51.4,10.6-81.2,55.6-53.7,55.6-53.7l39.3-20.3Z" transform="translate(226.47 -2.14)"/><path class="cls-59" d="M490.7,653.8s16,35.2,37.4,41.7,46.1,25.7,58.2,32.6,47.4,24,62.9,16.6l-54.6-80.1Z" transform="translate(226.47 -2.14)"/><path class="cls-60" d="M632.5,665.4c31.1,16.9,41.8,41.5,41.5,56.7s-30.7,32.3-44.9,20.1-29.5-40.4-50.4-48.8-42.1,4.8-75.9-23.9,6.2-43.4,43.4-37.7S602.6,649.1,632.5,665.4Z" transform="translate(226.47 -2.14)"/><path class="cls-22" d="M1614.5,320.3s43.6,56.4,48,107-12.8,173.9,5.9,204.5,105.2,36.1,117.8,23.8-7.3-227.5-29-267-68.4-105.4-68.4-105.4l-78.9-63.9Z" transform="translate(226.47 -2.14)"/><path class="cls-61" d="M1456.1,358.3s96.6-.5,124.2-17.7,120.4-72.9,158.5-64.3,104.4-.6,102.6-26.4l-162-77.1Z" transform="translate(226.47 -2.14)"/><path class="cls-62" d="M1573.5,140.5c108.2-69.2,181.6-22.9,206.1-15.3s96.8,136.8,43,142.1-124.5-28.4-183.7,2.3-144.8,86-182.8,88.8S1462,211.8,1573.5,140.5Z" transform="translate(226.47 -2.14)"/><path class="cls-22" d="M1693.9,570.5s17.5,38.7,24.3,67,9.3,82.8,5.3,89.3-35.7,18.5-53.7,22.7-55.5,3.3-63.5-5.5,14.7-51.4,22.3-87.9,2.2-75.8,2.2-75.8l6.6-62Z" transform="translate(226.47 -2.14)"/><path class="cls-63" d="M1533.1,574.7s-4.7,10.4,28.7,14.2,108.3-19.9,118.7-19.5,54.2,6.2,75.9-4.1l-126.1-67.7Z" transform="translate(226.47 -2.14)"/><path class="cls-64" d="M1533.1,574.7c5,15.1,39.5,3.8,56.7-1.7s24.2-31.4,48-34.5,93.2,41,118.6,26.9-.9-66.6-14.1-75.3-58.9-34-106.6-26.7-78.1,31.2-87.8,45.7C1538.7,522.8,1524.6,549,1533.1,574.7Z" transform="translate(226.47 -2.14)"/><path class="cls-22" d="M123.6,496.6s-21.8,20.7-28.1,38.5-33.8,94.6-28.4,106,30.7,28.1,55,34.2,42,5.7,52.8-5.5-7.2-61.9-5-92.4S202,504.8,202,504.8l-29.1-52.2Z" transform="translate(226.47 -2.14)"/><path class="cls-65" d="M291.8,478s-29.3,40.3-43.4,43.4S214.9,510.9,202,505s-55.1-.8-78.4-8.3S53.8,460.3,54.5,437l129.3-41.8Z" transform="translate(226.47 -2.14)"/><path class="cls-66" d="M55.2,413.6c-7.2,34.6,12,52.1,33.3,56.8s54.9-9.5,79.9-3.2,68.1,46.2,91.1,37.3,56.3-48.2,42.2-71.6-59.5-84.2-101.2-85.4-74.3,22.8-94.5,29S60.4,388.3,55.2,413.6Z" transform="translate(226.47 -2.14)"/><path class="cls-22" d="M338.2,568.9s19.4,40.7,14.4,56.7-19.7,62.3-33.3,65.6-57.2,5.6-65.3,0,25.9-52,31.5-70-2-48.3-2-48.3l7.9-56.2Z" transform="translate(226.47 -2.14)"/><path class="cls-67" d="M384.5,563.5s-74.8,9.5-101,9.4-72-4.8-92.6-4.7-25.4-9.2-24.6-23.7,125.1-27.8,125.1-27.8Z" transform="translate(226.47 -2.14)"/><path class="cls-68" d="M275.3,471.9c49.4-15.1,83.5,11.2,109.4,15.4s50.7,16,46.2,31.2-29.4,55.6-72.2,44.2-108.2-11.1-128.5-5-69.1,6.9-63.9-13.3,54.9-41.2,63.9-45.9S243.7,481.6,275.3,471.9Z" transform="translate(226.47 -2.14)"/></g><g id="Road_Front" data-name="Road Front"><path class="cls-69" d="M1770.6,1516.9-60,1501-72.1,607S220,687.6,342.1,780.6,565.7,995.7,765,1002.7s448.2-106.2,614.2-175.6,412.3-85.6,412.3-85.6l20,157.3Z" transform="translate(226.47 -2.14)"/><polygon class="cls-10" points="215.07 625.16 1235.67 1322.66 1317.87 1322.66 1317.87 994.66 215.07 492.26 215.07 625.16"/><polygon class="cls-70" points="1317.87 1132.76 215.07 550.46 215.07 565.66 1317.87 1178.46 1317.87 1132.76"/></g><g id="Bison"><path class="cls-71" d="M1144.5,928.8S1159,942,1159,947.1s5.5,7.4,8.7,9.3a20,20,0,0,0,11.2,2.9c3.8-.3,5.1-14.7,8-17.6s4.5.6,8.3-1.6,1.9-18,5.8-20.8,12.2-8,16.4-4.8-1.3,18.9,0,27.6,3.2,23.7,0,30.5-8.3,22.8-8.3,22.8,10.9,1.6,13.8,0a75.11,75.11,0,0,0,8-5.8s-.6-17.3,0-19.9,9.9-2.6,15.4-11.5,3.2-36.9,3.2-36.9l-2.6-31.4-53.2-5.1-32.1,20.5Z" transform="translate(226.47 -2.14)"/><path class="cls-72" d="M1476.6,858.4s15.4-78.7-8.5-101.7-45.3-26.5-52.2-25.6-23.9-.9-41-5.1-49.6-18.8-81.2-20.5-71.8,12-82.1,19.7-28.2,56.8-28.2,56.8-31.6-1.6-43.6,5.6-6.4,19.7-6.8,26.5-6,29.5-5.6,33.8,5.6,6.8,6,14.1,3.8,25.6,2.6,34.6-7.7,15.8-4.7,23.1,11.1,9,19.7,10.7,16.2-3.4,15-15.4,2.6-11.1,3.8-3.4-3,16-.4,19.1,22.7-5.9,27.4-14,2.6-20.9.9-24.4,4.7,1.3,11.5,3.4,11.5-.4,15.8.4,7.3,15.4,20.1,22.7,24.8,10.3,32.5,7.7,14.5-25.2,30.3-23.9,8.5,32.5,13.7,38,29.5,12.8,32.9,11.1,6.4-26.1,6-32.1-4.7-18.8-3.4-20.5,9.4,3.4,20.1-.9,24.4-22.7,30.3-23.1,9.8,13.3,16.7,21.4,14.1,12.8,15.4,15.8,4.3,37.2-1.7,47a267.25,267.25,0,0,0-12.4,23.9,22.42,22.42,0,0,0,12.8,0,24.29,24.29,0,0,0,10.3-6s.4-15.4,1.7-23.1,10.7-26.1,12.4-36.8,1.8-13.6,1.8-13.6-9.9-13.1-13.7-18.2-4.7-15.2-3-16,11.5,10.6,15.3,13.6,9,10.9,10.3,13.5,1.3,24.6-.4,35.7-6.4,21.4-5.6,31.2,1.3,22.7,1.3,22.7,12.4-.4,17.1-3.4,4.3-13.7,4.3-13.7a96.78,96.78,0,0,1-8.5-26.1c-2.1-13.7,9.8-48.3,11.5-56.4s0-13.3,0-13.3Z" transform="translate(226.47 -2.14)"/><path class="cls-71" d="M1257.8,860.2s2.9-10.1,2.9-14.5.3-11.5,7.1-12.1,9.9,6.7,13.5,9.9-.3,7.7,4.2,12.5,17.3-2.6,22.1,1.9,1.3,15.4,6.1,20.2,18.9,11.5,22.8,21.2,19.2,28.2,19.2,32.7,1.9,23.1-2.2,25.6-13.5-4.8-13.5-4.8-.2,9.6,2.8,16.7,6.8,16.7,6.8,16.7a42.62,42.62,0,0,1-8.3,6.1c-5.1,2.9-12.2,3.6-12.2,3.6s-1.6-15.1-1.9-25.4a152.78,152.78,0,0,1,1.3-21.8s-9-1-10.3-6.1-.1-25.8-3.8-32.7-16.7-6.7-18.3-.6-2.2,26.7-9.6,31-13.1-6-19.2-7.9-10.3-9.3-9.3-12.2,11.9,7.1,17,4.2,8.3-12.2,3.8-18.3-17.9-5.1-21-8.7,1.5-8.7,0-12.8-18.8-2.2-22.3-11.9,1-12.8,5.8-12.5C1245.9,860.5,1256.4,865.5,1257.8,860.2Z" transform="translate(226.47 -2.14)"/><path class="cls-71" d="M1329.6,806.6S1348.8,821,1356,830s11.1,24.7,14,26.6,17.3-3.8,23.4,1.9,10.3,18.6,8.7,23.4-11.2,6.7-16,10.3-10,12.5-13.5,12.5-10.9-9.6-10.9-16.7-6.7-8.3-9-12.5,1-9.6-.3-19.9-17.2-13.1-16.4-19.2C1338.6,817.9,1323.8,806,1329.6,806.6Z" transform="translate(226.47 -2.14)"/><path class="cls-71" d="M1431.9,816.9c3.2-.1,4.8,12.4,2.9,16.6s-2.8,5.8.8,8.1.5,11.8,4.9,14.1,11.5-.9,16.7,4.5,7.7,17.3,12.5,21.5,17.6,8.7,16.7,12.8-.6,14.4-3.2,13.1-1.6-9.9-3.8-9.9-.5,12.8-3.2,12.8-3.8-6.7-4.2-12.8-8.8-6.1-12.8-12-7.5-14.5-10.3-14.1,2.5,12.6,6.6,16.4,9.7,8.4,9.7,8.4,2.1,11.8,1.4,13.6-5.3,9.3-7.3,9.3-4.8-12.5-7.4-12.5,2.1,12,.2,13.7-4.1,10.3-7.1,10.3-5.3-15.2-7.4-16.8-15.1-13.2-16.2-15.3-1.9-6.6-4-9.1-7.4-5.8-8.2-8.8-.3-9.3,7.7-11.5,15.5-3.5,14.3-10.7-4.8-7-6.1-12.7-1.9-12.6.6-15.6C1428.2,827,1428.2,817.1,1431.9,816.9Z" transform="translate(226.47 -2.14)"/><path class="cls-71" d="M1141.7,902.2c7.6-1.3,14,3,14.4,6.4s-12.8,8-16.7,8-8.6-5.2-7.2-8.8S1135.9,903.1,1141.7,902.2Z" transform="translate(226.47 -2.14)"/><path class="cls-71" d="M1149.7,876.5c5.5-.2,15.1,2.6,14.4,8s-1.9,9.3-5.1,9.6-4.2-4.8-9.3-5.5-13.5-1.4-14-6.3C1135.2,877.6,1142,876.9,1149.7,876.5Z" transform="translate(226.47 -2.14)"/><path class="cls-71" d="M1180.8,864.4c3.5.2,10.3.3,10.3-2.6s-4.8-1-7.7-1.6-7.1-5.5-7.4-2.9S1177.9,864.2,1180.8,864.4Z" transform="translate(226.47 -2.14)"/><path class="cls-71" d="M1194,853.1c2.1,1.5,5.8,3.8,9.6,0s1.9-10.9,5.8-14.4,13.1-10.3,12.5-14.4.6-14.2-8.3-17.7-14.1,6.8-12.8,12.2,2.6,9.6-1.3,10.3-1.6-6.7-5.5-7.1-11.9,4.8-10.4,8.6,4.7,6.4,7.5,5.8,5.8,6.3,4.5,9.2S1190.9,851,1194,853.1Z" transform="translate(226.47 -2.14)"/><path class="cls-71" d="M1183.4,781.8s10.7-1.5,13.8,0,4.8,4.7,8.9,4.7,2.2-20.8,4.8-25.3,8.7-8,8.7-11.5-1.6-9.6,0-11.2,7.4-3.2,2.3-7.1-12.3,4.3-16.4,6.4-9,5.1-11.5,10.3-2.6,17.6-5.5,21.2S1181.5,779,1183.4,781.8Z" transform="translate(226.47 -2.14)"/><path class="cls-73" d="M1129.3,772.5s-5.6,8.3-5.6,13-.8,12.8,1.3,16.2a32,32,0,0,0,5.1,6.1l5.6,9.5-6.1,7.3s-7.9-7.7-11.6-13.5-3.8-19.2-.4-25.6S1129.3,772.5,1129.3,772.5Z" transform="translate(226.47 -2.14)"/><path class="cls-71" d="M1147.8,792.5a65.32,65.32,0,0,0-3.7,13.4c-.8,6.2-5.6,13.9-6.2,17.7s1.9,19.4,1.3,22-.5,12.4-3.5,12.6-11.6-3.2-11.9-10.3,3.8-10.8,4.8-17.4,2.6-13.2,2.6-17-5-17.2-.6-21C1134.8,788.7,1144.9,786.6,1147.8,792.5Z" transform="translate(226.47 -2.14)"/><path class="cls-73" d="M1205.2,779.3s16.7,6.2,20.9,15.2,2.5,20.7-2.2,26.5-14.1,10.9-16.9,9.6-6-8.5-4.5-13.4,17.3-8.2,18-12.1-5.1-16.3-7.3-18.6A99.36,99.36,0,0,0,1205.2,779.3Z" transform="translate(226.47 -2.14)"/></g><g id="Mushrooms_Front" data-name="Mushrooms Front"><path class="cls-22" d="M1709.9,704.9s11.8,30.2-2,77.2-27.9,72.7-22.3,91.8,58.2,52.3,77.4,54.5,67.2-8.9,67.3-25.5-.6-110.7-8.7-136.7-38.2-78.1-38.2-78.1l-46.9-64.4Z" transform="translate(226.47 -2.14)"/><path class="cls-67" d="M1835.6,643.3s-1.2,33.4-17.1,35.2-50.7-7.5-76.8-.8-79.6,18.7-105.2-1.7l91.1-58.8Z" transform="translate(226.47 -2.14)"/><path class="cls-68" d="M1636.5,676.1c9.8,14.4,79.3,2.8,88.4.9s59.8-12.2,71.8-9.2,38.7-4.6,38.9-24.4-19.3-39.4-51-39.7-57.3-22.5-80.1-18.6-63.4,40.8-67.6,54S1628.4,664.1,1636.5,676.1Z" transform="translate(226.47 -2.14)"/><path class="cls-22" d="M1733.6,856.7s17.9,23.6,21.1,41.9,17.8,97.4,10.8,107.6-34.3,22.4-59,24.5-41.7-1.2-50.4-13.7,16.9-59.1,19.6-89-19.7-75.7-19.7-75.7l36.6-46.1Z" transform="translate(226.47 -2.14)"/><path class="cls-61" d="M1573.1,811.7s22.1,43.8,35.3,49.1,34.3-4.8,47.7-8.6,53.7,8,77.6,4.5,73.7-24.2,76.7-47l-119-61.3Z" transform="translate(226.47 -2.14)"/><path class="cls-62" d="M1813.4,786.8c1.4,34.8-19.9,48.8-41.5,49.9s-51.8-18-77.2-15.9-73.6,34.1-94.6,21.7-47.1-55.8-29.6-76.4,71.2-72.3,112-66.9,68.6,34,87.2,43.3S1812.3,761.4,1813.4,786.8Z" transform="translate(226.47 -2.14)"/><path class="cls-22" d="M1545.7,881s10.5,19.6,12.6,49.1-12.5,90.8-4.5,103.7,37.2,15.3,48.2,15.3,36.9-15.2,40-23.9-13.4-90.1-22.1-115-32.2-54.6-32.2-54.6Z" transform="translate(226.47 -2.14)"/><path class="cls-65" d="M1491.3,869.4s1.2,17.9,30.1,16.4c40-2.1,46-8.6,66.9-5.9s66.5,18.7,80.5,13.1,23.1-23.5,21.6-37.8l-110.1-16.4Z" transform="translate(226.47 -2.14)"/><path class="cls-66" d="M1556.2,814.5c51.6.6,106.1-18.6,121.1.4s21.9,61.8-5.5,66.5-65.7-10.3-98-7.3-82.8,17.5-82.5-4.7S1516,814,1556.2,814.5Z" transform="translate(226.47 -2.14)"/><path class="cls-22" d="M350.5,870.8s2.6,27.6.7,46.5-11.9,53.1-15.7,56.2-26,3.8-38,2.5-34.9-9.8-38-16.9,20-28.6,32.5-49.5,17.5-46.3,17.5-46.3l17.3-36.8Z" transform="translate(226.47 -2.14)"/><path class="cls-67" d="M250.4,839.1s-5.2,5.4,14.7,14.9,71,10.8,77.4,13.3,32.1,15.3,47.7,13.7l-63.3-68.6Z" transform="translate(226.47 -2.14)"/><path class="cls-68" d="M250.4,839.1c-.1,10.4,23.5,10.8,35.4,11.1s21.6-14.2,36.9-11.1,48.7,45.2,67.4,41.9,13.7-41.2,7.3-49.5-29.1-33.5-60.1-39.2-54.8,2.6-63.9,9.5C264.9,808.3,250.6,821.4,250.4,839.1Z" transform="translate(226.47 -2.14)"/><path class="cls-22" d="M225.1,883.3s10.7,21.1,10.7,35.9.3,78.9-6.7,86-30.1,12.8-49.7,10.9-32.6-6.8-37.7-17.9,21.6-44,27.9-67.1-4.8-62.2-4.8-62.2l35.3-31Z" transform="translate(226.47 -2.14)"/><path class="cls-61" d="M105.4,825.4s11.2,37.5,20.8,43.5,27.6,1,38.7,0,41,13.8,60.2,14.4,61.3-8.6,66.8-26.1l-84.8-64.8Z" transform="translate(226.47 -2.14)"/><path class="cls-62" d="M297.6,839.7c-3.8,27.5-22.5,35.5-39.6,33.3s-38.1-21.4-58.4-23.3-62.5,16.4-77.3,3.7S93.2,803,109.8,789.3s66.1-46.8,97.3-36.7,49.1,36.3,62.4,46.2S300.3,819.6,297.6,839.7Z" transform="translate(226.47 -2.14)"/><path class="cls-22" d="M-5.2,678.4s-6.8,16.9-6.1,41.2S5.5,793,.2,804.2-28,819.7-36.6,820.6s-30.3-9.5-33.4-16.4,3.7-74.8,8.7-96S-40.2,661-40.2,661Z" transform="translate(226.47 -2.14)"/><path class="cls-57" d="M-111,661.6s0,15.5,24.9,16c34.7.6,40.2-4.6,58.1-1s56.2,20.2,68.6,16.2S62,674,61.6,661.6l-93.9-20.9Z" transform="translate(226.47 -2.14)"/><path class="cls-58" d="M-51.7,618.2c44.5,3.7,92.6-9.5,104.4,7.8s15.1,54.6-8.8,57-56-12.9-84-12.3-72.5,10-70.9-9.1S-86.3,615.4-51.7,618.2Z" transform="translate(226.47 -2.14)"/><path class="cls-22" d="M34.6,756s20.9,32.9,12.3,57.4-51.4,80.3-44,97.5S77,943,89.8,939s48.4-108.5,40.7-130.3-28.7-59.6-28.7-59.6L55,707.6Z" transform="translate(226.47 -2.14)"/><path class="cls-63" d="M-98.9,751.3s76,13.6,101.8,9.4,112-17.2,139.8-7.7,82.2,14.6,86.9,2.2l-109-59.6Z" transform="translate(226.47 -2.14)"/><path class="cls-64" d="M45.2,665.2c101.5-17.2,148.1,15.1,165.6,22.2s43.6,78.5,0,73.3-91.1-31.2-144.9-25.2S-68.3,755.4-98.9,751.3-59.4,682.9,45.2,665.2Z" transform="translate(226.47 -2.14)"/><path class="cls-22" d="M74.7,830.9s7.4,9.7-1,24.8S56.6,879,60.1,885.1s36.3,17,48.3,17.7,41.8-2.7,41.8-8-.7-35.5-5.8-43.9-24-25.2-24-25.2L91,804.9Z" transform="translate(226.47 -2.14)"/><path class="cls-74" d="M152.8,805.2s-.8,20.8-10.6,21.9-31.6-4.6-47.7-.5S45,838.2,29.1,825.5L85.7,789Z" transform="translate(226.47 -2.14)"/><path class="cls-75" d="M29,825.6c6.1,8.9,49.3,1.7,55,.5s37.2-7.6,44.6-5.7,24.1-2.9,24.2-15.2-12-24.5-31.7-24.7-35.6-14-49.8-11.6-39.4,25.4-42.1,33.5S23.9,818.1,29,825.6Z" transform="translate(226.47 -2.14)"/><path class="cls-22" d="M-1.1,869.4s-7,38.8-4.7,59S9.3,979.3,16.8,986s24.9,7.7,43.5,6.5,36-13.2,36.6-18.5-29.5-30.2-43.5-53.2a98.32,98.32,0,0,1-13.8-46.9l-18.3-36Z" transform="translate(226.47 -2.14)"/><path class="cls-23" d="M-58.1,850.1S-8.4,874,21.3,875.2,94.6,865,94.3,840L16.9,826.1Z" transform="translate(226.47 -2.14)"/><path class="cls-24" d="M94.3,840c-2,14.1-24.8,25-49.5,25.8s-54.4-14.9-62.4-13.7-32.3,9-40.5-1.9,3-36.8,34.5-48.8,61.7,14.8,77,13.9S96.3,825.9,94.3,840Z" transform="translate(226.47 -2.14)"/><path class="cls-22" d="M413.1,979.1s21.2,44.4,15.6,61.8-21.5,67.9-36.3,71.6-62.4,6.1-71.2,0,28.2-56.7,34.3-76.3-2.2-52.7-2.2-52.7l8.6-61.3Z" transform="translate(226.47 -2.14)"/><path class="cls-65" d="M463.5,973.3S382,983.6,353.4,983.5s-78.5-5.2-100.9-5.1-27.6-10-26.8-25.9S362,922.2,362,922.2Z" transform="translate(226.47 -2.14)"/><path class="cls-66" d="M344.5,873.5c53.9-16.4,91,12.2,119.3,16.8s55.2,17.4,50.4,34-32,60.6-78.7,48.2S317.6,960.4,295.4,967s-75.4,7.5-69.7-14.4,59.9-44.9,69.7-50S310.1,884,344.5,873.5Z" transform="translate(226.47 -2.14)"/><path class="cls-22" d="M120.2,978.7s-14.6,30-10.3,49.9,56.4,73.1,49,86.9-104.7,38.1-116.8,28.9-25.2-55.6-22.4-94.4,39-82.8,39-82.8l35-39Z" transform="translate(226.47 -2.14)"/><path class="cls-57" d="M-16.8,936.6s32.5,32.3,58.9,30.5,61.8,9.1,78.1,11.6,62.5,6.7,76.5-8.1l-94-65.6Z" transform="translate(226.47 -2.14)"/><path class="cls-58" d="M145,889.8c41.6,5.7,63.7,28.3,69.7,45.3s-20.4,48.6-41.3,41.1-49.6-32.4-76.3-32.8-44.5,23-94,5.4-11.3-50.6,32.1-60S105.1,884.4,145,889.8Z" transform="translate(226.47 -2.14)"/><path class="cls-22" d="M1455.9,964.4s11.1,10.3,3.9,30.5-16.1,32-10.5,38.8,47.9,13.1,62.7,11.6,50.5-12,49.3-18.5-8.3-43.3-16.3-52.5-34.6-25.8-34.6-25.8l-40.2-19.3Z" transform="translate(226.47 -2.14)"/><path class="cls-57" d="M1546,916.7s3.4,25.5-8.4,29-39.5.9-58.4,9.4-58.1,24.6-80.2,12.4l61.6-56.5Z" transform="translate(226.47 -2.14)"/><path class="cls-58" d="M1399,967.5c9.3,9.7,60.6-8.2,67.3-10.9s43.9-17.1,53.3-16.3,28.8-8.6,26.4-23.6-19.8-27.4-43.9-23.5-46.5-9.7-63.3-3.7-42.8,39.2-44.4,49.8S1391.2,959.4,1399,967.5Z" transform="translate(226.47 -2.14)"/><path class="cls-22" d="M1330,1007.9s-7,38.8-4.7,59,15.2,50.9,22.7,57.6,24.9,7.7,43.5,6.5,36-13.2,36.6-18.5-29.5-30.2-43.5-53.2a98.32,98.32,0,0,1-13.8-46.9l-18.3-36Z" transform="translate(226.47 -2.14)"/><path class="cls-23" d="M1273,988.6s49.7,23.9,79.4,25.1,73.3-10.2,72.9-35.3l-77.4-13.9Z" transform="translate(226.47 -2.14)"/><path class="cls-24" d="M1425.4,978.4c-2,14.1-24.8,25-49.5,25.8s-54.4-14.9-62.4-13.7-32.3,9-40.5-1.9,3-36.8,34.5-48.8,61.7,14.8,77,13.9S1427.4,964.4,1425.4,978.4Z" transform="translate(226.47 -2.14)"/></g></svg>