<svg id="Layer_1" data-name="Layer 1" xmlns="http://www.w3.org/2000/svg" xmlns:xlink="http://www.w3.org/1999/xlink" viewBox="0 0 2071.51 1503.78"><defs><style>.cls-1,.cls-10,.cls-74{fill:#fff;}.cls-12,.cls-2,.cls-21,.cls-22{fill:none;}.cls-10,.cls-11,.cls-13,.cls-14,.cls-15,.cls-16,.cls-17,.cls-18,.cls-19,.cls-2,.cls-20,.cls-21,.cls-22,.cls-23,.cls-24,.cls-25,.cls-26,.cls-27,.cls-28,.cls-29,.cls-3,.cls-30,.cls-31,.cls-32,.cls-33,.cls-34,.cls-35,.cls-36,.cls-37,.cls-38,.cls-39,.cls-4,.cls-40,.cls-41,.cls-42,.cls-43,.cls-44,.cls-45,.cls-46,.cls-47,.cls-48,.cls-49,.cls-5,.cls-50,.cls-51,.cls-52,.cls-53,.cls-54,.cls-55,.cls-56,.cls-57,.cls-58,.cls-59,.cls-6,.cls-60,.cls-61,.cls-62,.cls-63,.cls-64,.cls-65,.cls-66,.cls-67,.cls-68,.cls-69,.cls-7,.cls-70,.cls-71,.cls-72,.cls-73,.cls-74,.cls-75,.cls-76,.cls-8,.cls-9{stroke:#000;}.cls-10,.cls-11,.cls-12,.cls-13,.cls-14,.cls-15,.cls-16,.cls-17,.cls-18,.cls-19,.cls-2,.cls-20,.cls-22,.cls-23,.cls-24,.cls-25,.cls-26,.cls-27,.cls-28,.cls-29,.cls-3,.cls-30,.cls-31,.cls-32,.cls-33,.cls-34,.cls-35,.cls-36,.cls-37,.cls-38,.cls-39,.cls-4,.cls-40,.cls-41,.cls-42,.cls-43,.cls-44,.cls-45,.cls-46,.cls-47,.cls-48,.cls-49,.cls-5,.cls-50,.cls-51,.cls-52,.cls-53,.cls-54,.cls-55,.cls-56,.cls-57,.cls-58,.cls-59,.cls-6,.cls-60,.cls-61,.cls-62,.cls-63,.cls-64,.cls-65,.cls-66,.cls-67,.cls-68,.cls-69,.cls-7,.cls-70,.cls-71,.cls-72,.cls-73,.cls-74,.cls-75,.cls-76,.cls-8{stroke-miterlimit:10;}.cls-10,.cls-19,.cls-2,.cls-26,.cls-27,.cls-28,.cls-29,.cls-3,.cls-38,.cls-39,.cls-4,.cls-44,.cls-45,.cls-46,.cls-47,.cls-48,.cls-49,.cls-5,.cls-50,.cls-51,.cls-6,.cls-7,.cls-8{stroke-width:3px;}.cls-3,.cls-65{fill:#fae02f;}.cls-4,.cls-60,.cls-62{fill:#ad70af;}.cls-5{fill:#0e7dc1;}.cls-6,.cls-9{fill:#009444;}.cls-25,.cls-57,.cls-7{fill:#ee356f;}.cls-66,.cls-8{fill:#ec6b55;}.cls-9{stroke-miterlimit:10;stroke-width:3px;}.cls-11,.cls-47{fill:#515251;}.cls-11,.cls-23,.cls-24,.cls-25,.cls-30,.cls-31,.cls-32,.cls-33,.cls-58,.cls-59,.cls-62,.cls-63,.cls-64,.cls-65,.cls-66,.cls-67,.cls-68,.cls-69,.cls-70,.cls-71,.cls-75,.cls-76{stroke-width:6px;}.cls-12{stroke:#fcce0c;}.cls-12,.cls-13,.cls-14,.cls-16,.cls-17,.cls-34,.cls-35,.cls-36,.cls-37{stroke-width:4px;}.cls-13{fill:#5e461d;}.cls-14{fill:#473f34;}.cls-15{fill:#b09f8e;}.cls-15,.cls-18,.cls-20,.cls-22,.cls-40,.cls-41,.cls-43,.cls-52,.cls-53,.cls-54{stroke-width:2px;}.cls-16,.cls-20{fill:#e2d3c4;}.cls-17,.cls-71{fill:#fcce0c;}.cls-18{fill:#dc7f39;}.cls-19{fill:#b0a99b;}.cls-21{stroke-miterlimit:10;stroke-width:2px;}.cls-23,.cls-44,.cls-55{fill:#f0d590;}.cls-24,.cls-45,.cls-56{fill:#d4127f;}.cls-26{fill:#b0a78d;}.cls-27{fill:#9c4a23;}.cls-29{fill:#e2e2e2;}.cls-30,.cls-36,.cls-41{fill:#c8bfda;}.cls-31,.cls-34,.cls-38,.cls-43{fill:#ccb3d6;}.cls-32,.cls-37{fill:#cbc7e3;}.cls-33,.cls-35,.cls-39,.cls-40,.cls-42{fill:#a68db7;}.cls-46,.cls-67{fill:#fab53a;}.cls-48,.cls-76{fill:#b667aa;}.cls-49,.cls-64{fill:#00acc0;}.cls-50,.cls-59{fill:#c2e7f3;}.cls-51,.cls-61,.cls-63{fill:#e64744;}.cls-52{fill:#d7c6a3;}.cls-53{fill:#ba8072;}.cls-54{fill:#df5526;}.cls-55,.cls-56,.cls-57,.cls-60,.cls-61,.cls-72,.cls-73,.cls-74{stroke-width:5px;}.cls-58{fill:#2fc1d4;}.cls-68{fill:#d781ab;}.cls-69{fill:#b093bf;}.cls-70{fill:url(#linear-gradient);}.cls-72{fill:#167db2;}.cls-73{fill:#0cb7dd;}.cls-75{fill:#f06795;}</style><linearGradient id="linear-gradient" x1="638.91" y1="1622.9" x2="638.91" y2="713" gradientTransform="matrix(-1, 0, 0, 1, 1560.37, -108.14)" gradientUnits="userSpaceOnUse"><stop offset="0" stop-color="#0c6534"/><stop offset="1" stop-color="#b1b935"/></linearGradient></defs><g id="Sky_Dec" data-name="Sky Dec"><path class="cls-1" d="M1318.56,24.66a13.2,13.2,0,0,0,11,0c3-1.6,5-.1,4.5,3.2a13.93,13.93,0,0,0,3.4,10.5c2.5,2.4,1.7,4.8-1.7,5.2a12.87,12.87,0,0,0-8.9,6.5c-1.5,3.1-4,3.1-5.5,0a13.18,13.18,0,0,0-8.9-6.5c-3.4-.5-4.2-2.9-1.7-5.2s4-7.1,3.4-10.5S1315.56,23.16,1318.56,24.66Z" transform="translate(174.71 -14)"/><path class="cls-2" d="M1318.56,24.66a13.2,13.2,0,0,0,11,0c3-1.6,5-.1,4.5,3.2a13.93,13.93,0,0,0,3.4,10.5c2.5,2.4,1.7,4.8-1.7,5.2a12.87,12.87,0,0,0-8.9,6.5c-1.5,3.1-4,3.1-5.5,0a13.18,13.18,0,0,0-8.9-6.5c-3.4-.5-4.2-2.9-1.7-5.2s4-7.1,3.4-10.5S1315.56,23.16,1318.56,24.66Z" transform="translate(174.71 -14)"/><path class="cls-1" d="M1258.86,44.16a15.16,15.16,0,0,0,12.3-3.3l.5-.5c2.9-2.7,5.6-1.6,5.9,2.3l.1.7c.4,3.9,3.5,8.8,6.9,10.7l.6.3c3.4,1.9,3.3,4.8-.4,6.4l-.6.3c-3.6,1.6-7.3,6-8,9.9l-.1.7c-.8,3.9-3.6,4.6-6.2,1.6l-.5-.5a15.24,15.24,0,0,0-11.9-4.6l-.7.1c-3.9.5-5.5-2-3.5-5.4l.4-.6a15.63,15.63,0,0,0,.7-12.7l-.3-.6c-1.6-3.6.2-5.8,4-4.9Z" transform="translate(174.71 -14)"/><path class="cls-2" d="M1258.86,44.16a15.16,15.16,0,0,0,12.3-3.3l.5-.5c2.9-2.7,5.6-1.6,5.9,2.3l.1.7c.4,3.9,3.5,8.8,6.9,10.7l.6.3c3.4,1.9,3.3,4.8-.4,6.4l-.6.3c-3.6,1.6-7.3,6-8,9.9l-.1.7c-.8,3.9-3.6,4.6-6.2,1.6l-.5-.5a15.24,15.24,0,0,0-11.9-4.6l-.7.1c-3.9.5-5.5-2-3.5-5.4l.4-.6a15.63,15.63,0,0,0,.7-12.7l-.3-.6c-1.6-3.6.2-5.8,4-4.9Z" transform="translate(174.71 -14)"/><path class="cls-1" d="M1314.46,85.36a9.13,9.13,0,0,0,7.5,1.4c2.2-.7,3.5.6,2.6,2.8a9.24,9.24,0,0,0,1,7.6c1.4,1.9.5,3.5-1.8,3.4a9.29,9.29,0,0,0-6.9,3.3c-1.4,1.9-3.1,1.6-3.8-.7a9.2,9.2,0,0,0-5.3-5.6c-2.3-.8-2.5-2.5-.5-3.8a9.31,9.31,0,0,0,3.7-6.7C1311,84.66,1312.56,83.86,1314.46,85.36Z" transform="translate(174.71 -14)"/><path class="cls-2" d="M1314.46,85.36a9.13,9.13,0,0,0,7.5,1.4c2.2-.7,3.5.6,2.6,2.8a9.24,9.24,0,0,0,1,7.6c1.4,1.9.5,3.5-1.8,3.4a9.29,9.29,0,0,0-6.9,3.3c-1.4,1.9-3.1,1.6-3.8-.7a9.2,9.2,0,0,0-5.3-5.6c-2.3-.8-2.5-2.5-.5-3.8a9.31,9.31,0,0,0,3.7-6.7C1311,84.66,1312.56,83.86,1314.46,85.36Z" transform="translate(174.71 -14)"/><path class="cls-1" d="M1645.06,87a6.38,6.38,0,0,0,5.4,0c1.5-.8,2.5-.1,2.2,1.6a6.62,6.62,0,0,0,1.7,5.2c1.2,1.2.8,2.3-.8,2.6a7.12,7.12,0,0,0-4.4,3.2c-.8,1.5-2,1.5-2.7,0a6.62,6.62,0,0,0-4.4-3.2c-1.7-.2-2-1.4-.8-2.6a6.62,6.62,0,0,0,1.7-5.2C1642.56,86.86,1643.56,86.16,1645.06,87Z" transform="translate(174.71 -14)"/><path class="cls-2" d="M1645.06,87a6.38,6.38,0,0,0,5.4,0c1.5-.8,2.5-.1,2.2,1.6a6.62,6.62,0,0,0,1.7,5.2c1.2,1.2.8,2.3-.8,2.6a7.12,7.12,0,0,0-4.4,3.2c-.8,1.5-2,1.5-2.7,0a6.62,6.62,0,0,0-4.4-3.2c-1.7-.2-2-1.4-.8-2.6a6.62,6.62,0,0,0,1.7-5.2C1642.56,86.86,1643.56,86.16,1645.06,87Z" transform="translate(174.71 -14)"/><path class="cls-1" d="M1607.06,41.56a10.65,10.65,0,0,0,8.3,2.9c2.7-.4,3.8,1.2,2.5,3.6a10.8,10.8,0,0,0-.2,8.8c1.2,2.4,0,4-2.6,3.5a10.3,10.3,0,0,0-8.4,2.6c-1.9,1.9-3.8,1.3-4.2-1.4a10.6,10.6,0,0,0-5-7.2c-2.4-1.2-2.4-3.2.1-4.4a10.76,10.76,0,0,0,5.3-7C1603.26,40.16,1605.16,39.56,1607.06,41.56Z" transform="translate(174.71 -14)"/><path class="cls-2" d="M1607.06,41.56a10.65,10.65,0,0,0,8.3,2.9c2.7-.4,3.8,1.2,2.5,3.6a10.8,10.8,0,0,0-.2,8.8c1.2,2.4,0,4-2.6,3.5a10.3,10.3,0,0,0-8.4,2.6c-1.9,1.9-3.8,1.3-4.2-1.4a10.6,10.6,0,0,0-5-7.2c-2.4-1.2-2.4-3.2.1-4.4a10.76,10.76,0,0,0,5.3-7C1603.26,40.16,1605.16,39.56,1607.06,41.56Z" transform="translate(174.71 -14)"/><path class="cls-1" d="M410,261a10.42,10.42,0,0,0,8.8,0c2.4-1.3,4-.1,3.6,2.6a10.87,10.87,0,0,0,2.7,8.3c2,1.9,1.3,3.8-1.4,4.2a10.5,10.5,0,0,0-7.1,5.2c-1.2,2.4-3.2,2.4-4.4,0a10.81,10.81,0,0,0-7.1-5.2c-2.7-.4-3.3-2.3-1.4-4.2a10.27,10.27,0,0,0,2.7-8.3C405.86,261,407.56,259.66,410,261Z" transform="translate(174.71 -14)"/><path class="cls-2" d="M410,261a10.42,10.42,0,0,0,8.8,0c2.4-1.3,4-.1,3.6,2.6a10.87,10.87,0,0,0,2.7,8.3c2,1.9,1.3,3.8-1.4,4.2a10.5,10.5,0,0,0-7.1,5.2c-1.2,2.4-3.2,2.4-4.4,0a10.81,10.81,0,0,0-7.1-5.2c-2.7-.4-3.3-2.3-1.4-4.2a10.27,10.27,0,0,0,2.7-8.3C405.86,261,407.56,259.66,410,261Z" transform="translate(174.71 -14)"/><path class="cls-1" d="M429.66,224.16a6.53,6.53,0,0,0,4.6,2.9c1.7.1,2.1,1.3,1,2.5a6.68,6.68,0,0,0-1.3,5.3c.4,1.6-.5,2.4-2.1,1.7a6.39,6.39,0,0,0-5.4.4c-1.4.9-2.5.2-2.3-1.4a6.4,6.4,0,0,0-2-5c-1.3-1.1-1-2.3.7-2.6a6.4,6.4,0,0,0,4.2-3.5C427.56,222.76,428.86,222.66,429.66,224.16Z" transform="translate(174.71 -14)"/><path class="cls-2" d="M429.66,224.16a6.53,6.53,0,0,0,4.6,2.9c1.7.1,2.1,1.3,1,2.5a6.68,6.68,0,0,0-1.3,5.3c.4,1.6-.5,2.4-2.1,1.7a6.39,6.39,0,0,0-5.4.4c-1.4.9-2.5.2-2.3-1.4a6.4,6.4,0,0,0-2-5c-1.3-1.1-1-2.3.7-2.6a6.4,6.4,0,0,0,4.2-3.5C427.56,222.76,428.86,222.66,429.66,224.16Z" transform="translate(174.71 -14)"/><path class="cls-1" d="M1093.26,120.16a10.82,10.82,0,0,0,8.5-2.3c2-1.8,3.8-1.2,4.1,1.5a10.88,10.88,0,0,0,4.8,7.3c2.4,1.3,2.3,3.3-.2,4.4a10.58,10.58,0,0,0-5.5,6.9c-.5,2.7-2.4,3.2-4.2,1.2a10.83,10.83,0,0,0-8.2-3.1c-2.7.3-3.8-1.3-2.4-3.7a10.8,10.8,0,0,0,.4-8.8C1089.36,121.16,1090.66,119.56,1093.26,120.16Z" transform="translate(174.71 -14)"/><path class="cls-2" d="M1093.26,120.16a10.82,10.82,0,0,0,8.5-2.3c2-1.8,3.8-1.2,4.1,1.5a10.88,10.88,0,0,0,4.8,7.3c2.4,1.3,2.3,3.3-.2,4.4a10.58,10.58,0,0,0-5.5,6.9c-.5,2.7-2.4,3.2-4.2,1.2a10.83,10.83,0,0,0-8.2-3.1c-2.7.3-3.8-1.3-2.4-3.7a10.8,10.8,0,0,0,.4-8.8C1089.36,121.16,1090.66,119.56,1093.26,120.16Z" transform="translate(174.71 -14)"/><circle class="cls-3" cx="1424.57" cy="364.46" r="11.5"/><circle class="cls-3" cx="1326.67" cy="19.86" r="5.8"/><circle class="cls-3" cx="696.77" cy="20.96" r="5.8"/><circle class="cls-4" cx="1296.47" cy="34.76" r="5.8"/><circle class="cls-4" cx="1696.67" cy="105.76" r="8.1"/><circle class="cls-4" cx="1666.17" cy="404.76" r="5.8"/><circle class="cls-5" cx="1731.07" cy="376.96" r="5.8"/><circle class="cls-5" cx="1463.57" cy="371.16" r="5.8"/><circle class="cls-5" cx="796.27" cy="417.86" r="5.8"/><circle class="cls-6" cx="1665.97" cy="131.66" r="5.8"/><circle class="cls-6" cx="726.97" cy="7.66" r="5.8"/><circle class="cls-7" cx="1732.77" cy="144.06" r="5.8"/><circle class="cls-4" cx="1427.57" cy="399.56" r="5.8"/><circle class="cls-8" cx="1379.87" cy="139.26" r="16.6"/><circle class="cls-7" cx="1325.97" cy="154.76" r="5.8"/><circle class="cls-9" cx="1079.93" cy="259.34" r="5.8" transform="translate(641.88 1171.64) rotate(-70.02)"/><circle class="cls-8" cx="776.37" cy="31.06" r="6.7"/><circle class="cls-8" cx="754.37" cy="419.86" r="8.3"/><circle class="cls-4" cx="803.87" cy="254.36" r="5.8"/><circle class="cls-7" cx="754.57" cy="235.06" r="5.8"/><circle class="cls-6" cx="620.27" cy="390.16" r="5.8"/><g id="Birds"><path class="cls-10" d="M935.66,126.46c2.4-.6-2.5-10.3-2-11.5s12.7-2.2,12.2-4.8-10.8,3-11.9,2.1,6.3-7.8,3.8-8a11.93,11.93,0,0,0-8.8,5.4c-3.2,5.1-4.4,6.5-6.8,7.3s-1.3,2.6.7,1.8,4.3-1.7,5.9,1S931.36,127.56,935.66,126.46Z" transform="translate(174.71 -14)"/><path class="cls-10" d="M879.46,102.36l-3.2,7.8s7.2-4.2,8.2-2.2-7.6,3.9-7.6,3.9l3.7,9.4s-6.8,0-9.5-2.4-1.5-3.8-1.5-3.8-4,1.8-4.3.3,3.9-2.6,3.9-2.6-.5-3.3,1.4-5S879.46,102.36,879.46,102.36Z" transform="translate(174.71 -14)"/><path class="cls-10" d="M803.56,111.26c.7.8,3.7.8,4.8.2s2.8,5.2,6.8,3.5.4-6.3.4-6.3,8.3-2.6,8.3-3.3-8.4,1.2-8.4,1.2.8-7.7-.2-9.8-5.3,2.3-5.8,5,.6,4.9-.2,6S802.06,109.56,803.56,111.26Z" transform="translate(174.71 -14)"/><path class="cls-10" d="M827.16,186.66l-4.2-10.5-3.7.6-.8-2.1,4.7-1.9,1.9-2.5,8.8-3.5-1.8,4.7,6-1.5.5,1.4-6.9,2s1.2,3.6.8,6C832.26,181.76,827.16,186.66,827.16,186.66Z" transform="translate(174.71 -14)"/><path class="cls-10" d="M887.76,140.46s-7.6,3.9-8.6,3.4-2.4-8-5.4-7-1.4,7.1-2.5,8.2-5,2-4.6,2.9,3.9.7,3.9.7l-1.5,5.5,7.2-6.9,10.7-4.9Z" transform="translate(174.71 -14)"/><path class="cls-10" d="M791.56,196.16l-2.2-5.6s-4.3,1-5.7,3.3-.6,4.3-1.2,4.9-3.9,1.2-3.5,2.4,3.6-.2,4.1.5-1.9,5.1-1.9,5.1,3.6-.7,4.7-1.9a69.22,69.22,0,0,0,4.1-6.2l8.7-3.8-.5-1.3Z" transform="translate(174.71 -14)"/><path class="cls-10" d="M742.16,234.36s4.6-4.8,5.6-6.8a12.76,12.76,0,0,0,1.1-4.5l7.4-2.9-.6-1.5-7,2.8-.9-4.9a33.54,33.54,0,0,0-5.3,3.7,4.34,4.34,0,0,0-1.3,2.7s-5.5.6-5.2,2.1,5.4.4,5.4.4S740,234.56,742.16,234.36Z" transform="translate(174.71 -14)"/><path class="cls-10" d="M766.26,81.46l4.3,10.8s-5.6,1.5-5,3.7,4.5.3,4.5.3l-.7,4.8,8.2-8.2,11-4.4-9.3,1.6s-2.2-5.6-6-7.3S769.56,80.06,766.26,81.46Z" transform="translate(174.71 -14)"/></g></g><g id="Road_Back" data-name="Road Back"><path class="cls-11" d="M1607.36,262.86c0-50.1-408.1-51.3-743.5-69.1s-824.6-55.7-824.6-55.7v9.1s246,26.6,447.8,40.8,531.6,35.4,679.8,37.2,399.8,16.1,399.8,39.1Z" transform="translate(174.71 -14)"/><path class="cls-12" d="M1585.66,264.16c0-32.5-258-42.8-414.3-47.9-148-4.8-485.4-22.2-687.2-36.4s-444.8-37.1-444.8-37.1" transform="translate(174.71 -14)"/></g><g id="Bus"><path class="cls-13" d="M341.46,158.36a25.58,25.58,0,0,0,5.6-.1c2.8-.4,23.5,3.9,25.9,4.1s3-.2,4.5-.1,2,1.5,4.2,1.3,2-1.7,2.9-1.8,4.5,1.8,5.6,1.6,4.3-2.1,4.8-3-21.7-13.7-21.7-13.7l-31.3-1.9s-3.9,8.8-3.6,9.7A22.9,22.9,0,0,0,341.46,158.36Z" transform="translate(174.71 -14)"/><path class="cls-13" d="M442.76,167.56s.8.6,3.1,0,2.3-2.7,4.5-3,22.9,4.7,23.6,5.9a5.2,5.2,0,0,0,3.2,3.1c1.7.4,1.4-.8,2.2-.7s1.9.8,2.8.7S485,170,485,170l-11-19.9-29.3-2.7-.4,15.6Z" transform="translate(174.71 -14)"/><path class="cls-14" d="M353.66,148.56s-6.5,4.4-6.5,11.4,3,14.6,6.9,16.1,9.5,1.7,11.8,1.1,8.8-2.3,9.7-10.7-4.3-18.1-4.3-18.1Z" transform="translate(174.71 -14)"/><path class="cls-15" d="M357.86,151.06c6.4-.1,9.7,5.7,9.5,10.7s-2.5,11.3-9.2,10.6c-5.7-.6-7.7-5.5-7.8-11.4C350.36,155.36,353.86,151.06,357.86,151.06Z" transform="translate(174.71 -14)"/><path class="cls-14" d="M461.86,153c7.5.4,15.2,7.7,15.5,18.9s-6.8,16.7-15,16.9-13.9-7.1-13.8-19.3S454.06,152.56,461.86,153Z" transform="translate(174.71 -14)"/><path class="cls-14" d="M416.46,162.26a13.85,13.85,0,0,1-8.4,6.1c-5.6,1.2-10.3-1-11.9-2.8s-4.1-7.3-4.1-7.3Z" transform="translate(174.71 -14)"/><path class="cls-14" d="M516.86,170.06s-3.2,6.1-8.4,8.3-9.7.4-12.8-2.7-4.6-8.5-4.6-8.5Z" transform="translate(174.71 -14)"/><path class="cls-15" d="M458.56,160.46c6.2-.1,8.8,6.1,8.9,11.3s-2.6,11.1-6.2,11.1c-3.9.1-8.4-3.3-9.5-9.7C450.56,165.86,453.36,160.56,458.56,160.46Z" transform="translate(174.71 -14)"/><path class="cls-16" d="M336.86,88.16s2.6-6.3,3.5-6.8,1.1-2.8,2.1-3.5,16.4-3,23.2-3.6,94.9,1.2,96.9,1.7,10.1-.6,14.8-.4,15.2,3.7,19.7,3.7,12.8-1.1,16.3-.2,7.3,4.7,7.8,6.7a8.71,8.71,0,0,1,.1,3.7l-35.6,6.3Z" transform="translate(174.71 -14)"/><path class="cls-17" d="M532.46,165.46s11.8-7.2,12-8.8-2.1-2.5-2.1-3.5,1.9-11,1.9-14.4-1.9-16.5-2.8-18.2-1.9-4.1-2.3-4.6-6-3.9-6-3.9l-9.4-20.8a2,2,0,0,0,.9-1.4c0-.8-2.4-3-6.9-3.2s-17.7,1.5-22.4,3.1-7,3-7.9,3.1-149.8-5-150.6-4.9a1.59,1.59,0,0,0-1.4,1.3c0,.5-5.2,15-5.8,28.3-.9,19,.6,37.4,1.2,38.7s9.6,2.3,10.6,2,2.5-8.6,2.5-8.6a1.86,1.86,0,0,1,.8-1.3,3.71,3.71,0,0,1,1.6-.4l20.3,1.3a5.38,5.38,0,0,1,2.6.7,4.69,4.69,0,0,1,1.3,1.6l5.6,7.9s.6,1,1.2,1,64.4,5.1,64.4,5.1a2.14,2.14,0,0,0,1,1.9c1.1.6,2-.3,2.2-1.9s1.4-11.4,4.5-14.4,15.9-1,18.7.5,7.8,13.8,8.6,15.5,1,3.4,2.9,3.8,18.1,1.9,19.9,2.1,29.2-4.5,29.8-5.2A26.71,26.71,0,0,1,532.46,165.46Z" transform="translate(174.71 -14)"/><path class="cls-16" d="M501.86,163.76c1.1-1.4,8.6.1,12.6-.2s24.7-5,26.1-5.7,4.5-2.6,5.1-3.5,2.4-1.4,2.9-.6.5,4.3.1,5.9-4.9,5.2-7.7,5.9-26.9,6-33.2,5.8-6.2-1.2-6.5-2.9S500.76,165.06,501.86,163.76Z" transform="translate(174.71 -14)"/><path class="cls-18" d="M509.76,127.66c.2-.5,5.5-1.6,5.8-1s1.1,5.1.7,5.9-4.9,1.7-5.5,1.1S509.26,128.66,509.76,127.66Z" transform="translate(174.71 -14)"/><path class="cls-18" d="M540.56,123.56c-.3.4-.6,4,.1,4.3s2.7-.5,2.8-1-.2-4-.5-4.2A2.18,2.18,0,0,0,540.56,123.56Z" transform="translate(174.71 -14)"/><path class="cls-19" d="M501.06,120.26c4.2-.1,17-1.1,19.8-1.6s12.4-2.1,14-2.6.9-2.7-.9-5.9-7.6-15.5-9-17.1a7,7,0,0,0-5.3-2.6c-2.1,0-25,3.5-27.5,4.7s-3.4,1.9-3.1,4.9,3,15.8,4.3,18S498,120.36,501.06,120.26Z" transform="translate(174.71 -14)"/><path class="cls-19" d="M484.36,100.16c.4,1.5,3.5,15.1,3.6,16.6a3,3,0,0,1-2.79,3.2h0c-1.9.3-36.2-1.1-37.4-1.5a3,3,0,0,1-2.2-3.1c.1-1.7,1.5-15.8,1.9-16.9a2.68,2.68,0,0,1,2.9-1.8c1.7,0,30.8,1,31.9,1.2A2.8,2.8,0,0,1,484.36,100.16Z" transform="translate(174.71 -14)"/><path class="cls-19" d="M395.76,94.66c1.3,0,40.5.7,41.8.9a2.69,2.69,0,0,1,2.4,2.1c.2,1.1-1.5,17.5-2,18.7s-1.2,1.2-2.7,1.3-41.6-2-42.5-2.2-1.3-.6-1.3-1.7,2.4-16.6,2.7-17.5S394.66,94.66,395.76,94.66Z" transform="translate(174.71 -14)"/><path class="cls-19" d="M388.36,96.26c-.1,1.1-1.9,16.8-2.1,17.6s-.6.9-1.6,1.1-41.1-1.8-41.8-1.9-.5-.5-.7-1.4,1.3-12.4,2.8-14.9,3-3.3,6.1-3.5,34.9,1.1,36,1.4S388.56,95.16,388.36,96.26Z" transform="translate(174.71 -14)"/><path class="cls-15" d="M517.16,144.36c.2,2.8-1.4,7.7-3.9,7.9s-5.1-1.8-5.3-6.6,3.1-7,5.1-7.1S516.86,141,517.16,144.36Z" transform="translate(174.71 -14)"/><path class="cls-15" d="M545,138.46c.1,2.7.4,6.7-1.5,6.9s-3.7-1.4-4-5.9,1.7-6,3.1-6S544.86,135.66,545,138.46Z" transform="translate(174.71 -14)"/><path class="cls-20" d="M513.76,140.36c1.5,0,2.5,1.4,2.8,4.5s-1.1,6.1-2.6,6.1-3.1-1.8-3.3-4.5S512.06,140.36,513.76,140.36Z" transform="translate(174.71 -14)"/><path class="cls-20" d="M543,135.56c1.3,0,2,2,2.1,3.9s-.4,4.9-1.4,5-3-1.3-3.1-3.9C540.26,138,541.56,135.66,543,135.56Z" transform="translate(174.71 -14)"/><ellipse class="cls-21" cx="532.26" cy="141.65" rx="2.7" ry="5" transform="translate(166.81 19.98) rotate(-3.63)"/><line class="cls-22" x1="706.67" y1="122.66" x2="707.27" y2="132.76"/><polyline class="cls-22" points="708.67 131.76 706.97 127.66 705.77 131.96"/><path class="cls-16" d="M450.56,130.56c-.1-.5-8.3-2.1-8.3-.6S450.76,131.66,450.56,130.56Z" transform="translate(174.71 -14)"/><path class="cls-16" d="M436.16,129.06c0,.8-1.2,1.3-4.6,1.4s-4-.1-4.1-.9,1.3-1.1,4.3-1.2S436.16,128.16,436.16,129.06Z" transform="translate(174.71 -14)"/><path class="cls-23" d="M134.46,254.26s-54.8,52.4-61.2,98.2,62.6,199.9,35.8,223.5-252.7-1.3-271.3-30.5-9.8-138.1,26.5-218.4,148-145.4,148-145.4l105-55.5Z" transform="translate(174.71 -14)"/><path class="cls-24" d="M-135.44,91.46s52.3,89.8,111.1,101.4,130.1,56.2,164.3,71.4,133.1,51.4,172.5,27.3L145,92.36Z" transform="translate(174.71 -14)"/><path class="cls-25" d="M246.46,84c87.8,36.9,123,99.6,126.2,140.2s-73.4,94.6-114.6,65.8-89.6-100-147.8-116.8-111.1,24.4-209.2-43.3S-94,12.26,6.76,17.36,162.36,48.66,246.46,84Z" transform="translate(174.71 -14)"/></g><g id="Rocket"><path class="cls-10" d="M1395,233.46s1.4-4.2-1.7-11.7a76.06,76.06,0,0,0,2.1-16.8c0-8.7-3-13.1-3-13.1l-6.7-7.6-6.6,4.2a39.06,39.06,0,0,0-4.5,14.4,58.32,58.32,0,0,0,0,14.7,46.45,46.45,0,0,0-14.3,28.1c-2.1,17.8.4,27.8.4,27.8a73.94,73.94,0,0,0-12.9,34c-2.2,20,2.5,39.2,2.5,39.2s-10.1,17.4-12.9,37.4-.3,42.9-.3,42.9-15.8,24.5-19.1,56.4,0,63.6,0,63.6l20.6,8.9,49.8-7.5s21.8-29.9,25.8-55,0-55.6,0-55.6,10.5-13.9,12.9-37.6-7.1-46.6-7.1-46.6,8.1-8.1,10.3-31.4a89.59,89.59,0,0,0-5.9-41.3s3.8-7.6,4.8-24.7-6.8-31.1-6.8-31.1a85,85,0,0,0,2.1-17.7c.1-9.7-2.6-14.8-2.6-14.8l-4.6-7.5-8.8,4.4a71.72,71.72,0,0,0-5,15.1,180.46,180.46,0,0,0-2,18.7c2.6-2.2-3.7,2.1-6.5,10.2" transform="translate(174.71 -14)"/><path class="cls-26" d="M1407.86,82.26a14.49,14.49,0,0,1,2.5,11.7c-1.5,6.4-18.7,92-18.7,92l.8,5.8a21,21,0,0,0-6.2-2.7,44.47,44.47,0,0,0-7.1-.6l3-4.5,19.7-92.4A18.12,18.12,0,0,1,1407.86,82.26Z" transform="translate(174.71 -14)"/><path class="cls-27" d="M1398.26,148.26s10.9-68.2,15.4-78,11.2-13.6,13.1-13.3,6.9,13.3,6.6,20.1-3.2,21.1-3.2,21.1l-13,59.1Z" transform="translate(174.71 -14)"/><path class="cls-26" d="M1435.56,82.66a14.27,14.27,0,0,1,2.7,11.6c-1.4,6.5-17.2,92.3-17.2,92.3l.9,5.8a20.58,20.58,0,0,0-6.3-2.6,52.61,52.61,0,0,0-7.1-.5l2.9-4.6,18.1-92.8A19.45,19.45,0,0,1,1435.56,82.66Z" transform="translate(174.71 -14)"/><path class="cls-28" d="M1405.66,94s1.9-6,4.4-5.4,4.1,4.8,4.3,10.6-1.7,17.3-.8,22.8-1.8,15.1-.7,17.7,11.9,13.3,12.1,20-.5,7.5-.5,7.5l-21.8,5.9-1.4-13-3.9-3.5,12.3-55.4Z" transform="translate(174.71 -14)"/><path class="cls-29" d="M1402.56,173.06l.6-7.9.7-3.4,18.7,1s1-4.3-.8-7.2-8.2-8.5-10.2-13,.7-15.5,1-17.3-1-5.2-1.4-9.3,1.7-14.5.9-18.8-3-5.7-4.4-5.9-2.3,3.6-4.7,5.3-6.1,9.1-7.9,17-5.3,28.5-5.3,28.5l-18.5,14.7-2.3,9.5,7.3,1.7-1,4,3.5.8,6.3-2.3Z" transform="translate(174.71 -14)"/><polygon class="cls-29" points="1578.87 151.36 1578.37 157.36 1588.37 154.76 1588.77 150.66 1578.87 151.36"/><polygon class="cls-29" points="1590.17 150.56 1589.77 154.06 1596.87 152.56 1597.17 149.66 1590.17 150.56"/><polygon class="cls-28" points="1552.27 150.26 1564.77 139.26 1566.27 139.66 1565.77 141.66 1552.77 151.36 1552.27 150.26"/><polygon class="cls-28" points="1552.47 154.16 1560.87 149.66 1561.57 151.06 1552.77 155.26 1552.47 154.16"/><polygon class="cls-28" points="1564.07 148.76 1565.57 149.16 1564.57 153.66 1562.67 154.86 1564.07 148.76"/><polygon class="cls-28" points="1574.27 141.56 1577.57 145.76 1581.57 128.86 1579.97 126.66 1585.07 105.06 1583.37 103.36 1585.57 93.96 1584.17 92.46 1574.27 141.56"/><polygon class="cls-28" points="1574.47 92.26 1577.27 92.96 1578.47 91.16 1575.87 90.56 1574.47 92.26"/><path class="cls-28" d="M1406.76,102.56l1.3.9s.5-1.8-.2-2.7a7.07,7.07,0,0,0-3.3-2.4c-1.1-.2-3.5-.1-4.2,1.3l-.7,1.4,1.9-1.3,2.5-.1,2.1,1.2Z" transform="translate(174.71 -14)"/><path class="cls-28" d="M1385.16,170.56l-.7,3.2s.2,1.5,1.3,1.7a1.41,1.41,0,0,0,1.6-.5l-.4,1.5a1.76,1.76,0,0,0,1.3,1,2,2,0,0,0,1.6-.3l.5-2.3a2.82,2.82,0,0,0,1.7,1.2,2.85,2.85,0,0,0,1.9-.3l-.2,1.1a1.43,1.43,0,0,0,1.1.9,2.88,2.88,0,0,0,1.8-.3l.4-1.7a2.12,2.12,0,0,0,1.5,1,1.67,1.67,0,0,0,1.7-.4l.9-3.9Z" transform="translate(174.71 -14)"/><path class="cls-10" d="M1380.26,310.56c4.3-23.2,10.6-33.4,10.6-33.4s-3.5-10.9-1.5-26.2,12.2-27.9,12.2-27.9" transform="translate(174.71 -14)"/></g><g id="Road_Middle" data-name="Road Middle"><path class="cls-11" d="M1607.36,262.86c0,50.1-506.6,57.8-722.9,60.7-342.3,4.6-433.1,6.2-851.9,50.4v-33.1s295.4-35.7,723.1-39.4c534.2-4.7,810.8-14.2,810.8-37.2Z" transform="translate(174.71 -14)"/><path class="cls-12" d="M39.36,356.46s294.1-39.6,720-43.3c531.9-4.7,826.4-16.8,826.4-49.5" transform="translate(174.71 -14)"/></g><g id="Busmore"><g id="Layer_3" data-name="Layer 3"><path class="cls-30" d="M664,513.46s-12,10.8-19,14.3-21.7,13.8-23,20.7-14.1,9.6-14.1,20.9,39.3,104.2,39.3,104.2l-39.3,150,4.4,180.7h985.4L1579,814.06,1245.46,556l-157.1-146.3-177.7-62.8Z" transform="translate(174.71 -14)"/><path class="cls-30" d="M837.66,346.86s-19.1-.3-31.1,3.3-23.1,12.2-34.8,16.6-27.8,6.6-39.6,11.6-41.8,23.8-42.2,32.7,51.1,32.3,51.1,32.3l137,12.9Z" transform="translate(174.71 -14)"/><path class="cls-31" d="M950.26,275.36s11.7,6.2,18.9,6.6,7.1,11.2,9.1,16.4,6.5,7.8,11.2,14.3-57-12.7-57-12.7l1.5-19.7Z" transform="translate(174.71 -14)"/><path class="cls-32" d="M1066.76,565.76s-4.1,20.6,5.2,28.7,30,8,30.5,13.5-20.4,9.8-35.7,16.5-39.3,29.7-51.3,37.2-52.8,10.7-60.8,7.8.5-9.9-2.2-16.6-21.9-1.1-31.8-11.7-14.6-30.1-31.1-33.9-34.5-1.3-57.6-6.1-66.3-19.2-66.5-22.6,12.8-4.6,26.1-10.6,17.8-13.2,30.2-20.3-20.5-4.7-20.5-4.7l-53.9-17.8L715.06,457l149.4-22.9s-10.8-133.4-4.2-140.4c3-4,12.9-5.5,18.1-11.5,5.9-6.9,22.8-6.5,27.9-8.5,2.8-1.1,25-5.5,35.6-3.5,8.5,1.6,11.5,10.8,17.2,11.5,12.8,1.7,14.9,16.4,14.9,16.4l53.4,76.8s10.2-8.8,18.8-8.5,31.2,14.9,31.2,14.9l96.4,74.4a70.18,70.18,0,0,0,3.5,14.2c2.6,6.9,4.2,6,7.3,10.3.9,1.3,9.4,5.1,12.2,13.5,6.2,18.9,8.6,49.9,8.6,49.9Z" transform="translate(174.71 -14)"/><path class="cls-31" d="M886.86,527c4.3-2.6,2.9,8.8,10.1,13.6s32.3,32.3,35.4,38.8,9.5,2.2,8.9-4.6,5.8-11.1,15.3-13.1,17.3,3.3,24.5,0,3.7-21.2,10.5-22.5,20.1,8.4,16.5,22.5-33.4,44.1-34.3,49-12.9,18.5-22.1,16.7-28.4-14.9-41.6-30.9S879.16,531.76,886.86,527Z" transform="translate(174.71 -14)"/><path class="cls-31" d="M1059.76,374.26s-10.3,8-17.3,10.4-19.8,4.8-19.8,4.8l-22.4,95.1s34.3-1.7,43.1-20.6S1059.76,374.26,1059.76,374.26Z" transform="translate(174.71 -14)"/><path class="cls-33" d="M1003.16,502.16s14.2-3.5,15.8-14.7-1.6-24,0-37.2,10.3-19.6,9.1-29.9-4.5-14.5-16.3-13.4S1003.16,502.16,1003.16,502.16Z" transform="translate(174.71 -14)"/><path class="cls-31" d="M850.46,516.76c3.1,5.7-15.1,36.7-28.7,37.2s-22.7-7.7-47.7-10.5-30.1-13.4-46-13.6-36.7-1.6-41-8.8-23.1-7.5-23.1-7.5,8.2-17.9,6.9-34,16.5-31.8,17.6-43,1.6-25.3,1.6-25.3,21.6,15,34.1,16.5,39.1-11.3,46.4-5.7c.4.3,5.2-8.4,10.5-22.2,1.9-4.8,11.4-20.2,11.4-32,0-6.8,9.9,8,16.3,6.2,8.2-2.3,8.4-16.3,10.3-16.2,3.9.2,5,17,5,17.3-.1,6.3-57.5,69.2-62.5,82.3-5.1,13.3-10,27.6-9.3,37.6,1.5,22.7,18.1,36.1,31.5,34.8s10.5,6.4,16.6,6,11-9.6,21.5-13.4C832.26,518.46,845.56,507.86,850.46,516.76Z" transform="translate(174.71 -14)"/><path class="cls-31" d="M1184.66,484.66s-7.9,8.1-7,13-4.9,10-3.6,14.8-.1,19.1-.2,23.4,6.7,32.1,6.7,32.1l15.9-19.2v-60.3Z" transform="translate(174.71 -14)"/><path class="cls-32" d="M1187.76,633.56a102.36,102.36,0,0,0,11.5,40c10.7,19.8,18.4,28.5,22.7,31.6s35.1,13.9,45.6,14.2,19,165.3,21.2,158.5c1.1-3.2,227.4-43.6,290.1-63.8,69.6-22.4,18.7-82.6,18.7-82.6s-356.2-238.6-360.5-246.9-12.9-4-29.6-4.6-24.4-1.9-24.4,7.3,7.2,5.5,9.5,8.6C1195.06,499.16,1187.76,633.56,1187.76,633.56Z" transform="translate(174.71 -14)"/><path class="cls-31" d="M1299.86,529.76s33.7-4.4,42-9.7,23.1-13.5,36.4-13.8,31.5,151.7,31.5,151.7-4.8,27.9-11.2,37.6-25.7,22.3-36.4,20-16.8,3.9-20.2,2.4,7.2-9,5.8-15.6-26.8,3.1-23.3,9.5,9.2,5.4,8.2,9.9-30.9-.5-39.7-6.7-6.1-14.2-11.2-17.8-33.3-.7-45-5.8,5.3,1.2,13.2-2.8,14.3,3.3,20.1,0,10.5-7.6,13.6-18.5,21.2-14.5,28.3-17.8,18.5-12.6,17.8-15.8S1299.86,529.76,1299.86,529.76Z" transform="translate(174.71 -14)"/><path class="cls-31" d="M1530.66,476.06s86.6-27.6,88.9-30.3,2.2-7.2,9.1-6.7,13.8,15.7,20.7,37,10.3,47.5,15.8,61.7,5.5,29,14.6,48.4,17.3,216.9,13.5,277.7-16.1,164.1-16.1,164.1l-150.3,8.3s14.3-174.9,9.5-180.8-26.9-4.5-36.4,0-44.4,2.8-56.1-3-13.6-26.9-24.9-34.6-60.2-1.4-67.1-8.8,19.3-23.1,32.5-21.4,39.7,2.2,49.3-2,14.4-22.6,21.6-22.4,25.5,1.2,27.1,10.5,10.9,18.3,27.4,16.1,26.9-16.1,32.7-16.1,12.4,10.4,25.4,13,29.4-18.8,26.7-34.7-24.9-18.8-39.8-14.5-22.5,17.1-36.9,15.7-38.7-3.2-42-2.4-9.9-.4-9.9-.4,9.7-8,20.4-6,23.6-.9,28.9-.8,19.2-1.2,18.8-4-5.2-3.7-8.5-3.7-12.7-3-23.1-2.1-18.2,2.3-24.5,1.3-12.6.9-15.2.6-7.2-1.7-11.7-2-12.6.2-13.2-1.9,8.2-5.4,14.5-6.9,14-7.6,14-7.6Z" transform="translate(174.71 -14)"/><path class="cls-30" d="M1492,458.46s21.7,1.2,25.6-1,7.6-4.3,13.3-4.6,10.9,7.3,18.5,7.6,19.8-5.1,22.9-8.6,10.4-5.2,15.4-6,13.1,6.4,18.6,2.8,12.1-7,16.2-7.6,7.6-.5,8.8,2.9-3.4,17-1.7,26,6.4,16.3,6.9,22.1-2.6,12.1-6.5,12.8-7.8,2.2-7.4,4.4c0,0,10-1.7,14-.7s3.2,2.4,3.2,2.4-1.9,4.1-.9,7.8,1.3,9.2-.7,12.1-5.4,3.3-9.4,3.2-9.1,3.7-14.3,3.5-14.9,3.6-25.9,2-15.6-5.7-17.7-11.2,17.5-5.5,18.8-9.8-6.9-15.3-6.9-15.3l-79-3.4-28-34.4Z" transform="translate(174.71 -14)"/><path class="cls-30" d="M1636.56,565.36s-.5-8.4,3.2-12.7,6.9-.9,6.3-5.4-6.5-2.8-8-5.2-3.8-4.6-6.1-4.6-8.3,2.9-14.6,4.6-22.5,3.3-25.9,3-8.6.8-8.5,2.4,4.6,10.6,13.3,14.4,18.1,3.7,21.3,4.2,6.8,2.6,11.2,1.8A28.89,28.89,0,0,0,1636.56,565.36Z" transform="translate(174.71 -14)"/><path class="cls-30" d="M1638,577.46s-3.2-3-6.9-3.3-13.7-.3-17.9,1.3-9.7,1.5-10.3,2.1-3,2.8-.5,5.4,9,1.7,15.7,1.6,10.3-.1,10.9,1,3.1,2.6,4.8.6S1640.16,579.16,1638,577.46Z" transform="translate(174.71 -14)"/><path class="cls-30" d="M1552.16,554.86s17.4.9,25.4,11.4,1.4,14.4,5.5,20.8,19.1,12.2,24.9,19.2,13.4,5.3,13,11.4-12.3,4.3-20.9,5.9a43.09,43.09,0,0,0-13.5,4.6,174.17,174.17,0,0,1,21.3-1.1c9.2.3,12.1,2.1,14.1,12.3s-3.1,13.2,0,19.7,13.2,9.4,15,16.7-21.9,12.9-30.7,7.6-6.5-10.9-11.7-15.2-14.7-7.4-16.3-4,.4,17.3-8.3,20-40.9-16.7-40.9-16.7Z" transform="translate(174.71 -14)"/><path class="cls-33" d="M1168.16,598.56c-4.4-.8-5.7-4.9-7.5-7.9-3.5-5.8-8.5-8.4-14.8-9.2-12-1.5-24.1-2.3-35.7-6.1-3.3-1.1-6.6-2.5-10.1-3.3-3-.7-2.3-3.2-3.2-5.2-8,.1-14.9-4.6-22.9-5.3-2-2.4-.6-3.6,1.7-4.2,2.9-.7,5.9-.6,8.8-1.7,5.1.7,10.3.5,15.1,3,10.4,1.5,20.6,4,31.3,2.3,11.5-1.8,17.5-7.6,18.4-19.3.4-5.8,0-11.6.6-17.4.4-3.9,1.3-7.1,6.2-6.7,2,0,4,.6,5.9-.2,1.6-1.6-.7-2.6-.5-4.3,5.7-2.3,9.7,1.4,14,4.1a2.55,2.55,0,0,1,2.1-.3c4,5.3,5.2,18.7,2.3,28.3,2.7,1.3,6.6-1,8.6,2.6,1.7,3,.2,5.9.2,8.9-2.6,6.9-3.3,14.3-5.4,21.2C1180.76,586.06,1177.66,595.06,1168.16,598.56Z" transform="translate(174.71 -14)"/><path class="cls-31" d="M607.76,569.36s25-2,30.3,2.7.8,7.7,8.1,14,26,1.3,29.4,3.8,8.9,21.9,2.3,25.1-26-2.5-23,7.6,31.2-3.7,53.8-1,38.2,12.8,59.3,19,47.5,15.6,47.5,15.6-26.5.3-47.5-4.3-42.4-12.5-41.6-7.5,75.7,24.4,89.8,25.8,4.7,21.4.5,30.9-12,10.6-27.6,9.8-60.6-20.1-85.1-16.9-1.6,9,15.6,12.4,87.9,10.1,89.5,16.2-29.8,135.1-29.8,135.1l-171.5-34Z" transform="translate(174.71 -14)"/><path class="cls-31" d="M681.56,522.66s-2.2,9.5-6.3,14.9-13.4,3.9-17,5.6-8.4,12.1-13.3,15.2-16.3,7.2-16.7,5.7,11.2-7.8,12-12.7,10.6-5.3,12.4-10.1,13.8-8.2,15.9-11.5S679.66,516,681.56,522.66Z" transform="translate(174.71 -14)"/><path class="cls-31" d="M755.46,588.36a148.91,148.91,0,0,1,25.4,4.7c11.7,3.5,21,8.7,22.1,12s-11,22.4-3.9,29.7-9.1,3.8-15.2,0-7.2-17-14.5-21.1-19.4,5.5-27.3,5.5-27.3-.7-28.4-5.5,27.3-6.2,33.8-10.3C754.16,599.36,748.76,587.56,755.46,588.36Z" transform="translate(174.71 -14)"/><path class="cls-31" d="M858,830.46c-1.6,5.4-5.1,8.4-3.8,12.4s0,0-.3,4.4,35,3.8,39.7,12.4,10.7,22.3,27.1,29.7,27.5-2.4,46.5,0,28.8,16.7,41.6,22.5,39.7,2.1,49.5,8.9-4.4,18.7-15,16.5-32.8-14.4-57.2-15.3-63.5-2.6-60.7,5.3,64.2,1.7,72.5,10.2,1.1,17,7,26.4,34.7,25.5,58,18.6,52.4-6.2,63.9,3.6,43.2,31.7,97.7,31.3,101.9-11,118.8-37.8,10.6-52.1,17.5-65.2,26.3-29.8,23.2-46.2-26.8-28-51.4-22-43.8-27.1-45.4-39.5,6.7-53.2,12.2-59.8,20.6-1.6,20.6-6.9-7.5-12.8-20.6-13.9-33.3-9.3-41.5-9.7-35.3-11.8-43.2-5.3,1.6,8.3-2.4,13.9-12,1.2-11.4,7.1,20.3,4.6,24.3,16,1.2,22.2-8.9,22.5-18.5-5-25.6.5-9.2,8-4.4,12.2,18.9,6.5,19.8,9.9-12.7,6.2-12.7,6.2,27.2.2,26.5,11.2-32,.1-35.1,3.6,20.7,15.2,20.7,15.2,14.6,23.4-21.6,24.3-22.5-21.6-17-25.4-5.9-7.5-11.8-7.6-12.3,7.2-14.8,11.2-16.7,19.4-22.8,20.2-9.8-18.4-17.7-21.9-10.6-14-14.4-14.3-15.8,8.3-32.8,6.9-48.5-12.4-53.6-15.5-20.7-29.8-14.6-34.7,5.6-8.7,2.3-10.3-11.1-1-10.9,7.3-8.6,17.2-19.2,23.3-30.6,8.5-41,13-15.6,19.7-15.8,24.2-18,3.5-21.5,1.1S859.56,825,858,830.46Z" transform="translate(174.71 -14)"/><path class="cls-31" d="M805.26,808.36c4.6,2.8,26.3,8.5,41.2,8.9s32,2.3,32.8-1.3-5.8-4.1-9.9-4.1-11.7-3-13.2-13.7,41.3-1,48.2-2.8,8.9-15.5-8.6-17.2-17.9,3.5-25.9,3.3-20.5-11.4-19.5-17.5,5-11,14-11.4,20-2,19.2-6.8-11.4-10.3-18.3-10.3-19.3,4.2-27.9,2.2-17.5-7-22-4.5-6.1,35.2-7.1,42.1S797.66,803.76,805.26,808.36Z" transform="translate(174.71 -14)"/><path class="cls-31" d="M813.16,718.26s.8-7.4,2.5-11.3,5.9-2.9,8.1-7.8,4.8-18.1,10.7-20.1,9.8-8.6,11.6-13.4.9-8,3-10.3,13.4-5.8,15.9-9.2,6.8-10.6,10.2-14.6,10.6-7,14.4-7.3,12.7,2.6,16.6,6.7,14.2,7.1,14.5,10.9-2.5,5.8-8.7,5.4-8.9-7.9-18.8-8.5,14.7,11.4,13.2,17.1-12.8,18.7-18.4,19.2-21.5-5.6-28-3.7,9.2,4.7,10.2,10.1-18.5,7.5-26.1,13.3-12.4,21.1-19.3,23.6S813.16,718.26,813.16,718.26Z" transform="translate(174.71 -14)"/><path class="cls-31" d="M837.26,722.16a42.7,42.7,0,0,1,8.6-12.5c5.9-5.9,15.6-8.4,19.8-11.5s20.4-17.2,28.5-18.5,8.3,1.3,11.6-1.7,2.9-3.6,9.5-2.2,27.7,1.9,29.2,3.9-4.7,2.6-4.7,4,10.6,3.6,9.9,6.9-15.4-3-19.7-.8,9.1,11.1,17.3,13.4,32.4,11.7,32.4,14.4-1.7,4.3-8.8,4.5-41.1-17.3-52.3-16.4-12.3,3-10.1,7.1,22,7.7,24.1,12-11.9,3.5-19.5,2.3-26.2-9.5-32.5-7.9,15.5,7.1,16.6,11.1-12,3.9-20.5,2.5-21.8-8.3-25.2-8S841.66,729.46,837.26,722.16Z" transform="translate(174.71 -14)"/></g><path class="cls-34" d="M1322.06,565.26s5.9-.2,6.4-1.2-1.7-8.1-.2-9.3,7,0,7.2,1.2,1.4,9.8.1,11.5-6,2.1-7,1.1.4-2.4-.5-2.6-5.5.7-5.5.7Z" transform="translate(174.71 -14)"/><path class="cls-35" d="M1319.06,500.56s7.9,7.6,10,21.4-2.8,19.4-.4,25.9,6.9,2.3,9.2,6,1.4,18.3-.6,24,4.6,20.9,4.1,26.3,3.7,27.9-4.6,36.2-15.7-1.8-45.2,1.6-46.6,3.3-51.9,8-29.1,1.6-36.6-2-25.3-16.9-25.3-16.9Z" transform="translate(174.71 -14)"/><path class="cls-36" d="M1230.06,646.36c6.9-1,7.8-7.6,9.7-10.6s84.6-3.8,87.1-6.5,1-26.4,1.4-28.6,3.5-4.5,4.2-6.5.1-2.9-2.1-5-.9-8.6-3.2-11.2-2.2-21.1-3.1-34.5.5-24.1,0-30.9-2.9-10-4.8-12-2.6-4.9-3.7-6.5-7.3-3.2-9.6-4.9-4-4.6-4.7-5.5-14.9-5.2-18.7-6.1-7.3-2-9.6.4-14,0-14,0-21.1,3.6-31.3,6.2-30.9,8.7-34.7,12.1-7.2,16.2-7.2,16.2c-1.7,11.1-5.5,67.5-10,72.6-9.4,10.6-11.1,22-3.6,27.7,5.8,4.4,2.4,14.7,5.8,18.5,1.9,2.1,26.1,11.3,32.1,13.4Z" transform="translate(174.71 -14)"/><path class="cls-37" d="M1237.76,502.36c3.2-2.2,8.2-2.7,8.2-2.7s21.5,3.3,36.7,7,32,6.9,34.1,9.5,3,18.1,5.2,24.9,4.1,15.2,4.3,21.7-.4,10.5-5.3,11.8-19.6-4.9-31-5-43.1,2.1-51.1,2-10.1-11.9-10.1-14.5C1228.86,554.66,1232.26,506.16,1237.76,502.36Z" transform="translate(174.71 -14)"/><path d="M1228.86,557.16s5.2-21.4,5.8-35.5,2.6-17.5,5.3-18.3,16.7-.4,25.9,1,19.7,5.9,26.9,7.1,19.5,5.7,21.5,9.2,4.2,12.1,6.1,12.4.9-14.2-1.5-17.3-7.6-4.8-11.3-5.6-5.8-.8-24.6-4.4-30.1-7.8-36.4-8-11.6,4-12.7,8.3-5.7,28.8-5.3,32.4S1226.66,554.86,1228.86,557.16Z" transform="translate(174.71 -14)"/><path class="cls-38" d="M1217.66,585c-2,1.4-2.3,10.2-1,12.5s21.4,2.8,23.6,2.4,3.6-3.8,3.6-6.8-2.5-6.5-4.3-7.2S1220.26,583.06,1217.66,585Z" transform="translate(174.71 -14)"/><path class="cls-38" d="M1246.26,592.76c-.1,4.2,1.1,9,8.6,10.7s12.4-1.1,13.9-2.4,2.7-3.6,6.9-3.5,14.6,2,17.6,1.8,6.9-2.5,11.3-2.2,5.6,3,8.5,5,10.6-.2,12.4-2.5,5.8-1.5,7.2-3.6,1.4-6.7-1-7.7-3.3-.5-6.5-2.6-11.8-2.4-13.7-.9-2.3,2.3-6.6,2.3-8.1-3.6-13.4-3.6-5.4,2.6-12.9,2.5-11.9-2.9-16.4-3.6S1246.46,582.26,1246.26,592.76Z" transform="translate(174.71 -14)"/><path class="cls-39" d="M1233.36,592.76c-.4,2.7,1,4.2,3.1,4.4a4.12,4.12,0,0,0,4.4-3.82v-.08a4.42,4.42,0,0,0-3.7-4.9C1235,588.06,1233.86,590.06,1233.36,592.76Z" transform="translate(174.71 -14)"/><path d="M1285.76,596.16c.4,1.2,3.2-8.2,3.7-8.7s4,.4,4.5.7.9,2.5,1.6,2.5.3-3.7-.8-4.3-5.7-2.3-6.3-1C1287.66,586.66,1285.06,593.66,1285.76,596.16Z" transform="translate(174.71 -14)"/><path class="cls-35" d="M1329.36,590.36s2-.5,2,2.4-.9,3.6-1.8,3.8-2.1-1.3-2-2.9S1327.46,590.56,1329.36,590.36Z" transform="translate(174.71 -14)"/><path d="M1258.46,593.76c.7.1-.4-6.5-4.8-6.4s-5.2,6.5-4.8,7.4,4.1,5,4.5,4.4-3.1-3.6-3.3-6.4,3.7-5.3,5.3-3.2S1257.16,593.56,1258.46,593.76Z" transform="translate(174.71 -14)"/><path d="M1268.76,593.56c.7.1-1.4-5.2-4.7-5.6s-4.4,3-4.4,6.3,3.2,5.8,4.3,5.6-2.6-1.3-3-4,.2-6.4,1.3-6.5,3.2.1,4,1.6S1267.26,593.36,1268.76,593.56Z" transform="translate(174.71 -14)"/><path d="M1318.36,593.46c1.1.5-.8-3.7-2-4.3s-6,.8-5.3,4.4,1.8,4.9,2.8,5.1,1.5.3.9-.8-3.5-2.7-2.3-6.3S1315.86,592.26,1318.36,593.46Z" transform="translate(174.71 -14)"/><path d="M1325.66,593.56s-.1-5.2-2.8-5.1-3.4,3.4-3.3,5.5,1.1,4.5,2.8,4.4.4-2-.2-2.2-2.3-3.8-1.3-4.9,2.5-1.6,3.1-.1S1323.66,593.36,1325.66,593.56Z" transform="translate(174.71 -14)"/><path class="cls-34" d="M1225.26,630.16s-.2,10.3,1.8,10.8a97.21,97.21,0,0,0,16.6,1.4c5.9-.1,36.9-4.1,44.4-4.8s38.4-3.5,40.9-4.3,4.8-5.1,4.9-10.6,1.1-6.4-2.3-6.9-8.9,2.9-23.6,3.9-65.4,3.3-69.8,3-6.8-3.7-8.7-2.4C1227.66,621.76,1225.26,626.56,1225.26,630.16Z" transform="translate(174.71 -14)"/><path d="M1217.26,513.66s-1.3-4.3-5.4-3.2-4.9,4.6-5.4,6.9-1.9,38.3-1.9,38.3-.6,5.7,1,8.2a4.32,4.32,0,0,0,4.6,1.7c1.2-1.9,2.3-1.8-.8-2.5s-2.7-2.4-2.8-4.4,1.7-39.7,1.7-39.7.4-4.7,4.3-5.9S1217.26,513.66,1217.26,513.66Z" transform="translate(174.71 -14)"/><path d="M1202.06,517.46s-.7-4.1-5.2-2.5-4.4,6.6-4.4,6.6l-1.4,36.4a6.76,6.76,0,0,0,2.7,6.4c3.4,2.3.6-3.6.2-9s.6-33.6.6-33.6.2-4,3.6-4.9S1202.06,517.46,1202.06,517.46Z" transform="translate(174.71 -14)"/><path d="M1213.56,583.46a4.76,4.76,0,0,0-5.5-3.6c-4.5.7-4.6,2.8-5,5.2s-1.5,30.8-1.5,30.8a7.73,7.73,0,0,0,1.9,5.4c2.1,2.1,2.8-2.4,1.9-3.5s-1.5-2.8-.7-17.3,0-18,4-18.4S1213.56,583.46,1213.56,583.46Z" transform="translate(174.71 -14)"/><path d="M1198.66,582.06a5.71,5.71,0,0,0-5.5-3.6c-4.3,0-4,10.9-4.5,18.6s-1.7,16.8.1,19.2,2.6-2.2,2.3-3.9a137.37,137.37,0,0,1-.5-17.8c.3-6.5,1-13.3,3.9-13.3A8.56,8.56,0,0,1,1198.66,582.06Z" transform="translate(174.71 -14)"/><path class="cls-34" d="M1217.26,513.66s4.1-4.3,6.7-3.1,1.5,4.4,1.5,4.4,3.9,1.7,4,7.7-4.4,7.4-7.3,7.7-7.5-4.2-7.6-7.6.8-6.2,3.2-6.9S1215.06,515.56,1217.26,513.66Z" transform="translate(174.71 -14)"/><path d="M1314.26,499.66s1.3-2.5.6-3.5-15.2-7-27.5-9.9-27.9-5.1-27.9-5.1a3.83,3.83,0,0,0-2.1.6c-.7.6-4.4,9.6-4.6,10.7s-.9,2.9.4,3.3,1.3-4.1,2.8-8.3,1.8-4.2,3.1-4.6,16.1,3.7,23.4,4.3,13.7,4.2,17.5,5.1,12.3,3.1,12.7,4.4S1312.26,499,1314.26,499.66Z" transform="translate(174.71 -14)"/><polygon class="cls-36" points="1331.27 502.66 1331.27 460.06 1333.07 460.06 1333.07 454.26 1333.07 449.96 1312.27 449.26 1282.87 448.56 1285.07 490.86 1320.57 494.46 1327.67 501.76 1331.27 502.66"/><path class="cls-35" d="M1177.06,459.06s-8.4,2.7-12,4.9-5.9,6.2-7.2,6.1,1.6-4.6-3.3-5.5-35.9-1.2-38.9.7,0-11.5,0-11.5l57.9,2.2Z" transform="translate(174.71 -14)"/><path class="cls-35" d="M1178.66,555.56c-1.3,3.3-.3,9.9-2.5,15.2s-7.3,12.4-10.2,12.7-11.5,1.3-14.8,0-3.9-8-8.1-8-6.6,5.8-21,5-24.8-4.5-26.3-7.1-13.4-6.8-17.3-4.7-5.2,12.3-8.6,14.5-10.8,4.8-13.8,3.7-10.1-6.9-10.1-10.2v-16.5l10.1-12.2S1173,522,1177,526C1183.16,532,1179.86,552.26,1178.66,555.56Z" transform="translate(174.71 -14)"/><path class="cls-36" d="M1066.56,358.56a25.63,25.63,0,0,0-8,6.9c-3.3,4.5-8,17.5-10,21.7s-15.8,36.8-15.8,36.8-3.9,21.7-4.1,27.5-1.5,77.3-1.5,77.3l2.6,5,.4,8.9h3s4.1,9.7,5.4,11,5,5.2,5,5.2.3,9.8,2.4,14.3c5.6,12.3,5.6,12.3,17.5,11,8.6-.9,6-28.6,6-28.6Z" transform="translate(174.71 -14)"/><path class="cls-36" d="M1174.46,549.16s2.2,10.2,0,18.6-5,10.8-7.6,12.6-14.1,1.7-15.2,0-5.1-11-6-21.2S1174.46,549.16,1174.46,549.16Z" transform="translate(174.71 -14)"/><path d="M1113.46,472.66l35,1.1s2.7,0,3.5,1,1.1,21.8,0,21.9-.5-14.8-.8-17.3-.1-3.5-.9-4.1-36-1.3-36-1.3Z" transform="translate(174.71 -14)"/><path class="cls-37" d="M1177.06,459.06s-3.5-82.3-14.3-90.5-38.1-12.1-48.5-13-41.2-2.2-47.7,3-8.5,94.9-8.5,94.9l-1.6,96.2s-2.1,4.3,3.8,8.2,44.6,10.8,44.6,10.8v4.5h32.3l.2-5.7s14.5-.4,15.6-2.2.6-4.9.6-4.9,20.3-5.5,22.5-7.5,1.9-16.6-.4-22.4-6.2-11.6-11.4-13.5a60.75,60.75,0,0,0-7.7-2.4l-2.8-.3s-1.7-5.4-4.5-8-3.2-1.5-3.2-1.5-11.7-1.2-18.2-1.5-12-.4-12-.4l-.2-39.3a9.31,9.31,0,0,1,1.3-4,4,4,0,0,1,2.3-1.7Z" transform="translate(174.71 -14)"/><path d="M1062.86,499.76v-37.9s.1-2.8,1.2-3.7a6,6,0,0,1,3-1l41.2,1.2s2.5.3,3.3,1.4,1.4,13.9,1.3,23.4-.4-20.6-1.7-22.1-2.2-2-21.5-2.3-22.1-1-23.8.3-1.2,33.6-1.6,36A23.31,23.31,0,0,1,1062.86,499.76Z" transform="translate(174.71 -14)"/><path d="M1078.56,543.06c1.2,1,1.9-5.3,1-6.9s-4.2-3.5-7.7-3.2-7.1,4.3-7.1,6.5-.1,6.4,2.7,8.1,5,1.6,4.9.6-4.4-1.4-5.4-4a6.74,6.74,0,0,1,2-7.7c2.5-1.9,6.9-1.7,8.1.6S1077.06,542,1078.56,543.06Z" transform="translate(174.71 -14)"/><path d="M1171.36,541.66c-1,.3,1-4.9-2.9-5.9-3.3-.9-5.5-.3-6.5,2.3s-2,4.6,0,6.5,4.3,1.7,4.2,2.9-5.7-.6-6.7-3.9.3-8.9,3.8-10.6,8.4,1.8,9.1,3.6S1172.86,541.26,1171.36,541.66Z" transform="translate(174.71 -14)"/><path class="cls-40" d="M1094.26,563.16V533a2.25,2.25,0,0,1,1.2-2.4,5,5,0,0,1,2.7-1.2h16.9s2.6-.1,4.5,3.1,1,5.8,2.6,6.3,2-5.5,3.5-7.5a4.42,4.42,0,0,1,3.6-1.9h17.8s2,.6,2.5,1.7,1.3,28.9-.9,31.2-5.6-3.3-9.1-4-19.3,2.9-27.3,3.6-13-6.9-15.4-6.8C1094.26,555.26,1096.76,561.86,1094.26,563.16Z" transform="translate(174.71 -14)"/><path class="cls-41" d="M1106.86,570.56c.9.6,0-5.2,0-5.2h27.9v5.2s-4.1-2.8-8.4-2.6-8.4,2.5-10.6,2.6A82.57,82.57,0,0,1,1106.86,570.56Z" transform="translate(174.71 -14)"/><path d="M1111,488.56l-45.3-1.1s3.2,1.5,10.8,2.2,9.1-.4,16,0S1111,488.56,1111,488.56Z" transform="translate(174.71 -14)"/><path d="M1066.76,369.86l99.3,7.8s-4.7,1.5-13.4.9-24.1-2.9-41-4.2C1094.76,372.86,1076.36,371.66,1066.76,369.86Z" transform="translate(174.71 -14)"/><path d="M1067.76,397l-.9-21.7a3.61,3.61,0,0,1,1.6-2.3c1.3-.7,5.5-.7,5.5-.7l38.1,3.3a5.48,5.48,0,0,1,3.2,1.3c1.2,1.2,1.1,3.6,1.1,3.6s.7,8.8,0,9,0-8.2-1.3-10.8-5.6-2.3-10.2-2.2-19.4-2.6-27.9-3-8.5.9-8.8,2S1069.36,395.86,1067.76,397Z" transform="translate(174.71 -14)"/><path d="M1122.56,401.56c1.5,1.4-1.2-8.1-1.4-14.4s.1-8.3,1-8.5,39.3,2.7,40.8,3.4,2,3,2.5,5.8-1,9,0,10,1.2-11.6.1-14-.8-3-5.4-3.5-35.4-3.3-35.4-3.3-3.9-.4-4.3.9C1119.86,379.16,1120.26,399.46,1122.56,401.56Z" transform="translate(174.71 -14)"/><path d="M1091.86,430.16a41.85,41.85,0,0,1,8.2-.9c3.6.1,8.7,2.2,20.1,2.5s21.7-.6,23.5,0,1.9,2.7,3.5,2.3,2.8-2.2,0-3.6-14.3-.1-26.8-.6-18.6-2.2-22.5-2.2a38.61,38.61,0,0,0-7.2.7Z" transform="translate(174.71 -14)"/><path d="M1146.66,411.26s-11.8.1-20.2,0-12.8-2.3-13.7-1,1.2,8.5.7,11.7-1.7,3.3-2.5,2.7-.9-9.8-.8-12.4a4,4,0,0,1,2.2-3.5l19.9.1Z" transform="translate(174.71 -14)"/><path d="M1090.66,435v-24.1s.4-2.6,1.1-3a18.6,18.6,0,0,1,3.6-.9c.9-.1,48.7,2.6,48.7,2.6s2.5.9,2.7,1.7.9,5.1,0,4.9,0-4-2.2-5.3-49.9-2.8-51.1-2.3c-2.5.9-2.1,10.7-1.7,18.5S1092.16,434.46,1090.66,435Z" transform="translate(174.71 -14)"/><path d="M1169.26,450.86c2.8.6,8,.7,6.2,2.9s-5.3,2-10.7,1.8-30.9-1.8-44.6-2.3-35.2,1.4-42.3.5-14.2-.9-15-4.2,7.4-2.4,11.3-1.5,29.5,1.5,34,1.1,39.3,0,44.4.4Z" transform="translate(174.71 -14)"/><path class="cls-35" d="M767.86,505.06l52.7-20.5,1.1,4.7s-2.7,15.5-13.6,22.4c-9.7,6.2-24.6,4.9-31.5,2.5C770.16,511.86,767.86,505.06,767.86,505.06Z" transform="translate(174.71 -14)"/><path class="cls-35" d="M835.16,317.06l-1.4,9.6s-2.9-.8-3.3,3.7,2.2,3.6,2.2,3.6l-.5,3.6s-6.6-1.5-7.9.2-2.7,6.2-3.4,14.5.1,14.2,2.3,15.3a8.37,8.37,0,0,0,4.6.7l-.9,5.9,92.4,9.6,66.3,2.7,11.3-7.5,7.8-24.8-6.5-34.9-157.3-5.1Z" transform="translate(174.71 -14)"/><polygon class="cls-37" points="969.97 372.36 998.77 361.06 1054.87 361.86 1126.37 372.26 1072.77 390.76 969.97 372.36"/><path class="cls-34" d="M803.46,510.46c6-3,16.9-14.9,19.7-38.7s-12.3-21.6-26.9-22.3-31.4-29.7-35.9,13.1,8.2,44.1,13,47.6S797.46,513.46,803.46,510.46Z" transform="translate(174.71 -14)"/><path class="cls-37" d="M841,322.86c1.8-.8,158.1,4.5,160.1,6.9s-3.3,58.3-5.5,59.6-160.2-11.3-163.5-15.5S837,324.66,841,322.86Z" transform="translate(174.71 -14)"/><path class="cls-35" d="M799.06,454.06s-1.2-8.4-7.6-7.7-11,12.3-12.1,27.4,2.4,23,4.6,25.7-2.6-15.1-1.8-25.3,4.8-22.7,9.1-24.8S795.36,453.16,799.06,454.06Z" transform="translate(174.71 -14)"/><path class="cls-35" d="M757.56,426.36s-5.4,5.9-5.4,17.8,1.2,13.5,2.7,15.1,41.3,6.7,47,13.5,13.2,15,20.8,20.6,12.4,1.7,38.1,5.8,53.5,6.3,55.5,4.9c1-.7-6.6,23.2,4.6,32.3s35.1,7.1,37.2,4.7c7.3-8.4,11.1-21,11.1-21l8.4-3.9,9.5-51.7-15.6-39.6-200.8-3Z" transform="translate(174.71 -14)"/><path class="cls-36" d="M835.26,313.06s3-10.1,14.8-17.3,53.3-10.1,72.1-9.5,41.6,3.4,60.3,12,20.9,22.5,20.9,22.5-.4,2.4,2.5,5.8,14.6,8.9,21.1,15,9.2,11.6,10.3,22.3-1.8,23.1-1.8,23.1l-14.1,34.1-8.2,65.7-5.2,28.7-30.6.8s4.2-33.7,1.2-60.8-16.3-23-23.2-18.5-3.7,6.2-8.5,10-73.4-3.7-124.4-9.7-65-10.9-65-10.9,3.6-15.2,12.6-19.2,15.8-2.9,15.8-2.9,3.2-15,9.3-17.8,39.8-.3,56.1,1.7,27.2,4,27.2,4,64.3-3.2,63.9-5.4-27.9-5.5-51.4-7.9-66.1.2-67-3.8,84.4,2.9,97.2,3.7,60.2,9.5,69.7,2.1,10.7-49.3,5.9-54.5-51.8-5.5-87-6.4c-30.9-.8-62.3-1.2-71.9-2.3-1.4-.2-9.3,59.2-9.7,59-1.1-.5-7.7-.8-9.2-9.8-1.9-11.7,2.3-33.4,9.6-40.2C833,322.76,835.26,313.06,835.26,313.06Z" transform="translate(174.71 -14)"/><path class="cls-34" d="M752,437.86c3.3,4.1,38.2,3.7,83.6,8.9s81.7,13.3,83.6,12.2,2-5,1-6.9-64.9-8.4-90.2-11.4-57.2-8-63.5-9.3-8.6-4.1-11.5-2.9S750.26,435.86,752,437.86Z" transform="translate(174.71 -14)"/><path class="cls-34" d="M954.26,538.76c6-3,13.5-15.6,16.3-39.3s-1.7-48.3-16.3-49-34.2-1.1-38.7,41.7,3.9,43,8.6,46.5S948.16,541.76,954.26,538.76Z" transform="translate(174.71 -14)"/><path class="cls-35" d="M962.76,475.86s-1.2-8.4-7.6-7.7-11,12.3-12.1,27.4,2.4,23,4.6,25.7-2.6-15.1-1.8-25.3,4.8-22.7,9.1-24.8S959,475,962.76,475.86Z" transform="translate(174.71 -14)"/><path class="cls-42" d="M907.86,297.66c-.4-1.6-1.4-3.1-3.2-2.8s-2.1,2-2,3.5c.2,2.9.5,5.9.8,8.8a5.71,5.71,0,0,0,.8,2.5,2.55,2.55,0,0,0,2.7,1.4c1.2-.2,1.6-1.1,1.8-2.2.4-1.9-.1-3.8-.2-6C908.36,301.26,908.26,299.46,907.86,297.66Zm-.7,10c0,.5,0,1.2-.7,1.3s-1.1-.6-1.1-1.2c-.4-3.2-.7-6.4-1-9.6-.1-.6,0-1.4.8-1.4s1,.7,1,1.3c.2,1.6.3,3.3.4,4.9h.3c.1,1.6.2,3.1.3,4.7Z" transform="translate(174.71 -14)"/><path class="cls-42" d="M896.66,302.36c-.2-2.2-.3-4.4-.5-6.6,0-.5-.3-1.2.6-1.2.7,0,1,.3,1,1,.1,1.5.3,3,.4,4.5.1.8.4,1.3,1.3,1.2,1.1,0,.7-.8.6-1.4l-.3-3.9c0-.5-.2-1.2.6-1.3s1,.3,1,1c.4,4.5.9,9,1.3,13.5,0,.6.2,1.3-.8,1.3s-.9-.7-.9-1.3c-.1-1.6-.3-3.1-.4-4.7-.1-.7-.3-1.2-1.1-1.2-1.1,0-.7.8-.7,1.3.1,1.3.3,2.6.3,3.9,0,.6.7,1.7-.6,1.8s-1.1-1-1.1-1.8c-.2-2.1-.3-4.2-.5-6.4C896.86,302.36,896.76,302.36,896.66,302.36Z" transform="translate(174.71 -14)"/><path class="cls-42" d="M910.16,309.26c.5,1.3,1.3,2.2,2.7,2.1s2-1.3,2.1-2.6a44,44,0,0,0-.7-8.8,8.17,8.17,0,0,0-.7-3c-.6-1.2-1.5-2.1-2.9-1.9s-1.8,1.4-1.9,2.6a23.55,23.55,0,0,0,.4,5.3C909.66,305.06,909.46,307.26,910.16,309.26Zm.6-11c0-.5,0-1,.6-1.2s1,.4,1.1,1c.4,3.3.7,6.6,1,10,0,.5-.1,1.2-.8,1.3s-1-.5-1-1.1c-.2-1.7-.3-3.4-.4-5.1h-.2C911,301.46,910.86,299.86,910.76,298.26Z" transform="translate(174.71 -14)"/><path class="cls-42" d="M924.26,303.76c.2,2,.3,4.1.4,6.1.1,1.1.3,1.8,1.6,1.8s2.7.2,3-1.6a9.08,9.08,0,0,0-.5-5.4,3.38,3.38,0,0,1-.2-2.4,7.93,7.93,0,0,0-.7-5c-.8-1.6-2.4-1.5-3.8-1.2s-.5,1.5-.5,2.2c.1,1.8.2,3.7.4,5.5a.19.19,0,0,0,.27,0Zm2.2,1.1c1.3-.1,1.2,1.4,1.4,2.3,0,.2.1.4,0,.6-.1.7.1,1.7-.9,1.9-1.2.1-.8-1-.9-1.7-.1-.3,0-.5-.1-1C926.26,306.36,925.16,305,926.46,304.86Zm-.7-6.6c1.2-.1,1.1,1.3,1.2,2.2s.4,2-.7,1.9c-1.5,0-.3-1.6-1-2.2C925.66,299.46,924.76,298.26,925.76,298.26Z" transform="translate(174.71 -14)"/><path class="cls-42" d="M935.06,303.66c.1,1.9.4,3.8.4,5.7,0,1.4-.3,2.7-2,2.9a2.41,2.41,0,0,1-2.77-2,1.63,1.63,0,0,1,0-.31c-.5-4.2-.9-8.4-1.4-12.6,0-.4-.1-.9.5-1a.87.87,0,0,1,1.07.58.85.85,0,0,1,0,.32c.1,1.7.3,3.4.5,5.1l.6,6.3c.1.6.3,1.5,1.2,1.4s.7-1,.7-1.7c-.3-3.3-.6-6.7-.8-10,0-.6-.5-1.6.5-1.7s1,1,1,1.7c.2,1.8.3,3.5.4,5.3Z" transform="translate(174.71 -14)"/><path class="cls-42" d="M885.36,293.86c1.9-.2,3.9,2.3,3.5,4-.1.4-.4.5-.7.6-.6,0-.8-.3-1-.8s-.3-1.8-1.3-1.4-.5,1.5-.2,2.4a15.58,15.58,0,0,0,2.7,3.5,7.46,7.46,0,0,1,1.7,5.7,2.44,2.44,0,0,1-2.35,2.53l-.45,0c-1.5-.2-3-2.3-2.7-3.6.1-.3.2-.5.5-.5.5,0,1,.1,1.2.6.3.8.5,1.9,1.6,1.3s.7-1.8.2-2.6a17.14,17.14,0,0,0-2.4-3.1,8.38,8.38,0,0,1-2.3-6C883.46,295.06,884.06,294.06,885.36,293.86Z" transform="translate(174.71 -14)"/><path class="cls-42" d="M892.06,301.36c.3,2,.6,4.1.9,6.1.1.6.3,1.1,1,1.1s.7-.6.7-1.1-.1-1.3.9-1.3.8.8.9,1.4c.1,1.4-.3,2.7-1.8,3a2.78,2.78,0,0,1-3.1-1.8,13.09,13.09,0,0,1-.8-4.8c-.2-2.1-.4-4.2-.5-6.3-.1-1.6.1-3.1,2.2-3.3,1.6-.2,2.8,1,3.1,2.9.1.4.3,1-.3,1.2a.91.91,0,0,1-1.22-.37,2.09,2.09,0,0,1-.08-.23c-.2-.6-.3-1.6-1.2-1.3s-.6,1.3-.6,2a13.13,13.13,0,0,0-.1,2.8Z" transform="translate(174.71 -14)"/><path class="cls-42" d="M937.26,300a6.81,6.81,0,0,0,2.1,3.7,8.29,8.29,0,0,1,2.3,5.5c0,1.5-.2,3.1-2.1,3.2s-2.6-1.3-3-2.8c-.1-.4-.3-1,.4-1.2a.83.83,0,0,1,1.07.49l0,.11c.2.7.5,1.7,1.5,1.1s.6-1.5.3-2.2a12.37,12.37,0,0,0-2.5-3.5,8.59,8.59,0,0,1-1.9-5.3,2.48,2.48,0,0,1,1.3-2.6c.9-.5,1.7,0,2.4.6a4.72,4.72,0,0,1,1.2,3.2c0,.3-.3.4-.6.4-.8.1-.8-.6-1-1.1s-.3-1.2-1-1.1C937.16,298.76,937.26,299.46,937.26,300Z" transform="translate(174.71 -14)"/><path class="cls-42" d="M915.36,303.16c-.2-2-.3-4.1-.4-6.1,0-.5-.4-1.3.5-1.5s1,.7,1.1,1.4c.4,3.5.8,6.9,1.1,10.4.1,1.2.2,2.2,1.8,2,.9-.1,1.5.3,1.4,1.3s-1,.8-1.6.8c-3,.1-3,.1-3.2-2.9-.1-1.8-.3-3.5-.4-5.3A.37.37,0,0,0,915.36,303.16Z" transform="translate(174.71 -14)"/><path d="M869,302.16c1.3-.8-3.1-4.1-6.3-2.8a7.48,7.48,0,0,0-4.7,6.1c-.2,2-.5,6,2,6.7s-3.3-2.5-.4-8.5S867.66,303,869,302.16Z" transform="translate(174.71 -14)"/><path d="M855.76,301.46c1.2-1-3.2-2.3-5.5-1.2s-3.9,3.3-3.6,6.8,1.8,6,2.6,5.5-2.9-5.5-.9-8.9S854.26,302.66,855.76,301.46Z" transform="translate(174.71 -14)"/><path d="M968.86,304.56c1.4.5-2.4-4.3-6.6-3.3s-6.8,4.2-6.7,6.9,1.5,7.6,3.7,6.2-4.7-3.6-1.6-8.7S966.86,303.76,968.86,304.56Z" transform="translate(174.71 -14)"/><path d="M984.46,306.36c.9-.4-2.7-3.8-5.5-4s-6.8,1.7-6.9,4.7-1.4,6.1,1.1,8.4-1.7-5.8.1-9.6S982.66,307.26,984.46,306.36Z" transform="translate(174.71 -14)"/><path class="cls-42" d="M815.46,415.46c1.7-9,3.3-17,5.4-24.9.1-.6,1.1-1.5-.4-1.7-1-.1-2.1-.6-2.5.9a17.52,17.52,0,0,0-.6,3.2c-.7,7.2-2.6,14.1-3.7,21.2-.6,3.8-1.1,7.6-1.6,11.4-.1.7-.5,1.8.7,2s1.1-1,1.2-1.7C814.56,422.06,815.06,418.26,815.46,415.46Z" transform="translate(174.71 -14)"/><path class="cls-42" d="M861.46,431.26c0,.5-.4,1.1.4,1.1a1,1,0,0,0,1.26-.64.94.94,0,0,0,0-.16c.5-1.3.9-2.6,1.4-3.9a263.44,263.44,0,0,1,13.5-31.5c.3-.5.4-.9-.2-1.1-.8-.2-1.8-.8-2.4.3s-.8,2-1.3,3c-4.5,10.4-8.8,20.9-12.4,31.7A6.2,6.2,0,0,1,861.46,431.26Z" transform="translate(174.71 -14)"/><path class="cls-42" d="M808.56,412.56a181,181,0,0,1,3.9-21.8c.1-.6,1-1.7-.4-2-1.2-.3-1.6.5-1.8,1.6-2.1,9.7-3.7,19.5-4.9,29.3-.3,2.4-.4,4.9-.7,7.4-.1.6-.2,1.3.7,1.4,1.1.2.9-.7,1-1.3C807.16,422.36,807.86,417.46,808.56,412.56Z" transform="translate(174.71 -14)"/><path class="cls-42" d="M812.46,411.36c1-5.5,2.3-12.9,4.1-20.1.2-.7,1.2-2-.4-2.3s-1.5.9-1.8,1.9c-1.6,7.8-3.3,15.7-4.5,23.6-.6,4.3-1.1,8.7-1.6,13-.1.7-.4,1.7.6,1.9,1.3.2,1-1,1.1-1.7C810.76,422.76,811.46,418,812.46,411.36Z" transform="translate(174.71 -14)"/><path class="cls-42" d="M856.56,432.36c0,.8-.6,1.6.5,1.8s.9-.6,1.1-1.3c2.9-8.8,6-17.6,9.6-26.1,1.5-3.7,3.2-7.3,4.7-10.9.2-.5,1.3-1.1.1-1.6-.9-.3-1.7-.4-2.2.8-1,2.6-2.1,5.1-3.1,7.6-2.4,6.3-4.8,12.5-7.1,18.8C858.86,425.16,857.66,429,856.56,432.36Z" transform="translate(174.71 -14)"/><path class="cls-42" d="M817,418.66c-.5,3.3-1,6.5-1.4,9.8-.1.6-.4,1.5.6,1.7,1.2.2,1-.8,1.1-1.5a275,275,0,0,1,7.4-35.8,4.74,4.74,0,0,1,.5-1.6c.6-1,.2-1.5-.8-1.8s-1.5.2-1.7,1.2c-1,4.7-2.1,9.4-3.1,14S817.66,414.06,817,418.66Z" transform="translate(174.71 -14)"/><path class="cls-42" d="M852.16,432.66c-.2.5-.1,1,.5,1.1s.9,0,1.1-.8a298.68,298.68,0,0,1,13.7-37.8c.2-.5,1.5-1.2,0-1.7-1.1-.4-1.7,0-2.1,1.2-1.6,4.4-3.3,8.7-4.9,13.1-3,8-5.8,16.1-8,24.4C852.36,432.36,852.26,432.46,852.16,432.66Z" transform="translate(174.71 -14)"/><path class="cls-42" d="M820.16,422.06c-.3,2.3-.7,4.6-1,6.9-.1.6-.4,1.5.6,1.6,1.2.2,1.1-.8,1.2-1.4a290.58,290.58,0,0,1,6.9-32.1c.3-1.3,1.6-2.6.1-4-.3-.3-.5-.9-1.1-.8-.4.1-.4.7-.5,1C824.16,402.86,821.66,412.36,820.16,422.06Z" transform="translate(174.71 -14)"/><path class="cls-42" d="M848,432.56c.1.4-.5,1,.4,1.1.6,0,1.1.1,1.3-.8a273.31,273.31,0,0,1,12.4-36.4l.9-1.8c.3-.5.8-1.2,0-1.6a1.21,1.21,0,0,0-1.7.16,1.17,1.17,0,0,0-.2.34,3.64,3.64,0,0,0-.4.9,385.12,385.12,0,0,0-12.5,37.6A.72.72,0,0,0,848,432.56Z" transform="translate(174.71 -14)"/><path class="cls-42" d="M830,396.36c-1.1,4.3-2.2,8.5-3.1,12.6-1.5,6.6-3,13.2-3.9,19.9,0,.1-.1.3-.1.4,0,.7-.5,1.6.8,1.7,1.1.1.9-.8,1.1-1.4,1.4-4.7,1.7-9.7,2.9-14.4,1.2-5.1,2.4-10.1,3.9-15.1C832.06,398.36,831.46,397.36,830,396.36Z" transform="translate(174.71 -14)"/><path class="cls-42" d="M846.46,428.56c1.1-4.1,2.4-8.2,3.7-12.3,2.3-7.8,5.1-15.3,8-22.8.2-.5.4-.9-.3-1.1a1.29,1.29,0,0,0-1.8.8c-.8,2.5-1.7,4.9-2.6,7.4-3.5,10.2-6.9,20.4-9.4,30.8-.1.6-.6,1.5.3,1.7,1.2.4,1-.7,1.1-1.4C845.66,430.66,846.66,429.76,846.46,428.56Z" transform="translate(174.71 -14)"/><path class="cls-42" d="M805.76,392.76c-1.6,7.5-2.7,15.6-3.7,23.7-.4,3.4-.5,6.8-.8,10.2-.1.7-.2,1.5.9,1.4s.7-.8.7-1.4a254.32,254.32,0,0,1,5.4-35.9c.1-.7.9-1.7-.5-2s-1.6.6-1.7,1.7C806,391.06,805.86,391.66,805.76,392.76Z" transform="translate(174.71 -14)"/><path class="cls-42" d="M796.76,398.06c-1,8.2-2.1,16.4-2.4,24.7,0,.6-.5,1.7.7,1.8,1.4.1,1-1.1,1-1.8a245.92,245.92,0,0,1,3.4-28.5c.2-1.3.9-2.5.7-3.9-.1-.6.4-1.4-.7-1.5a1.26,1.26,0,0,0-1.56.87,1.24,1.24,0,0,0,0,.43C797.56,392.76,797.16,395.36,796.76,398.06Z" transform="translate(174.71 -14)"/><path class="cls-42" d="M800.06,403.26a170.73,170.73,0,0,0-2.2,21.4c0,.9-1,2.6.6,2.7s1-1.8,1.1-2.7a263.67,263.67,0,0,1,4.3-31.9,3.18,3.18,0,0,1,.6-1.7c.6-.8.3-1.4-.1-2.1a1.25,1.25,0,0,0-1.3-.3c-.9.2-.9.9-1,1.6C801.36,394.56,800.66,399,800.06,403.26Z" transform="translate(174.71 -14)"/><path class="cls-42" d="M842.46,427.66c1.2-4.9,2.6-10.2,4.3-15.5,2.1-6.4,4.1-12.9,6.7-19.2.2-.4.7-.8-.1-1.1-.6-.2-1.2-.4-1.7.3a7.66,7.66,0,0,0-.6,1.3c-3.8,11.4-7.6,22.9-10.4,34.6-.2.8-1.2,2.3.2,2.6C842.36,430.76,842.26,429.16,842.46,427.66Z" transform="translate(174.71 -14)"/><path class="cls-42" d="M839.36,422.86c1.6-6.4,3.5-13,5.6-19.5,1.2-3.8,2.6-7.5,4-11.2.4-1-.1-1.1-.8-1a2.19,2.19,0,0,0-1.6,1.5c-3.8,12-7.5,24-10.2,36.3-.2,1.1-1.2,3,.1,3.2,1.6.3.9-1.8,1.2-2.8C838.16,427.26,839.36,425.26,839.36,422.86Z" transform="translate(174.71 -14)"/><path class="cls-42" d="M866.66,430.56c5.7-10.5,10.8-21.2,13.6-32.9C875,408.26,870.06,419.16,866.66,430.56Z" transform="translate(174.71 -14)"/><path class="cls-42" d="M843.26,393.76a2.65,2.65,0,0,0-2.2,2.2c-2.5,8.2-4.8,16.4-6.7,24.7l-2.1,9.6c-.1.6-.6,1.4.4,1.7s1-.6,1.1-1.3c1.7-10.6,4.7-20.9,7.8-31.2C842.16,397.76,843.26,396.06,843.26,393.76Z" transform="translate(174.71 -14)"/><path class="cls-42" d="M837.56,397.06c-2.9,1-2.4,3.7-3,5.7a272.11,272.11,0,0,0-6.2,26.6c-.1.4-.1.8-.2,1.2a.83.83,0,0,0,.6,1.1c.6.1.6-.5.7-1,2.1-9.9,4.1-19.9,7.2-29.6C837.06,399.76,837.86,398.56,837.56,397.06Z" transform="translate(174.71 -14)"/><path class="cls-42" d="M792.46,424c.7-11.1,2.1-22,3.9-33.3C792.76,395,790.06,418.36,792.46,424Z" transform="translate(174.71 -14)"/><path class="cls-35" d="M1026.16,348.16c1.1,2.4-18.2,160.5-21.4,163.9s-20.4,1.9-23.3.7,20.9-172.3,23.1-174.4S1025.26,346.36,1026.16,348.16Z" transform="translate(174.71 -14)"/><path class="cls-36" d="M1011.76,344.16c.5,1.1-9.1,78.3-10.5,79.9s-9.3,1-10.7.4,10.3-84,11.3-85S1011.46,343.26,1011.76,344.16Z" transform="translate(174.71 -14)"/><path class="cls-36" d="M1025.16,350.06c.5,1.1-9,77.6-10.4,79.2s-9.3,1-10.7.4,10.2-83.2,11.2-84.3S1024.86,349.16,1025.16,350.06Z" transform="translate(174.71 -14)"/><path class="cls-36" d="M1000.26,431.56c.5,1.2-9.4,80.7-10.9,82.4s-9.3,1.1-10.7.5,10.7-86.6,11.7-87.7S999.86,430.66,1000.26,431.56Z" transform="translate(174.71 -14)"/><path class="cls-36" d="M1013.56,437.66c.5,1.1-8.5,74.8-10,76.4s-9.3.9-10.7.3,9.8-80.3,10.8-81.3S1013.16,436.76,1013.56,437.66Z" transform="translate(174.71 -14)"/><path class="cls-35" d="M828.76,374l-.5-5.1a7.4,7.4,0,0,1-4.6-.7c-2.2-1.1-3-7-2.3-15.3s2.1-12.8,3.4-14.5,7.9-.2,7.9-.2l.5-3.6s-2.6.9-2.2-3.6,3.3-3.7,3.3-3.7l3.6-9.8.5,4.2-4.7,25.4Z" transform="translate(174.71 -14)"/><path class="cls-35" d="M1561.66,665.16s4.5,6.4-12.9,20.6-39.9,15.2-47,19.8-21.1,25.9-37.6,18.8-27.5-25.7-54.5-35.4-55.9-7.7-55.9-15.4-6-79.9-6-121.1c0-28.3,16.4-53.6,57.3-53.6S1561.66,665.16,1561.66,665.16Z" transform="translate(174.71 -14)"/><path class="cls-36" d="M1366.16,510a635.24,635.24,0,0,0-1.7,69.4c1.3,35.3,4.7,70.5,6.9,73.9a13.23,13.23,0,0,0,4.7,4.7s20.2,10.3,39.5,16.7,62,22.6,68.7,16.8c3.5-3,73.9-15.1,75-35.1,1-18.8-2-121.1-2-145.6,0-50.5-67.2-12.3-67.2-12.3l-26.5-12.1L1383,495Z" transform="translate(174.71 -14)"/><path class="cls-34" d="M1556.36,513.46s3.4,5.1,14.4,6.2,7.1-.7,10.7-.4,3.7,3.2,9.3,3.7,9.2-.6,9.3-3.6-3.7-10.3-3.7-10.3l-37.1-14.7-7.2,10.6Z" transform="translate(174.71 -14)"/><path class="cls-34" d="M1488.26,508.86s-1.9,45.7,0,50,1.4,3,6.6,4.7,51.9.9,54.5,0,3.4-38.6,2.6-44.2-3.9-18.4-3.9-18.4l-58.8-6Z" transform="translate(174.71 -14)"/><path class="cls-37" d="M1366.16,510s4.3-15,10.3-22.7,12.8-8.6,12.8-8.6.1-12.9,3.1-15.9,37.3-12.4,42.9-13.1,23.2,6.4,26.8,7.3,27.7-.4,44,3.6,35.5,12.9,38.6,14.2,54.7,27,55.8,29.2,2.9,7.7,1.3,10.3-2.1,3.6-3.6,1.9a21,21,0,0,0-8.3-5c-3.4-1.1-5-1-6.1.9s.1,5.3-1.7,5-2-6.7-3-8.4-5.7-4.7-9.3-6-7.7-2.9-9.3-1.4-1.6,8.9-3.1,9.7-12.2-1.6-24.7-4.7-32-6.7-36.6-4.1-4.7,7.3-7.6,6.9-7.3-8.1-12.9-10.9-12.3-3.4-18.6-3-29.9.6-49.6,3.4C1387.36,501.16,1378,507.46,1366.16,510Z" transform="translate(174.71 -14)"/><path class="cls-38" d="M1471,577.06c-.1,2.9-16.7,3.4-33.5,2.3s-25.7-2.2-25.4,0,16.4,3.1,25.4,3.4,30.9-.6,31.2,3.2-20.3,3.8-33.5,2.7-21.9-2.7-23.2-2.1-10.9-1-14.8-1.3-7.7-1.5-8.7-2.2-20.8-1.2-24.2-3.8-1.1-5,2.4-4.9,10.3,2.9,14.6,3.6,6.7.3,6.9-1-4.9-2.6-11.3-3.3-14.1-2.1-14.3-4.4,14.2,0,20.2.6,8-.1,10-.1,20.2,1,20.6,1.6,16.4,1.7,29.9,2.3S1471.16,572.66,1471,577.06Z" transform="translate(174.71 -14)"/><path class="cls-40" d="M1460.86,623.26c1.8.6,4-5.7-.7-13s-14.6-7-18.2-4.4-5.6,10.2-3.7,16.9,6.7,10.7,8.1,11,5.4.6,5.6-1.3-3.1-1.6-6.6-4.7-5.9-10.7-5-15.2,8-6.6,11.4-4.1,7.4,4.9,7.6,7.9S1458.86,622.46,1460.86,623.26Z" transform="translate(174.71 -14)"/><path class="cls-40" d="M1375.56,608.66c1,.4,1.5-5.6,0-10.5s-3.2-6.9-5.4-6.6-3.2,9.8-2.8,12.6,1.5,10.7,4.5,11.6,2.1-1.1,1.5-2.8-2.1,1.8-4.1-4.4-.3-13.7.2-14,2.4-2.1,3.6,1.1,2.5,6.4,2.4,8.1S1374.56,608.26,1375.56,608.66Z" transform="translate(174.71 -14)"/><path class="cls-39" d="M1382,617s-.9,1.3,2.6,3.2,10.1,3.6,11.2,3.2,1.9-4.1,1.5-6.4.5.2-1.5,3.2C1393.76,623.36,1382,617,1382,617Z" transform="translate(174.71 -14)"/><path class="cls-39" d="M1407.36,623.46l14.7,3.5s1.7.9,2.9,0,1.2-7.6,1.1-8.9,1.7,6.4,1.3,9.3-1.6,3.3-3.1,3.3-15.1-3.3-16.3-4.7A2.26,2.26,0,0,1,1407.36,623.46Z" transform="translate(174.71 -14)"/><path class="cls-34" d="M1357.56,643.36s19.6,12.9,49.7,21,55,17.2,63.8,17.2,13.7-.9,16.4,5.6.5,6.9-7.6,9.4-52.1-12.9-80.5-24-40.9-18-41.7-21.4A19,19,0,0,1,1357.56,643.36Z" transform="translate(174.71 -14)"/><path class="cls-35" d="M1494.36,667s26.2-3.9,38.2-9,21-12.9,22.3-11.6-15,12.9-27.4,16.3S1500,669.16,1494.36,667Z" transform="translate(174.71 -14)"/><path class="cls-34" d="M1371.86,518.76s-.3,7.3,1.6,12.2a40.32,40.32,0,0,1,3,14c.2,5.1,11.2,5.7,11.2,5.7l11.9-25.4-4.8-6.4h-22.9Z" transform="translate(174.71 -14)"/><path class="cls-37" d="M1475.76,554.86s.3,3.5-4.8,6.1-59.2,1.3-61.4,0-1.3-9.7-4.5-9.7-2.6,8-7.7,9.3-22.9,1.9-25.8-1.3,16.4-36.3,23.2-40.5,42.9-7.4,42.9-7.4l35.9,8.7Z" transform="translate(174.71 -14)"/><path class="cls-35" d="M1475.76,554.86c1.6,1.3,1.3-32.5,0-37.8s-6.1-8.2-10-9.5-41.4.6-48.5,1.3-42.8,6.8-45.4,10,9.3,3.2,19.6,2.3,23.8-5.5,34.4-6.1,33.9,5.2,42.1,5.5C1476.26,520.66,1472.26,552,1475.76,554.86Z" transform="translate(174.71 -14)"/><path class="cls-40" d="M1454,481.76c4,2.8,3.9-9.3,0-10.3s-26.1,1.6-43.7,5.1-31.3,11.3-33.7,14.5-3.9,9.6-1.8,11.2,5.3-3.8,5.6-7.4,10.3-10.3,22.5-13.2,37.3-8.4,43.7-7.1S1450.76,479.56,1454,481.76Z" transform="translate(174.71 -14)"/><path class="cls-43" d="M1437.56,453.16c4.3.7,3.3,7.7,0,10.3s-42,13.6-45.1,12.5-3.2-8,0-10.3S1431.86,452.16,1437.56,453.16Z" transform="translate(174.71 -14)"/><path class="cls-43" d="M1539.46,481.16s-18-1.5-25.1-5.1-4.6-2.4-4.4-4.8,7-4.9,11.5-3S1534.76,475.76,1539.46,481.16Z" transform="translate(174.71 -14)"/></g><g id="Mushrooms_Back" data-name="Mushrooms Back"><path class="cls-44" d="M1122.76,828a121.65,121.65,0,0,1-3.4,16.8c-2.2,6.7-8.5,18.1-10.1,19s-9.6-.7-13.9-2.1-11.8-6.3-12.3-9.1,9.5-8.7,15.6-15.2a59.83,59.83,0,0,0,10-15.3l9.1-11.9Z" transform="translate(174.71 -14)"/><path class="cls-45" d="M1089.26,808.66s-2.3,1.5,4.1,6.5,24.7,9.5,26.8,10.9,10.3,8.1,16.1,8.7l-17.3-29.7Z" transform="translate(174.71 -14)"/><path class="cls-7" d="M1089.26,808.66c-.9,3.7,7.6,5.7,11.8,6.8s8.9-3.4,14.2-1,13.9,20.1,20.9,20.4,8.2-13.7,6.6-17.2-7.8-14.4-18.5-18.9-19.9-3.4-23.7-1.7C1097,798.76,1090.76,802.26,1089.26,808.66Z" transform="translate(174.71 -14)"/><path class="cls-44" d="M969.16,781.46s-3.8,17-1.4,28.8,15.4,38.1,18,39.5,7.9,2.6,14.5,1.5,8.8-4.8,9.5-6.8-18.2-17.4-23.9-35.1-1.6-30.5-1.6-30.5l-8.2-9Z" transform="translate(174.71 -14)"/><path class="cls-8" d="M939,773.86s2.4,8.4,10.9,10,28.4-5.7,34.4-5,25.8,1.6,35.6-1l-25.5-13.2Z" transform="translate(174.71 -14)"/><path class="cls-46" d="M939,773.86c3.6,6.7,9.6,7.6,18.1,7.6s24-8.9,34.3-7.6,24,6.8,28.4,4,.2-16-17.1-21.7-23.8-9.9-37-7.5S936,768.46,939,773.86Z" transform="translate(174.71 -14)"/><path class="cls-44" d="M1074.86,878.46s3.7,5.5-.4,14-8.4,13.2-6.6,16.7,18.1,9.4,24.1,9.7,20.8-1.7,20.7-4.7-.5-20.1-3.1-24.8-12.1-14.1-12.1-14.1l-14.7-11.6Z" transform="translate(174.71 -14)"/><path class="cls-47" d="M1113.56,863.46s-.3,11.7-5.2,12.4-15.7-2.4-23.8,0-24.6,6.8-32.5-.2l28-21Z" transform="translate(174.71 -14)"/><path class="cls-48" d="M1052.06,875.66c3.1,5,24.5.7,27.4,0s18.5-4.5,22.2-3.5,12-1.8,12-8.7-6.1-13.8-15.9-13.8-17.8-7.7-24.8-6.3-19.5,14.5-20.8,19.2S1049.56,871.46,1052.06,875.66Z" transform="translate(174.71 -14)"/><path class="cls-44" d="M974.16,871s-1.9,15.2,2.3,25.1,16.7,23.8,16.4,29.9-11.5,16.2-19.1,15.8-26.9-1.3-30-6.3-8.5-27.5-8.5-40.7,10.2-28.3,10.2-28.3l12.4-22Z" transform="translate(174.71 -14)"/><path class="cls-49" d="M1007.66,859.16s-7.2,16.8-21.1,17.1-52.2-8.4-60.5-8.5-29.4-6.1-29.6-18.9l61.4-5.4Z" transform="translate(174.71 -14)"/><path class="cls-50" d="M1012,849.76c-3.4,11.4-13.5,23.5-25.8,21s-36.5-6.7-52.8-5.5-40.6-8-36.5-22.2,21-27.8,41.4-30.2c15.9-1.9,46.4,9.8,54.1,14.1S1013.76,843.56,1012,849.76Z" transform="translate(174.71 -14)"/><path class="cls-44" d="M1105.36,917.66s-3.2,15.2-2.1,23.1,6.9,20,10.2,22.6,11.2,3,19.6,2.6,16.3-5.2,16.5-7.3-13.3-11.8-19.6-20.9a34.8,34.8,0,0,1-6.2-18.4l-8.3-14.1Z" transform="translate(174.71 -14)"/><path class="cls-4" d="M1069.26,911.36s27.8,10.8,44.4,11.3,41-4.6,40.8-15.9l-43.3-6.3Z" transform="translate(174.71 -14)"/><path class="cls-51" d="M1154.46,906.76c-1.1,6.4-13.9,11.3-27.7,11.7s-30.4-6.7-34.9-6.2-18.1,4-22.6-.9,1.7-16.6,19.3-22,34.5,6.7,43.1,6.3S1155.56,900.46,1154.46,906.76Z" transform="translate(174.71 -14)"/><path class="cls-44" d="M811,779s9,18.9,6.7,26.4-9.2,28.9-15.5,30.5-26.6,2.6-30.3,0,12-24.2,14.6-32.5-.9-22.5-.9-22.5l3.7-26.1Z" transform="translate(174.71 -14)"/><path class="cls-49" d="M832.46,776.46s-34.7,4.4-46.9,4.4-33.5-2.2-43-2.2-11.8-4.3-11.4-11,58.1-12.9,58.1-12.9Z" transform="translate(174.71 -14)"/><path class="cls-3" d="M781.76,734c23-7,38.8,5.2,50.8,7.2s23.5,7.4,21.5,14.5-13.6,25.8-33.5,20.6-50.3-5.1-59.7-2.3-32.1,3.2-29.7-6.2,25.5-19.1,29.7-21.3S767.06,738.36,781.76,734Z" transform="translate(174.71 -14)"/><path class="cls-44" d="M849.56,812.46s-6.3,12-5.2,25.7,7.1,34.4,9.6,37,26.8,2.6,29.6,0-12.7-23.2-16-37.6,3.8-28.2,3.8-28.2Z" transform="translate(174.71 -14)"/><path class="cls-45" d="M910.36,798.76s-8.3,14.9-19.8,16.5-34.1-1-39.3,0-29.1,2.3-33.5-3.7l44-19.3Z" transform="translate(174.71 -14)"/><path class="cls-7" d="M910.36,798.76c-2.6,8.6-21.4,10.5-27.4,10.6s-25.7-3.2-35.3-3.1-22.7,8.3-30,5.2-6.3-21.4,0-22.7,25.2-4.8,34.6-7.8,22.5-3.3,35.6,0S913,790.16,910.36,798.76Z" transform="translate(174.71 -14)"/><path class="cls-52" d="M1331.86,853.56s3,9.7,2.1,16.3-10.3,21.1-8.5,22.8,18.6,6.2,22.8,3.7,6.6-20.9,5.7-26.4-8.7-19.6-8.7-19.6Z" transform="translate(174.71 -14)"/><path class="cls-52" d="M1397.46,808.06s5,13,4.5,22.9-13.4,34.5-11.4,38.7,21.6,11.1,29.8,9.3,6.8-43.2,4.7-55.9-7.6-19.2-7.6-19.2Z" transform="translate(174.71 -14)"/><path class="cls-53" d="M1353.56,796.86s5.4,14.6,30.6,12.5,33.7-4.8,51.5-5.5,22.2,5.2,33.3-2l-58.2-13.9Z" transform="translate(174.71 -14)"/><path class="cls-54" d="M1350.56,786.46c0,7.7,9.6,20.9,25.2,19.3s23.3-8.8,34.9-8.1,56.5,9.9,58.2,4.3-12-22.3-44.4-23.6-38.6,3.3-48.6,4.4C1365.76,783.66,1350.56,776.16,1350.56,786.46Z" transform="translate(174.71 -14)"/><path class="cls-55" d="M1484.66,758.06s16.7,26.4,9.9,46-41.2,64.4-35.3,78.2,59.4,25.8,69.7,22.5,38.8-87,32.6-104.5-23-47.8-23-47.8l-37.5-33.3Z" transform="translate(174.71 -14)"/><path class="cls-56" d="M1377.66,754.26s60.9,10.9,81.6,7.5,89.8-13.8,112.1-6.2,65.9,11.7,69.7,1.8l-87.4-47.8Z" transform="translate(174.71 -14)"/><path class="cls-57" d="M1493.16,685.26c81.4-13.8,118.8,12.1,132.7,17.8s34.9,62.9,0,58.8-73-25-116.1-20.2-107.6,16-132.1,12.7S1409.36,699.46,1493.16,685.26Z" transform="translate(174.71 -14)"/></g><g id="Mushrooms_Middle" data-name="Mushrooms Middle"><path class="cls-23" d="M528.66,650.56s-19.2,39.3-13.5,65.3,73.8,95.6,64,113.7-136.9,49.8-152.8,37.8-32.9-72.7-29.3-123.4,51-108.3,51-108.3l45.7-51Z" transform="translate(174.71 -14)"/><path class="cls-58" d="M349.36,595.46s42.6,42.2,77,39.9,80.8,11.9,102.2,15.2,81.8,8.8,100.1-10.5l-122.9-86Z" transform="translate(174.71 -14)"/><path class="cls-59" d="M561,534.26c54.4,7.4,83.4,37.1,91.2,59.2s-26.7,63.6-54,53.8-64.9-42.3-99.8-42.9-58.2,30.1-123,7.1-14.8-66.2,42.1-78.4S508.86,527.06,561,534.26Z" transform="translate(174.71 -14)"/><path class="cls-55" d="M638.06,726s-20.6,19.3-23.1,36.4,22.7,74.6,12.6,83.3-94.1-1.3-100.9-12.2-3.2-51.4,10.6-81.2,55.6-53.7,55.6-53.7l39.3-20.3Z" transform="translate(174.71 -14)"/><path class="cls-60" d="M542.46,651.66s16,35.2,37.4,41.7,46.1,25.7,58.2,32.6,47.4,24,62.9,16.6l-54.6-80.1Z" transform="translate(174.71 -14)"/><path class="cls-61" d="M684.26,663.26c31.1,16.9,41.8,41.5,41.5,56.7s-30.7,32.3-44.9,20.1-29.5-40.4-50.4-48.8-42.1,4.8-75.9-23.9,6.2-43.4,43.4-37.7S654.36,647,684.26,663.26Z" transform="translate(174.71 -14)"/><path class="cls-23" d="M1666.26,318.16s43.6,56.4,48,107-12.8,173.9,5.9,204.5,105.2,36.1,117.8,23.8-7.3-227.5-29-267-68.4-105.4-68.4-105.4l-78.9-63.9Z" transform="translate(174.71 -14)"/><path class="cls-62" d="M1507.86,356.16s96.6-.5,124.2-17.7,120.4-72.9,158.5-64.3,104.4-.6,102.6-26.4l-162-77.1Z" transform="translate(174.71 -14)"/><path class="cls-63" d="M1625.26,138.36c108.2-69.2,181.6-22.9,206.1-15.3s96.8,136.8,43,142.1-124.5-28.4-183.7,2.3-144.8,86-182.8,88.8S1513.76,209.66,1625.26,138.36Z" transform="translate(174.71 -14)"/><path class="cls-23" d="M1745.66,568.36s17.5,38.7,24.3,67,9.3,82.8,5.3,89.3-35.7,18.5-53.7,22.7-55.5,3.3-63.5-5.5,14.7-51.4,22.3-87.9,2.2-75.8,2.2-75.8l6.6-62Z" transform="translate(174.71 -14)"/><path class="cls-64" d="M1584.86,572.56s-4.7,10.4,28.7,14.2,108.3-19.9,118.7-19.5,54.2,6.2,75.9-4.1l-126.1-67.7Z" transform="translate(174.71 -14)"/><path class="cls-65" d="M1584.86,572.56c5,15.1,39.5,3.8,56.7-1.7s24.2-31.4,48-34.5,93.2,41,118.6,26.9-.9-66.6-14.1-75.3-58.9-34-106.6-26.7-78.1,31.2-87.8,45.7C1590.46,520.66,1576.36,546.86,1584.86,572.56Z" transform="translate(174.71 -14)"/><path class="cls-23" d="M175.36,494.46s-21.8,20.7-28.1,38.5-33.8,94.6-28.4,106,30.7,28.1,55,34.2,42,5.7,52.8-5.5-7.2-61.9-5-92.4,32.1-72.6,32.1-72.6l-29.1-52.2Z" transform="translate(174.71 -14)"/><path class="cls-66" d="M343.56,475.86s-29.3,40.3-43.4,43.4-33.5-10.5-46.4-16.4-55.1-.8-78.4-8.3-69.8-36.4-69.1-59.7l129.3-41.8Z" transform="translate(174.71 -14)"/><path class="cls-67" d="M107,411.46c-7.2,34.6,12,52.1,33.3,56.8s54.9-9.5,79.9-3.2,68.1,46.2,91.1,37.3,56.3-48.2,42.2-71.6-59.5-84.2-101.2-85.4-74.3,22.8-94.5,29S112.16,386.16,107,411.46Z" transform="translate(174.71 -14)"/><path class="cls-23" d="M390,566.76s19.4,40.7,14.4,56.7-19.7,62.3-33.3,65.6-57.2,5.6-65.3,0,25.9-52,31.5-70-2-48.3-2-48.3l7.9-56.2Z" transform="translate(174.71 -14)"/><path class="cls-68" d="M436.26,561.36s-74.8,9.5-101,9.4-72-4.8-92.6-4.7-25.4-9.2-24.6-23.7,125.1-27.8,125.1-27.8Z" transform="translate(174.71 -14)"/><path class="cls-69" d="M327.06,469.76c49.4-15.1,83.5,11.2,109.4,15.4s50.7,16,46.2,31.2-29.4,55.6-72.2,44.2-108.2-11.1-128.5-5-69.1,6.9-63.9-13.3,54.9-41.2,63.9-45.9S295.46,479.46,327.06,469.76Z" transform="translate(174.71 -14)"/></g><g id="Road_Front" data-name="Road Front"><path class="cls-70" d="M1822.36,1514.76l-1830.6-15.9-12.1-894s292.1,80.6,414.2,173.6,223.6,215.1,422.9,222.1S1265,894.36,1431,825s412.3-85.6,412.3-85.6l20,157.3Z" transform="translate(174.71 -14)"/><polygon class="cls-11" points="215.07 611.16 1235.67 1308.66 1317.87 1308.66 1317.87 980.66 215.07 478.26 215.07 611.16"/><polygon class="cls-71" points="1317.87 1118.76 215.07 536.46 215.07 551.66 1317.87 1164.46 1317.87 1118.76"/></g><g id="Bison"><path class="cls-72" d="M1196.26,926.66s14.5,13.2,14.5,18.3,5.5,7.4,8.7,9.3a20,20,0,0,0,11.2,2.9c3.8-.3,5.1-14.7,8-17.6s4.5.6,8.3-1.6,1.9-18,5.8-20.8,12.2-8,16.4-4.8-1.3,18.9,0,27.6,3.2,23.7,0,30.5-8.3,22.8-8.3,22.8,10.9,1.6,13.8,0a75.75,75.75,0,0,0,8-5.8s-.6-17.3,0-19.9,9.9-2.6,15.4-11.5,3.2-36.9,3.2-36.9l-2.6-31.4-53.2-5.1-32.1,20.5Z" transform="translate(174.71 -14)"/><path class="cls-73" d="M1528.36,856.26s15.4-78.7-8.5-101.7-45.3-26.5-52.2-25.6-23.9-.9-41-5.1-49.6-18.8-81.2-20.5-71.8,12-82.1,19.7-28.2,56.8-28.2,56.8-31.6-1.6-43.6,5.6-6.4,19.7-6.8,26.5-6,29.5-5.6,33.8,5.6,6.8,6,14.1,3.8,25.6,2.6,34.6-7.7,15.8-4.7,23.1,11.1,9,19.7,10.7,16.2-3.4,15-15.4,2.6-11.1,3.8-3.4-3,16-.4,19.1,22.7-5.9,27.4-14,2.6-20.9.9-24.4,4.7,1.3,11.5,3.4,11.5-.4,15.8.4,7.3,15.4,20.1,22.7,24.8,10.3,32.5,7.7,14.5-25.2,30.3-23.9,8.5,32.5,13.7,38,29.5,12.8,32.9,11.1,6.4-26.1,6-32.1-4.7-18.8-3.4-20.5,9.4,3.4,20.1-.9,24.4-22.7,30.3-23.1,9.8,13.3,16.7,21.4,14.1,12.8,15.4,15.8,4.3,37.2-1.7,47a267.63,267.63,0,0,0-12.4,23.9,22.49,22.49,0,0,0,12.8,0,24.28,24.28,0,0,0,10.3-6s.4-15.4,1.7-23.1,10.7-26.1,12.4-36.8,1.8-13.6,1.8-13.6-9.9-13.1-13.7-18.2-4.7-15.2-3-16,11.5,10.6,15.3,13.6,9,10.9,10.3,13.5,1.3,24.6-.4,35.7-6.4,21.4-5.6,31.2,1.3,22.7,1.3,22.7,12.4-.4,17.1-3.4,4.3-13.7,4.3-13.7a96.76,96.76,0,0,1-8.5-26.1c-2.1-13.7,9.8-48.3,11.5-56.4s0-13.3,0-13.3Z" transform="translate(174.71 -14)"/><path class="cls-72" d="M1309.56,858.06s2.9-10.1,2.9-14.5.3-11.5,7.1-12.1,9.9,6.7,13.5,9.9-.3,7.7,4.2,12.5,17.3-2.6,22.1,1.9,1.3,15.4,6.1,20.2,18.9,11.5,22.8,21.2,19.2,28.2,19.2,32.7,1.9,23.1-2.2,25.6-13.5-4.8-13.5-4.8-.2,9.6,2.8,16.7,6.8,16.7,6.8,16.7a42.76,42.76,0,0,1-8.3,6.1c-5.1,2.9-12.2,3.6-12.2,3.6s-1.6-15.1-1.9-25.4a152.8,152.8,0,0,1,1.3-21.8s-9-1-10.3-6.1-.1-25.8-3.8-32.7-16.7-6.7-18.3-.6-2.2,26.7-9.6,31-13.1-6-19.2-7.9-10.3-9.3-9.3-12.2,11.9,7.1,17,4.2,8.3-12.2,3.8-18.3-17.9-5.1-21-8.7,1.5-8.7,0-12.8-18.8-2.2-22.3-11.9,1-12.8,5.8-12.5C1297.66,858.36,1308.16,863.36,1309.56,858.06Z" transform="translate(174.71 -14)"/><path class="cls-72" d="M1381.36,804.46s19.2,14.4,26.4,23.4,11.1,24.7,14,26.6,17.3-3.8,23.4,1.9,10.3,18.6,8.7,23.4-11.2,6.7-16,10.3-10,12.5-13.5,12.5-10.9-9.6-10.9-16.7-6.7-8.3-9-12.5,1-9.6-.3-19.9-17.2-13.1-16.4-19.2C1390.36,815.76,1375.56,803.86,1381.36,804.46Z" transform="translate(174.71 -14)"/><path class="cls-72" d="M1483.66,814.76c3.2-.1,4.8,12.4,2.9,16.6s-2.8,5.8.8,8.1.5,11.8,4.9,14.1,11.5-.9,16.7,4.5,7.7,17.3,12.5,21.5,17.6,8.7,16.7,12.8-.6,14.4-3.2,13.1-1.6-9.9-3.8-9.9-.5,12.8-3.2,12.8-3.8-6.7-4.2-12.8-8.8-6.1-12.8-12-7.5-14.5-10.3-14.1,2.5,12.6,6.6,16.4,9.7,8.4,9.7,8.4,2.1,11.8,1.4,13.6-5.3,9.3-7.3,9.3-4.8-12.5-7.4-12.5,2.1,12,.2,13.7-4.1,10.3-7.1,10.3-5.3-15.2-7.4-16.8-15.1-13.2-16.2-15.3-1.9-6.6-4-9.1-7.4-5.8-8.2-8.8-.3-9.3,7.7-11.5,15.5-3.5,14.3-10.7-4.8-7-6.1-12.7-1.9-12.6.6-15.6C1480,824.86,1480,815,1483.66,814.76Z" transform="translate(174.71 -14)"/><path class="cls-72" d="M1193.46,900.06c7.6-1.3,14,3,14.4,6.4s-12.8,8-16.7,8-8.6-5.2-7.2-8.8S1187.66,901,1193.46,900.06Z" transform="translate(174.71 -14)"/><path class="cls-72" d="M1201.46,874.36c5.5-.2,15.1,2.6,14.4,8s-1.9,9.3-5.1,9.6-4.2-4.8-9.3-5.5-13.5-1.4-14-6.3C1187,875.46,1193.76,874.76,1201.46,874.36Z" transform="translate(174.71 -14)"/><path class="cls-72" d="M1232.56,862.26c3.5.2,10.3.3,10.3-2.6s-4.8-1-7.7-1.6-7.1-5.5-7.4-2.9S1229.66,862.06,1232.56,862.26Z" transform="translate(174.71 -14)"/><path class="cls-72" d="M1245.76,851c2.1,1.5,5.8,3.8,9.6,0s1.9-10.9,5.8-14.4,13.1-10.3,12.5-14.4.6-14.2-8.3-17.7-14.1,6.8-12.8,12.2,2.6,9.6-1.3,10.3-1.6-6.7-5.5-7.1-11.9,4.8-10.4,8.6,4.7,6.4,7.5,5.8,5.8,6.3,4.5,9.2S1242.66,848.86,1245.76,851Z" transform="translate(174.71 -14)"/><path class="cls-72" d="M1235.16,779.66s10.7-1.5,13.8,0,4.8,4.7,8.9,4.7,2.2-20.8,4.8-25.3,8.7-8,8.7-11.5-1.6-9.6,0-11.2,7.4-3.2,2.3-7.1-12.3,4.3-16.4,6.4-9,5.1-11.5,10.3-2.6,17.6-5.5,21.2S1233.26,776.86,1235.16,779.66Z" transform="translate(174.71 -14)"/><path class="cls-74" d="M1181.06,770.36s-5.6,8.3-5.6,13-.8,12.8,1.3,16.2a31.72,31.72,0,0,0,5.1,6.1l5.6,9.5-6.1,7.3s-7.9-7.7-11.6-13.5-3.8-19.2-.4-25.6S1181.06,770.36,1181.06,770.36Z" transform="translate(174.71 -14)"/><path class="cls-72" d="M1199.56,790.36a64.78,64.78,0,0,0-3.7,13.4c-.8,6.2-5.6,13.9-6.2,17.7s1.9,19.4,1.3,22-.5,12.4-3.5,12.6-11.6-3.2-11.9-10.3,3.8-10.8,4.8-17.4,2.6-13.2,2.6-17-5-17.2-.6-21C1186.56,786.56,1196.66,784.46,1199.56,790.36Z" transform="translate(174.71 -14)"/><path class="cls-74" d="M1257,777.16s16.7,6.2,20.9,15.2,2.5,20.7-2.2,26.5-14.1,10.9-16.9,9.6-6-8.5-4.5-13.4,17.3-8.2,18-12.1-5.1-16.3-7.3-18.6A99.21,99.21,0,0,0,1257,777.16Z" transform="translate(174.71 -14)"/></g><g id="Mushrooms_Front" data-name="Mushrooms Front"><path class="cls-23" d="M1761.66,702.76s11.8,30.2-2,77.2-27.9,72.7-22.3,91.8,58.2,52.3,77.4,54.5,67.2-8.9,67.3-25.5-.6-110.7-8.7-136.7-38.2-78.1-38.2-78.1l-46.9-64.4Z" transform="translate(174.71 -14)"/><path class="cls-68" d="M1887.36,641.16s-1.2,33.4-17.1,35.2-50.7-7.5-76.8-.8-79.6,18.7-105.2-1.7l91.1-58.8Z" transform="translate(174.71 -14)"/><path class="cls-69" d="M1688.26,674c9.8,14.4,79.3,2.8,88.4.9s59.8-12.2,71.8-9.2,38.7-4.6,38.9-24.4-19.3-39.4-51-39.7-57.3-22.5-80.1-18.6-63.4,40.8-67.6,54S1680.16,662,1688.26,674Z" transform="translate(174.71 -14)"/><path class="cls-23" d="M1785.36,854.56s17.9,23.6,21.1,41.9,17.8,97.4,10.8,107.6-34.3,22.4-59,24.5-41.7-1.2-50.4-13.7,16.9-59.1,19.6-89-19.7-75.7-19.7-75.7l36.6-46.1Z" transform="translate(174.71 -14)"/><path class="cls-62" d="M1624.86,809.56s22.1,43.8,35.3,49.1,34.3-4.8,47.7-8.6,53.7,8,77.6,4.5,73.7-24.2,76.7-47l-119-61.3Z" transform="translate(174.71 -14)"/><path class="cls-63" d="M1865.16,784.66c1.4,34.8-19.9,48.8-41.5,49.9s-51.8-18-77.2-15.9-73.6,34.1-94.6,21.7-47.1-55.8-29.6-76.4,71.2-72.3,112-66.9,68.6,34,87.2,43.3S1864.06,759.26,1865.16,784.66Z" transform="translate(174.71 -14)"/><path class="cls-23" d="M1597.46,878.86s10.5,19.6,12.6,49.1-12.5,90.8-4.5,103.7,37.2,15.3,48.2,15.3,36.9-15.2,40-23.9-13.4-90.1-22.1-115-32.2-54.6-32.2-54.6Z" transform="translate(174.71 -14)"/><path class="cls-66" d="M1543.06,867.26s1.2,17.9,30.1,16.4c40-2.1,46-8.6,66.9-5.9s66.5,18.7,80.5,13.1,23.1-23.5,21.6-37.8l-110.1-16.4Z" transform="translate(174.71 -14)"/><path class="cls-67" d="M1608,812.36c51.6.6,106.1-18.6,121.1.4s21.9,61.8-5.5,66.5-65.7-10.3-98-7.3-82.8,17.5-82.5-4.7S1567.76,811.86,1608,812.36Z" transform="translate(174.71 -14)"/><path class="cls-23" d="M402.26,868.66s2.6,27.6.7,46.5-11.9,53.1-15.7,56.2-26,3.8-38,2.5-34.9-9.8-38-16.9,20-28.6,32.5-49.5,17.5-46.3,17.5-46.3l17.3-36.8Z" transform="translate(174.71 -14)"/><path class="cls-68" d="M302.16,837s-5.2,5.4,14.7,14.9,71,10.8,77.4,13.3,32.1,15.3,47.7,13.7l-63.3-68.6Z" transform="translate(174.71 -14)"/><path class="cls-69" d="M302.16,837c-.1,10.4,23.5,10.8,35.4,11.1s21.6-14.2,36.9-11.1,48.7,45.2,67.4,41.9,13.7-41.2,7.3-49.5-29.1-33.5-60.1-39.2-54.8,2.6-63.9,9.5C316.66,806.16,302.36,819.26,302.16,837Z" transform="translate(174.71 -14)"/><path class="cls-23" d="M276.86,881.16s10.7,21.1,10.7,35.9.3,78.9-6.7,86-30.1,12.8-49.7,10.9-32.6-6.8-37.7-17.9,21.6-44,27.9-67.1-4.8-62.2-4.8-62.2l35.3-31Z" transform="translate(174.71 -14)"/><path class="cls-62" d="M157.16,823.26s11.2,37.5,20.8,43.5,27.6,1,38.7,0,41,13.8,60.2,14.4,61.3-8.6,66.8-26.1l-84.8-64.8Z" transform="translate(174.71 -14)"/><path class="cls-63" d="M349.36,837.56c-3.8,27.5-22.5,35.5-39.6,33.3s-38.1-21.4-58.4-23.3-62.5,16.4-77.3,3.7-29.1-50.4-12.5-64.1,66.1-46.8,97.3-36.7,49.1,36.3,62.4,46.2S352.06,817.46,349.36,837.56Z" transform="translate(174.71 -14)"/><path class="cls-23" d="M46.56,676.26s-6.8,16.9-6.1,41.2,16.8,73.4,11.5,84.6-28.2,15.5-36.8,16.4-30.3-9.5-33.4-16.4,3.7-74.8,8.7-96,21.1-47.2,21.1-47.2Z" transform="translate(174.71 -14)"/><path class="cls-58" d="M-59.24,659.46s0,15.5,24.9,16c34.7.6,40.2-4.6,58.1-1s56.2,20.2,68.6,16.2,21.4-18.8,21-31.2l-93.9-20.9Z" transform="translate(174.71 -14)"/><path class="cls-59" d="M.06,616.06c44.5,3.7,92.6-9.5,104.4,7.8s15.1,54.6-8.8,57-56-12.9-84-12.3-72.5,10-70.9-9.1S-34.54,613.26.06,616.06Z" transform="translate(174.71 -14)"/><path class="cls-23" d="M86.36,753.86s20.9,32.9,12.3,57.4-51.4,80.3-44,97.5,74.1,32.1,86.9,28.1,48.4-108.5,40.7-130.3-28.7-59.6-28.7-59.6l-46.8-41.5Z" transform="translate(174.71 -14)"/><path class="cls-64" d="M-47.14,749.16s76,13.6,101.8,9.4,112-17.2,139.8-7.7,82.2,14.6,86.9,2.2l-109-59.6Z" transform="translate(174.71 -14)"/><path class="cls-65" d="M97,663.06c101.5-17.2,148.1,15.1,165.6,22.2s43.6,78.5,0,73.3-91.1-31.2-144.9-25.2-134.2,19.9-164.8,15.8S-7.64,680.76,97,663.06Z" transform="translate(174.71 -14)"/><path class="cls-23" d="M126.46,828.76s7.4,9.7-1,24.8-17.1,23.3-13.6,29.4,36.3,17,48.3,17.7,41.8-2.7,41.8-8-.7-35.5-5.8-43.9-24-25.2-24-25.2l-29.4-20.8Z" transform="translate(174.71 -14)"/><path class="cls-75" d="M204.56,803.06s-.8,20.8-10.6,21.9-31.6-4.6-47.7-.5-49.5,11.6-65.4-1.1l56.6-36.5Z" transform="translate(174.71 -14)"/><path class="cls-76" d="M80.76,823.46c6.1,8.9,49.3,1.7,55,.5s37.2-7.6,44.6-5.7,24.1-2.9,24.2-15.2-12-24.5-31.7-24.7-35.6-14-49.8-11.6-39.4,25.4-42.1,33.5S75.66,816,80.76,823.46Z" transform="translate(174.71 -14)"/><path class="cls-23" d="M50.66,867.26s-7,38.8-4.7,59,15.1,50.9,22.6,57.6,24.9,7.7,43.5,6.5,36-13.2,36.6-18.5-29.5-30.2-43.5-53.2a98.27,98.27,0,0,1-13.8-46.9l-18.3-36Z" transform="translate(174.71 -14)"/><path class="cls-24" d="M-6.34,848s49.7,23.9,79.4,25.1,73.3-10.2,73-35.2L68.66,824Z" transform="translate(174.71 -14)"/><path class="cls-25" d="M146.06,837.86c-2,14.1-24.8,25-49.5,25.8s-54.4-14.9-62.4-13.7-32.3,9-40.5-1.9,3-36.8,34.5-48.8,61.7,14.8,77,13.9S148.06,823.76,146.06,837.86Z" transform="translate(174.71 -14)"/><path class="cls-23" d="M464.86,977s21.2,44.4,15.6,61.8-21.5,67.9-36.3,71.6-62.4,6.1-71.2,0,28.2-56.7,34.3-76.3-2.2-52.7-2.2-52.7l8.6-61.3Z" transform="translate(174.71 -14)"/><path class="cls-66" d="M515.26,971.16s-81.5,10.3-110.1,10.2-78.5-5.2-100.9-5.1-27.6-10-26.8-25.9,136.3-30.3,136.3-30.3Z" transform="translate(174.71 -14)"/><path class="cls-67" d="M396.26,871.36c53.9-16.4,91,12.2,119.3,16.8s55.2,17.4,50.4,34-32,60.6-78.7,48.2-117.9-12.1-140.1-5.5-75.4,7.5-69.7-14.4,59.9-44.9,69.7-50S361.86,881.86,396.26,871.36Z" transform="translate(174.71 -14)"/><path class="cls-23" d="M172,976.56s-14.6,30-10.3,49.9,56.4,73.1,49,86.9-104.7,38.1-116.8,28.9-25.2-55.6-22.4-94.4,39-82.8,39-82.8l35-39Z" transform="translate(174.71 -14)"/><path class="cls-58" d="M35,934.46s32.5,32.3,58.9,30.5,61.8,9.1,78.1,11.6,62.5,6.7,76.5-8.1l-94-65.6Z" transform="translate(174.71 -14)"/><path class="cls-59" d="M196.76,887.66c41.6,5.7,63.7,28.3,69.7,45.3s-20.4,48.6-41.3,41.1-49.6-32.4-76.3-32.8-44.5,23-94,5.4-11.3-50.6,32.1-60S156.86,882.26,196.76,887.66Z" transform="translate(174.71 -14)"/><path class="cls-23" d="M1507.66,962.26s11.1,10.3,3.9,30.5-16.1,32-10.5,38.8,47.9,13.1,62.7,11.6,50.5-12,49.3-18.5-8.3-43.3-16.3-52.5-34.6-25.8-34.6-25.8l-40.2-19.3Z" transform="translate(174.71 -14)"/><path class="cls-58" d="M1597.76,914.56s3.4,25.5-8.4,29-39.5.9-58.4,9.4-58.1,24.6-80.2,12.4l61.6-56.5Z" transform="translate(174.71 -14)"/><path class="cls-59" d="M1450.76,965.36c9.3,9.7,60.6-8.2,67.3-10.9s43.9-17.1,53.3-16.3,28.8-8.6,26.4-23.6-19.8-27.4-43.9-23.5-46.5-9.7-63.3-3.7-42.8,39.2-44.4,49.8S1443,957.26,1450.76,965.36Z" transform="translate(174.71 -14)"/><path class="cls-23" d="M1381.76,1005.76s-7,38.8-4.7,59,15.2,50.9,22.7,57.6,24.9,7.7,43.5,6.5,36-13.2,36.6-18.5-29.5-30.2-43.5-53.2a98.27,98.27,0,0,1-13.8-46.9l-18.3-36Z" transform="translate(174.71 -14)"/><path class="cls-24" d="M1324.76,986.46s49.7,23.9,79.4,25.1,73.3-10.2,72.9-35.3l-77.4-13.9Z" transform="translate(174.71 -14)"/><path class="cls-25" d="M1477.16,976.26c-2,14.1-24.8,25-49.5,25.8s-54.4-14.9-62.4-13.7-32.3,9-40.5-1.9,3-36.8,34.5-48.8,61.7,14.8,77,13.9S1479.16,962.26,1477.16,976.26Z" transform="translate(174.71 -14)"/></g></svg>