<?xml version="1.0" encoding="utf-8"?>
<!-- Generator: Adobe Illustrator 25.0.1, SVG Export Plug-In . SVG Version: 6.00 Build 0)  -->
<svg version="1.1" xmlns="http://www.w3.org/2000/svg" xmlns:xlink="http://www.w3.org/1999/xlink" x="0px" y="0px"
	 viewBox="0 0 1728 972" style="enable-background:new 0 0 1728 972;" xml:space="preserve">
<style type="text/css">
	.st0{fill:url(#SVGID_1_);}
	.st1{fill:#FFFFFF;}
	.st2{fill:none;stroke:#000000;stroke-width:3;stroke-miterlimit:10;}
	.st3{fill:#FAE02F;stroke:#000000;stroke-width:3;stroke-miterlimit:10;}
	.st4{fill:#AD70AF;stroke:#000000;stroke-width:3;stroke-miterlimit:10;}
	.st5{fill:#0E7DC1;stroke:#000000;stroke-width:3;stroke-miterlimit:10;}
	.st6{fill:#009444;stroke:#000000;stroke-width:3;stroke-miterlimit:10;}
	.st7{fill:#EE356F;stroke:#000000;stroke-width:3;stroke-miterlimit:10;}
	.st8{fill:#EC6B55;stroke:#000000;stroke-width:3;stroke-miterlimit:10;}
	.st9{fill:#FFFFFF;stroke:#000000;stroke-width:3;stroke-miterlimit:10;}
	.st10{display:none;}
	.st11{fill:#515251;stroke:#000000;stroke-width:6;stroke-miterlimit:10;}
	.st12{fill:none;stroke:#FCCE0C;stroke-width:4;stroke-miterlimit:10;}
	.st13{fill:#5E461D;stroke:#000000;stroke-width:4;stroke-miterlimit:10;}
	.st14{fill:#473F34;stroke:#000000;stroke-width:4;stroke-miterlimit:10;}
	.st15{fill:#B09F8E;stroke:#000000;stroke-width:2;stroke-miterlimit:10;}
	.st16{fill:#E2D3C4;stroke:#000000;stroke-width:4;stroke-miterlimit:10;}
	.st17{fill:#FCCE0C;stroke:#000000;stroke-width:4;stroke-miterlimit:10;}
	.st18{fill:#DC7F39;stroke:#000000;stroke-width:2;stroke-miterlimit:10;}
	.st19{fill:#B0A99B;stroke:#000000;stroke-width:3;stroke-miterlimit:10;}
	.st20{fill:#E2D3C4;stroke:#000000;stroke-width:2;stroke-miterlimit:10;}
	.st21{fill:none;stroke:#000000;stroke-width:2;stroke-miterlimit:10;}
	.st22{fill:#F0D590;stroke:#000000;stroke-width:6;stroke-miterlimit:10;}
	.st23{fill:#D4127F;stroke:#000000;stroke-width:6;stroke-miterlimit:10;}
	.st24{fill:#EE356F;stroke:#000000;stroke-width:6;stroke-miterlimit:10;}
	.st25{fill:#B0A78D;stroke:#000000;stroke-width:3;stroke-miterlimit:10;}
	.st26{fill:#9C4A23;stroke:#000000;stroke-width:3;stroke-miterlimit:10;}
	.st27{stroke:#000000;stroke-width:3;stroke-miterlimit:10;}
	.st28{fill:#E2E2E2;stroke:#000000;stroke-width:3;stroke-miterlimit:10;}
	.st29{fill:#C8BFDA;stroke:#000000;stroke-width:6;stroke-miterlimit:10;}
	.st30{fill:#CCB3D6;stroke:#000000;stroke-width:6;stroke-miterlimit:10;}
	.st31{fill:#CBC7E3;stroke:#000000;stroke-width:6;stroke-miterlimit:10;}
	.st32{fill:#A68DB7;stroke:#000000;stroke-width:6;stroke-miterlimit:10;}
	.st33{fill:#CCB3D6;stroke:#000000;stroke-width:4;stroke-miterlimit:10;}
	.st34{fill:#A68DB7;stroke:#000000;stroke-width:4;stroke-miterlimit:10;}
	.st35{fill:#C8BFDA;stroke:#000000;stroke-width:4;stroke-miterlimit:10;}
	.st36{fill:#CBC7E3;stroke:#000000;stroke-width:4;stroke-miterlimit:10;}
	.st37{fill:#CCB3D6;stroke:#000000;stroke-width:3;stroke-miterlimit:10;}
	.st38{fill:#A68DB7;stroke:#000000;stroke-width:3;stroke-miterlimit:10;}
	.st39{fill:#A68DB7;stroke:#000000;stroke-width:2;stroke-miterlimit:10;}
	.st40{fill:#C8BFDA;stroke:#000000;stroke-width:2;stroke-miterlimit:10;}
	.st41{fill:#A68DB7;stroke:#000000;stroke-miterlimit:10;}
	.st42{fill:#CCB3D6;stroke:#000000;stroke-width:2;stroke-miterlimit:10;}
	.st43{fill:#F0D590;stroke:#000000;stroke-width:3;stroke-miterlimit:10;}
	.st44{fill:#D4127F;stroke:#000000;stroke-width:3;stroke-miterlimit:10;}
	.st45{fill:#FAB53A;stroke:#000000;stroke-width:3;stroke-miterlimit:10;}
	.st46{fill:#515251;stroke:#000000;stroke-width:3;stroke-miterlimit:10;}
	.st47{fill:#B667AA;stroke:#000000;stroke-width:3;stroke-miterlimit:10;}
	.st48{fill:#00ACC0;stroke:#000000;stroke-width:3;stroke-miterlimit:10;}
	.st49{fill:#C2E7F3;stroke:#000000;stroke-width:3;stroke-miterlimit:10;}
	.st50{fill:#E64744;stroke:#000000;stroke-width:3;stroke-miterlimit:10;}
	.st51{fill:#D7C6A3;stroke:#000000;stroke-width:2;stroke-miterlimit:10;}
	.st52{fill:#BA8072;stroke:#000000;stroke-width:2;stroke-miterlimit:10;}
	.st53{fill:#DF5526;stroke:#000000;stroke-width:2;stroke-miterlimit:10;}
	.st54{fill:#F0D590;stroke:#000000;stroke-width:5;stroke-miterlimit:10;}
	.st55{fill:#D4127F;stroke:#000000;stroke-width:5;stroke-miterlimit:10;}
	.st56{fill:#EE356F;stroke:#000000;stroke-width:5;stroke-miterlimit:10;}
	.st57{fill:#2FC1D4;stroke:#000000;stroke-width:6;stroke-miterlimit:10;}
	.st58{fill:#C2E7F3;stroke:#000000;stroke-width:6;stroke-miterlimit:10;}
	.st59{fill:#AD70AF;stroke:#000000;stroke-width:5;stroke-miterlimit:10;}
	.st60{fill:#E64744;stroke:#000000;stroke-width:5;stroke-miterlimit:10;}
	.st61{fill:#AD70AF;stroke:#000000;stroke-width:6;stroke-miterlimit:10;}
	.st62{fill:#E64744;stroke:#000000;stroke-width:6;stroke-miterlimit:10;}
	.st63{fill:#00ACC0;stroke:#000000;stroke-width:6;stroke-miterlimit:10;}
	.st64{fill:#FAE02F;stroke:#000000;stroke-width:6;stroke-miterlimit:10;}
	.st65{fill:#EC6B55;stroke:#000000;stroke-width:6;stroke-miterlimit:10;}
	.st66{fill:#FAB53A;stroke:#000000;stroke-width:6;stroke-miterlimit:10;}
	.st67{fill:#D781AB;stroke:#000000;stroke-width:6;stroke-miterlimit:10;}
	.st68{fill:#B093BF;stroke:#000000;stroke-width:6;stroke-miterlimit:10;}
	.st69{fill:#F06795;stroke:#000000;stroke-width:6;stroke-miterlimit:10;}
	.st70{fill:#B667AA;stroke:#000000;stroke-width:6;stroke-miterlimit:10;}
	.st71{fill:url(#SVGID_2_);stroke:#000000;stroke-width:6;stroke-miterlimit:10;}
	.st72{fill:#FCCE0C;stroke:#000000;stroke-width:6;stroke-miterlimit:10;}
	.st73{fill:#167DB2;stroke:#000000;stroke-width:5;stroke-miterlimit:10;}
	.st74{fill:#0CB7DD;stroke:#000000;stroke-width:5;stroke-miterlimit:10;}
	.st75{fill:#FFFFFF;stroke:#000000;stroke-width:5;stroke-miterlimit:10;}
</style>
<g id="Sky">
	<linearGradient id="SVGID_1_" gradientUnits="userSpaceOnUse" x1="864" y1="972" x2="864" y2="1.2238">
		<stop  offset="0.3697" style="stop-color:#E1D778"/>
		<stop  offset="0.4914" style="stop-color:#BACB96"/>
		<stop  offset="0.6582" style="stop-color:#88BEB6"/>
		<stop  offset="0.8046" style="stop-color:#5BB5CB"/>
		<stop  offset="0.9235" style="stop-color:#2EB0D8"/>
		<stop  offset="1" style="stop-color:#03AEDC"/>
	</linearGradient>
	<rect y="1.2" class="st0" width="1728" height="970.8"/>
</g>
<g id="Sky_Dec">
	<g>
		<g>
			<path class="st1" d="M1266.8,26.8c3,1.6,8,1.6,11,0c3-1.6,5-0.1,4.5,3.2s1,8.1,3.4,10.5c2.5,2.4,1.7,4.8-1.7,5.2
				s-7.4,3.4-8.9,6.5c-1.5,3.1-4,3.1-5.5,0c-1.5-3.1-5.5-6-8.9-6.5s-4.2-2.9-1.7-5.2s4-7.1,3.4-10.5
				C1261.8,26.7,1263.8,25.3,1266.8,26.8z"/>
			<path class="st2" d="M1266.8,26.8c3,1.6,8,1.6,11,0c3-1.6,5-0.1,4.5,3.2s1,8.1,3.4,10.5c2.5,2.4,1.7,4.8-1.7,5.2
				s-7.4,3.4-8.9,6.5c-1.5,3.1-4,3.1-5.5,0c-1.5-3.1-5.5-6-8.9-6.5s-4.2-2.9-1.7-5.2s4-7.1,3.4-10.5
				C1261.8,26.7,1263.8,25.3,1266.8,26.8z"/>
		</g>
		<g>
			<path class="st1" d="M1207.1,46.3c3.9,0.9,9.4-0.6,12.3-3.3l0.5-0.5c2.9-2.7,5.6-1.6,5.9,2.3l0.1,0.7c0.4,3.9,3.5,8.8,6.9,10.7
				l0.6,0.3c3.4,1.9,3.3,4.8-0.4,6.4l-0.6,0.3c-3.6,1.6-7.3,6-8,9.9l-0.1,0.7c-0.8,3.9-3.6,4.6-6.2,1.6l-0.5-0.5
				c-2.6-3-8-5.1-11.9-4.6l-0.7,0.1c-3.9,0.5-5.5-2-3.5-5.4l0.4-0.6c2-3.4,2.3-9.1,0.7-12.7l-0.3-0.6c-1.6-3.6,0.2-5.8,4-4.9
				L1207.1,46.3z"/>
			<path class="st2" d="M1207.1,46.3c3.9,0.9,9.4-0.6,12.3-3.3l0.5-0.5c2.9-2.7,5.6-1.6,5.9,2.3l0.1,0.7c0.4,3.9,3.5,8.8,6.9,10.7
				l0.6,0.3c3.4,1.9,3.3,4.8-0.4,6.4l-0.6,0.3c-3.6,1.6-7.3,6-8,9.9l-0.1,0.7c-0.8,3.9-3.6,4.6-6.2,1.6l-0.5-0.5
				c-2.6-3-8-5.1-11.9-4.6l-0.7,0.1c-3.9,0.5-5.5-2-3.5-5.4l0.4-0.6c2-3.4,2.3-9.1,0.7-12.7l-0.3-0.6c-1.6-3.6,0.2-5.8,4-4.9
				L1207.1,46.3z"/>
		</g>
		<g>
			<path class="st1" d="M1262.7,87.5c1.9,1.5,5.3,2.1,7.5,1.4s3.5,0.6,2.6,2.8c-0.8,2.2-0.4,5.7,1,7.6c1.4,1.9,0.5,3.5-1.8,3.4
				s-5.5,1.4-6.9,3.3c-1.4,1.9-3.1,1.6-3.8-0.7c-0.6-2.3-3-4.8-5.3-5.6s-2.5-2.5-0.5-3.8c2-1.3,3.6-4.3,3.7-6.7
				C1259.2,86.8,1260.8,86,1262.7,87.5z"/>
			<path class="st2" d="M1262.7,87.5c1.9,1.5,5.3,2.1,7.5,1.4s3.5,0.6,2.6,2.8c-0.8,2.2-0.4,5.7,1,7.6c1.4,1.9,0.5,3.5-1.8,3.4
				s-5.5,1.4-6.9,3.3c-1.4,1.9-3.1,1.6-3.8-0.7c-0.6-2.3-3-4.8-5.3-5.6s-2.5-2.5-0.5-3.8c2-1.3,3.6-4.3,3.7-6.7
				C1259.2,86.8,1260.8,86,1262.7,87.5z"/>
		</g>
		<g>
			<path class="st1" d="M1593.3,89.1c1.5,0.8,3.9,0.8,5.4,0c1.5-0.8,2.5-0.1,2.2,1.6s0.5,4,1.7,5.2s0.8,2.3-0.8,2.6
				s-3.6,1.7-4.4,3.2s-2,1.5-2.7,0s-2.7-2.9-4.4-3.2c-1.7-0.2-2-1.4-0.8-2.6s2-3.5,1.7-5.2C1590.8,89,1591.8,88.3,1593.3,89.1z"/>
			<path class="st2" d="M1593.3,89.1c1.5,0.8,3.9,0.8,5.4,0c1.5-0.8,2.5-0.1,2.2,1.6s0.5,4,1.7,5.2s0.8,2.3-0.8,2.6
				s-3.6,1.7-4.4,3.2s-2,1.5-2.7,0s-2.7-2.9-4.4-3.2c-1.7-0.2-2-1.4-0.8-2.6s2-3.5,1.7-5.2C1590.8,89,1591.8,88.3,1593.3,89.1z"/>
		</g>
		<g>
			<path class="st1" d="M1555.3,43.7c1.9,2,5.6,3.3,8.3,2.9s3.8,1.2,2.5,3.6c-1.3,2.4-1.4,6.3-0.2,8.8c1.2,2.4,0,4-2.6,3.5
				c-2.7-0.5-6.5,0.6-8.4,2.6c-1.9,1.9-3.8,1.3-4.2-1.4c-0.3-2.7-2.6-5.9-5-7.2c-2.4-1.2-2.4-3.2,0.1-4.4c2.5-1.2,4.8-4.3,5.3-7
				C1551.5,42.3,1553.4,41.7,1555.3,43.7z"/>
			<path class="st2" d="M1555.3,43.7c1.9,2,5.6,3.3,8.3,2.9s3.8,1.2,2.5,3.6c-1.3,2.4-1.4,6.3-0.2,8.8c1.2,2.4,0,4-2.6,3.5
				c-2.7-0.5-6.5,0.6-8.4,2.6c-1.9,1.9-3.8,1.3-4.2-1.4c-0.3-2.7-2.6-5.9-5-7.2c-2.4-1.2-2.4-3.2,0.1-4.4c2.5-1.2,4.8-4.3,5.3-7
				C1551.5,42.3,1553.4,41.7,1555.3,43.7z"/>
		</g>
		<g>
			<path class="st1" d="M358.2,263.1c2.4,1.3,6.4,1.3,8.8,0c2.4-1.3,4-0.1,3.6,2.6s0.8,6.4,2.7,8.3c2,1.9,1.3,3.8-1.4,4.2
				c-2.7,0.4-5.9,2.7-7.1,5.2c-1.2,2.4-3.2,2.4-4.4,0c-1.2-2.4-4.4-4.8-7.1-5.2c-2.7-0.4-3.3-2.3-1.4-4.2c2-1.9,3.2-5.7,2.7-8.3
				S355.8,261.8,358.2,263.1z"/>
			<path class="st2" d="M358.2,263.1c2.4,1.3,6.4,1.3,8.8,0c2.4-1.3,4-0.1,3.6,2.6s0.8,6.4,2.7,8.3c2,1.9,1.3,3.8-1.4,4.2
				c-2.7,0.4-5.9,2.7-7.1,5.2c-1.2,2.4-3.2,2.4-4.4,0c-1.2-2.4-4.4-4.8-7.1-5.2c-2.7-0.4-3.3-2.3-1.4-4.2c2-1.9,3.2-5.7,2.7-8.3
				S355.8,261.8,358.2,263.1z"/>
		</g>
		<g>
			<path class="st1" d="M377.9,226.3c0.8,1.5,2.9,2.7,4.6,2.9c1.7,0.1,2.1,1.3,1,2.5c-1.1,1.3-1.7,3.6-1.3,5.3
				c0.4,1.6-0.5,2.4-2.1,1.7c-1.5-0.7-4-0.5-5.4,0.4c-1.4,0.9-2.5,0.2-2.3-1.4s-0.7-3.9-2-5s-1-2.3,0.7-2.6s3.5-1.9,4.2-3.5
				C375.8,224.9,377.1,224.8,377.9,226.3z"/>
			<path class="st2" d="M377.9,226.3c0.8,1.5,2.9,2.7,4.6,2.9c1.7,0.1,2.1,1.3,1,2.5c-1.1,1.3-1.7,3.6-1.3,5.3
				c0.4,1.6-0.5,2.4-2.1,1.7c-1.5-0.7-4-0.5-5.4,0.4c-1.4,0.9-2.5,0.2-2.3-1.4s-0.7-3.9-2-5s-1-2.3,0.7-2.6s3.5-1.9,4.2-3.5
				C375.8,224.9,377.1,224.8,377.9,226.3z"/>
		</g>
		<g>
			<path class="st1" d="M1041.5,122.3c2.7,0.6,6.5-0.5,8.5-2.3s3.8-1.2,4.1,1.5c0.3,2.7,2.5,6,4.8,7.3c2.4,1.3,2.3,3.3-0.2,4.4
				s-5,4.2-5.5,6.9c-0.5,2.7-2.4,3.2-4.2,1.2c-1.8-2-5.5-3.4-8.2-3.1c-2.7,0.3-3.8-1.3-2.4-3.7s1.5-6.3,0.4-8.8
				C1037.6,123.3,1038.9,121.7,1041.5,122.3z"/>
			<path class="st2" d="M1041.5,122.3c2.7,0.6,6.5-0.5,8.5-2.3s3.8-1.2,4.1,1.5c0.3,2.7,2.5,6,4.8,7.3c2.4,1.3,2.3,3.3-0.2,4.4
				s-5,4.2-5.5,6.9c-0.5,2.7-2.4,3.2-4.2,1.2c-1.8-2-5.5-3.4-8.2-3.1c-2.7,0.3-3.8-1.3-2.4-3.7s1.5-6.3,0.4-8.8
				C1037.6,123.3,1038.9,121.7,1041.5,122.3z"/>
		</g>
		<circle class="st3" cx="1198.1" cy="380.6" r="11.5"/>
		<circle class="st3" cx="1100.2" cy="36" r="5.8"/>
		<circle class="st3" cx="470.3" cy="37.1" r="5.8"/>
		<circle class="st4" cx="1070" cy="50.9" r="5.8"/>
		<circle class="st4" cx="1470.2" cy="121.9" r="8.1"/>
		<circle class="st4" cx="1439.7" cy="420.9" r="5.8"/>
		<circle class="st5" cx="1504.6" cy="393.1" r="5.8"/>
		<circle class="st5" cx="1237.1" cy="387.3" r="5.8"/>
		<circle class="st5" cx="569.8" cy="434" r="5.8"/>
		<circle class="st6" cx="1439.5" cy="147.8" r="5.8"/>
		<circle class="st6" cx="500.5" cy="23.8" r="5.8"/>
		<circle class="st7" cx="1506.3" cy="160.2" r="5.8"/>
		<circle class="st4" cx="1201.1" cy="415.7" r="5.8"/>
		<circle class="st8" cx="1153.4" cy="155.4" r="16.6"/>
		<circle class="st7" cx="1099.5" cy="170.9" r="5.8"/>
		<circle class="st6" cx="1028.2" cy="261.5" r="5.8"/>
		<circle class="st8" cx="549.9" cy="47.2" r="6.7"/>
		<circle class="st8" cx="527.9" cy="436" r="8.3"/>
		<circle class="st4" cx="577.4" cy="270.5" r="5.8"/>
		<circle class="st7" cx="528.1" cy="251.2" r="5.8"/>
		<circle class="st6" cx="393.8" cy="406.3" r="5.8"/>
	</g>
	<g id="Birds">
		<path class="st9" d="M883.9,128.6c2.4-0.6-2.5-10.3-2-11.5c0.5-1.3,12.7-2.2,12.2-4.8s-10.8,3-11.9,2.1c-1.2-0.9,6.3-7.8,3.8-8
			c0,0-5.6,0.3-8.8,5.4c-3.2,5.1-4.4,6.5-6.8,7.3c-2.3,0.7-1.3,2.6,0.7,1.8s4.3-1.7,5.9,1S879.6,129.7,883.9,128.6z"/>
		<path class="st9" d="M827.7,104.5l-3.2,7.8c0,0,7.2-4.2,8.2-2.2s-7.6,3.9-7.6,3.9l3.7,9.4c0,0-6.8,0-9.5-2.4
			c-2.8-2.4-1.5-3.8-1.5-3.8s-4,1.8-4.3,0.3s3.9-2.6,3.9-2.6s-0.5-3.3,1.4-5C820.8,108.3,827.7,104.5,827.7,104.5z"/>
		<path class="st9" d="M751.8,113.4c0.7,0.8,3.7,0.8,4.8,0.2s2.8,5.2,6.8,3.5c4-1.8,0.4-6.3,0.4-6.3s8.3-2.6,8.3-3.3
			c0-0.7-8.4,1.2-8.4,1.2s0.8-7.7-0.2-9.8c-1.1-2-5.3,2.3-5.8,5c-0.5,2.7,0.6,4.9-0.2,6S750.3,111.7,751.8,113.4z"/>
		<path class="st9" d="M775.4,188.8l-4.2-10.5l-3.7,0.6l-0.8-2.1l4.7-1.9l1.9-2.5l8.8-3.5l-1.8,4.7l6-1.5l0.5,1.4l-6.9,2
			c0,0,1.2,3.6,0.8,6C780.5,183.9,775.4,188.8,775.4,188.8z"/>
		<path class="st9" d="M836,142.6c0,0-7.6,3.9-8.6,3.4s-2.4-8-5.4-7s-1.4,7.1-2.5,8.2c-1.1,1.1-5,2-4.6,2.9s3.9,0.7,3.9,0.7
			l-1.5,5.5l7.2-6.9l10.7-4.9L836,142.6z"/>
		<path class="st9" d="M739.8,198.3l-2.2-5.6c0,0-4.3,1-5.7,3.3c-1.4,2.3-0.6,4.3-1.2,4.9c-0.6,0.6-3.9,1.2-3.5,2.4
			c0.5,1.2,3.6-0.2,4.1,0.5s-1.9,5.1-1.9,5.1s3.6-0.7,4.7-1.9s4.1-6.2,4.1-6.2l8.7-3.8l-0.5-1.3L739.8,198.3z"/>
		<path class="st9" d="M690.4,236.5c0,0,4.6-4.8,5.6-6.8s1.1-4.5,1.1-4.5l7.4-2.9l-0.6-1.5l-7,2.8l-0.9-4.9c0,0-4,2.3-5.3,3.7
			s-1.3,2.7-1.3,2.7s-5.5,0.6-5.2,2.1c0.3,1.5,5.4,0.4,5.4,0.4S688.2,236.7,690.4,236.5z"/>
		<path class="st9" d="M714.5,83.6l4.3,10.8c0,0-5.6,1.5-5,3.7c0.6,2.2,4.5,0.3,4.5,0.3l-0.7,4.8l8.2-8.2l11-4.4l-9.3,1.6
			c0,0-2.2-5.6-6-7.3S717.8,82.2,714.5,83.6z"/>
	</g>
</g>
<g id="Road_Back">
	<g id="q8X2LU_1_" class="st10">
		
			<image style="display:inline;overflow:visible;" width="700" height="700" id="q8X2LU_3_" xlink:href="2F6797FD.jpg"  transform="matrix(4.5622 0 0 2.9653 -749.0528 -455.932)">
		</image>
	</g>
	<path class="st11" d="M1555.6,265c0-50.1-408.1-51.3-743.5-69.1s-824.6-55.7-824.6-55.7v9.1c0,0,246,26.6,447.8,40.8
		s531.6,35.4,679.8,37.2s399.8,16.1,399.8,39.1L1555.6,265z"/>
	<path class="st12" d="M1533.9,266.3c0-32.5-258-42.8-414.3-47.9c-148-4.8-485.4-22.2-687.2-36.4s-444.8-37.1-444.8-37.1"/>
</g>
<g id="Bus">
	<g>
		<path class="st13" d="M289.7,156.5c0,0,2.8,0.3,5.6-0.1s23.5,3.9,25.9,4.1c2.3,0.3,3-0.2,4.5-0.1c1.6,0.1,2,1.5,4.2,1.3
			c2.2-0.2,2-1.7,2.9-1.8c0.9,0,4.5,1.8,5.6,1.6c1.1-0.2,4.3-2.1,4.8-3c0.5-0.9-21.7-13.7-21.7-13.7l-31.3-1.9c0,0-3.9,8.8-3.6,9.7
			C287.1,153.8,289.7,156.5,289.7,156.5z"/>
		<path class="st13" d="M391,165.7c0,0,0.8,0.6,3.1,0c2.3-0.7,2.3-2.7,4.5-3c2.2-0.3,22.9,4.7,23.6,5.9c0.6,1.2,1.4,2.6,3.2,3.1
			c1.7,0.4,1.4-0.8,2.2-0.7c0.8,0.1,1.9,0.8,2.8,0.7c0.9-0.1,2.8-3.6,2.8-3.6l-11-19.9l-29.3-2.7l-0.4,15.6L391,165.7z"/>
		<path class="st14" d="M301.9,146.7c0,0-6.5,4.4-6.5,11.4s3,14.6,6.9,16.1c3.9,1.5,9.5,1.7,11.8,1.1c2.3-0.7,8.8-2.3,9.7-10.7
			s-4.3-18.1-4.3-18.1L301.9,146.7z"/>
		<path class="st15" d="M306.1,149.2c6.4-0.1,9.7,5.7,9.5,10.7c-0.2,5-2.5,11.3-9.2,10.6c-5.7-0.6-7.7-5.5-7.8-11.4
			C298.6,153.5,302.1,149.2,306.1,149.2z"/>
		<path class="st14" d="M410.1,151.1c7.5,0.4,15.2,7.7,15.5,18.9c0.3,11.2-6.8,16.7-15,16.9s-13.9-7.1-13.8-19.3
			C396.9,155.5,402.3,150.7,410.1,151.1z"/>
		<path class="st14" d="M364.7,160.4c0,0-2.8,4.9-8.4,6.1c-5.6,1.2-10.3-1-11.9-2.8c-1.7-1.9-4.1-7.3-4.1-7.3L364.7,160.4z"/>
		<path class="st14" d="M465.1,168.2c0,0-3.2,6.1-8.4,8.3s-9.7,0.4-12.8-2.7c-3.1-3.1-4.6-8.5-4.6-8.5L465.1,168.2z"/>
		<path class="st15" d="M406.8,158.6c6.2-0.1,8.8,6.1,8.9,11.3c0.1,5.1-2.6,11.1-6.2,11.1c-3.9,0.1-8.4-3.3-9.5-9.7
			C398.8,164,401.6,158.7,406.8,158.6z"/>
		<path class="st16" d="M285.1,86.3c0,0,2.6-6.3,3.5-6.8c0.9-0.5,1.1-2.8,2.1-3.5s16.4-3,23.2-3.6c6.8-0.6,94.9,1.2,96.9,1.7
			c2,0.4,10.1-0.6,14.8-0.4s15.2,3.7,19.7,3.7c4.4,0,12.8-1.1,16.3-0.2c3.5,0.9,7.3,4.7,7.8,6.7c0.5,2,0.1,3.7,0.1,3.7l-35.6,6.3
			L285.1,86.3z"/>
		<path class="st17" d="M480.7,163.6c0,0,11.8-7.2,12-8.8c0.2-1.6-2.1-2.5-2.1-3.5c0-0.9,1.9-11,1.9-14.4c0.1-3.4-1.9-16.5-2.8-18.2
			c-1-1.6-1.9-4.1-2.3-4.6s-6-3.9-6-3.9l-9.4-20.8c0,0,0.9-0.6,0.9-1.4c0-0.8-2.4-3-6.9-3.2c-4.6-0.2-17.7,1.5-22.4,3.1
			c-4.6,1.6-7,3-7.9,3.1c-0.9,0.1-149.8-5-150.6-4.9c-0.8,0.1-1.4,0.8-1.4,1.3s-5.2,15-5.8,28.3c-0.9,19,0.6,37.4,1.2,38.7
			c0.6,1.3,9.6,2.3,10.6,2c1-0.4,2.5-8.6,2.5-8.6s0.1-0.9,0.8-1.3c0.7-0.4,1.6-0.4,1.6-0.4l20.3,1.3c0,0,1.6,0,2.6,0.7
			c0.9,0.7,1.3,1.6,1.3,1.6l5.6,7.9c0,0,0.6,1,1.2,1c0.6,0,64.4,5.1,64.4,5.1s-0.1,1.2,1,1.9c1.1,0.6,2-0.3,2.2-1.9
			c0.1-1.6,1.4-11.4,4.5-14.4c3.1-3,15.9-1,18.7,0.5c2.8,1.5,7.8,13.8,8.6,15.5s1,3.4,2.9,3.8c1.9,0.4,18.1,1.9,19.9,2.1
			c1.9,0.1,29.2-4.5,29.8-5.2S480.7,163.6,480.7,163.6z"/>
		<path class="st16" d="M450.1,161.9c1.1-1.4,8.6,0.1,12.6-0.2s24.7-5,26.1-5.7s4.5-2.6,5.1-3.5c0.6-0.8,2.4-1.4,2.9-0.6
			c0.5,0.8,0.5,4.3,0.1,5.9s-4.9,5.2-7.7,5.9c-2.8,0.7-26.9,6-33.2,5.8c-6.3-0.1-6.2-1.2-6.5-2.9C449.2,165,449,163.2,450.1,161.9z"
			/>
		<path class="st18" d="M458,125.8c0.2-0.5,5.5-1.6,5.8-1s1.1,5.1,0.7,5.9c-0.5,0.8-4.9,1.7-5.5,1.1
			C458.4,131.2,457.5,126.8,458,125.8z"/>
		<path class="st18" d="M488.8,121.7c-0.3,0.4-0.6,4,0.1,4.3s2.7-0.5,2.8-1c0.1-0.5-0.2-4-0.5-4.2S489.6,120.6,488.8,121.7z"/>
		<path class="st19" d="M449.3,118.4c4.2-0.1,17-1.1,19.8-1.6c2.8-0.5,12.4-2.1,14-2.6c1.6-0.5,0.9-2.7-0.9-5.9s-7.6-15.5-9-17.1
			s-3.2-2.6-5.3-2.6c-2.1,0-25,3.5-27.5,4.7c-2.5,1.2-3.4,1.9-3.1,4.9s3,15.8,4.3,18C443,118.4,446.2,118.5,449.3,118.4z"/>
		<path class="st19" d="M432.6,98.3c0.4,1.5,3.5,15.1,3.6,16.6s-0.9,2.9-2.8,3.2c-1.9,0.3-36.2-1.1-37.4-1.5s-2.3-1.4-2.2-3.1
			s1.5-15.8,1.9-16.9c0.4-1.2,1.2-1.8,2.9-1.8c1.7,0,30.8,1,31.9,1.2S432.3,97.1,432.6,98.3z"/>
		<path class="st19" d="M344,92.8c1.3,0,40.5,0.7,41.8,0.9s2.2,1,2.4,2.1s-1.5,17.5-2,18.7c-0.5,1.2-1.2,1.2-2.7,1.3
			c-1.5,0.1-41.6-2-42.5-2.2c-0.9-0.2-1.3-0.6-1.3-1.7c0-1.2,2.4-16.6,2.7-17.5S342.9,92.8,344,92.8z"/>
		<path class="st19" d="M336.6,94.4c-0.1,1.1-1.9,16.8-2.1,17.6c-0.2,0.8-0.6,0.9-1.6,1.1c-1,0.1-41.1-1.8-41.8-1.9
			s-0.5-0.5-0.7-1.4s1.3-12.4,2.8-14.9c1.5-2.5,3-3.3,6.1-3.5c3.1-0.2,34.9,1.1,36,1.4C336.4,93.2,336.8,93.3,336.6,94.4z"/>
		<path class="st15" d="M465.4,142.5c0.2,2.8-1.4,7.7-3.9,7.9s-5.1-1.8-5.3-6.6c-0.2-4.8,3.1-7,5.1-7.1S465.1,139.1,465.4,142.5z"/>
		<path class="st15" d="M493.2,136.6c0.1,2.7,0.4,6.7-1.5,6.9s-3.7-1.4-4-5.9c-0.3-4.5,1.7-6,3.1-6
			C492.1,131.5,493.1,133.8,493.2,136.6z"/>
		<path class="st20" d="M462,138.5c1.5,0,2.5,1.4,2.8,4.5c0.2,3-1.1,6.1-2.6,6.1s-3.1-1.8-3.3-4.5
			C458.7,141.8,460.3,138.5,462,138.5z"/>
		<path class="st20" d="M491.2,133.7c1.3,0,2,2,2.1,3.9s-0.4,4.9-1.4,5c-1,0.1-3-1.3-3.1-3.9C488.5,136.1,489.8,133.8,491.2,133.7z"
			/>
		<g>
			
				<ellipse transform="matrix(0.998 -6.328262e-02 6.328262e-02 0.998 -7.887 30.6878)" class="st21" cx="480.5" cy="139.8" rx="2.7" ry="5"/>
			<line class="st21" x1="480.2" y1="134.8" x2="480.8" y2="144.9"/>
			<polyline class="st21" points="482.2,143.9 480.5,139.8 479.3,144.1 			"/>
		</g>
		<path class="st16" d="M398.8,128.7c-0.1-0.5-8.3-2.1-8.3-0.6C390.4,129.7,399,129.8,398.8,128.7z"/>
		<path class="st16" d="M384.4,127.2c0,0.8-1.2,1.3-4.6,1.4c-3.3,0-4-0.1-4.1-0.9c0-0.8,1.3-1.1,4.3-1.2S384.4,126.3,384.4,127.2z"
			/>
	</g>
	<g>
		<path class="st22" d="M82.7,242.4c0,0-54.8,52.4-61.2,98.2s62.6,199.9,35.8,223.5c-26.8,23.6-252.7-1.3-271.3-30.5
			c-18.6-29.2-9.8-138.1,26.5-218.4S-39.5,169.8-39.5,169.8l105-55.5L82.7,242.4z"/>
		<path class="st23" d="M-187.2,79.6c0,0,52.3,89.8,111.1,101.4c58.8,11.6,130.1,56.2,164.3,71.4s133.1,51.4,172.5,27.3L93.2,80.5
			L-187.2,79.6z"/>
		<path class="st24" d="M194.7,72.1c87.8,36.9,123,99.6,126.2,140.2c3.2,40.6-73.4,94.6-114.6,65.8c-41.2-28.7-89.6-100-147.8-116.8
			S-52.6,185.7-150.7,118S-145.8,0.4-45,5.5S110.6,36.8,194.7,72.1z"/>
	</g>
</g>
<g id="Rocket">
	<path class="st9" d="M1343.2,235.6c0,0,1.4-4.2-1.7-11.7c0,0,2.1-8.1,2.1-16.8c0-8.7-3-13.1-3-13.1l-6.7-7.6l-6.6,4.2
		c0,0-3.5,5.8-4.5,14.4c-1,8.6,0,14.7,0,14.7s-12.2,10.3-14.3,28.1s0.4,27.8,0.4,27.8s-10.7,13.9-12.9,34c-2.2,20,2.5,39.2,2.5,39.2
		s-10.1,17.4-12.9,37.4c-2.8,20-0.3,42.9-0.3,42.9s-15.8,24.5-19.1,56.4c-3.3,32,0,63.6,0,63.6l20.6,8.9l49.8-7.5
		c0,0,21.8-29.9,25.8-55c4-25.1,0-55.6,0-55.6s10.5-13.9,12.9-37.6c2.3-23.8-7.1-46.6-7.1-46.6s8.1-8.1,10.3-31.4
		c2.2-23.3-5.9-41.3-5.9-41.3s3.8-7.6,4.8-24.7c1-17.1-6.8-31.1-6.8-31.1s2-8,2.1-17.7s-2.6-14.8-2.6-14.8l-4.6-7.5l-8.8,4.4
		c0,0-3.6,7.6-5,15.1s-2,18.7-2,18.7C1352.3,223.2,1346,227.5,1343.2,235.6"/>
	<g>
		<path class="st25" d="M1356.1,84.4c0,0,4,4.8,2.5,11.7c-1.5,6.4-18.7,92-18.7,92l0.8,5.8c0,0-3.2-2.1-6.2-2.7
			c-3-0.6-7.1-0.6-7.1-0.6l3-4.5l19.7-92.4C1351.4,88,1356.1,84.4,1356.1,84.4z"/>
		<path class="st26" d="M1346.5,150.4c0,0,10.9-68.2,15.4-78c4.5-9.8,11.2-13.6,13.1-13.3c1.9,0.3,6.9,13.3,6.6,20.1
			c-0.3,6.8-3.2,21.1-3.2,21.1l-13,59.1L1346.5,150.4z"/>
		<path class="st25" d="M1383.8,84.8c0,0,4.1,4.7,2.7,11.6c-1.4,6.5-17.2,92.3-17.2,92.3l0.9,5.8c0,0-3.3-2.1-6.3-2.6
			c-3-0.5-7.1-0.5-7.1-0.5l2.9-4.6l18.1-92.8C1379.2,88.5,1383.8,84.8,1383.8,84.8z"/>
		<path class="st27" d="M1353.9,96.1c0,0,1.9-6,4.4-5.4c2.5,0.6,4.1,4.8,4.3,10.6c0.2,5.8-1.7,17.3-0.8,22.8
			c0.9,5.6-1.8,15.1-0.7,17.7c1,2.6,11.9,13.3,12.1,20c0.2,6.8-0.5,7.5-0.5,7.5l-21.8,5.9l-1.4-13l-3.9-3.5l12.3-55.4L1353.9,96.1z"
			/>
		<path class="st28" d="M1350.8,175.2l0.6-7.9l0.7-3.4l18.7,1c0,0,1-4.3-0.8-7.2c-1.8-2.9-8.2-8.5-10.2-13c-2-4.5,0.7-15.5,1-17.3
			c0.3-1.8-1-5.2-1.4-9.3c-0.3-4.1,1.7-14.5,0.9-18.8s-3-5.7-4.4-5.9c-1.4-0.2-2.3,3.6-4.7,5.3c-2.4,1.7-6.1,9.1-7.9,17
			c-1.9,7.9-5.3,28.5-5.3,28.5l-18.5,14.7l-2.3,9.5l7.3,1.7l-1,4l3.5,0.8l6.3-2.3L1350.8,175.2z"/>
		<polygon class="st28" points="1352.4,167.5 1351.9,173.5 1361.9,170.9 1362.3,166.8 		"/>
		<polygon class="st28" points="1363.7,166.7 1363.3,170.2 1370.4,168.7 1370.7,165.8 		"/>
		<polygon class="st27" points="1325.8,166.4 1338.3,155.4 1339.8,155.8 1339.3,157.8 1326.3,167.5 		"/>
		<polygon class="st27" points="1326,170.3 1334.4,165.8 1335.1,167.2 1326.3,171.4 		"/>
		<polygon class="st27" points="1337.6,164.9 1339.1,165.3 1338.1,169.8 1336.2,171 		"/>
		<polygon class="st27" points="1347.8,157.7 1351.1,161.9 1355.1,145 1353.5,142.8 1358.6,121.2 1356.9,119.5 1359.1,110.1 
			1357.7,108.6 		"/>
		<polygon class="st27" points="1348,108.4 1350.8,109.1 1352,107.3 1349.4,106.7 		"/>
		<path class="st27" d="M1355,104.7l1.3,0.9c0,0,0.5-1.8-0.2-2.7s-2.2-2.2-3.3-2.4c-1.1-0.2-3.5-0.1-4.2,1.3l-0.7,1.4l1.9-1.3
			l2.5-0.1l2.1,1.2L1355,104.7z"/>
		<path class="st27" d="M1333.4,172.7l-0.7,3.2c0,0,0.2,1.5,1.3,1.7c1.1,0.3,1.6-0.5,1.6-0.5l-0.4,1.5c0,0,0.3,0.8,1.3,1
			s1.6-0.3,1.6-0.3l0.5-2.3c0,0,0.5,0.9,1.7,1.2c1.1,0.2,1.9-0.3,1.9-0.3l-0.2,1.1c0,0,0.2,0.7,1.1,0.9c0.9,0.2,1.8-0.3,1.8-0.3
			l0.4-1.7c0,0,0.4,0.8,1.5,1c1.1,0.3,1.7-0.4,1.7-0.4l0.9-3.9L1333.4,172.7z"/>
	</g>
	<path class="st9" d="M1328.5,312.7c4.3-23.2,10.6-33.4,10.6-33.4s-3.5-10.9-1.5-26.2s12.2-27.9,12.2-27.9"/>
</g>
<g id="Road_Middle">
	<path class="st11" d="M1555.6,265c0,50.1-506.6,57.8-722.9,60.7c-342.3,4.6-433.1,6.2-851.9,50.4V343c0,0,295.4-35.7,723.1-39.4
		c534.2-4.7,810.8-14.2,810.8-37.2L1555.6,265z"/>
	<path class="st12" d="M-12.4,358.6c0,0,294.1-39.6,720-43.3c531.9-4.7,826.4-16.8,826.4-49.5"/>
</g>
<g id="Busmore">
	<g id="Layer_3">
		<path class="st29" d="M612.2,515.6c0,0-12,10.8-19,14.3c-7.1,3.5-21.7,13.8-23,20.7c-1.3,6.9-14.1,9.6-14.1,20.9
			c0,11.3,39.3,104.2,39.3,104.2l-39.3,150l4.4,180.7h985.4l-18.7-190.2l-333.5-258.1l-157.1-146.3L858.9,349L612.2,515.6z"/>
		<path class="st29" d="M785.9,349c0,0-19.1-0.3-31.1,3.3c-12,3.6-23.1,12.2-34.8,16.6c-11.7,4.4-27.8,6.6-39.6,11.6
			c-11.7,5.1-41.8,23.8-42.2,32.7s51.1,32.3,51.1,32.3l137,12.9L785.9,349z"/>
		<path class="st30" d="M898.5,277.5c0,0,11.7,6.2,18.9,6.6c7.2,0.4,7.1,11.2,9.1,16.4c1.9,5.2,6.5,7.8,11.2,14.3s-57-12.7-57-12.7
			l1.5-19.7L898.5,277.5z"/>
		<path class="st31" d="M1015,567.9c0,0-4.1,20.6,5.2,28.7c9.3,8.1,30,8,30.5,13.5c0.5,5.5-20.4,9.8-35.7,16.5s-39.3,29.7-51.3,37.2
			c-12,7.5-52.8,10.7-60.8,7.8c-8-2.9,0.5-9.9-2.2-16.6c-2.8-6.7-21.9-1.1-31.8-11.7c-9.9-10.6-14.6-30.1-31.1-33.9
			c-16.5-3.7-34.5-1.3-57.6-6.1s-66.3-19.2-66.5-22.6c-0.3-3.5,12.8-4.6,26.1-10.6c13.3-6,17.8-13.2,30.2-20.3s-20.5-4.7-20.5-4.7
			l-53.9-17.8l-32.3-68.2l149.4-22.9c0,0-10.8-133.4-4.2-140.4c3-4,12.9-5.5,18.1-11.5c5.9-6.9,22.8-6.5,27.9-8.5
			c2.8-1.1,25-5.5,35.6-3.5c8.5,1.6,11.5,10.8,17.2,11.5c12.8,1.7,14.9,16.4,14.9,16.4l53.4,76.8c0,0,10.2-8.8,18.8-8.5
			c8.6,0.3,31.2,14.9,31.2,14.9l96.4,74.4c0,0,0.9,7.3,3.5,14.2s4.2,6,7.3,10.3c0.9,1.3,9.4,5.1,12.2,13.5
			c6.2,18.9,8.6,49.9,8.6,49.9L1015,567.9z"/>
		<path class="st30" d="M835.1,529.1c4.3-2.6,2.9,8.8,10.1,13.6c7.2,4.8,32.3,32.3,35.4,38.8s9.5,2.2,8.9-4.6s5.8-11.1,15.3-13.1
			c9.5-2.1,17.3,3.3,24.5,0c7.2-3.3,3.7-21.2,10.5-22.5c6.9-1.3,20.1,8.4,16.5,22.5c-3.6,14.1-33.4,44.1-34.3,49
			c-0.9,4.9-12.9,18.5-22.1,16.7s-28.4-14.9-41.6-30.9C845.1,582.5,827.4,533.9,835.1,529.1z"/>
		<path class="st30" d="M1008,376.4c0,0-10.3,8-17.3,10.4c-6.9,2.4-19.8,4.8-19.8,4.8l-22.4,95.1c0,0,34.3-1.7,43.1-20.6
			C1000.5,447.2,1008,376.4,1008,376.4z"/>
		<path class="st32" d="M951.4,504.3c0,0,14.2-3.5,15.8-14.7c1.6-11.2-1.6-24,0-37.2c1.6-13.2,10.3-19.6,9.1-29.9
			c-1.2-10.3-4.5-14.5-16.3-13.4C948.2,410.2,951.4,504.3,951.4,504.3z"/>
		<path class="st30" d="M798.7,518.9c3.1,5.7-15.1,36.7-28.7,37.2c-13.6,0.5-22.7-7.7-47.7-10.5c-25-2.9-30.1-13.4-46-13.6
			c-15.9-0.2-36.7-1.6-41-8.8c-4.3-7.3-23.1-7.5-23.1-7.5s8.2-17.9,6.9-34c-1.2-16.1,16.5-31.8,17.6-43c1.1-11.3,1.6-25.3,1.6-25.3
			s21.6,15,34.1,16.5s39.1-11.3,46.4-5.7c0.4,0.3,5.2-8.4,10.5-22.2c1.9-4.8,11.4-20.2,11.4-32c0-6.8,9.9,8,16.3,6.2
			c8.2-2.3,8.4-16.3,10.3-16.2c3.9,0.2,5,17,5,17.3c-0.1,6.3-57.5,69.2-62.5,82.3c-5.1,13.3-10,27.6-9.3,37.6
			c1.5,22.7,18.1,36.1,31.5,34.8c13.4-1.3,10.5,6.4,16.6,6c6-0.4,11-9.6,21.5-13.4C780.5,520.6,793.8,510,798.7,518.9z"/>
		<path class="st30" d="M1132.9,486.8c0,0-7.9,8.1-7,13s-4.9,10-3.6,14.8c1.3,4.9-0.1,19.1-0.2,23.4c-0.1,4.3,6.7,32.1,6.7,32.1
			l15.9-19.2v-60.3L1132.9,486.8z"/>
		<path class="st31" d="M1136,635.7c0,0,0.8,20.2,11.5,40c10.7,19.8,18.4,28.5,22.7,31.6c4.3,3.1,35.1,13.9,45.6,14.2
			c10.5,0.3,19,165.3,21.2,158.5c1.1-3.2,227.4-43.6,290.1-63.8c69.6-22.4,18.7-82.6,18.7-82.6s-356.2-238.6-360.5-246.9
			s-12.9-4-29.6-4.6s-24.4-1.9-24.4,7.3c0,9.2,7.2,5.5,9.5,8.6C1143.3,501.3,1136,635.7,1136,635.7z"/>
		<path class="st30" d="M1248.1,531.9c0,0,33.7-4.4,42-9.7c8.3-5.4,23.1-13.5,36.4-13.8s31.5,151.7,31.5,151.7s-4.8,27.9-11.2,37.6
			c-6.4,9.8-25.7,22.3-36.4,20c-10.6-2.4-16.8,3.9-20.2,2.4c-3.4-1.5,7.2-9,5.8-15.6c-1.4-6.7-26.8,3.1-23.3,9.5s9.2,5.4,8.2,9.9
			c-1,4.4-30.9-0.5-39.7-6.7c-8.8-6.1-6.1-14.2-11.2-17.8c-5.1-3.6-33.3-0.7-45-5.8c-11.8-5.1,5.3,1.2,13.2-2.8
			c7.8-4.1,14.3,3.3,20.1,0s10.5-7.6,13.6-18.5c3.1-10.9,21.2-14.5,28.3-17.8c7.1-3.3,18.5-12.6,17.8-15.8
			S1248.1,531.9,1248.1,531.9z"/>
		<path class="st30" d="M1478.9,478.2c0,0,86.6-27.6,88.9-30.3c2.3-2.7,2.2-7.2,9.1-6.7s13.8,15.7,20.7,37
			c6.9,21.3,10.3,47.5,15.8,61.7c5.5,14.2,5.5,29,14.6,48.4c9.1,19.4,17.3,216.9,13.5,277.7c-3.8,60.8-16.1,164.1-16.1,164.1
			l-150.3,8.3c0,0,14.3-174.9,9.5-180.8c-4.8-5.9-26.9-4.5-36.4,0c-9.5,4.5-44.4,2.8-56.1-3c-11.8-5.8-13.6-26.9-24.9-34.6
			c-11.4-7.7-60.2-1.4-67.1-8.8c-6.9-7.4,19.3-23.1,32.5-21.4s39.7,2.2,49.3-2s14.4-22.6,21.6-22.4c7.2,0.2,25.5,1.2,27.1,10.5
			c1.6,9.3,10.9,18.3,27.4,16.1c16.5-2.2,26.9-16.1,32.7-16.1c5.9,0,12.4,10.4,25.4,13c13.1,2.6,29.4-18.8,26.7-34.7
			c-2.7-15.9-24.9-18.8-39.8-14.5c-14.9,4.3-22.5,17.1-36.9,15.7s-38.7-3.2-42-2.4c-3.4,0.8-9.9-0.4-9.9-0.4s9.7-8,20.4-6
			s23.6-0.9,28.9-0.8c5.3,0.2,19.2-1.2,18.8-4c-0.3-2.8-5.2-3.7-8.5-3.7c-3.3,0-12.7-3-23.1-2.1c-10.5,0.9-18.2,2.3-24.5,1.3
			s-12.6,0.9-15.2,0.6c-2.6-0.3-7.2-1.7-11.7-2c-4.5-0.3-12.6,0.2-13.2-1.9c-0.6-2.1,8.2-5.4,14.5-6.9s14-7.6,14-7.6L1478.9,478.2z"
			/>
		<path class="st29" d="M1440.2,460.6c0,0,21.7,1.2,25.6-1c3.9-2.1,7.6-4.3,13.3-4.6s10.9,7.3,18.5,7.6s19.8-5.1,22.9-8.6
			c3.1-3.5,10.4-5.2,15.4-6c5.1-0.8,13.1,6.4,18.6,2.8s12.1-7,16.2-7.6c4.1-0.5,7.6-0.5,8.8,2.9c1.2,3.5-3.4,17-1.7,26
			c1.7,9,6.4,16.3,6.9,22.1s-2.6,12.1-6.5,12.8c-3.9,0.7-7.8,2.2-7.4,4.4c0,0,10-1.7,14-0.7c4,1,3.2,2.4,3.2,2.4s-1.9,4.1-0.9,7.8
			c1,3.7,1.3,9.2-0.7,12.1c-1.9,2.9-5.4,3.3-9.4,3.2s-9.1,3.7-14.3,3.5s-14.9,3.6-25.9,2c-11-1.6-15.6-5.7-17.7-11.2
			c-2.1-5.5,17.5-5.5,18.8-9.8s-6.9-15.3-6.9-15.3L1452,502l-28-34.4L1440.2,460.6z"/>
		<path class="st29" d="M1584.8,567.5c0,0-0.5-8.4,3.2-12.7c3.7-4.3,6.9-0.9,6.3-5.4c-0.5-4.6-6.5-2.8-8-5.2
			c-1.5-2.4-3.8-4.6-6.1-4.6c-2.4,0-8.3,2.9-14.6,4.6c-6.2,1.7-22.5,3.3-25.9,3c-3.4-0.3-8.6,0.8-8.5,2.4
			c0.1,1.6,4.6,10.6,13.3,14.4c8.7,3.8,18.1,3.7,21.3,4.2s6.8,2.6,11.2,1.8C1581.6,569.2,1584.8,567.5,1584.8,567.5z"/>
		<path class="st29" d="M1586.2,579.6c0,0-3.2-3-6.9-3.3c-3.7-0.4-13.7-0.3-17.9,1.3c-4.2,1.5-9.7,1.5-10.3,2.1
			c-0.7,0.6-3,2.8-0.5,5.4s9,1.7,15.7,1.6s10.3-0.1,10.9,1s3.1,2.6,4.8,0.6C1583.7,586.3,1588.4,581.3,1586.2,579.6z"/>
		<path class="st29" d="M1500.4,557c0,0,17.4,0.9,25.4,11.4s1.4,14.4,5.5,20.8c4,6.4,19.1,12.2,24.9,19.2c5.9,7.1,13.4,5.3,13,11.4
			c-0.4,6.1-12.3,4.3-20.9,5.9c-8.6,1.6-13.5,4.6-13.5,4.6s12-1.4,21.3-1.1c9.2,0.3,12.1,2.1,14.1,12.3c2,10.2-3.1,13.2,0,19.7
			c3.1,6.5,13.2,9.4,15,16.7c1.8,7.3-21.9,12.9-30.7,7.6c-8.8-5.3-6.5-10.9-11.7-15.2c-5.2-4.4-14.7-7.4-16.3-4s0.4,17.3-8.3,20
			c-8.7,2.8-40.9-16.7-40.9-16.7L1500.4,557z"/>
		<path class="st32" d="M1116.4,600.7c-4.4-0.8-5.7-4.9-7.5-7.9c-3.5-5.8-8.5-8.4-14.8-9.2c-12-1.5-24.1-2.3-35.7-6.1
			c-3.3-1.1-6.6-2.5-10.1-3.3c-3-0.7-2.3-3.2-3.2-5.2c-8,0.1-14.9-4.6-22.9-5.3c-2-2.4-0.6-3.6,1.7-4.2c2.9-0.7,5.9-0.6,8.8-1.7
			c5.1,0.7,10.3,0.5,15.1,3c10.4,1.5,20.6,4,31.3,2.3c11.5-1.8,17.5-7.6,18.4-19.3c0.4-5.8,0-11.6,0.6-17.4c0.4-3.9,1.3-7.1,6.2-6.7
			c2,0,4,0.6,5.9-0.2c1.6-1.6-0.7-2.6-0.5-4.3c5.7-2.3,9.7,1.4,14,4.1c0.6-0.4,1.3-0.5,2.1-0.3c4,5.3,5.2,18.7,2.3,28.3
			c2.7,1.3,6.6-1,8.6,2.6c1.7,3,0.2,5.9,0.2,8.9c-2.6,6.9-3.3,14.3-5.4,21.2C1129,588.2,1125.9,597.2,1116.4,600.7z"/>
		<path class="st30" d="M556,571.5c0,0,25-2,30.3,2.7c5.3,4.7,0.8,7.7,8.1,14c7.3,6.3,26,1.3,29.4,3.8s8.9,21.9,2.3,25.1
			c-6.6,3.2-26-2.5-23,7.6c3.1,10.1,31.2-3.7,53.8-1c22.6,2.6,38.2,12.8,59.3,19c21.1,6.2,47.5,15.6,47.5,15.6s-26.5,0.3-47.5-4.3
			c-21-4.6-42.4-12.5-41.6-7.5c0.8,5,75.7,24.4,89.8,25.8c14.1,1.3,4.7,21.4,0.5,30.9s-12,10.6-27.6,9.8
			c-15.6-0.8-60.6-20.1-85.1-16.9c-24.6,3.2-1.6,9,15.6,12.4c17.2,3.4,87.9,10.1,89.5,16.2c1.6,6.1-29.8,135.1-29.8,135.1L556,825.8
			V571.5z"/>
		<path class="st30" d="M629.8,524.8c0,0-2.2,9.5-6.3,14.9s-13.4,3.9-17,5.6s-8.4,12.1-13.3,15.2s-16.3,7.2-16.7,5.7
			s11.2-7.8,12-12.7s10.6-5.3,12.4-10.1c1.8-4.8,13.8-8.2,15.9-11.5C618.8,528.6,627.9,518.1,629.8,524.8z"/>
		<path class="st30" d="M703.7,590.5c0,0,13.7,1.2,25.4,4.7s21,8.7,22.1,12s-11,22.4-3.9,29.7c7.2,7.4-9.1,3.8-15.2,0
			c-6.1-3.8-7.2-17-14.5-21.1c-7.3-4.1-19.4,5.5-27.3,5.5c-7.9,0-27.3-0.7-28.4-5.5c-1.1-4.8,27.3-6.2,33.8-10.3
			C702.4,601.5,697,589.7,703.7,590.5z"/>
		<path class="st30" d="M806.2,832.6c-1.6,5.4-5.1,8.4-3.8,12.4s0,0-0.3,4.4c-0.3,4.4,35,3.8,39.7,12.4c4.7,8.6,10.7,22.3,27.1,29.7
			c16.5,7.4,27.5-2.4,46.5,0c18.9,2.4,28.8,16.7,41.6,22.5c12.8,5.8,39.7,2.1,49.5,8.9c9.8,6.8-4.4,18.7-15,16.5
			c-10.6-2.2-32.8-14.4-57.2-15.3c-24.4-0.8-63.5-2.6-60.7,5.3c2.8,7.9,64.2,1.7,72.5,10.2c8.3,8.6,1.1,17,7,26.4
			c6,9.4,34.7,25.5,58,18.6c23.3-6.9,52.4-6.2,63.9,3.6c11.5,9.7,43.2,31.7,97.7,31.3c54.5-0.4,101.9-11,118.8-37.8
			c16.9-26.8,10.6-52.1,17.5-65.2c6.9-13.1,26.3-29.8,23.2-46.2c-3.1-16.4-26.8-28-51.4-22c-24.6,6-43.8-27.1-45.4-39.5
			c-1.6-12.4,6.7-53.2,12.2-59.8c5.5-6.6,20.6-1.6,20.6-6.9c0-5.3-7.5-12.8-20.6-13.9c-13.1-1.1-33.3-9.3-41.5-9.7
			c-8.3-0.4-35.3-11.8-43.2-5.3c-7.8,6.5,1.6,8.3-2.4,13.9s-12,1.2-11.4,7.1s20.3,4.6,24.3,16c4,11.3,1.2,22.2-8.9,22.5
			c-10.1,0.3-18.5-5-25.6,0.5c-7.1,5.5-9.2,8-4.4,12.2s18.9,6.5,19.8,9.9s-12.7,6.2-12.7,6.2s27.2,0.2,26.5,11.2
			c-0.7,11-32,0.1-35.1,3.6c-3.1,3.5,20.7,15.2,20.7,15.2s14.6,23.4-21.6,24.3s-22.5-21.6-17-25.4c5.5-3.8-5.9-7.5-11.8-7.6
			c-6-0.1-12.3,7.2-14.8,11.2c-2.5,4-16.7,19.4-22.8,20.2c-6.2,0.8-9.8-18.4-17.7-21.9c-7.9-3.5-10.6-14-14.4-14.3
			s-15.8,8.3-32.8,6.9c-17-1.3-48.5-12.4-53.6-15.5c-5.1-3.1-20.7-29.8-14.6-34.7s5.6-8.7,2.3-10.3s-11.1-1-10.9,7.3
			c0.2,8.3-8.6,17.2-19.2,23.3c-10.6,6.1-30.6,8.5-41,13c-10.5,4.5-15.6,19.7-15.8,24.2s-18,3.5-21.5,1.1S807.8,827.1,806.2,832.6z"
			/>
		<path class="st30" d="M753.5,810.5c4.6,2.8,26.3,8.5,41.2,8.9c15,0.4,32,2.3,32.8-1.3c0.8-3.5-5.8-4.1-9.9-4.1
			c-4.1,0-11.7-3-13.2-13.7c-1.5-10.6,41.3-1,48.2-2.8s8.9-15.5-8.6-17.2s-17.9,3.5-25.9,3.3c-8.1-0.2-20.5-11.4-19.5-17.5
			c1-6.1,5-11,14-11.4c9-0.4,20-2,19.2-6.8s-11.4-10.3-18.3-10.3s-19.3,4.2-27.9,2.2c-8.6-2-17.5-7-22-4.5
			c-4.6,2.4-6.1,35.2-7.1,42.1C755.5,784.4,745.9,805.9,753.5,810.5z"/>
		<path class="st30" d="M761.4,720.4c0,0,0.8-7.4,2.5-11.3c1.7-4,5.9-2.9,8.1-7.8s4.8-18.1,10.7-20.1c5.9-2,9.8-8.6,11.6-13.4
			c1.9-4.8,0.9-8,3-10.3c2.1-2.3,13.4-5.8,15.9-9.2s6.8-10.6,10.2-14.6c3.4-4,10.6-7,14.4-7.3c3.8-0.3,12.7,2.6,16.6,6.7
			c3.9,4.1,14.2,7.1,14.5,10.9s-2.5,5.8-8.7,5.4c-6.2-0.4-8.9-7.9-18.8-8.5c-9.9-0.6,14.7,11.4,13.2,17.1
			c-1.4,5.7-12.8,18.7-18.4,19.2c-5.7,0.5-21.5-5.6-28-3.7c-6.4,1.9,9.2,4.7,10.2,10.1s-18.5,7.5-26.1,13.3
			c-7.7,5.8-12.4,21.1-19.3,23.6C766.1,722.9,761.4,720.4,761.4,720.4z"/>
		<path class="st30" d="M785.5,724.3c0,0,2.7-6.6,8.6-12.5c5.9-5.9,15.6-8.4,19.8-11.5c4.2-3,20.4-17.2,28.5-18.5
			c8.1-1.3,8.3,1.3,11.6-1.7c3.3-3,2.9-3.6,9.5-2.2c6.6,1.4,27.7,1.9,29.2,3.9c1.5,2.1-4.7,2.6-4.7,4s10.6,3.6,9.9,6.9
			c-0.7,3.3-15.4-3-19.7-0.8c-4.2,2.3,9.1,11.1,17.3,13.4c8.2,2.3,32.4,11.7,32.4,14.4s-1.7,4.3-8.8,4.5
			c-7.1,0.2-41.1-17.3-52.3-16.4s-12.3,3-10.1,7.1c2.1,4.1,22,7.7,24.1,12c2.1,4.3-11.9,3.5-19.5,2.3s-26.2-9.5-32.5-7.9
			s15.5,7.1,16.6,11.1c1,4-12,3.9-20.5,2.5c-8.5-1.5-21.8-8.3-25.2-8C796.3,727.3,789.9,731.6,785.5,724.3z"/>
	</g>
	<g>
		<path class="st33" d="M1270.3,567.4c0,0,5.9-0.2,6.4-1.2c0.5-1-1.7-8.1-0.2-9.3s7,0,7.2,1.2c0.2,1.2,1.4,9.8,0.1,11.5
			s-6,2.1-7,1.1c-1-1,0.4-2.4-0.5-2.6s-5.5,0.7-5.5,0.7L1270.3,567.4z"/>
		<path class="st34" d="M1267.3,502.7c0,0,7.9,7.6,10,21.4c2.1,13.9-2.8,19.4-0.4,25.9c2.3,6.5,6.9,2.3,9.2,6
			c2.3,3.7,1.4,18.3-0.6,24c-2,5.8,4.6,20.9,4.1,26.3c-0.5,5.4,3.7,27.9-4.6,36.2s-15.7-1.8-45.2,1.6s-46.6,3.3-51.9,8
			c-5.4,4.7-29.1,1.6-36.6-2c-7.5-3.6-25.3-16.9-25.3-16.9L1267.3,502.7z"/>
		<path class="st35" d="M1178.3,648.5c6.9-1,7.8-7.6,9.7-10.6c2-3,84.6-3.8,87.1-6.5c2.4-2.8,1-26.4,1.4-28.6
			c0.4-2.3,3.5-4.5,4.2-6.5c0.7-2,0.1-2.9-2.1-5c-2.2-2-0.9-8.6-3.2-11.2c-2.4-2.6-2.2-21.1-3.1-34.5c-0.9-13.3,0.5-24.1,0-30.9
			c-0.6-6.8-2.9-10-4.8-12c-1.9-2-2.6-4.9-3.7-6.5c-1.1-1.6-7.3-3.2-9.6-4.9s-4-4.6-4.7-5.5s-14.9-5.2-18.7-6.1
			c-3.8-0.9-7.3-2-9.6,0.4c-2.4,2.4-14,0-14,0s-21.1,3.6-31.3,6.2s-30.9,8.7-34.7,12.1c-3.8,3.3-7.2,16.2-7.2,16.2
			c-1.7,11.1-5.5,67.5-10,72.6c-9.4,10.6-11.1,22-3.6,27.7c5.8,4.4,2.4,14.7,5.8,18.5c1.9,2.1,26.1,11.3,32.1,13.4L1178.3,648.5z"/>
		<path class="st36" d="M1186,504.5c3.2-2.2,8.2-2.7,8.2-2.7s21.5,3.3,36.7,7c15.2,3.7,32,6.9,34.1,9.5c2.1,2.7,3,18.1,5.2,24.9
			c2.2,6.8,4.1,15.2,4.3,21.7c0.2,6.6-0.4,10.5-5.3,11.8c-4.8,1.3-19.6-4.9-31-5c-11.3-0.2-43.1,2.1-51.1,2
			c-8,0-10.1-11.9-10.1-14.5C1177.1,556.8,1180.5,508.3,1186,504.5z"/>
		<path d="M1177.1,559.3c0,0,5.2-21.4,5.8-35.5c0.6-14.1,2.6-17.5,5.3-18.3s16.7-0.4,25.9,1c9.2,1.5,19.7,5.9,26.9,7.1
			c7.2,1.2,19.5,5.7,21.5,9.2s4.2,12.1,6.1,12.4s0.9-14.2-1.5-17.3s-7.6-4.8-11.3-5.6c-3.7-0.8-5.8-0.8-24.6-4.4
			c-18.8-3.6-30.1-7.8-36.4-8c-6.3-0.2-11.6,4-12.7,8.3c-1.1,4.2-5.7,28.8-5.3,32.4C1177.2,544.1,1174.9,557,1177.1,559.3z"/>
		<path class="st37" d="M1165.9,587.1c-2,1.4-2.3,10.2-1,12.5c1.3,2.3,21.4,2.8,23.6,2.4c2.2-0.5,3.6-3.8,3.6-6.8
			c0.1-2.9-2.5-6.5-4.3-7.2C1186.1,587.2,1168.5,585.2,1165.9,587.1z"/>
		<path class="st37" d="M1194.5,594.9c-0.1,4.2,1.1,9,8.6,10.7c7.5,1.6,12.4-1.1,13.9-2.4s2.7-3.6,6.9-3.5c4.2,0,14.6,2,17.6,1.8
			s6.9-2.5,11.3-2.2c4.4,0.3,5.6,3,8.5,5c2.8,1.9,10.6-0.2,12.4-2.5c1.9-2.3,5.8-1.5,7.2-3.6c1.5-2.1,1.4-6.7-1-7.7
			c-2.4-1-3.3-0.5-6.5-2.6c-3.2-2.2-11.8-2.4-13.7-0.9c-1.9,1.5-2.3,2.3-6.6,2.3c-4.2,0-8.1-3.6-13.4-3.6c-5.4,0-5.4,2.6-12.9,2.5
			c-7.6-0.1-11.9-2.9-16.4-3.6C1205.9,583.8,1194.7,584.4,1194.5,594.9z"/>
		<path class="st38" d="M1181.6,594.9c-0.4,2.7,1,4.2,3.1,4.4s4.2-1.4,4.4-3.9s-1.5-4.7-3.7-4.9
			C1183.2,590.2,1182.1,592.2,1181.6,594.9z"/>
		<path d="M1234,598.3c0.4,1.2,3.2-8.2,3.7-8.7s4,0.4,4.5,0.7c0.5,0.4,0.9,2.5,1.6,2.5s0.3-3.7-0.8-4.3s-5.7-2.3-6.3-1
			C1235.9,588.8,1233.3,595.8,1234,598.3z"/>
		<path class="st34" d="M1277.6,592.5c0,0,2-0.5,2,2.4c0,3-0.9,3.6-1.8,3.8c-0.9,0.1-2.1-1.3-2-2.9S1275.7,592.7,1277.6,592.5z"/>
		<path d="M1206.7,595.9c0.7,0.1-0.4-6.5-4.8-6.4c-4.4,0.1-5.2,6.5-4.8,7.4c0.4,0.9,4.1,5,4.5,4.4c0.4-0.6-3.1-3.6-3.3-6.4
			s3.7-5.3,5.3-3.2C1205.3,593.7,1205.4,595.7,1206.7,595.9z"/>
		<path d="M1217,595.7c0.7,0.1-1.4-5.2-4.7-5.6c-3.3-0.4-4.4,3-4.4,6.3c0,3.4,3.2,5.8,4.3,5.6s-2.6-1.3-3-4
			c-0.4-2.7,0.2-6.4,1.3-6.5s3.2,0.1,4,1.6C1215.2,594.6,1215.5,595.5,1217,595.7z"/>
		<path d="M1266.6,595.6c1.1,0.5-0.8-3.7-2-4.3c-1.2-0.6-6,0.8-5.3,4.4c0.7,3.6,1.8,4.9,2.8,5.1c1.1,0.2,1.5,0.3,0.9-0.8
			s-3.5-2.7-2.3-6.3C1261.9,590.1,1264.1,594.4,1266.6,595.6z"/>
		<path d="M1273.9,595.7c0,0-0.1-5.2-2.8-5.1c-2.7,0.1-3.4,3.4-3.3,5.5c0.1,2.1,1.1,4.5,2.8,4.4c1.7-0.1,0.4-2-0.2-2.2
			c-0.6-0.2-2.3-3.8-1.3-4.9s2.5-1.6,3.1-0.1S1271.9,595.5,1273.9,595.7z"/>
		<path class="st33" d="M1173.5,632.3c0,0-0.2,10.3,1.8,10.8c2,0.5,10.7,1.5,16.6,1.4s36.9-4.1,44.4-4.8c7.5-0.7,38.4-3.5,40.9-4.3
			c2.5-0.9,4.8-5.1,4.9-10.6c0-5.5,1.1-6.4-2.3-6.9s-8.9,2.9-23.6,3.9c-14.7,1-65.4,3.3-69.8,3c-4.4-0.3-6.8-3.7-8.7-2.4
			C1175.9,623.9,1173.5,628.7,1173.5,632.3z"/>
		<path d="M1165.5,515.8c0,0-1.3-4.3-5.4-3.2c-4.2,1.2-4.9,4.6-5.4,6.9c-0.5,2.4-1.9,38.3-1.9,38.3s-0.6,5.7,1,8.2
			c1.6,2.5,4.6,1.7,4.6,1.7c1.2-1.9,2.3-1.8-0.8-2.5c-3.1-0.7-2.7-2.4-2.8-4.4c-0.1-2,1.7-39.7,1.7-39.7s0.4-4.7,4.3-5.9
			S1165.5,515.8,1165.5,515.8z"/>
		<path d="M1150.3,519.6c0,0-0.7-4.1-5.2-2.5c-4.5,1.6-4.4,6.6-4.4,6.6l-1.4,36.4c0,0-0.7,4.1,2.7,6.4c3.4,2.3,0.6-3.6,0.2-9
			c-0.3-5.4,0.6-33.6,0.6-33.6s0.2-4,3.6-4.9C1149.7,518.1,1150.3,519.6,1150.3,519.6z"/>
		<path d="M1161.8,585.6c0,0-1-4.3-5.5-3.6c-4.5,0.7-4.6,2.8-5,5.2c-0.4,2.4-1.5,30.8-1.5,30.8s-0.2,3.3,1.9,5.4s2.8-2.4,1.9-3.5
			c-0.9-1.1-1.5-2.8-0.7-17.3c0.8-14.5,0-18,4-18.4S1161.8,585.6,1161.8,585.6z"/>
		<path d="M1146.9,584.2c0,0-1.3-3.7-5.5-3.6c-4.3,0-4,10.9-4.5,18.6c-0.5,7.7-1.7,16.8,0.1,19.2c1.8,2.4,2.6-2.2,2.3-3.9
			s-0.8-11.3-0.5-17.8c0.3-6.5,1-13.3,3.9-13.3S1146.9,584.2,1146.9,584.2z"/>
		<path class="st33" d="M1165.5,515.8c0,0,4.1-4.3,6.7-3.1c2.7,1.2,1.5,4.4,1.5,4.4s3.9,1.7,4,7.7c0.1,6-4.4,7.4-7.3,7.7
			c-2.9,0.3-7.5-4.2-7.6-7.6c-0.1-3.3,0.8-6.2,3.2-6.9C1168.3,517.3,1163.3,517.7,1165.5,515.8z"/>
		<path d="M1262.5,501.8c0,0,1.3-2.5,0.6-3.5c-0.7-1-15.2-7-27.5-9.9c-12.3-2.9-27.9-5.1-27.9-5.1s-1.4,0-2.1,0.6s-4.4,9.6-4.6,10.7
			c-0.2,1.1-0.9,2.9,0.4,3.3c1.3,0.4,1.3-4.1,2.8-8.3c1.5-4.2,1.8-4.2,3.1-4.6c1.3-0.5,16.1,3.7,23.4,4.3c7.3,0.6,13.7,4.2,17.5,5.1
			c3.9,0.8,12.3,3.1,12.7,4.4C1261.2,500,1260.5,501.1,1262.5,501.8z"/>
	</g>
	<g>
		<polygon class="st35" points="1104.8,518.8 1104.8,476.2 1106.6,476.2 1106.6,470.4 1106.6,466.1 1085.8,465.4 1056.4,464.7 
			1058.6,507 1094.1,510.6 1101.2,517.9 		"/>
		<path class="st34" d="M1125.3,461.2c0,0-8.4,2.7-12,4.9c-3.6,2.2-5.9,6.2-7.2,6.1c-1.3-0.1,1.6-4.6-3.3-5.5
			c-4.9-0.9-35.9-1.2-38.9,0.7s0-11.5,0-11.5l57.9,2.2L1125.3,461.2z"/>
		<path class="st34" d="M1126.9,557.7c-1.3,3.3-0.3,9.9-2.5,15.2c-2.2,5.3-7.3,12.4-10.2,12.7c-2.8,0.2-11.5,1.3-14.8,0
			c-3.2-1.3-3.9-8-8.1-8c-4.2,0-6.6,5.8-21,5s-24.8-4.5-26.3-7.1c-1.5-2.6-13.4-6.8-17.3-4.7s-5.2,12.3-8.6,14.5
			c-3.3,2.2-10.8,4.8-13.8,3.7c-3-1.1-10.1-6.9-10.1-10.2s0-16.5,0-16.5l10.1-12.2c0,0,116.9-26,120.9-22
			C1131.4,534.1,1128.1,554.4,1126.9,557.7z"/>
		<path class="st35" d="M1014.8,360.7c0,0-4.7,2.4-8,6.9s-8,17.5-10,21.7c-1.9,4.1-15.8,36.8-15.8,36.8s-3.9,21.7-4.1,27.5
			c-0.2,5.8-1.5,77.3-1.5,77.3l2.6,5l0.4,8.9h3c0,0,4.1,9.7,5.4,11c1.3,1.3,5,5.2,5,5.2s0.3,9.8,2.4,14.3c5.6,12.3,5.6,12.3,17.5,11
			c8.6-0.9,6-28.6,6-28.6L1014.8,360.7z"/>
		<path class="st35" d="M1122.7,551.3c0,0,2.2,10.2,0,18.6c-2.2,8.4-5,10.8-7.6,12.6s-14.1,1.7-15.2,0c-1.1-1.7-5.1-11-6-21.2
			C1093,551.1,1122.7,551.3,1122.7,551.3z"/>
		<path d="M1061.7,474.8l35,1.1c0,0,2.7,0,3.5,1s1.1,21.8,0,21.9c-1.1,0.1-0.5-14.8-0.8-17.3s-0.1-3.5-0.9-4.1s-36-1.3-36-1.3
			L1061.7,474.8z"/>
		<path class="st36" d="M1125.3,461.2c0,0-3.5-82.3-14.3-90.5c-10.8-8.2-38.1-12.1-48.5-13c-10.4-0.9-41.2-2.2-47.7,3
			s-8.5,94.9-8.5,94.9l-1.6,96.2c0,0-2.1,4.3,3.8,8.2c5.9,3.9,44.6,10.8,44.6,10.8v4.5h32.3l0.2-5.7c0,0,14.5-0.4,15.6-2.2
			s0.6-4.9,0.6-4.9s20.3-5.5,22.5-7.5c2.3-1.9,1.9-16.6-0.4-22.4s-6.2-11.6-11.4-13.5c-5.2-1.9-7.7-2.4-7.7-2.4l-2.8-0.3
			c0,0-1.7-5.4-4.5-8c-2.8-2.6-3.2-1.5-3.2-1.5s-11.7-1.2-18.2-1.5c-6.5-0.3-12-0.4-12-0.4l-0.2-39.3c0,0,0.2-2.5,1.3-4
			c1.1-1.5,2.3-1.7,2.3-1.7L1125.3,461.2z"/>
		<path d="M1011.1,501.9V464c0,0,0.1-2.8,1.2-3.7s3-1,3-1l41.2,1.2c0,0,2.5,0.3,3.3,1.4c0.9,1.2,1.4,13.9,1.3,23.4
			c-0.1,9.5-0.4-20.6-1.7-22.1c-1.3-1.4-2.2-2-21.5-2.3c-19.3-0.3-22.1-1-23.8,0.3s-1.2,33.6-1.6,36S1011.1,501.9,1011.1,501.9z"/>
		<path d="M1026.8,545.2c1.2,1,1.9-5.3,1-6.9c-0.9-1.6-4.2-3.5-7.7-3.2c-3.5,0.3-7.1,4.3-7.1,6.5s-0.1,6.4,2.7,8.1s5,1.6,4.9,0.6
			c-0.1-1-4.4-1.4-5.4-4c-1-2.6-0.4-5.8,2-7.7c2.5-1.9,6.9-1.7,8.1,0.6C1026.5,541.5,1025.3,544.1,1026.8,545.2z"/>
		<path d="M1119.6,543.8c-1,0.3,1-4.9-2.9-5.9c-3.3-0.9-5.5-0.3-6.5,2.3c-1,2.6-2,4.6,0,6.5c2,1.9,4.3,1.7,4.2,2.9
			c-0.1,1.2-5.7-0.6-6.7-3.9s0.3-8.9,3.8-10.6c3.5-1.7,8.4,1.8,9.1,3.6C1121.4,540.6,1121.1,543.4,1119.6,543.8z"/>
		<path class="st39" d="M1042.5,565.3v-30.2c0,0-0.4-1.3,1.2-2.4c1.6-1.2,2.7-1.2,2.7-1.2h16.9c0,0,2.6-0.1,4.5,3.1
			c1.9,3.2,1,5.8,2.6,6.3s2-5.5,3.5-7.5c1.4-2,3.6-1.9,3.6-1.9l17.8,0c0,0,2,0.6,2.5,1.7c0.4,1.2,1.3,28.9-0.9,31.2
			c-2.2,2.2-5.6-3.3-9.1-4c-3.5-0.7-19.3,2.9-27.3,3.6c-7.9,0.7-13-6.9-15.4-6.8C1042.5,557.4,1045,564,1042.5,565.3z"/>
		<path class="st40" d="M1055.1,572.7c0.9,0.6,0-5.2,0-5.2h27.9v5.2c0,0-4.1-2.8-8.4-2.6s-8.4,2.5-10.6,2.6
			C1061.8,573,1055.1,572.7,1055.1,572.7z"/>
		<path d="M1059.2,490.7l-45.3-1.1c0,0,3.2,1.5,10.8,2.2c7.6,0.6,9.1-0.4,16,0C1047.7,492.2,1059.2,490.7,1059.2,490.7z"/>
		<path d="M1015,372l99.3,7.8c0,0-4.7,1.5-13.4,0.9c-8.7-0.6-24.1-2.9-41-4.2C1043,375,1024.6,373.8,1015,372z"/>
		<path d="M1016,399.1l-0.9-21.7c0,0,0.3-1.6,1.6-2.3c1.3-0.7,5.5-0.7,5.5-0.7l38.1,3.3c0,0,2,0.1,3.2,1.3c1.2,1.2,1.1,3.6,1.1,3.6
			s0.7,8.8,0,9c-0.7,0.1,0-8.2-1.3-10.8c-1.2-2.6-5.6-2.3-10.2-2.2c-4.6,0.1-19.4-2.6-27.9-3c-8.5-0.4-8.5,0.9-8.8,2
			C1016.1,378.7,1017.6,398,1016,399.1z"/>
		<path d="M1070.8,403.7c1.5,1.4-1.2-8.1-1.4-14.4c-0.3-6.4,0.1-8.3,1-8.5c0.9-0.2,39.3,2.7,40.8,3.4c1.4,0.7,2,3,2.5,5.8
			c0.4,2.7-1,9,0,10c1,1,1.2-11.6,0.1-14c-1.1-2.5-0.8-3-5.4-3.5s-35.4-3.3-35.4-3.3s-3.9-0.4-4.3,0.9
			C1068.1,381.3,1068.5,401.6,1070.8,403.7z"/>
		<path d="M1040.1,432.3c0,0,4.6-1,8.2-0.9s8.7,2.2,20.1,2.5c11.4,0.3,21.7-0.6,23.5,0c1.9,0.6,1.9,2.7,3.5,2.3
			c1.6-0.4,2.8-2.2,0-3.6s-14.3-0.1-26.8-0.6c-12.5-0.4-18.6-2.2-22.5-2.2c-3.9,0-7.2,0.7-7.2,0.7L1040.1,432.3z"/>
		<path d="M1094.9,413.4c0,0-11.8,0.1-20.2,0c-8.4-0.1-12.8-2.3-13.7-1c-0.9,1.3,1.2,8.5,0.7,11.7c-0.5,3.2-1.7,3.3-2.5,2.7
			c-0.8-0.6-0.9-9.8-0.8-12.4c0.1-2.6,2.2-3.5,2.2-3.5l19.9,0.1L1094.9,413.4z"/>
		<path d="M1038.9,437.1V413c0,0,0.4-2.6,1.1-3c0.7-0.4,2.7-0.7,3.6-0.9c0.9-0.1,48.7,2.6,48.7,2.6s2.5,0.9,2.7,1.7
			c0.3,0.9,0.9,5.1,0,4.9c-0.9-0.1,0-4-2.2-5.3c-2.1-1.4-49.9-2.8-51.1-2.3c-2.5,0.9-2.1,10.7-1.7,18.5
			C1040.4,436.9,1040.4,436.6,1038.9,437.1z"/>
		<path d="M1117.5,453c2.8,0.6,8,0.7,6.2,2.9c-1.8,2.2-5.3,2-10.7,1.8c-5.4-0.2-30.9-1.8-44.6-2.3c-13.7-0.5-35.2,1.4-42.3,0.5
			c-7.1-0.9-14.2-0.9-15-4.2c-0.8-3.2,7.4-2.4,11.3-1.5s29.5,1.5,34,1.1c4.5-0.4,39.3,0,44.4,0.4C1106,452.1,1117.5,453,1117.5,453z
			"/>
	</g>
	<g>
		<path class="st34" d="M716.1,507.2l52.7-20.5l1.1,4.7c0,0-2.7,15.5-13.6,22.4c-9.7,6.2-24.6,4.9-31.5,2.5
			C718.4,514,716.1,507.2,716.1,507.2z"/>
		<g>
			<path class="st34" d="M783.4,319.2l-1.4,9.6c0,0-2.9-0.8-3.3,3.7c-0.4,4.5,2.2,3.6,2.2,3.6l-0.5,3.6c0,0-6.6-1.5-7.9,0.2
				c-1.3,1.7-2.7,6.2-3.4,14.5c-0.7,8.3,0.1,14.2,2.3,15.3c2.2,1.1,4.6,0.7,4.6,0.7l-0.9,5.9l92.4,9.6l66.3,2.7l11.3-7.5l7.8-24.8
				l-6.5-34.9l-157.3-5.1L783.4,319.2z"/>
			<polygon class="st36" points="743.5,388.5 772.3,377.2 828.4,378 899.9,388.4 846.3,406.9 			"/>
			<g>
				<path class="st33" d="M751.7,512.6c6-3,16.9-14.9,19.7-38.7c2.8-23.8-12.3-21.6-26.9-22.3c-14.6-0.7-31.4-29.7-35.9,13.1
					s8.2,44.1,13,47.6C726.4,515.9,745.7,515.6,751.7,512.6z"/>
			</g>
			<path class="st36" d="M789.2,325c1.8-0.8,158.1,4.5,160.1,6.9s-3.3,58.3-5.5,59.6c-2.3,1.2-160.2-11.3-163.5-15.5
				C776.9,371.8,785.2,326.8,789.2,325z"/>
			<path class="st34" d="M747.3,456.2c0,0-1.2-8.4-7.6-7.7c-6.4,0.7-11,12.3-12.1,27.4c-1.1,15.1,2.4,23,4.6,25.7
				s-2.6-15.1-1.8-25.3s4.8-22.7,9.1-24.8C743.7,449.5,743.6,455.3,747.3,456.2z"/>
			<path class="st34" d="M705.8,428.5c0,0-5.4,5.9-5.4,17.8c0,11.9,1.2,13.5,2.7,15.1c1.5,1.6,41.3,6.7,47,13.5
				c5.7,6.8,13.2,15,20.8,20.6c7.6,5.7,12.4,1.7,38.1,5.8c25.7,4.1,53.5,6.3,55.5,4.9c1-0.7-6.6,23.2,4.6,32.3
				c11.1,9.1,35.1,7.1,37.2,4.7c7.3-8.4,11.1-21,11.1-21l8.4-3.9l9.5-51.7l-15.6-39.6l-200.8-3L705.8,428.5z"/>
			<path class="st35" d="M783.5,315.2c0,0,3-10.1,14.8-17.3c11.9-7.2,53.3-10.1,72.1-9.5c18.8,0.6,41.6,3.4,60.3,12
				c18.7,8.5,20.9,22.5,20.9,22.5s-0.4,2.4,2.5,5.8c2.8,3.4,14.6,8.9,21.1,15c6.6,6.1,9.2,11.6,10.3,22.3s-1.8,23.1-1.8,23.1
				l-14.1,34.1l-8.2,65.7l-5.2,28.7l-30.6,0.8c0,0,4.2-33.7,1.2-60.8c-3.1-27.1-16.3-23-23.2-18.5s-3.7,6.2-8.5,10
				s-73.4-3.7-124.4-9.7c-51-6-65-10.9-65-10.9s3.6-15.2,12.6-19.2c9-3.9,15.8-2.9,15.8-2.9s3.2-15,9.3-17.8
				c6-2.8,39.8-0.3,56.1,1.7s27.2,4,27.2,4s64.3-3.2,63.9-5.4s-27.9-5.5-51.4-7.9c-23.5-2.4-66.1,0.2-67-3.8s84.4,2.9,97.2,3.7
				c12.8,0.8,60.2,9.5,69.7,2.1c9.5-7.4,10.7-49.3,5.9-54.5c-4.8-5.3-51.8-5.5-87-6.4c-30.9-0.8-62.3-1.2-71.9-2.3
				c-1.4-0.2-9.3,59.2-9.7,59c-1.1-0.5-7.7-0.8-9.2-9.8c-1.9-11.7,2.3-33.4,9.6-40.2C781.2,324.9,783.5,315.2,783.5,315.2z"/>
			<path class="st33" d="M700.2,440c3.3,4.1,38.2,3.7,83.6,8.9c45.4,5.2,81.7,13.3,83.6,12.2c1.9-1.1,2-5,1-6.9
				c-1-1.9-64.9-8.4-90.2-11.4c-25.3-3-57.2-8-63.5-9.3s-8.6-4.1-11.5-2.9S698.5,438,700.2,440z"/>
			<g>
				<path class="st33" d="M902.5,540.9c6-3,13.5-15.6,16.3-39.3c2.8-23.8-1.7-48.3-16.3-49c-14.6-0.7-34.2-1.1-38.7,41.7
					s3.9,43,8.6,46.5C877.1,544.2,896.4,543.9,902.5,540.9z"/>
			</g>
			<path class="st34" d="M911,478c0,0-1.2-8.4-7.6-7.7c-6.4,0.7-11,12.3-12.1,27.4s2.4,23,4.6,25.7c2.2,2.8-2.6-15.1-1.8-25.3
				c0.8-10.2,4.8-22.7,9.1-24.8C907.4,471.3,907.2,477.1,911,478z"/>
			<g>
				<path class="st41" d="M856.1,299.8c-0.4-1.6-1.4-3.1-3.2-2.8c-1.9,0.2-2.1,2-2,3.5c0.2,2.9,0.5,5.9,0.8,8.8
					c0.1,0.9,0.3,1.7,0.8,2.5c0.6,1,1.5,1.6,2.7,1.4c1.2-0.2,1.6-1.1,1.8-2.2c0.4-1.9-0.1-3.8-0.2-6
					C856.6,303.4,856.5,301.6,856.1,299.8z M855.4,309.8c0,0.5,0,1.2-0.7,1.3c-0.8,0.1-1.1-0.6-1.1-1.2c-0.4-3.2-0.7-6.4-1-9.6
					c-0.1-0.6,0-1.4,0.8-1.4c0.7,0,1,0.7,1,1.3c0.2,1.6,0.3,3.3,0.4,4.9c0.1,0,0.2,0,0.3,0C855.2,306.7,855.3,308.2,855.4,309.8z"/>
				<path class="st41" d="M844.9,304.5c-0.2-2.2-0.3-4.4-0.5-6.6c0-0.5-0.3-1.2,0.6-1.2c0.7,0,1,0.3,1,1c0.1,1.5,0.3,3,0.4,4.5
					c0.1,0.8,0.4,1.3,1.3,1.2c1.1,0,0.7-0.8,0.6-1.4c-0.1-1.3-0.2-2.6-0.3-3.9c0-0.5-0.2-1.2,0.6-1.3c0.7-0.1,1,0.3,1,1
					c0.4,4.5,0.9,9,1.3,13.5c0,0.6,0.2,1.3-0.8,1.3c-0.9,0-0.9-0.7-0.9-1.3c-0.1-1.6-0.3-3.1-0.4-4.7c-0.1-0.7-0.3-1.2-1.1-1.2
					c-1.1,0-0.7,0.8-0.7,1.3c0.1,1.3,0.3,2.6,0.3,3.9c0,0.6,0.7,1.7-0.6,1.8c-1.2,0.1-1.1-1-1.1-1.8c-0.2-2.1-0.3-4.2-0.5-6.4
					C845.1,304.5,845,304.5,844.9,304.5z"/>
				<path class="st41" d="M858.4,311.4c0.5,1.3,1.3,2.2,2.7,2.1c1.5-0.1,2-1.3,2.1-2.6c0.2-2.9-0.3-5.8-0.7-8.8c-0.1-1-0.2-2-0.7-3
					c-0.6-1.2-1.5-2.1-2.9-1.9c-1.4,0.2-1.8,1.4-1.9,2.6c-0.2,1.8,0.2,3.5,0.4,5.3C857.9,307.2,857.7,309.4,858.4,311.4z M859,300.4
					c0-0.5,0-1,0.6-1.2c0.7-0.1,1,0.4,1.1,1c0.4,3.3,0.7,6.6,1,10c0,0.5-0.1,1.2-0.8,1.3c-0.7,0.1-1-0.5-1-1.1
					c-0.2-1.7-0.3-3.4-0.4-5.1c-0.1,0-0.1,0-0.2,0C859.2,303.6,859.1,302,859,300.4z"/>
				<path class="st41" d="M872.5,305.9c0.2,2,0.3,4.1,0.4,6.1c0.1,1.1,0.3,1.8,1.6,1.8c1.3,0,2.7,0.2,3-1.6c0.3-1.8,0.3-3.7-0.5-5.4
					c-0.4-0.9-0.4-1.5-0.2-2.4c0.4-1.7,0-3.4-0.7-5c-0.8-1.6-2.4-1.5-3.8-1.2c-1.3,0.2-0.5,1.5-0.5,2.2c0.1,1.8,0.2,3.7,0.4,5.5
					C872.3,306,872.4,306,872.5,305.9z M874.7,307c1.3-0.1,1.2,1.4,1.4,2.3c0,0.2,0.1,0.4,0,0.6c-0.1,0.7,0.1,1.7-0.9,1.9
					c-1.2,0.1-0.8-1-0.9-1.7c-0.1-0.3,0-0.5-0.1-1C874.5,308.5,873.4,307.1,874.7,307z M874,300.4c1.2-0.1,1.1,1.3,1.2,2.2
					c0.1,0.8,0.4,2-0.7,1.9c-1.5,0-0.3-1.6-1-2.2C873.9,301.6,873,300.4,874,300.4z"/>
				<path class="st41" d="M883.3,305.8c0.1,1.9,0.4,3.8,0.4,5.7c0,1.4-0.3,2.7-2,2.9c-1.7,0.2-2.6-0.9-2.8-2.3
					c-0.5-4.2-0.9-8.4-1.4-12.6c0-0.4-0.1-0.9,0.5-1c0.6-0.1,1.1,0.2,1.1,0.9c0.1,1.7,0.3,3.4,0.5,5.1c0.2,2.1,0.4,4.2,0.6,6.3
					c0.1,0.6,0.3,1.5,1.2,1.4c0.9-0.1,0.7-1,0.7-1.7c-0.3-3.3-0.6-6.7-0.8-10c0-0.6-0.5-1.6,0.5-1.7c1.1-0.1,1,1,1,1.7
					c0.2,1.8,0.3,3.5,0.4,5.3C883.2,305.8,883.3,305.8,883.3,305.8z"/>
				<path class="st41" d="M833.6,296c1.9-0.2,3.9,2.3,3.5,4c-0.1,0.4-0.4,0.5-0.7,0.6c-0.6,0-0.8-0.3-1-0.8
					c-0.2-0.6-0.3-1.8-1.3-1.4c-1,0.5-0.5,1.5-0.2,2.4c0.6,1.4,1.8,2.4,2.7,3.5c1.4,1.7,1.9,3.6,1.7,5.7c-0.1,1.7-1.3,2.7-2.8,2.5
					c-1.5-0.2-3-2.3-2.7-3.6c0.1-0.3,0.2-0.5,0.5-0.5c0.5,0,1,0.1,1.2,0.6c0.3,0.8,0.5,1.9,1.6,1.3c1-0.6,0.7-1.8,0.2-2.6
					c-0.6-1.1-1.5-2.1-2.4-3.1c-1.5-1.7-2.4-3.7-2.3-6C831.7,297.2,832.3,296.2,833.6,296z"/>
				<path class="st41" d="M840.3,303.5c0.3,2,0.6,4.1,0.9,6.1c0.1,0.6,0.3,1.1,1,1.1c0.6-0.1,0.7-0.6,0.7-1.1c0-0.6-0.1-1.3,0.9-1.3
					c0.9,0.1,0.8,0.8,0.9,1.4c0.1,1.4-0.3,2.7-1.8,3c-1.5,0.4-2.5-0.6-3.1-1.8c-0.7-1.5-0.7-3.2-0.8-4.8c-0.2-2.1-0.4-4.2-0.5-6.3
					c-0.1-1.6,0.1-3.1,2.2-3.3c1.6-0.2,2.8,1,3.1,2.9c0.1,0.4,0.3,1-0.3,1.2c-0.5,0.2-1.1,0.1-1.3-0.6c-0.2-0.6-0.3-1.6-1.2-1.3
					c-0.9,0.3-0.6,1.3-0.6,2C840.2,301.6,840.3,302.5,840.3,303.5C840.3,303.5,840.3,303.5,840.3,303.5z"/>
				<path class="st41" d="M885.5,302.1c0.2,1.6,1.2,2.7,2.1,3.7c1.4,1.6,2.3,3.4,2.3,5.5c0,1.5-0.2,3.1-2.1,3.2
					c-1.9,0.1-2.6-1.3-3-2.8c-0.1-0.4-0.3-1,0.4-1.2c0.5-0.1,0.9,0,1.1,0.6c0.2,0.7,0.5,1.7,1.5,1.1c0.9-0.5,0.6-1.5,0.3-2.2
					c-0.5-1.4-1.6-2.4-2.5-3.5c-1.2-1.6-1.9-3.3-1.9-5.3c0-1.1,0.2-2.1,1.3-2.6c0.9-0.5,1.7,0,2.4,0.6c0.9,0.9,1.1,2,1.2,3.2
					c0,0.3-0.3,0.4-0.6,0.4c-0.8,0.1-0.8-0.6-1-1.1c-0.2-0.5-0.3-1.2-1-1.1C885.4,300.9,885.5,301.6,885.5,302.1z"/>
				<path class="st41" d="M863.6,305.3c-0.2-2-0.3-4.1-0.4-6.1c0-0.5-0.4-1.3,0.5-1.5c1-0.1,1,0.7,1.1,1.4c0.4,3.5,0.8,6.9,1.1,10.4
					c0.1,1.2,0.2,2.2,1.8,2c0.9-0.1,1.5,0.3,1.4,1.3c-0.1,1.1-1,0.8-1.6,0.8c-3,0.1-3,0.1-3.2-2.9c-0.1-1.8-0.3-3.5-0.4-5.3
					C863.8,305.3,863.7,305.3,863.6,305.3z"/>
			</g>
			<path d="M817.2,304.3c1.3-0.8-3.1-4.1-6.3-2.8c-3.2,1.3-4.5,4.1-4.7,6.1s-0.5,6,2,6.7c2.5,0.7-3.3-2.5-0.4-8.5
				C810.6,299.7,815.9,305.1,817.2,304.3z"/>
			<path d="M804,303.6c1.2-1-3.2-2.3-5.5-1.2c-2.3,1.1-3.9,3.3-3.6,6.8c0.3,3.5,1.8,6,2.6,5.5c0.9-0.5-2.9-5.5-0.9-8.9
				C798.5,302.3,802.5,304.8,804,303.6z"/>
			<path d="M917.1,306.7c1.4,0.5-2.4-4.3-6.6-3.3c-4.2,1-6.8,4.2-6.7,6.9s1.5,7.6,3.7,6.2c2.2-1.3-4.7-3.6-1.6-8.7
				S915.1,305.9,917.1,306.7z"/>
			<path d="M932.7,308.5c0.9-0.4-2.7-3.8-5.5-4s-6.8,1.7-6.9,4.7s-1.4,6.1,1.1,8.4c2.6,2.3-1.7-5.8,0.1-9.6S930.9,309.4,932.7,308.5
				z"/>
			<g>
				<path class="st41" d="M763.7,417.6c1.7-9,3.3-17,5.4-24.9c0.1-0.6,1.1-1.5-0.4-1.7c-1-0.1-2.1-0.6-2.5,0.9
					c-0.3,1.1-0.5,2.1-0.6,3.2c-0.7,7.2-2.6,14.1-3.7,21.2c-0.6,3.8-1.1,7.6-1.6,11.4c-0.1,0.7-0.5,1.8,0.7,2c1.3,0.2,1.1-1,1.2-1.7
					C762.8,424.2,763.3,420.4,763.7,417.6z"/>
				<path class="st41" d="M809.7,433.4c0,0.5-0.4,1.1,0.4,1.1c0.6,0.1,1.1-0.1,1.3-0.8c0.5-1.3,0.9-2.6,1.4-3.9
					c3.9-10.7,8.2-21.3,13.5-31.5c0.3-0.5,0.4-0.9-0.2-1.1c-0.8-0.2-1.8-0.8-2.4,0.3c-0.5,1-0.8,2-1.3,3
					c-4.5,10.4-8.8,20.9-12.4,31.7C809.9,432.8,809.8,433.1,809.7,433.4z"/>
				<path class="st41" d="M756.8,414.7c0.9-7.3,2.1-14.6,3.9-21.8c0.1-0.6,1-1.7-0.4-2c-1.2-0.3-1.6,0.5-1.8,1.6
					c-2.1,9.7-3.7,19.5-4.9,29.3c-0.3,2.4-0.4,4.9-0.7,7.4c-0.1,0.6-0.2,1.3,0.7,1.4c1.1,0.2,0.9-0.7,1-1.3
					C755.4,424.5,756.1,419.6,756.8,414.7z"/>
				<path class="st41" d="M760.7,413.5c1-5.5,2.3-12.9,4.1-20.1c0.2-0.7,1.2-2-0.4-2.3c-1.5-0.3-1.5,0.9-1.8,1.9
					c-1.6,7.8-3.3,15.7-4.5,23.6c-0.6,4.3-1.1,8.7-1.6,13c-0.1,0.7-0.4,1.7,0.6,1.9c1.3,0.2,1-1,1.1-1.7
					C759,424.9,759.7,420.1,760.7,413.5z"/>
				<path class="st41" d="M804.8,434.5c0,0.8-0.6,1.6,0.5,1.8c1,0.2,0.9-0.6,1.1-1.3c2.9-8.8,6-17.6,9.6-26.1
					c1.5-3.7,3.2-7.3,4.7-10.9c0.2-0.5,1.3-1.1,0.1-1.6c-0.9-0.3-1.7-0.4-2.2,0.8c-1,2.6-2.1,5.1-3.1,7.6
					c-2.4,6.3-4.8,12.5-7.1,18.8C807.1,427.3,805.9,431.1,804.8,434.5z"/>
				<path class="st41" d="M765.2,420.8c-0.5,3.3-1,6.5-1.4,9.8c-0.1,0.6-0.4,1.5,0.6,1.7c1.2,0.2,1-0.8,1.1-1.5
					c1.7-12.1,4.1-24,7.4-35.8c0.1-0.5,0.2-1.1,0.5-1.6c0.6-1,0.2-1.5-0.8-1.8c-1.1-0.3-1.5,0.2-1.7,1.2c-1,4.7-2.1,9.4-3.1,14
					C766.7,411.5,765.9,416.2,765.2,420.8z"/>
				<path class="st41" d="M800.4,434.8c-0.2,0.5-0.1,1,0.5,1.1c0.6,0.2,0.9,0,1.1-0.8c3.6-12.9,8.4-25.5,13.7-37.8
					c0.2-0.5,1.5-1.2,0-1.7c-1.1-0.4-1.7,0-2.1,1.2c-1.6,4.4-3.3,8.7-4.9,13.1c-3,8-5.8,16.1-8,24.4
					C800.6,434.5,800.5,434.6,800.4,434.8z"/>
				<path class="st41" d="M768.4,424.2c-0.3,2.3-0.7,4.6-1,6.9c-0.1,0.6-0.4,1.5,0.6,1.6c1.2,0.2,1.1-0.8,1.2-1.4
					c1.6-10.9,4.1-21.5,6.9-32.1c0.3-1.3,1.6-2.6,0.1-4c-0.3-0.3-0.5-0.9-1.1-0.8c-0.4,0.1-0.4,0.7-0.5,1
					C772.4,405,769.9,414.5,768.4,424.2z"/>
				<path class="st41" d="M796.2,434.7c0.1,0.4-0.5,1,0.4,1.1c0.6,0,1.1,0.1,1.3-0.8c3.2-12.5,7.5-24.5,12.4-36.4
					c0.3-0.6,0.6-1.2,0.9-1.8c0.3-0.5,0.8-1.2,0-1.6c-0.7-0.4-1.5-0.4-1.9,0.5c-0.2,0.3-0.3,0.6-0.4,0.9
					c-4.7,12.4-9.1,24.8-12.5,37.6C796.3,434.3,796.2,434.5,796.2,434.7z"/>
				<path class="st41" d="M778.2,398.5c-1.1,4.3-2.2,8.5-3.1,12.6c-1.5,6.6-3,13.2-3.9,19.9c0,0.1-0.1,0.3-0.1,0.4
					c0,0.7-0.5,1.6,0.8,1.7c1.1,0.1,0.9-0.8,1.1-1.4c1.4-4.7,1.7-9.7,2.9-14.4c1.2-5.1,2.4-10.1,3.9-15.1
					C780.3,400.5,779.7,399.5,778.2,398.5z"/>
				<path class="st41" d="M794.7,430.7c1.1-4.1,2.4-8.2,3.7-12.3c2.3-7.8,5.1-15.3,8-22.8c0.2-0.5,0.4-0.9-0.3-1.1
					c-0.8-0.2-1.4-0.2-1.8,0.8c-0.8,2.5-1.7,4.9-2.6,7.4c-3.5,10.2-6.9,20.4-9.4,30.8c-0.1,0.6-0.6,1.5,0.3,1.7
					c1.2,0.4,1-0.7,1.1-1.4C793.9,432.8,794.9,431.9,794.7,430.7z"/>
				<path class="st41" d="M754,394.9c-1.6,7.5-2.7,15.6-3.7,23.7c-0.4,3.4-0.5,6.8-0.8,10.2c-0.1,0.7-0.2,1.5,0.9,1.4
					c1,0,0.7-0.8,0.7-1.4c1-12.1,2.7-24.1,5.4-35.9c0.1-0.7,0.9-1.7-0.5-2c-1.4-0.3-1.6,0.6-1.7,1.7
					C754.2,393.2,754.1,393.8,754,394.9z"/>
				<path class="st41" d="M745,400.2c-1,8.2-2.1,16.4-2.4,24.7c0,0.6-0.5,1.7,0.7,1.8c1.4,0.1,1-1.1,1-1.8
					c0.6-9.6,1.7-19.1,3.4-28.5c0.2-1.3,0.9-2.5,0.7-3.9c-0.1-0.6,0.4-1.4-0.7-1.5c-1-0.1-1.5,0.3-1.6,1.3
					C745.8,394.9,745.4,397.5,745,400.2z"/>
				<path class="st41" d="M748.3,405.4c-1.1,7.1-2,14.2-2.2,21.4c0,0.9-1,2.6,0.6,2.7c1.7,0.1,1-1.8,1.1-2.7
					c0.8-10.7,2.2-21.4,4.3-31.9c0.1-0.6,0.2-1.3,0.6-1.7c0.6-0.8,0.3-1.4-0.1-2.1c-0.3-0.4-0.9-0.4-1.3-0.3c-0.9,0.2-0.9,0.9-1,1.6
					C749.6,396.7,748.9,401.1,748.3,405.4z"/>
				<path class="st41" d="M790.7,429.8c1.2-4.9,2.6-10.2,4.3-15.5c2.1-6.4,4.1-12.9,6.7-19.2c0.2-0.4,0.7-0.8-0.1-1.1
					c-0.6-0.2-1.2-0.4-1.7,0.3c-0.3,0.4-0.4,0.9-0.6,1.3c-3.8,11.4-7.6,22.9-10.4,34.6c-0.2,0.8-1.2,2.3,0.2,2.6
					C790.6,432.9,790.5,431.3,790.7,429.8z"/>
				<path class="st41" d="M787.6,425c1.6-6.4,3.5-13,5.6-19.5c1.2-3.8,2.6-7.5,4-11.2c0.4-1-0.1-1.1-0.8-1c-0.7,0.2-1.3,0.6-1.6,1.5
					c-3.8,12-7.5,24-10.2,36.3c-0.2,1.1-1.2,3,0.1,3.2c1.6,0.3,0.9-1.8,1.2-2.8C786.4,429.4,787.6,427.4,787.6,425z"/>
				<path class="st41" d="M814.9,432.7c5.7-10.5,10.8-21.2,13.6-32.9C823.2,410.4,818.3,421.3,814.9,432.7z"/>
				<path class="st41" d="M791.5,395.9c-1.4,0.3-1.9,1.1-2.2,2.2c-2.5,8.2-4.8,16.4-6.7,24.7c-0.7,3.2-1.4,6.4-2.1,9.6
					c-0.1,0.6-0.6,1.4,0.4,1.7c1.1,0.3,1-0.6,1.1-1.3c1.7-10.6,4.7-20.9,7.8-31.2C790.4,399.9,791.5,398.2,791.5,395.9z"/>
				<path class="st41" d="M785.8,399.2c-2.9,1-2.4,3.7-3,5.7c-2.5,8.8-4.6,17.6-6.2,26.6c-0.1,0.4-0.1,0.8-0.2,1.2
					c-0.1,0.5,0,1,0.6,1.1c0.7,0.1,0.6-0.5,0.7-1c2.1-9.9,4.1-19.9,7.2-29.6C785.3,401.9,786.1,400.7,785.8,399.2z"/>
				<path class="st41" d="M740.7,426.1c0.7-11.1,2.1-22,3.9-33.3C741,397.1,738.3,420.5,740.7,426.1z"/>
			</g>
			<path class="st34" d="M974.4,350.3c1.1,2.4-18.2,160.5-21.4,163.9c-3.2,3.3-20.4,1.9-23.3,0.7c-3-1.2,20.9-172.3,23.1-174.4
				C955,338.3,973.5,348.5,974.4,350.3z"/>
			<path class="st35" d="M960,346.3c0.5,1.1-9.1,78.3-10.5,79.9c-1.5,1.6-9.3,1-10.7,0.4c-1.4-0.6,10.3-84,11.3-85
				C951.2,340.5,959.7,345.4,960,346.3z"/>
			<path class="st35" d="M973.4,352.2c0.5,1.1-9,77.6-10.4,79.2s-9.3,1-10.7,0.4c-1.4-0.6,10.2-83.2,11.2-84.3
				S973.1,351.3,973.4,352.2z"/>
			<path class="st35" d="M948.5,433.7c0.5,1.2-9.4,80.7-10.9,82.4s-9.3,1.1-10.7,0.5c-1.4-0.6,10.7-86.6,11.7-87.7
				C939.7,427.8,948.1,432.8,948.5,433.7z"/>
			<path class="st35" d="M961.8,439.8c0.5,1.1-8.5,74.8-10,76.4c-1.5,1.5-9.3,0.9-10.7,0.3c-1.4-0.6,9.8-80.3,10.8-81.3
				C953,434.2,961.4,438.9,961.8,439.8z"/>
			<path class="st34" d="M777,376.1l-0.5-5.1c0,0-2.4,0.5-4.6-0.7c-2.2-1.1-3-7-2.3-15.3c0.7-8.3,2.1-12.8,3.4-14.5
				c1.3-1.7,7.9-0.2,7.9-0.2l0.5-3.6c0,0-2.6,0.9-2.2-3.6c0.4-4.5,3.3-3.7,3.3-3.7l3.6-9.8l0.5,4.2l-4.7,25.4L777,376.1z"/>
		</g>
	</g>
	<g>
		<path class="st34" d="M1509.9,667.3c0,0,4.5,6.4-12.9,20.6c-17.4,14.2-39.9,15.2-47,19.8c-7.1,4.6-21.1,25.9-37.6,18.8
			c-16.5-7.1-27.5-25.7-54.5-35.4c-27-9.7-55.9-7.7-55.9-15.4s-6-79.9-6-121.1c0-28.3,16.4-53.6,57.3-53.6
			C1394.3,501,1509.9,667.3,1509.9,667.3z"/>
		<path class="st35" d="M1314.4,512.1c0,0-3,34.1-1.7,69.4c1.3,35.3,4.7,70.5,6.9,73.9c2.1,3.4,4.7,4.7,4.7,4.7s20.2,10.3,39.5,16.7
			c19.3,6.4,62,22.6,68.7,16.8c3.5-3,73.9-15.1,75-35.1c1-18.8-2-121.1-2-145.6c0-50.5-67.2-12.3-67.2-12.3l-26.5-12.1l-80.6,8.6
			L1314.4,512.1z"/>
		<path class="st33" d="M1504.6,515.6c0,0,3.4,5.1,14.4,6.2c11,1.1,7.1-0.7,10.7-0.4c3.7,0.3,3.7,3.2,9.3,3.7s9.2-0.6,9.3-3.6
			s-3.7-10.3-3.7-10.3l-37.1-14.7l-7.2,10.6L1504.6,515.6z"/>
		<path class="st33" d="M1436.5,511c0,0-1.9,45.7,0,50c1.9,4.3,1.4,3,6.6,4.7s51.9,0.9,54.5,0c2.6-0.9,3.4-38.6,2.6-44.2
			c-0.9-5.6-3.9-18.4-3.9-18.4l-58.8-6L1436.5,511z"/>
		<path class="st36" d="M1314.4,512.1c0,0,4.3-15,10.3-22.7s12.8-8.6,12.8-8.6s0.1-12.9,3.1-15.9c3-3,37.3-12.4,42.9-13.1
			c5.6-0.6,23.2,6.4,26.8,7.3c3.6,0.9,27.7-0.4,44,3.6s35.5,12.9,38.6,14.2c3.1,1.3,54.7,27,55.8,29.2c1.1,2.1,2.9,7.7,1.3,10.3
			s-2.1,3.6-3.6,1.9c-1.4-1.7-4.9-3.9-8.3-5s-5-1-6.1,0.9c-1.1,1.9,0.1,5.3-1.7,5c-1.9-0.3-2-6.7-3-8.4c-1-1.7-5.7-4.7-9.3-6
			c-3.6-1.3-7.7-2.9-9.3-1.4c-1.6,1.4-1.6,8.9-3.1,9.7c-1.6,0.9-12.2-1.6-24.7-4.7s-32-6.7-36.6-4.1s-4.7,7.3-7.6,6.9
			c-2.9-0.4-7.3-8.1-12.9-10.9c-5.6-2.7-12.3-3.4-18.6-3s-29.9,0.6-49.6,3.4C1335.6,503.3,1326.2,509.6,1314.4,512.1z"/>
		<path class="st37" d="M1419.2,579.2c-0.1,2.9-16.7,3.4-33.5,2.3s-25.7-2.2-25.4,0c0.3,2.2,16.4,3.1,25.4,3.4s30.9-0.6,31.2,3.2
			c0.3,3.9-20.3,3.8-33.5,2.7c-13.2-1.1-21.9-2.7-23.2-2.1c-1.3,0.6-10.9-1-14.8-1.3c-3.9-0.3-7.7-1.5-8.7-2.2
			c-1-0.7-20.8-1.2-24.2-3.8c-3.4-2.7-1.1-5,2.4-4.9c3.6,0.1,10.3,2.9,14.6,3.6s6.7,0.3,6.9-1c0.1-1.3-4.9-2.6-11.3-3.3
			s-14.1-2.1-14.3-4.4c-0.2-2.3,14.2,0,20.2,0.6c6,0.6,8-0.1,10-0.1c2,0,20.2,1,20.6,1.6c0.4,0.6,16.4,1.7,29.9,2.3
			C1405,576.3,1419.4,574.8,1419.2,579.2z"/>
		<path class="st39" d="M1409.1,625.4c1.8,0.6,4-5.7-0.7-13c-4.7-7.3-14.6-7-18.2-4.4s-5.6,10.2-3.7,16.9c1.9,6.7,6.7,10.7,8.1,11
			s5.4,0.6,5.6-1.3c0.1-1.9-3.1-1.6-6.6-4.7c-3.4-3.1-5.9-10.7-5-15.2c0.9-4.4,8-6.6,11.4-4.1s7.4,4.9,7.6,7.9
			C1407.9,621.4,1407.1,624.6,1409.1,625.4z"/>
		<path class="st39" d="M1323.8,610.8c1,0.4,1.5-5.6,0-10.5c-1.5-4.9-3.2-6.9-5.4-6.6s-3.2,9.8-2.8,12.6s1.5,10.7,4.5,11.6
			c3,0.9,2.1-1.1,1.5-2.8c-0.6-1.7-2.1,1.8-4.1-4.4s-0.3-13.7,0.2-14c0.5-0.3,2.4-2.1,3.6,1.1c1.3,3.2,2.5,6.4,2.4,8.1
			C1323.7,607.6,1322.8,610.4,1323.8,610.8z"/>
		<path class="st38" d="M1330.2,619.1c0,0-0.9,1.3,2.6,3.2c3.4,1.9,10.1,3.6,11.2,3.2s1.9-4.1,1.5-6.4c-0.4-2.4,0.5,0.2-1.5,3.2
			C1342,625.5,1330.2,619.1,1330.2,619.1z"/>
		<path class="st38" d="M1355.6,625.6l14.7,3.5c0,0,1.7,0.9,2.9,0c1.2-0.9,1.2-7.6,1.1-8.9c-0.1-1.3,1.7,6.4,1.3,9.3
			c-0.4,2.8-1.6,3.3-3.1,3.3c-1.5,0-15.1-3.3-16.3-4.7C1355,626.7,1355.6,625.6,1355.6,625.6z"/>
		<path class="st33" d="M1305.8,645.5c0,0,19.6,12.9,49.7,21s55,17.2,63.8,17.2s13.7-0.9,16.4,5.6c2.7,6.4,0.5,6.9-7.6,9.4
			s-52.1-12.9-80.5-24s-40.9-18-41.7-21.4C1304.9,649.8,1305.8,645.5,1305.8,645.5z"/>
		<path class="st34" d="M1442.6,669.1c0,0,26.2-3.9,38.2-9s21-12.9,22.3-11.6c1.3,1.3-15,12.9-27.4,16.3S1448.2,671.3,1442.6,669.1z
			"/>
		<path class="st33" d="M1320.1,520.9c0,0-0.3,7.3,1.6,12.2c1.9,4.9,2.8,8.9,3,14c0.2,5.1,11.2,5.7,11.2,5.7l11.9-25.4l-4.8-6.4
			H1320.1z"/>
		<path class="st36" d="M1424,557c0,0,0.3,3.5-4.8,6.1s-59.2,1.3-61.4,0c-2.3-1.3-1.3-9.7-4.5-9.7s-2.6,8-7.7,9.3
			c-5.2,1.3-22.9,1.9-25.8-1.3c-2.9-3.2,16.4-36.3,23.2-40.5s42.9-7.4,42.9-7.4l35.9,8.7L1424,557z"/>
		<path class="st34" d="M1424,557c1.6,1.3,1.3-32.5,0-37.8c-1.3-5.3-6.1-8.2-10-9.5c-3.9-1.3-41.4,0.6-48.5,1.3
			c-7.1,0.6-42.8,6.8-45.4,10s9.3,3.2,19.6,2.3c10.3-1,23.8-5.5,34.4-6.1c10.6-0.6,33.9,5.2,42.1,5.5
			C1424.5,522.8,1420.5,554.1,1424,557z"/>
		<path class="st39" d="M1402.2,483.9c4,2.8,3.9-9.3,0-10.3c-3.9-1-26.1,1.6-43.7,5.1s-31.3,11.3-33.7,14.5
			c-2.3,3.2-3.9,9.6-1.8,11.2c2.1,1.6,5.3-3.8,5.6-7.4c0.3-3.5,10.3-10.3,22.5-13.2s37.3-8.4,43.7-7.1
			C1401.2,478.1,1399,481.7,1402.2,483.9z"/>
		<path class="st42" d="M1385.8,455.3c4.3,0.7,3.3,7.7,0,10.3s-42,13.6-45.1,12.5c-3.2-1-3.2-8,0-10.3
			C1343.9,465.6,1380.1,454.3,1385.8,455.3z"/>
		<path class="st42" d="M1487.7,483.3c0,0-18-1.5-25.1-5.1s-4.6-2.4-4.4-4.8c0.2-2.4,7-4.9,11.5-3
			C1474.2,472.4,1483,477.9,1487.7,483.3z"/>
	</g>
</g>
<g id="Mushrooms_Back">
	<path class="st43" d="M1071,830.1c0,0-1.3,10.1-3.4,16.8c-2.2,6.7-8.5,18.1-10.1,19c-1.6,0.8-9.6-0.7-13.9-2.1
		c-4.2-1.4-11.8-6.3-12.3-9.1c-0.5-2.8,9.5-8.7,15.6-15.2c6.2-6.5,10-15.3,10-15.3l9.1-11.9L1071,830.1z"/>
	<path class="st44" d="M1037.5,810.8c0,0-2.3,1.5,4.1,6.5c6.4,5,24.7,9.5,26.8,10.9c2.1,1.4,10.3,8.1,16.1,8.7l-17.3-29.7
		L1037.5,810.8z"/>
	<path class="st7" d="M1037.5,810.8c-0.9,3.7,7.6,5.7,11.8,6.8c4.2,1.1,8.9-3.4,14.2-1s13.9,20.1,20.9,20.4c7,0.3,8.2-13.7,6.6-17.2
		c-1.6-3.5-7.8-14.4-18.5-18.9c-10.7-4.5-19.9-3.4-23.7-1.7C1045.2,800.9,1039,804.4,1037.5,810.8z"/>
	<path class="st43" d="M917.4,783.6c0,0-3.8,17-1.4,28.8s15.4,38.1,18,39.5c2.6,1.4,7.9,2.6,14.5,1.5s8.8-4.8,9.5-6.8
		s-18.2-17.4-23.9-35.1c-5.8-17.6-1.6-30.5-1.6-30.5l-8.2-9L917.4,783.6z"/>
	<path class="st8" d="M887.2,776c0,0,2.4,8.4,10.9,10c8.5,1.6,28.4-5.7,34.4-5c5.9,0.7,25.8,1.6,35.6-1l-25.5-13.2L887.2,776z"/>
	<path class="st45" d="M887.2,776c3.6,6.7,9.6,7.6,18.1,7.6s24-8.9,34.3-7.6c10.3,1.3,24,6.8,28.4,4c4.4-2.7,0.2-16-17.1-21.7
		c-17.3-5.7-23.8-9.9-37-7.5C900.6,753.2,884.2,770.6,887.2,776z"/>
	<path class="st43" d="M1023.1,880.6c0,0,3.7,5.5-0.4,14c-4.1,8.6-8.4,13.2-6.6,16.7c1.8,3.5,18.1,9.4,24.1,9.7
		c6,0.4,20.8-1.7,20.7-4.7c0-3-0.5-20.1-3.1-24.8c-2.6-4.7-12.1-14.1-12.1-14.1l-14.7-11.6L1023.1,880.6z"/>
	<path class="st46" d="M1061.8,865.6c0,0-0.3,11.7-5.2,12.4c-4.9,0.7-15.7-2.4-23.8,0c-8,2.4-24.6,6.8-32.5-0.2l28-21L1061.8,865.6z
		"/>
	<path class="st47" d="M1000.3,877.8c3.1,5,24.5,0.7,27.4,0c2.8-0.7,18.5-4.5,22.2-3.5c3.7,1,12-1.8,12-8.7s-6.1-13.8-15.9-13.8
		c-9.8,0-17.8-7.7-24.8-6.3c-7,1.5-19.5,14.5-20.8,19.2C999,869.4,997.8,873.6,1000.3,877.8z"/>
	<path class="st43" d="M922.4,873.1c0,0-1.9,15.2,2.3,25.1c4.3,9.9,16.7,23.8,16.4,29.9s-11.5,16.2-19.1,15.8
		c-7.7-0.5-26.9-1.3-30-6.3s-8.5-27.5-8.5-40.7c0-13.2,10.2-28.3,10.2-28.3l12.4-22L922.4,873.1z"/>
	<path class="st48" d="M955.9,861.3c0,0-7.2,16.8-21.1,17.1c-13.9,0.3-52.2-8.4-60.5-8.5c-8.3-0.1-29.4-6.1-29.6-18.9l61.4-5.4
		L955.9,861.3z"/>
	<path class="st49" d="M960.2,851.9c-3.4,11.4-13.5,23.5-25.8,21c-12.3-2.6-36.5-6.7-52.8-5.5s-40.6-8-36.5-22.2
		c4.1-14.2,21-27.8,41.4-30.2c15.9-1.9,46.4,9.8,54.1,14.1C948.3,833.3,962,845.7,960.2,851.9z"/>
	<path class="st43" d="M1053.6,919.8c0,0-3.2,15.2-2.1,23.1c1,7.9,6.9,20,10.2,22.6c3.4,2.6,11.2,3,19.6,2.6
		c8.4-0.5,16.3-5.2,16.5-7.3c0.3-2.1-13.3-11.8-19.6-20.9s-6.2-18.4-6.2-18.4l-8.3-14.1L1053.6,919.8z"/>
	<path class="st4" d="M1017.5,913.5c0,0,27.8,10.8,44.4,11.3c16.6,0.5,41-4.6,40.8-15.9l-43.3-6.3L1017.5,913.5z"/>
	<path class="st50" d="M1102.7,908.9c-1.1,6.4-13.9,11.3-27.7,11.7c-13.8,0.4-30.4-6.7-34.9-6.2s-18.1,4-22.6-0.9
		c-4.5-4.9,1.7-16.6,19.3-22c17.6-5.4,34.5,6.7,43.1,6.3C1088.4,897.4,1103.8,902.6,1102.7,908.9z"/>
	<path class="st43" d="M759.2,781.1c0,0,9,18.9,6.7,26.4c-2.4,7.4-9.2,28.9-15.5,30.5c-6.3,1.6-26.6,2.6-30.3,0
		c-3.7-2.6,12-24.2,14.6-32.5c2.6-8.4-0.9-22.5-0.9-22.5l3.7-26.1L759.2,781.1z"/>
	<path class="st48" d="M780.7,778.6c0,0-34.7,4.4-46.9,4.4c-12.2,0-33.5-2.2-43-2.2c-9.5,0-11.8-4.3-11.4-11
		c0.3-6.8,58.1-12.9,58.1-12.9L780.7,778.6z"/>
	<path class="st3" d="M730,736.1c23-7,38.8,5.2,50.8,7.2s23.5,7.4,21.5,14.5c-2.1,7.1-13.6,25.8-33.5,20.6
		c-19.9-5.3-50.3-5.1-59.7-2.3s-32.1,3.2-29.7-6.2c2.4-9.4,25.5-19.1,29.7-21.3C713.2,746.3,715.3,740.5,730,736.1z"/>
	<path class="st43" d="M797.8,814.6c0,0-6.3,12-5.2,25.7c1.1,13.8,7.1,34.4,9.6,37c2.5,2.6,26.8,2.6,29.6,0
		c2.8-2.6-12.7-23.2-16-37.6c-3.3-14.3,3.8-28.2,3.8-28.2L797.8,814.6z"/>
	<path class="st44" d="M858.6,800.9c0,0-8.3,14.9-19.8,16.5c-11.5,1.6-34.1-1-39.3,0s-29.1,2.3-33.5-3.7l44-19.3L858.6,800.9z"/>
	<path class="st7" d="M858.6,800.9c-2.6,8.6-21.4,10.5-27.4,10.6c-6,0.1-25.7-3.2-35.3-3.1s-22.7,8.3-30,5.2
		c-7.3-3.1-6.3-21.4,0-22.7s25.2-4.8,34.6-7.8s22.5-3.3,35.6,0C849.3,786.5,861.2,792.3,858.6,800.9z"/>
	<path class="st51" d="M1280.1,855.7c0,0,3,9.7,2.1,16.3s-10.3,21.1-8.5,22.8c1.8,1.6,18.6,6.2,22.8,3.7c4.2-2.5,6.6-20.9,5.7-26.4
		c-0.9-5.5-8.7-19.6-8.7-19.6L1280.1,855.7z"/>
	<path class="st51" d="M1345.7,810.2c0,0,5,13,4.5,22.9c-0.5,9.9-13.4,34.5-11.4,38.7c2,4.2,21.6,11.1,29.8,9.3
		c8.1-1.7,6.8-43.2,4.7-55.9c-2.1-12.7-7.6-19.2-7.6-19.2L1345.7,810.2z"/>
	<path class="st52" d="M1301.8,799c0,0,5.4,14.6,30.6,12.5s33.7-4.8,51.5-5.5c17.8-0.6,22.2,5.2,33.3-2l-58.2-13.9L1301.8,799z"/>
	<path class="st53" d="M1298.8,788.6c0,7.7,9.6,20.9,25.2,19.3c15.6-1.6,23.3-8.8,34.9-8.1c11.6,0.7,56.5,9.9,58.2,4.3
		s-12-22.3-44.4-23.6c-32.5-1.4-38.6,3.3-48.6,4.4C1314,785.8,1298.8,778.3,1298.8,788.6z"/>
	<path class="st54" d="M1432.9,760.2c0,0,16.7,26.4,9.9,46c-6.9,19.7-41.2,64.4-35.3,78.2c5.9,13.7,59.4,25.8,69.7,22.5
		c10.3-3.2,38.8-87,32.6-104.5c-6.1-17.5-23-47.8-23-47.8l-37.5-33.3L1432.9,760.2z"/>
	<path class="st55" d="M1325.9,756.4c0,0,60.9,10.9,81.6,7.5c20.7-3.4,89.8-13.8,112.1-6.2c22.4,7.6,65.9,11.7,69.7,1.8l-87.4-47.8
		L1325.9,756.4z"/>
	<path class="st56" d="M1441.4,687.4c81.4-13.8,118.8,12.1,132.7,17.8c14,5.7,34.9,62.9,0,58.8c-34.9-4.2-73-25-116.1-20.2
		s-107.6,16-132.1,12.7S1357.6,701.6,1441.4,687.4z"/>
</g>
<g id="Mushrooms_Middle">
	<g>
		<path class="st22" d="M476.9,652.7c0,0-19.2,39.3-13.5,65.3c5.7,26,73.8,95.6,64,113.7c-9.8,18.1-136.9,49.8-152.8,37.8
			c-15.9-12.1-32.9-72.7-29.3-123.4c3.6-50.7,51-108.3,51-108.3l45.7-51L476.9,652.7z"/>
		<path class="st57" d="M297.6,597.6c0,0,42.6,42.2,77,39.9c34.5-2.3,80.8,11.9,102.2,15.2s81.8,8.8,100.1-10.5L454,556.2
			L297.6,597.6z"/>
		<path class="st58" d="M509.2,536.4c54.4,7.4,83.4,37.1,91.2,59.2s-26.7,63.6-54,53.8c-27.3-9.8-64.9-42.3-99.8-42.9
			c-34.9-0.6-58.2,30.1-123,7.1c-64.8-23-14.8-66.2,42.1-78.4C422.6,522.9,457.1,529.2,509.2,536.4z"/>
	</g>
	<g>
		<path class="st54" d="M586.3,728.1c0,0-20.6,19.3-23.1,36.4c-2.5,17,22.7,74.6,12.6,83.3c-10.1,8.7-94.1-1.3-100.9-12.2
			c-6.8-10.9-3.2-51.4,10.6-81.2s55.6-53.7,55.6-53.7l39.3-20.3L586.3,728.1z"/>
		<path class="st59" d="M490.7,653.8c0,0,16,35.2,37.4,41.7c21.3,6.5,46.1,25.7,58.2,32.6s47.4,24,62.9,16.6l-54.6-80.1L490.7,653.8
			z"/>
		<path class="st60" d="M632.5,665.4c31.1,16.9,41.8,41.5,41.5,56.7c-0.3,15.2-30.7,32.3-44.9,20.1s-29.5-40.4-50.4-48.8
			c-20.9-8.4-42.1,4.8-75.9-23.9c-33.8-28.7,6.2-43.4,43.4-37.7S602.6,649.1,632.5,665.4z"/>
	</g>
	<g>
		<path class="st22" d="M1614.5,320.3c0,0,43.6,56.4,48,107c4.4,50.6-12.8,173.9,5.9,204.5c18.7,30.6,105.2,36.1,117.8,23.8
			c12.6-12.3-7.3-227.5-29-267s-68.4-105.4-68.4-105.4l-78.9-63.9L1614.5,320.3z"/>
		<path class="st61" d="M1456.1,358.3c0,0,96.6-0.5,124.2-17.7s120.4-72.9,158.5-64.3s104.4-0.6,102.6-26.4l-162-77.1L1456.1,358.3z
			"/>
		<path class="st62" d="M1573.5,140.5c108.2-69.2,181.6-22.9,206.1-15.3c24.5,7.6,96.8,136.8,43,142.1
			c-53.8,5.3-124.5-28.4-183.7,2.3c-59.2,30.7-144.8,86-182.8,88.8C1418.1,361.1,1462,211.8,1573.5,140.5z"/>
	</g>
	<g>
		<path class="st22" d="M1693.9,570.5c0,0,17.5,38.7,24.3,67c6.8,28.3,9.3,82.8,5.3,89.3c-3.9,6.5-35.7,18.5-53.7,22.7
			s-55.5,3.3-63.5-5.5s14.7-51.4,22.3-87.9s2.2-75.8,2.2-75.8l6.6-62L1693.9,570.5z"/>
		<path class="st63" d="M1533.1,574.7c0,0-4.7,10.4,28.7,14.2c33.5,3.8,108.3-19.9,118.7-19.5c10.4,0.5,54.2,6.2,75.9-4.1
			l-126.1-67.7L1533.1,574.7z"/>
		<path class="st64" d="M1533.1,574.7c5,15.1,39.5,3.8,56.7-1.7c17.3-5.5,24.2-31.4,48-34.5c23.8-3.1,93.2,41,118.6,26.9
			c25.5-14.1-0.9-66.6-14.1-75.3s-58.9-34-106.6-26.7c-47.7,7.3-78.1,31.2-87.8,45.7C1538.7,522.8,1524.6,549,1533.1,574.7z"/>
	</g>
	<g>
		<path class="st22" d="M123.6,496.6c0,0-21.8,20.7-28.1,38.5s-33.8,94.6-28.4,106s30.7,28.1,55,34.2c24.4,6.1,42,5.7,52.8-5.5
			c10.8-11.1-7.2-61.9-5-92.4c2.2-30.4,32.1-72.6,32.1-72.6l-29.1-52.2L123.6,496.6z"/>
		<path class="st65" d="M291.8,478c0,0-29.3,40.3-43.4,43.4c-14.1,3.1-33.5-10.5-46.4-16.4c-12.9-6-55.1-0.8-78.4-8.3
			c-23.3-7.5-69.8-36.4-69.1-59.7l129.3-41.8L291.8,478z"/>
		<path class="st66" d="M55.2,413.6c-7.2,34.6,12,52.1,33.3,56.8c21.4,4.6,54.9-9.5,79.9-3.2s68.1,46.2,91.1,37.3
			c23.1-8.9,56.3-48.2,42.2-71.6c-14.1-23.5-59.5-84.2-101.2-85.4s-74.3,22.8-94.5,29S60.4,388.3,55.2,413.6z"/>
	</g>
	<g>
		<path class="st22" d="M338.2,568.9c0,0,19.4,40.7,14.4,56.7c-5.1,16-19.7,62.3-33.3,65.6s-57.2,5.6-65.3,0s25.9-52,31.5-70
			s-2-48.3-2-48.3l7.9-56.2L338.2,568.9z"/>
		<path class="st67" d="M384.5,563.5c0,0-74.8,9.5-101,9.4s-72-4.8-92.6-4.7s-25.4-9.2-24.6-23.7s125.1-27.8,125.1-27.8L384.5,563.5
			z"/>
		<path class="st68" d="M275.3,471.9c49.4-15.1,83.5,11.2,109.4,15.4c25.9,4.3,50.7,16,46.2,31.2c-4.4,15.2-29.4,55.6-72.2,44.2
			c-42.8-11.4-108.2-11.1-128.5-5c-20.3,6-69.1,6.9-63.9-13.3c5.2-20.2,54.9-41.2,63.9-45.9C239.2,493.9,243.7,481.6,275.3,471.9z"
			/>
	</g>
</g>
<g id="Road_Front">
	
		<linearGradient id="SVGID_2_" gradientUnits="userSpaceOnUse" x1="851.5994" y1="1516.9238" x2="851.5994" y2="607.0159" gradientTransform="matrix(-1 0 0 1 1721.321 0)">
		<stop  offset="0" style="stop-color:#0C6534"/>
		<stop  offset="1" style="stop-color:#B1B935"/>
	</linearGradient>
	<path class="st71" d="M1770.6,1516.9L-60,1501l-12.1-894c0,0,292.1,80.6,414.2,173.6S565.7,995.7,765,1002.7
		s448.2-106.2,614.2-175.6s412.3-85.6,412.3-85.6l20,157.3L1770.6,1516.9z"/>
	<polygon class="st11" points="-11.4,627.3 1009.2,1324.8 1091.4,1324.8 1091.4,996.8 -11.4,494.4 	"/>
	<polygon class="st72" points="1091.4,1134.9 -11.4,552.6 -11.4,567.8 1091.4,1180.6 	"/>
</g>
<g id="Bison">
	<g>
		<path class="st73" d="M1144.5,928.8c0,0,14.5,13.2,14.5,18.3s5.5,7.4,8.7,9.3s7.4,3.2,11.2,2.9c3.8-0.3,5.1-14.7,8-17.6
			c2.9-2.9,4.5,0.6,8.3-1.6c3.8-2.2,1.9-18,5.8-20.8c3.8-2.9,12.2-8,16.4-4.8s-1.3,18.9,0,27.6s3.2,23.7,0,30.5s-8.3,22.8-8.3,22.8
			s10.9,1.6,13.8,0c2.9-1.6,8-5.8,8-5.8s-0.6-17.3,0-19.9c0.6-2.6,9.9-2.6,15.4-11.5c5.5-9,3.2-36.9,3.2-36.9l-2.6-31.4l-53.2-5.1
			l-32.1,20.5L1144.5,928.8z"/>
		<path class="st74" d="M1476.6,858.4c0,0,15.4-78.7-8.5-101.7s-45.3-26.5-52.2-25.6s-23.9-0.9-41-5.1s-49.6-18.8-81.2-20.5
			c-31.6-1.7-71.8,12-82.1,19.7s-28.2,56.8-28.2,56.8s-31.6-1.6-43.6,5.6c-12,7.3-6.4,19.7-6.8,26.5s-6,29.5-5.6,33.8
			s5.6,6.8,6,14.1c0.4,7.3,3.8,25.6,2.6,34.6c-1.3,9-7.7,15.8-4.7,23.1c3,7.3,11.1,9,19.7,10.7s16.2-3.4,15-15.4
			c-1.3-12,2.6-11.1,3.8-3.4s-3,16-0.4,19.1c2.6,3.1,22.7-5.9,27.4-14c4.7-8.1,2.6-20.9,0.9-24.4s4.7,1.3,11.5,3.4
			c6.8,2.1,11.5-0.4,15.8,0.4c4.3,0.9,7.3,15.4,20.1,22.7c12.8,7.3,24.8,10.3,32.5,7.7c7.7-2.6,14.5-25.2,30.3-23.9
			c15.8,1.3,8.5,32.5,13.7,38c5.1,5.6,29.5,12.8,32.9,11.1c3.4-1.7,6.4-26.1,6-32.1s-4.7-18.8-3.4-20.5s9.4,3.4,20.1-0.9
			c10.7-4.3,24.4-22.7,30.3-23.1c6-0.4,9.8,13.3,16.7,21.4c6.8,8.1,14.1,12.8,15.4,15.8c1.3,3,4.3,37.2-1.7,47
			c-6,9.8-12.4,23.9-12.4,23.9s6,2.1,12.8,0c6.8-2.1,10.3-6,10.3-6s0.4-15.4,1.7-23.1c1.3-7.7,10.7-26.1,12.4-36.8
			c1.7-10.7,1.8-13.6,1.8-13.6s-9.9-13.1-13.7-18.2s-4.7-15.2-3-16s11.5,10.6,15.3,13.6c3.8,3,9,10.9,10.3,13.5s1.3,24.6-0.4,35.7
			s-6.4,21.4-5.6,31.2c0.9,9.8,1.3,22.7,1.3,22.7s12.4-0.4,17.1-3.4c4.7-3,4.3-13.7,4.3-13.7s-6.4-12.4-8.5-26.1
			c-2.1-13.7,9.8-48.3,11.5-56.4c1.7-8.1,0-13.3,0-13.3L1476.6,858.4z"/>
		<path class="st73" d="M1257.8,860.2c0,0,2.9-10.1,2.9-14.5c0-4.4,0.3-11.5,7.1-12.1c6.7-0.6,9.9,6.7,13.5,9.9
			c3.5,3.2-0.3,7.7,4.2,12.5c4.5,4.8,17.3-2.6,22.1,1.9c4.8,4.5,1.3,15.4,6.1,20.2c4.8,4.8,18.9,11.5,22.8,21.2
			c3.8,9.6,19.2,28.2,19.2,32.7c0,4.5,1.9,23.1-2.2,25.6s-13.5-4.8-13.5-4.8s-0.2,9.6,2.8,16.7c3,7.1,6.8,16.7,6.8,16.7
			s-3.2,3.2-8.3,6.1c-5.1,2.9-12.2,3.6-12.2,3.6s-1.6-15.1-1.9-25.4c-0.3-10.3,1.3-21.8,1.3-21.8s-9-1-10.3-6.1s-0.1-25.8-3.8-32.7
			c-3.8-6.9-16.7-6.7-18.3-0.6c-1.6,6.1-2.2,26.7-9.6,31s-13.1-6-19.2-7.9c-6.1-1.9-10.3-9.3-9.3-12.2c1-2.9,11.9,7.1,17,4.2
			c5.1-2.9,8.3-12.2,3.8-18.3c-4.5-6.1-17.9-5.1-21-8.7c-3.1-3.5,1.5-8.7,0-12.8s-18.8-2.2-22.3-11.9c-3.5-9.6,1-12.8,5.8-12.5
			C1245.9,860.5,1256.4,865.5,1257.8,860.2z"/>
		<path class="st73" d="M1329.6,806.6c0,0,19.2,14.4,26.4,23.4c7.3,9,11.1,24.7,14,26.6c2.9,1.9,17.3-3.8,23.4,1.9
			s10.3,18.6,8.7,23.4c-1.6,4.8-11.2,6.7-16,10.3c-4.7,3.6-10,12.5-13.5,12.5s-10.9-9.6-10.9-16.7s-6.7-8.3-9-12.5
			c-2.2-4.2,1-9.6-0.3-19.9c-1.3-10.3-17.2-13.1-16.4-19.2C1338.6,817.9,1323.8,806,1329.6,806.6z"/>
		<path class="st73" d="M1431.9,816.9c3.2-0.1,4.8,12.4,2.9,16.6c-1.9,4.2-2.8,5.8,0.8,8.1c3.7,2.2,0.5,11.8,4.9,14.1
			c4.5,2.3,11.5-0.9,16.7,4.5s7.7,17.3,12.5,21.5c4.8,4.2,17.6,8.7,16.7,12.8c-1,4.2-0.6,14.4-3.2,13.1c-2.6-1.3-1.6-9.9-3.8-9.9
			s-0.5,12.8-3.2,12.8c-2.7,0-3.8-6.7-4.2-12.8c-0.3-6.1-8.8-6.1-12.8-12c-4-5.9-7.5-14.5-10.3-14.1c-2.8,0.4,2.5,12.6,6.6,16.4
			c4.1,3.8,9.7,8.4,9.7,8.4s2.1,11.8,1.4,13.6c-0.7,1.8-5.3,9.3-7.3,9.3c-2.1,0-4.8-12.5-7.4-12.5c-2.6,0,2.1,12,0.2,13.7
			s-4.1,10.3-7.1,10.3s-5.3-15.2-7.4-16.8c-2-1.6-15.1-13.2-16.2-15.3s-1.9-6.6-4-9.1s-7.4-5.8-8.2-8.8c-0.8-3-0.3-9.3,7.7-11.5
			c8-2.2,15.5-3.5,14.3-10.7s-4.8-7-6.1-12.7s-1.9-12.6,0.6-15.6C1428.2,827,1428.2,817.1,1431.9,816.9z"/>
		<path class="st73" d="M1141.7,902.2c7.6-1.3,14,3,14.4,6.4c0.4,3.4-12.8,8-16.7,8c-3.8,0-8.6-5.2-7.2-8.8
			C1133.7,904.2,1135.9,903.1,1141.7,902.2z"/>
		<path class="st73" d="M1149.7,876.5c5.5-0.2,15.1,2.6,14.4,8c-0.6,5.5-1.9,9.3-5.1,9.6c-3.2,0.3-4.2-4.8-9.3-5.5
			c-5.1-0.6-13.5-1.4-14-6.3C1135.2,877.6,1142,876.9,1149.7,876.5z"/>
		<path class="st73" d="M1180.8,864.4c3.5,0.2,10.3,0.3,10.3-2.6s-4.8-1-7.7-1.6s-7.1-5.5-7.4-2.9S1177.9,864.2,1180.8,864.4z"/>
		<path class="st73" d="M1194,853.1c2.1,1.5,5.8,3.8,9.6,0c3.8-3.8,1.9-10.9,5.8-14.4c3.8-3.5,13.1-10.3,12.5-14.4
			c-0.6-4.2,0.6-14.2-8.3-17.7c-9-3.5-14.1,6.8-12.8,12.2c1.3,5.5,2.6,9.6-1.3,10.3c-3.8,0.6-1.6-6.7-5.5-7.1
			c-3.8-0.3-11.9,4.8-10.4,8.6s4.7,6.4,7.5,5.8c2.9-0.6,5.8,6.3,4.5,9.2S1190.9,851,1194,853.1z"/>
		<path class="st73" d="M1183.4,781.8c0,0,10.7-1.5,13.8,0c3.2,1.5,4.8,4.7,8.9,4.7s2.2-20.8,4.8-25.3c2.6-4.5,8.7-8,8.7-11.5
			s-1.6-9.6,0-11.2c1.6-1.6,7.4-3.2,2.3-7.1c-5.2-3.8-12.3,4.3-16.4,6.4s-9,5.1-11.5,10.3c-2.6,5.1-2.6,17.6-5.5,21.2
			S1181.5,779,1183.4,781.8z"/>
		<path class="st75" d="M1129.3,772.5c0,0-5.6,8.3-5.6,13c0,4.7-0.8,12.8,1.3,16.2c2.1,3.4,5.1,6.1,5.1,6.1l5.6,9.5l-6.1,7.3
			c0,0-7.9-7.7-11.6-13.5c-3.6-5.8-3.8-19.2-0.4-25.6C1121,779.1,1129.3,772.5,1129.3,772.5z"/>
		<path class="st73" d="M1147.8,792.5c0,0-2.9,7.2-3.7,13.4s-5.6,13.9-6.2,17.7c-0.6,3.8,1.9,19.4,1.3,22
			c-0.6,2.6-0.5,12.4-3.5,12.6c-2.9,0.1-11.6-3.2-11.9-10.3c-0.3-7.1,3.8-10.8,4.8-17.4s2.6-13.2,2.6-17c0-3.8-5-17.2-0.6-21
			C1134.8,788.7,1144.9,786.6,1147.8,792.5z"/>
		<path class="st75" d="M1205.2,779.3c0,0,16.7,6.2,20.9,15.2c4.3,9,2.5,20.7-2.2,26.5c-4.7,5.8-14.1,10.9-16.9,9.6
			c-2.8-1.3-6-8.5-4.5-13.4c1.5-4.9,17.3-8.2,18-12.1c0.6-3.9-5.1-16.3-7.3-18.6C1211.2,784.2,1205.2,779.3,1205.2,779.3z"/>
	</g>
</g>
<g id="Mushrooms_Front">
	<path class="st22" d="M1709.9,704.9c0,0,11.8,30.2-2,77.2s-27.9,72.7-22.3,91.8c5.6,19.2,58.2,52.3,77.4,54.5
		c19.3,2.2,67.2-8.9,67.3-25.5s-0.6-110.7-8.7-136.7c-8.1-26-38.2-78.1-38.2-78.1l-46.9-64.4L1709.9,704.9z"/>
	<path class="st67" d="M1835.6,643.3c0,0-1.2,33.4-17.1,35.2s-50.7-7.5-76.8-0.8s-79.6,18.7-105.2-1.7l91.1-58.8L1835.6,643.3z"/>
	<path class="st68" d="M1636.5,676.1c9.8,14.4,79.3,2.8,88.4,0.9c9.1-1.9,59.8-12.2,71.8-9.2c11.9,3,38.7-4.6,38.9-24.4
		c0.2-19.8-19.3-39.4-51-39.7c-31.7-0.3-57.3-22.5-80.1-18.6c-22.7,3.9-63.4,40.8-67.6,54C1632.6,652.2,1628.4,664.1,1636.5,676.1z"
		/>
	<g>
		<path class="st22" d="M1733.6,856.7c0,0,17.9,23.6,21.1,41.9c3.3,18.3,17.8,97.4,10.8,107.6s-34.3,22.4-59,24.5
			c-24.7,2-41.7-1.2-50.4-13.7s16.9-59.1,19.6-89c2.7-29.9-19.7-75.7-19.7-75.7l36.6-46.1L1733.6,856.7z"/>
		<path class="st61" d="M1573.1,811.7c0,0,22.1,43.8,35.3,49.1c13.2,5.2,34.3-4.8,47.7-8.6c13.5-3.7,53.7,8,77.6,4.5
			c23.9-3.5,73.7-24.2,76.7-47l-119-61.3L1573.1,811.7z"/>
		<path class="st62" d="M1813.4,786.8c1.4,34.8-19.9,48.8-41.5,49.9c-21.5,1.1-51.8-18-77.2-15.9c-25.4,2.1-73.6,34.1-94.6,21.7
			c-21-12.4-47.1-55.8-29.6-76.4c17.4-20.6,71.2-72.3,112-66.9s68.6,34,87.2,43.3S1812.3,761.4,1813.4,786.8z"/>
	</g>
	<g>
		<path class="st22" d="M1545.7,881c0,0,10.5,19.6,12.6,49.1c2.1,29.5-12.5,90.8-4.5,103.7c8,12.9,37.2,15.3,48.2,15.3
			c11,0,36.9-15.2,40-23.9c3.1-8.7-13.4-90.1-22.1-115c-8.7-25-32.2-54.6-32.2-54.6L1545.7,881z"/>
		<g>
			<g>
				<path class="st65" d="M1491.3,869.4c0,0,1.2,17.9,30.1,16.4c40-2.1,46-8.6,66.9-5.9c21,2.7,66.5,18.7,80.5,13.1
					s23.1-23.5,21.6-37.8l-110.1-16.4L1491.3,869.4z"/>
				<path class="st66" d="M1556.2,814.5c51.6,0.6,106.1-18.6,121.1,0.4c15,19,21.9,61.8-5.5,66.5c-27.4,4.7-65.7-10.3-98-7.3
					c-32.3,3-82.8,17.5-82.5-4.7C1491.6,847.2,1516,814,1556.2,814.5z"/>
			</g>
		</g>
	</g>
	<g>
		<path class="st22" d="M350.5,870.8c0,0,2.6,27.6,0.7,46.5c-1.8,18.9-11.9,53.1-15.7,56.2c-3.8,3.2-26,3.8-38,2.5
			c-12-1.3-34.9-9.8-38-16.9c-3.1-7.1,20-28.6,32.5-49.5c12.5-20.9,17.5-46.3,17.5-46.3l17.3-36.8L350.5,870.8z"/>
		<path class="st67" d="M250.4,839.1c0,0-5.2,5.4,14.7,14.9c19.8,9.5,71,10.8,77.4,13.3c6.3,2.5,32.1,15.3,47.7,13.7l-63.3-68.6
			L250.4,839.1z"/>
		<path class="st68" d="M250.4,839.1c-0.1,10.4,23.5,10.8,35.4,11.1s21.6-14.2,36.9-11.1c15.3,3.2,48.7,45.2,67.4,41.9
			s13.7-41.2,7.3-49.5s-29.1-33.5-60.1-39.2s-54.8,2.6-63.9,9.5C264.9,808.3,250.6,821.4,250.4,839.1z"/>
	</g>
	<g>
		<path class="st22" d="M225.1,883.3c0,0,10.7,21.1,10.7,35.9s0.3,78.9-6.7,86c-7,7-30.1,12.8-49.7,10.9
			c-19.7-1.9-32.6-6.8-37.7-17.9c-5.1-11.1,21.6-44,27.9-67.1c6.3-23.1-4.8-62.2-4.8-62.2l35.3-31L225.1,883.3z"/>
		<path class="st61" d="M105.4,825.4c0,0,11.2,37.5,20.8,43.5c9.6,6,27.6,1,38.7,0s41,13.8,60.2,14.4c19.2,0.6,61.3-8.6,66.8-26.1
			l-84.8-64.8L105.4,825.4z"/>
		<path class="st62" d="M297.6,839.7c-3.8,27.5-22.5,35.5-39.6,33.3c-17-2.2-38.1-21.4-58.4-23.3s-62.5,16.4-77.3,3.7
			s-29.1-50.4-12.5-64.1c16.6-13.7,66.1-46.8,97.3-36.7s49.1,36.3,62.4,46.2C282.8,808.7,300.3,819.6,297.6,839.7z"/>
	</g>
	<g>
		<path class="st22" d="M-5.2,678.4c0,0-6.8,16.9-6.1,41.2c0.6,24.3,16.8,73.4,11.5,84.6s-28.2,15.5-36.8,16.4s-30.3-9.5-33.4-16.4
			c-3.1-6.9,3.7-74.8,8.7-96S-40.2,661-40.2,661L-5.2,678.4z"/>
		<path class="st57" d="M-111,661.6c0,0,0,15.5,24.9,16c34.7,0.6,40.2-4.6,58.1-1s56.2,20.2,68.6,16.2s21.4-18.8,21-31.2l-93.9-20.9
			L-111,661.6z"/>
		<path class="st58" d="M-51.7,618.2c44.5,3.7,92.6-9.5,104.4,7.8s15.1,54.6-8.8,57s-56-12.9-84-12.3c-28,0.6-72.5,10-70.9-9.1
			C-109.4,642.5-86.3,615.4-51.7,618.2z"/>
	</g>
	<g>
		<path class="st22" d="M34.6,756c0,0,20.9,32.9,12.3,57.4s-51.4,80.3-44,97.5C10.3,928,77,943,89.8,939
			c12.8-4,48.4-108.5,40.7-130.3s-28.7-59.6-28.7-59.6l-46.8-41.5L34.6,756z"/>
		<path class="st63" d="M-98.9,751.3c0,0,76,13.6,101.8,9.4c25.8-4.2,112-17.2,139.8-7.7s82.2,14.6,86.9,2.2l-109-59.6L-98.9,751.3z
			"/>
		<path class="st64" d="M45.2,665.2c101.5-17.2,148.1,15.1,165.6,22.2c17.4,7.1,43.6,78.5,0,73.3c-43.6-5.2-91.1-31.2-144.9-25.2
			s-134.2,19.9-164.8,15.8C-129.5,747.2-59.4,682.9,45.2,665.2z"/>
	</g>
	<g>
		<path class="st22" d="M74.7,830.9c0,0,7.4,9.7-1,24.8c-8.4,15.1-17.1,23.3-13.6,29.4s36.3,17,48.3,17.7c12,0.8,41.8-2.7,41.8-8
			c0-5.3-0.7-35.5-5.8-43.9c-5.1-8.4-24-25.2-24-25.2L91,804.9L74.7,830.9z"/>
		<path class="st69" d="M152.8,805.2c0,0-0.8,20.8-10.6,21.9s-31.6-4.6-47.7-0.5c-16.2,4.2-49.5,11.6-65.4-1.1L85.7,789L152.8,805.2
			z"/>
		<path class="st70" d="M29,825.6c6.1,8.9,49.3,1.7,55,0.5c5.7-1.2,37.2-7.6,44.6-5.7c7.4,1.9,24.1-2.9,24.2-15.2
			s-12-24.5-31.7-24.7s-35.6-14-49.8-11.6s-39.4,25.4-42.1,33.5S23.9,818.1,29,825.6z"/>
	</g>
	<g>
		<path class="st22" d="M-1.1,869.4c0,0-7,38.8-4.7,59S9.3,979.3,16.8,986c7.5,6.7,24.9,7.7,43.5,6.5s36-13.2,36.6-18.5
			c0.6-5.3-29.5-30.2-43.5-53.2s-13.8-46.9-13.8-46.9l-18.3-36L-1.1,869.4z"/>
		<g>
			<g>
				<path class="st23" d="M-58.1,850.1c0,0,49.7,23.9,79.4,25.1C51,876.4,94.6,865,94.3,840l-77.4-13.9L-58.1,850.1z"/>
				<path class="st24" d="M94.3,840c-2,14.1-24.8,25-49.5,25.8s-54.4-14.9-62.4-13.7c-8,1.1-32.3,9-40.5-1.9
					c-8.1-10.9,3-36.8,34.5-48.8s61.7,14.8,77,13.9C68.7,814.4,96.3,825.9,94.3,840z"/>
			</g>
		</g>
	</g>
	<g>
		<path class="st22" d="M413.1,979.1c0,0,21.2,44.4,15.6,61.8s-21.5,67.9-36.3,71.6c-14.8,3.7-62.4,6.1-71.2,0
			c-8.8-6.1,28.2-56.7,34.3-76.3c6.1-19.6-2.2-52.7-2.2-52.7l8.6-61.3L413.1,979.1z"/>
		<path class="st65" d="M463.5,973.3c0,0-81.5,10.3-110.1,10.2c-28.6-0.1-78.5-5.2-100.9-5.1s-27.6-10-26.8-25.9
			c0.8-15.8,136.3-30.3,136.3-30.3L463.5,973.3z"/>
		<path class="st66" d="M344.5,873.5c53.9-16.4,91,12.2,119.3,16.8c28.3,4.7,55.2,17.4,50.4,34c-4.8,16.6-32,60.6-78.7,48.2
			s-117.9-12.1-140.1-5.5c-22.2,6.6-75.4,7.5-69.7-14.4c5.7-22,59.9-44.9,69.7-50C305.2,897.4,310.1,884,344.5,873.5z"/>
	</g>
	<g>
		<path class="st22" d="M120.2,978.7c0,0-14.6,30-10.3,49.9c4.3,19.9,56.4,73.1,49,86.9c-7.5,13.8-104.7,38.1-116.8,28.9
			s-25.2-55.6-22.4-94.4c2.7-38.8,39-82.8,39-82.8l35-39L120.2,978.7z"/>
		<path class="st57" d="M-16.8,936.6c0,0,32.5,32.3,58.9,30.5s61.8,9.1,78.1,11.6s62.5,6.7,76.5-8.1L102.7,905L-16.8,936.6z"/>
		<path class="st58" d="M145,889.8c41.6,5.7,63.7,28.3,69.7,45.3c6,16.9-20.4,48.6-41.3,41.1s-49.6-32.4-76.3-32.8s-44.5,23-94,5.4
			c-49.5-17.6-11.3-50.6,32.1-60S105.1,884.4,145,889.8z"/>
	</g>
	<g>
		<path class="st22" d="M1455.9,964.4c0,0,11.1,10.3,3.9,30.5c-7.1,20.2-16.1,32-10.5,38.8s47.9,13.1,62.7,11.6
			c14.8-1.6,50.5-12,49.3-18.5s-8.3-43.3-16.3-52.5c-8-9.2-34.6-25.8-34.6-25.8l-40.2-19.3L1455.9,964.4z"/>
		<path class="st57" d="M1546,916.7c0,0,3.4,25.5-8.4,29c-11.8,3.5-39.5,0.9-58.4,9.4c-18.9,8.5-58.1,24.6-80.2,12.4l61.6-56.5
			L1546,916.7z"/>
		<path class="st58" d="M1399,967.5c9.3,9.7,60.6-8.2,67.3-10.9c6.7-2.6,43.9-17.1,53.3-16.3c9.5,0.8,28.8-8.6,26.4-23.6
			c-2.4-15-19.8-27.4-43.9-23.5c-24.1,3.9-46.5-9.7-63.3-3.7c-16.8,5.9-42.8,39.2-44.4,49.8C1392.9,949.8,1391.2,959.4,1399,967.5z"
			/>
	</g>
	<g>
		<path class="st22" d="M1330,1007.9c0,0-7,38.8-4.7,59c2.3,20.2,15.2,50.9,22.7,57.6c7.5,6.7,24.9,7.7,43.5,6.5s36-13.2,36.6-18.5
			s-29.5-30.2-43.5-53.2c-14-23-13.8-46.9-13.8-46.9l-18.3-36L1330,1007.9z"/>
		<g>
			<g>
				<path class="st23" d="M1273,988.6c0,0,49.7,23.9,79.4,25.1s73.3-10.2,72.9-35.3l-77.4-13.9L1273,988.6z"/>
				<path class="st24" d="M1425.4,978.4c-2,14.1-24.8,25-49.5,25.8c-24.8,0.8-54.4-14.9-62.4-13.7s-32.3,9-40.5-1.9
					c-8.1-10.9,3-36.8,34.5-48.8c31.5-12,61.7,14.8,77,13.9C1399.8,952.8,1427.4,964.4,1425.4,978.4z"/>
			</g>
		</g>
	</g>
</g>
</svg>
