<svg id="Layer_1" data-name="Layer 1" xmlns="http://www.w3.org/2000/svg" xmlns:xlink="http://www.w3.org/1999/xlink" viewBox="0 0 1773.31 969.47"><defs><style>.cls-1,.cls-10,.cls-74{fill:#fff;}.cls-12,.cls-2,.cls-21,.cls-22{fill:none;}.cls-10,.cls-11,.cls-13,.cls-14,.cls-15,.cls-16,.cls-17,.cls-18,.cls-19,.cls-2,.cls-20,.cls-21,.cls-22,.cls-23,.cls-24,.cls-25,.cls-26,.cls-27,.cls-28,.cls-29,.cls-3,.cls-30,.cls-31,.cls-32,.cls-33,.cls-34,.cls-35,.cls-36,.cls-37,.cls-38,.cls-39,.cls-4,.cls-40,.cls-41,.cls-42,.cls-43,.cls-44,.cls-45,.cls-46,.cls-47,.cls-48,.cls-49,.cls-5,.cls-50,.cls-51,.cls-52,.cls-53,.cls-54,.cls-55,.cls-56,.cls-57,.cls-58,.cls-59,.cls-6,.cls-60,.cls-61,.cls-62,.cls-63,.cls-64,.cls-65,.cls-66,.cls-67,.cls-68,.cls-69,.cls-7,.cls-70,.cls-71,.cls-72,.cls-73,.cls-74,.cls-75,.cls-76,.cls-8,.cls-9{stroke:#000;}.cls-10,.cls-11,.cls-12,.cls-13,.cls-14,.cls-15,.cls-16,.cls-17,.cls-18,.cls-19,.cls-2,.cls-20,.cls-22,.cls-23,.cls-24,.cls-25,.cls-26,.cls-27,.cls-28,.cls-29,.cls-3,.cls-30,.cls-31,.cls-32,.cls-33,.cls-34,.cls-35,.cls-36,.cls-37,.cls-38,.cls-39,.cls-4,.cls-40,.cls-41,.cls-42,.cls-43,.cls-44,.cls-45,.cls-46,.cls-47,.cls-48,.cls-49,.cls-5,.cls-50,.cls-51,.cls-52,.cls-53,.cls-54,.cls-55,.cls-56,.cls-57,.cls-58,.cls-59,.cls-6,.cls-60,.cls-61,.cls-62,.cls-63,.cls-64,.cls-65,.cls-66,.cls-67,.cls-68,.cls-69,.cls-7,.cls-70,.cls-71,.cls-72,.cls-73,.cls-74,.cls-75,.cls-76,.cls-8{stroke-miterlimit:10;}.cls-10,.cls-19,.cls-2,.cls-26,.cls-27,.cls-28,.cls-29,.cls-3,.cls-38,.cls-39,.cls-4,.cls-44,.cls-45,.cls-46,.cls-47,.cls-48,.cls-49,.cls-5,.cls-50,.cls-51,.cls-6,.cls-7,.cls-8{stroke-width:3px;}.cls-3,.cls-65{fill:#fae02f;}.cls-4,.cls-60,.cls-62{fill:#ad70af;}.cls-5{fill:#0e7dc1;}.cls-6,.cls-9{fill:#009444;}.cls-25,.cls-57,.cls-7{fill:#ee356f;}.cls-66,.cls-8{fill:#ec6b55;}.cls-9{stroke-miterlimit:10;stroke-width:3px;}.cls-11,.cls-47{fill:#515251;}.cls-11,.cls-23,.cls-24,.cls-25,.cls-30,.cls-31,.cls-32,.cls-33,.cls-58,.cls-59,.cls-62,.cls-63,.cls-64,.cls-65,.cls-66,.cls-67,.cls-68,.cls-69,.cls-70,.cls-71,.cls-75,.cls-76{stroke-width:6px;}.cls-12{stroke:#fcce0c;}.cls-12,.cls-13,.cls-14,.cls-16,.cls-17,.cls-34,.cls-35,.cls-36,.cls-37{stroke-width:4px;}.cls-13{fill:#5e461d;}.cls-14{fill:#473f34;}.cls-15{fill:#b09f8e;}.cls-15,.cls-18,.cls-20,.cls-22,.cls-40,.cls-41,.cls-43,.cls-52,.cls-53,.cls-54{stroke-width:2px;}.cls-16,.cls-20{fill:#e2d3c4;}.cls-17,.cls-71{fill:#fcce0c;}.cls-18{fill:#dc7f39;}.cls-19{fill:#b0a99b;}.cls-21{stroke-miterlimit:10;stroke-width:2px;}.cls-23,.cls-44,.cls-55{fill:#f0d590;}.cls-24,.cls-45,.cls-56{fill:#d4127f;}.cls-26{fill:#b0a78d;}.cls-27{fill:#9c4a23;}.cls-29{fill:#e2e2e2;}.cls-30,.cls-36,.cls-41{fill:#c8bfda;}.cls-31,.cls-34,.cls-38,.cls-43{fill:#ccb3d6;}.cls-32,.cls-37{fill:#cbc7e3;}.cls-33,.cls-35,.cls-39,.cls-40,.cls-42{fill:#a68db7;}.cls-46,.cls-67{fill:#fab53a;}.cls-48,.cls-76{fill:#b667aa;}.cls-49,.cls-64{fill:#00acc0;}.cls-50,.cls-59{fill:#c2e7f3;}.cls-51,.cls-61,.cls-63{fill:#e64744;}.cls-52{fill:#d7c6a3;}.cls-53{fill:#ba8072;}.cls-54{fill:#df5526;}.cls-55,.cls-56,.cls-57,.cls-60,.cls-61,.cls-72,.cls-73,.cls-74{stroke-width:5px;}.cls-58{fill:#2fc1d4;}.cls-68{fill:#d781ab;}.cls-69{fill:#b093bf;}.cls-70{fill:url(#linear-gradient);}.cls-72{fill:#167db2;}.cls-73{fill:#0cb7dd;}.cls-75{fill:#f06795;}</style><linearGradient id="linear-gradient" x1="468.67" y1="1198.9" x2="468.67" y2="289" gradientTransform="matrix(-1, 0, 0, 1, 1344.66, 301.86)" gradientUnits="userSpaceOnUse"><stop offset="0" stop-color="#0c6534"/><stop offset="1" stop-color="#b1b935"/></linearGradient></defs><g id="Sky_Dec" data-name="Sky Dec"><path class="cls-1" d="M1273.06,10.66a13.2,13.2,0,0,0,11,0c3-1.6,5-.1,4.5,3.2a13.93,13.93,0,0,0,3.4,10.5c2.5,2.4,1.7,4.8-1.7,5.2a12.87,12.87,0,0,0-8.9,6.5c-1.5,3.1-4,3.1-5.5,0a13.18,13.18,0,0,0-8.9-6.5c-3.4-.5-4.2-2.9-1.7-5.2s4-7.1,3.4-10.5S1270.06,9.16,1273.06,10.66Z"/><path class="cls-2" d="M1273.06,10.66a13.2,13.2,0,0,0,11,0c3-1.6,5-.1,4.5,3.2a13.93,13.93,0,0,0,3.4,10.5c2.5,2.4,1.7,4.8-1.7,5.2a12.87,12.87,0,0,0-8.9,6.5c-1.5,3.1-4,3.1-5.5,0a13.18,13.18,0,0,0-8.9-6.5c-3.4-.5-4.2-2.9-1.7-5.2s4-7.1,3.4-10.5S1270.06,9.16,1273.06,10.66Z"/><path class="cls-1" d="M1213.36,30.16a15.15,15.15,0,0,0,12.3-3.3l.5-.5c2.9-2.7,5.6-1.6,5.9,2.3l.1.7c.4,3.9,3.5,8.8,6.9,10.7l.6.3c3.4,1.9,3.3,4.8-.4,6.4l-.6.3c-3.6,1.6-7.3,6-8,9.9l-.1.7c-.8,3.9-3.6,4.6-6.2,1.6l-.5-.5a15.24,15.24,0,0,0-11.9-4.6l-.7.1c-3.9.5-5.5-2-3.5-5.4l.4-.6a15.63,15.63,0,0,0,.7-12.7l-.3-.6c-1.6-3.6.2-5.8,4-4.9Z"/><path class="cls-2" d="M1213.36,30.16a15.15,15.15,0,0,0,12.3-3.3l.5-.5c2.9-2.7,5.6-1.6,5.9,2.3l.1.7c.4,3.9,3.5,8.8,6.9,10.7l.6.3c3.4,1.9,3.3,4.8-.4,6.4l-.6.3c-3.6,1.6-7.3,6-8,9.9l-.1.7c-.8,3.9-3.6,4.6-6.2,1.6l-.5-.5a15.24,15.24,0,0,0-11.9-4.6l-.7.1c-3.9.5-5.5-2-3.5-5.4l.4-.6a15.63,15.63,0,0,0,.7-12.7l-.3-.6c-1.6-3.6.2-5.8,4-4.9Z"/><path class="cls-1" d="M1269,71.36a9.13,9.13,0,0,0,7.5,1.4c2.2-.7,3.5.6,2.6,2.8a9.24,9.24,0,0,0,1,7.6c1.4,1.9.5,3.5-1.8,3.4a9.31,9.31,0,0,0-6.9,3.3c-1.4,1.9-3.1,1.6-3.8-.7a9.2,9.2,0,0,0-5.3-5.6c-2.3-.8-2.5-2.5-.5-3.8a9.31,9.31,0,0,0,3.7-6.7C1265.5,70.66,1267.06,69.86,1269,71.36Z"/><path class="cls-2" d="M1269,71.36a9.13,9.13,0,0,0,7.5,1.4c2.2-.7,3.5.6,2.6,2.8a9.24,9.24,0,0,0,1,7.6c1.4,1.9.5,3.5-1.8,3.4a9.31,9.31,0,0,0-6.9,3.3c-1.4,1.9-3.1,1.6-3.8-.7a9.2,9.2,0,0,0-5.3-5.6c-2.3-.8-2.5-2.5-.5-3.8a9.31,9.31,0,0,0,3.7-6.7C1265.5,70.66,1267.06,69.86,1269,71.36Z"/><path class="cls-1" d="M1599.56,73a6.37,6.37,0,0,0,5.4,0c1.5-.8,2.5-.1,2.2,1.6a6.62,6.62,0,0,0,1.7,5.2c1.2,1.2.8,2.3-.8,2.6a7.09,7.09,0,0,0-4.4,3.2c-.8,1.5-2,1.5-2.7,0a6.62,6.62,0,0,0-4.4-3.2c-1.7-.2-2-1.4-.8-2.6a6.62,6.62,0,0,0,1.7-5.2C1597.06,72.86,1598.06,72.16,1599.56,73Z"/><path class="cls-2" d="M1599.56,73a6.37,6.37,0,0,0,5.4,0c1.5-.8,2.5-.1,2.2,1.6a6.62,6.62,0,0,0,1.7,5.2c1.2,1.2.8,2.3-.8,2.6a7.09,7.09,0,0,0-4.4,3.2c-.8,1.5-2,1.5-2.7,0a6.62,6.62,0,0,0-4.4-3.2c-1.7-.2-2-1.4-.8-2.6a6.62,6.62,0,0,0,1.7-5.2C1597.06,72.86,1598.06,72.16,1599.56,73Z"/><path class="cls-1" d="M1561.56,27.56a10.66,10.66,0,0,0,8.3,2.9c2.7-.4,3.8,1.2,2.5,3.6a10.8,10.8,0,0,0-.2,8.8c1.2,2.4,0,4-2.6,3.5a10.31,10.31,0,0,0-8.4,2.6c-1.9,1.9-3.8,1.3-4.2-1.4a10.6,10.6,0,0,0-5-7.2c-2.4-1.2-2.4-3.2.1-4.4a10.78,10.78,0,0,0,5.3-7C1557.76,26.16,1559.66,25.56,1561.56,27.56Z"/><path class="cls-2" d="M1561.56,27.56a10.66,10.66,0,0,0,8.3,2.9c2.7-.4,3.8,1.2,2.5,3.6a10.8,10.8,0,0,0-.2,8.8c1.2,2.4,0,4-2.6,3.5a10.31,10.31,0,0,0-8.4,2.6c-1.9,1.9-3.8,1.3-4.2-1.4a10.6,10.6,0,0,0-5-7.2c-2.4-1.2-2.4-3.2.1-4.4a10.78,10.78,0,0,0,5.3-7C1557.76,26.16,1559.66,25.56,1561.56,27.56Z"/><path class="cls-1" d="M364.5,247a10.42,10.42,0,0,0,8.8,0c2.4-1.3,4-.1,3.6,2.6a10.87,10.87,0,0,0,2.7,8.3c2,1.9,1.3,3.8-1.4,4.2a10.5,10.5,0,0,0-7.1,5.2c-1.2,2.4-3.2,2.4-4.4,0a10.81,10.81,0,0,0-7.1-5.2c-2.7-.4-3.3-2.3-1.4-4.2a10.27,10.27,0,0,0,2.7-8.3C360.36,247,362.06,245.66,364.5,247Z"/><path class="cls-2" d="M364.5,247a10.42,10.42,0,0,0,8.8,0c2.4-1.3,4-.1,3.6,2.6a10.87,10.87,0,0,0,2.7,8.3c2,1.9,1.3,3.8-1.4,4.2a10.5,10.5,0,0,0-7.1,5.2c-1.2,2.4-3.2,2.4-4.4,0a10.81,10.81,0,0,0-7.1-5.2c-2.7-.4-3.3-2.3-1.4-4.2a10.27,10.27,0,0,0,2.7-8.3C360.36,247,362.06,245.66,364.5,247Z"/><path class="cls-1" d="M384.16,210.16a6.53,6.53,0,0,0,4.6,2.9c1.7.1,2.1,1.3,1,2.5a6.68,6.68,0,0,0-1.3,5.3c.4,1.6-.5,2.4-2.1,1.7a6.39,6.39,0,0,0-5.4.4c-1.4.9-2.5.2-2.3-1.4a6.37,6.37,0,0,0-2-5c-1.3-1.1-1-2.3.7-2.6a6.36,6.36,0,0,0,4.2-3.5C382.06,208.76,383.36,208.66,384.16,210.16Z"/><path class="cls-2" d="M384.16,210.16a6.53,6.53,0,0,0,4.6,2.9c1.7.1,2.1,1.3,1,2.5a6.68,6.68,0,0,0-1.3,5.3c.4,1.6-.5,2.4-2.1,1.7a6.39,6.39,0,0,0-5.4.4c-1.4.9-2.5.2-2.3-1.4a6.37,6.37,0,0,0-2-5c-1.3-1.1-1-2.3.7-2.6a6.36,6.36,0,0,0,4.2-3.5C382.06,208.76,383.36,208.66,384.16,210.16Z"/><path class="cls-1" d="M1047.76,106.16a10.81,10.81,0,0,0,8.5-2.3c2-1.8,3.8-1.2,4.1,1.5a10.88,10.88,0,0,0,4.8,7.3c2.4,1.3,2.3,3.3-.2,4.4a10.58,10.58,0,0,0-5.5,6.9c-.5,2.7-2.4,3.2-4.2,1.2a10.83,10.83,0,0,0-8.2-3.1c-2.7.3-3.8-1.3-2.4-3.7a10.8,10.8,0,0,0,.4-8.8C1043.86,107.16,1045.16,105.56,1047.76,106.16Z"/><path class="cls-2" d="M1047.76,106.16a10.81,10.81,0,0,0,8.5-2.3c2-1.8,3.8-1.2,4.1,1.5a10.88,10.88,0,0,0,4.8,7.3c2.4,1.3,2.3,3.3-.2,4.4a10.58,10.58,0,0,0-5.5,6.9c-.5,2.7-2.4,3.2-4.2,1.2a10.83,10.83,0,0,0-8.2-3.1c-2.7.3-3.8-1.3-2.4-3.7a10.8,10.8,0,0,0,.4-8.8C1043.86,107.16,1045.16,105.56,1047.76,106.16Z"/><circle class="cls-3" cx="1204.36" cy="364.46" r="11.5"/><circle class="cls-3" cx="1106.46" cy="19.86" r="5.8"/><circle class="cls-3" cx="476.56" cy="20.96" r="5.8"/><circle class="cls-4" cx="1076.26" cy="34.76" r="5.8"/><circle class="cls-4" cx="1476.46" cy="105.76" r="8.1"/><circle class="cls-4" cx="1445.96" cy="404.76" r="5.8"/><circle class="cls-5" cx="1510.86" cy="376.96" r="5.8"/><circle class="cls-5" cx="1243.36" cy="371.16" r="5.8"/><circle class="cls-5" cx="576.06" cy="417.86" r="5.8"/><circle class="cls-6" cx="1445.76" cy="131.66" r="5.8"/><circle class="cls-6" cx="506.76" cy="7.66" r="5.8"/><circle class="cls-7" cx="1512.56" cy="144.06" r="5.8"/><circle class="cls-4" cx="1207.36" cy="399.56" r="5.8"/><circle class="cls-8" cx="1159.66" cy="139.26" r="16.6"/><circle class="cls-7" cx="1105.76" cy="154.76" r="5.8"/><circle class="cls-9" cx="1034.4" cy="245.32" r="5.8" transform="translate(450.4 1133.63) rotate(-70.02)"/><circle class="cls-8" cx="556.16" cy="31.06" r="6.7"/><circle class="cls-8" cx="534.16" cy="419.86" r="8.3"/><circle class="cls-4" cx="583.66" cy="254.36" r="5.8"/><circle class="cls-7" cx="534.36" cy="235.06" r="5.8"/><circle class="cls-6" cx="400.06" cy="390.16" r="5.8"/><g id="Birds"><path class="cls-10" d="M890.16,112.46c2.4-.6-2.5-10.3-2-11.5s12.7-2.2,12.2-4.8-10.8,3-11.9,2.1,6.3-7.8,3.8-8a12,12,0,0,0-8.8,5.4c-3.2,5.1-4.4,6.5-6.8,7.3s-1.3,2.6.7,1.8,4.3-1.7,5.9,1S885.86,113.56,890.16,112.46Z"/><path class="cls-10" d="M834,88.36l-3.2,7.8S838,92,839,94s-7.6,3.9-7.6,3.9l3.7,9.4s-6.8,0-9.5-2.4-1.5-3.8-1.5-3.8-4,1.8-4.3.3,3.9-2.6,3.9-2.6-.5-3.3,1.4-5S834,88.36,834,88.36Z"/><path class="cls-10" d="M758.06,97.26c.7.8,3.7.8,4.8.2s2.8,5.2,6.8,3.5.4-6.3.4-6.3,8.3-2.6,8.3-3.3-8.4,1.2-8.4,1.2.8-7.7-.2-9.8-5.3,2.3-5.8,5,.6,4.9-.2,6S756.56,95.56,758.06,97.26Z"/><path class="cls-10" d="M781.66,172.66l-4.2-10.5-3.7.6-.8-2.1,4.7-1.9,1.9-2.5,8.8-3.5-1.8,4.7,6-1.5.5,1.4-6.9,2s1.2,3.6.8,6C786.76,167.76,781.66,172.66,781.66,172.66Z"/><path class="cls-10" d="M842.26,126.46s-7.6,3.9-8.6,3.4-2.4-8-5.4-7-1.4,7.1-2.5,8.2-5,2-4.6,2.9,3.9.7,3.9.7l-1.5,5.5,7.2-6.9,10.7-4.9Z"/><path class="cls-10" d="M746.06,182.16l-2.2-5.6s-4.3,1-5.7,3.3-.6,4.3-1.2,4.9-3.9,1.2-3.5,2.4,3.6-.2,4.1.5-1.9,5.1-1.9,5.1,3.6-.7,4.7-1.9a67.12,67.12,0,0,0,4.1-6.2l8.7-3.8-.5-1.3Z"/><path class="cls-10" d="M696.66,220.36s4.6-4.8,5.6-6.8a12.76,12.76,0,0,0,1.1-4.5l7.4-2.9-.6-1.5-7,2.8-.9-4.9a34,34,0,0,0-5.3,3.7,4.32,4.32,0,0,0-1.3,2.7s-5.5.6-5.2,2.1,5.4.4,5.4.4S694.5,220.56,696.66,220.36Z"/><path class="cls-10" d="M720.76,67.46l4.3,10.8s-5.6,1.5-5,3.7,4.5.3,4.5.3l-.7,4.8,8.2-8.2,11-4.4-9.3,1.6s-2.2-5.6-6-7.3S724.06,66.06,720.76,67.46Z"/></g></g><g id="Road_Back" data-name="Road Back"><path class="cls-11" d="M1561.86,248.86c0-50.1-408.1-51.3-743.5-69.1s-824.6-55.7-824.6-55.7v9.1s246,26.6,447.8,40.8,531.6,35.4,679.8,37.2,399.8,16.1,399.8,39.1Z"/><path class="cls-12" d="M1540.16,250.16c0-32.5-258-42.8-414.3-47.9-148-4.8-485.4-22.2-687.2-36.4s-444.8-37.1-444.8-37.1"/></g><g id="Bus"><path class="cls-13" d="M296,144.36a25.56,25.56,0,0,0,5.6-.1c2.8-.4,23.5,3.9,25.9,4.1s3-.2,4.5-.1,2,1.5,4.2,1.3,2-1.7,2.9-1.8,4.5,1.8,5.6,1.6,4.3-2.1,4.8-3-21.7-13.7-21.7-13.7l-31.3-1.9s-3.9,8.8-3.6,9.7A22.9,22.9,0,0,0,296,144.36Z"/><path class="cls-13" d="M397.26,153.56s.8.6,3.1,0,2.3-2.7,4.5-3,22.9,4.7,23.6,5.9a5.2,5.2,0,0,0,3.2,3.1c1.7.4,1.4-.8,2.2-.7s1.9.8,2.8.7S439.5,156,439.5,156l-11-19.9-29.3-2.7-.4,15.6Z"/><path class="cls-14" d="M308.16,134.56s-6.5,4.4-6.5,11.4,3,14.6,6.9,16.1,9.5,1.7,11.8,1.1,8.8-2.3,9.7-10.7-4.3-18.1-4.3-18.1Z"/><path class="cls-15" d="M312.36,137.06c6.4-.1,9.7,5.7,9.5,10.7s-2.5,11.3-9.2,10.6c-5.7-.6-7.7-5.5-7.8-11.4C304.86,141.36,308.36,137.06,312.36,137.06Z"/><path class="cls-14" d="M416.36,139c7.5.4,15.2,7.7,15.5,18.9s-6.8,16.7-15,16.9-13.9-7.1-13.8-19.3S408.56,138.56,416.36,139Z"/><path class="cls-14" d="M371,148.26a13.86,13.86,0,0,1-8.4,6.1c-5.6,1.2-10.3-1-11.9-2.8s-4.1-7.3-4.1-7.3Z"/><path class="cls-14" d="M471.36,156.06s-3.2,6.1-8.4,8.3-9.7.4-12.8-2.7-4.6-8.5-4.6-8.5Z"/><path class="cls-15" d="M413.06,146.46c6.2-.1,8.8,6.1,8.9,11.3s-2.6,11.1-6.2,11.1c-3.9.1-8.4-3.3-9.5-9.7C405.06,151.86,407.86,146.56,413.06,146.46Z"/><path class="cls-16" d="M291.36,74.16s2.6-6.3,3.5-6.8,1.1-2.8,2.1-3.5,16.4-3,23.2-3.6,94.9,1.2,96.9,1.7,10.1-.6,14.8-.4,15.2,3.7,19.7,3.7,12.8-1.1,16.3-.2,7.3,4.7,7.8,6.7a8.71,8.71,0,0,1,.1,3.7l-35.6,6.3Z"/><path class="cls-17" d="M487,151.46s11.8-7.2,12-8.8-2.1-2.5-2.1-3.5,1.9-11,1.9-14.4-1.9-16.5-2.8-18.2-1.9-4.1-2.3-4.6-6-3.9-6-3.9l-9.4-20.8a2,2,0,0,0,.9-1.4c0-.8-2.4-3-6.9-3.2s-17.7,1.5-22.4,3.1-7,3-7.9,3.1-149.8-5-150.6-4.9a1.58,1.58,0,0,0-1.4,1.3c0,.5-5.2,15-5.8,28.3-.9,19,.6,37.4,1.2,38.7s9.6,2.3,10.6,2,2.5-8.6,2.5-8.6a1.86,1.86,0,0,1,.8-1.3,3.75,3.75,0,0,1,1.6-.4l20.3,1.3a5.35,5.35,0,0,1,2.6.7,4.69,4.69,0,0,1,1.3,1.6l5.6,7.9s.6,1,1.2,1,64.4,5.1,64.4,5.1a2.14,2.14,0,0,0,1,1.9c1.1.6,2-.3,2.2-1.9s1.4-11.4,4.5-14.4,15.9-1,18.7.5,7.8,13.8,8.6,15.5,1,3.4,2.9,3.8,18.1,1.9,19.9,2.1,29.2-4.5,29.8-5.2A27.59,27.59,0,0,1,487,151.46Z"/><path class="cls-16" d="M456.36,149.76c1.1-1.4,8.6.1,12.6-.2s24.7-5,26.1-5.7,4.5-2.6,5.1-3.5,2.4-1.4,2.9-.6.5,4.3.1,5.9-4.9,5.2-7.7,5.9-26.9,6-33.2,5.8-6.2-1.2-6.5-2.9S455.26,151.06,456.36,149.76Z"/><path class="cls-18" d="M464.26,113.66c.2-.5,5.5-1.6,5.8-1s1.1,5.1.7,5.9-4.9,1.7-5.5,1.1S463.76,114.66,464.26,113.66Z"/><path class="cls-18" d="M495.06,109.56c-.3.4-.6,4,.1,4.3s2.7-.5,2.8-1-.2-4-.5-4.2A2.18,2.18,0,0,0,495.06,109.56Z"/><path class="cls-19" d="M455.56,106.26c4.2-.1,17-1.1,19.8-1.6s12.4-2.1,14-2.6.9-2.7-.9-5.9-7.6-15.5-9-17.1a7,7,0,0,0-5.3-2.6c-2.1,0-25,3.5-27.5,4.7s-3.4,1.9-3.1,4.9,3,15.8,4.3,18S452.5,106.36,455.56,106.26Z"/><path class="cls-19" d="M438.86,86.16c.4,1.5,3.5,15.1,3.6,16.6a3,3,0,0,1-2.78,3.2h0c-1.9.3-36.2-1.1-37.4-1.5a3,3,0,0,1-2.2-3.1c.1-1.7,1.5-15.8,1.9-16.9a2.68,2.68,0,0,1,2.9-1.8c1.7,0,30.8,1,31.9,1.2A2.8,2.8,0,0,1,438.86,86.16Z"/><path class="cls-19" d="M350.26,80.66c1.3,0,40.5.7,41.8.9a2.68,2.68,0,0,1,2.4,2.1c.2,1.1-1.5,17.5-2,18.7s-1.2,1.2-2.7,1.3-41.6-2-42.5-2.2-1.3-.6-1.3-1.7,2.4-16.6,2.7-17.5S349.16,80.66,350.26,80.66Z"/><path class="cls-19" d="M342.86,82.26c-.1,1.1-1.9,16.8-2.1,17.6s-.6.9-1.6,1.1-41.1-1.8-41.8-1.9-.5-.5-.7-1.4,1.3-12.4,2.8-14.9,3-3.3,6.1-3.5,34.9,1.1,36,1.4S343.06,81.16,342.86,82.26Z"/><path class="cls-15" d="M471.66,130.36c.2,2.8-1.4,7.7-3.9,7.9s-5.1-1.8-5.3-6.6,3.1-7,5.1-7.1S471.36,127,471.66,130.36Z"/><path class="cls-15" d="M499.5,124.46c.1,2.7.4,6.7-1.5,6.9s-3.7-1.4-4-5.9,1.7-6,3.1-6S499.36,121.66,499.5,124.46Z"/><path class="cls-20" d="M468.26,126.36c1.5,0,2.5,1.4,2.8,4.5s-1.1,6.1-2.6,6.1-3.1-1.8-3.3-4.5S466.56,126.36,468.26,126.36Z"/><path class="cls-20" d="M497.5,121.56c1.3,0,2,2,2.1,3.9s-.4,4.9-1.4,5-3-1.3-3.1-3.9C494.76,124,496.06,121.66,497.5,121.56Z"/><ellipse class="cls-21" cx="486.76" cy="127.64" rx="2.7" ry="5" transform="translate(-7.1 31.07) rotate(-3.63)"/><line class="cls-22" x1="486.46" y1="122.66" x2="487.06" y2="132.76"/><polyline class="cls-22" points="488.46 131.76 486.76 127.66 485.56 131.96"/><path class="cls-16" d="M405.06,116.56c-.1-.5-8.3-2.1-8.3-.6S405.26,117.66,405.06,116.56Z"/><path class="cls-16" d="M390.66,115.06c0,.8-1.2,1.3-4.6,1.4s-4-.1-4.1-.9,1.3-1.1,4.3-1.2S390.66,114.16,390.66,115.06Z"/><path class="cls-23" d="M89,280.26s-54.8,52.4-61.2,98.2,62.6,199.9,35.8,223.5-252.7-1.3-271.3-30.5-9.8-138.1,26.5-218.4,148-145.4,148-145.4l105-55.5Z"/><path class="cls-24" d="M-180.94,117.46s52.3,89.8,111.1,101.4,130.1,56.2,164.3,71.4,133.1,51.4,172.5,27.3L99.5,118.36Z"/><path class="cls-25" d="M201,110c87.8,36.9,123,99.6,126.2,140.2s-73.4,94.6-114.6,65.8S123,216,64.76,199.2s-111.1,24.4-209.2-43.3S-139.5,38.26-38.74,43.36,116.86,74.66,201,110Z"/></g><g id="Rocket"><path class="cls-10" d="M1349.5,219.46s1.4-4.2-1.7-11.7a76.13,76.13,0,0,0,2.1-16.8c0-8.7-3-13.1-3-13.1l-6.7-7.6-6.6,4.2a39.06,39.06,0,0,0-4.5,14.4,58.32,58.32,0,0,0,0,14.7,46.39,46.39,0,0,0-14.3,28.1c-2.1,17.8.4,27.8.4,27.8a73.94,73.94,0,0,0-12.9,34c-2.2,20,2.5,39.2,2.5,39.2s-10.1,17.4-12.9,37.4-.3,42.9-.3,42.9-15.8,24.5-19.1,56.4,0,63.6,0,63.6l20.6,8.9,49.8-7.5s21.8-29.9,25.8-55,0-55.6,0-55.6,10.5-13.9,12.9-37.6-7.1-46.6-7.1-46.6,8.1-8.1,10.3-31.4a89.59,89.59,0,0,0-5.9-41.3s3.8-7.6,4.8-24.7-6.8-31.1-6.8-31.1a85,85,0,0,0,2.1-17.7c.1-9.7-2.6-14.8-2.6-14.8l-4.6-7.5-8.8,4.4a71.72,71.72,0,0,0-5,15.1,180.46,180.46,0,0,0-2,18.7c2.6-2.2-3.7,2.1-6.5,10.2"/><path class="cls-26" d="M1362.36,68.26a14.49,14.49,0,0,1,2.5,11.7c-1.5,6.4-18.7,92-18.7,92l.8,5.8a20.9,20.9,0,0,0-6.2-2.7,44.37,44.37,0,0,0-7.1-.6l3-4.5,19.7-92.4A18.12,18.12,0,0,1,1362.36,68.26Z"/><path class="cls-27" d="M1352.76,134.26s10.9-68.2,15.4-78,11.2-13.6,13.1-13.3,6.9,13.3,6.6,20.1-3.2,21.1-3.2,21.1l-13,59.1Z"/><path class="cls-26" d="M1390.06,68.66a14.27,14.27,0,0,1,2.7,11.6c-1.4,6.5-17.2,92.3-17.2,92.3l.9,5.8a20.58,20.58,0,0,0-6.3-2.6,52.61,52.61,0,0,0-7.1-.5l2.9-4.6,18.1-92.8A19.4,19.4,0,0,1,1390.06,68.66Z"/><path class="cls-28" d="M1360.16,80s1.9-6,4.4-5.4,4.1,4.8,4.3,10.6-1.7,17.3-.8,22.8-1.8,15.1-.7,17.7,11.9,13.3,12.1,20-.5,7.5-.5,7.5l-21.8,5.9-1.4-13-3.9-3.5,12.3-55.4Z"/><path class="cls-29" d="M1357.06,159.06l.6-7.9.7-3.4,18.7,1s1-4.3-.8-7.2-8.2-8.5-10.2-13,.7-15.5,1-17.3-1-5.2-1.4-9.3,1.7-14.5.9-18.8-3-5.7-4.4-5.9-2.3,3.6-4.7,5.3-6.1,9.1-7.9,17-5.3,28.5-5.3,28.5l-18.5,14.7-2.3,9.5,7.3,1.7-1,4,3.5.8,6.3-2.3Z"/><polygon class="cls-29" points="1358.66 151.36 1358.16 157.36 1368.16 154.76 1368.56 150.66 1358.66 151.36"/><polygon class="cls-29" points="1369.96 150.56 1369.56 154.06 1376.66 152.56 1376.96 149.66 1369.96 150.56"/><polygon class="cls-28" points="1332.06 150.26 1344.56 139.26 1346.06 139.66 1345.56 141.66 1332.56 151.36 1332.06 150.26"/><polygon class="cls-28" points="1332.26 154.16 1340.66 149.66 1341.36 151.06 1332.56 155.26 1332.26 154.16"/><polygon class="cls-28" points="1343.86 148.76 1345.36 149.16 1344.36 153.66 1342.46 154.86 1343.86 148.76"/><polygon class="cls-28" points="1354.06 141.56 1357.36 145.76 1361.36 128.86 1359.76 126.66 1364.86 105.06 1363.16 103.36 1365.36 93.96 1363.96 92.46 1354.06 141.56"/><polygon class="cls-28" points="1354.26 92.26 1357.06 92.96 1358.26 91.16 1355.66 90.56 1354.26 92.26"/><path class="cls-28" d="M1361.26,88.56l1.3.9s.5-1.8-.2-2.7a7,7,0,0,0-3.3-2.4c-1.1-.2-3.5-.1-4.2,1.3l-.7,1.4,1.9-1.3,2.5-.1,2.1,1.2Z"/><path class="cls-28" d="M1339.66,156.56l-.7,3.2s.2,1.5,1.3,1.7a1.41,1.41,0,0,0,1.6-.5l-.4,1.5a1.76,1.76,0,0,0,1.3,1,2,2,0,0,0,1.6-.3l.5-2.3a2.88,2.88,0,0,0,1.7,1.2,2.85,2.85,0,0,0,1.9-.3l-.2,1.1a1.45,1.45,0,0,0,1.1.9,2.88,2.88,0,0,0,1.8-.3l.4-1.7a2.12,2.12,0,0,0,1.5,1,1.66,1.66,0,0,0,1.7-.4l.9-3.9Z"/><path class="cls-10" d="M1334.76,296.56c4.3-23.2,10.6-33.4,10.6-33.4s-3.5-10.9-1.5-26.2,12.2-27.9,12.2-27.9"/></g><g id="Road_Middle" data-name="Road Middle"><path class="cls-11" d="M1561.86,248.86c0,50.1-506.6,57.8-722.9,60.7-342.3,4.6-433.1,6.2-851.9,50.4v-33.1s295.4-35.7,723.1-39.4c534.2-4.7,810.8-14.2,810.8-37.2Z"/><path class="cls-12" d="M-6.14,342.46s294.1-39.6,720-43.3c531.9-4.7,826.4-16.8,826.4-49.5"/></g><g id="Busmore"><g id="Layer_3" data-name="Layer 3"><path class="cls-30" d="M618.5,499.46s-12,10.8-19,14.3-21.7,13.8-23,20.7-14.1,9.6-14.1,20.9,39.3,104.2,39.3,104.2l-39.3,150,4.4,180.7h985.4l-18.7-190.2L1200,542l-157.1-146.3-177.7-62.8Z"/><path class="cls-30" d="M792.16,332.86s-19.1-.3-31.1,3.3-23.1,12.2-34.8,16.6-27.8,6.6-39.6,11.6-41.8,23.8-42.2,32.7,51.1,32.3,51.1,32.3l137,12.9Z"/><path class="cls-31" d="M904.76,261.36s11.7,6.2,18.9,6.6,7.1,11.2,9.1,16.4,6.5,7.8,11.2,14.3S887,286,887,286l1.5-19.7Z"/><path class="cls-32" d="M1021.26,551.76s-4.1,20.6,5.2,28.7,30,8,30.5,13.5-20.4,9.8-35.7,16.5-39.3,29.7-51.3,37.2-52.8,10.7-60.8,7.8.5-9.9-2.2-16.6-21.9-1.1-31.8-11.7-14.6-30.1-31.1-33.9-34.5-1.3-57.6-6.1-66.3-19.2-66.5-22.6,12.8-4.6,26.1-10.6,17.8-13.2,30.2-20.3-20.5-4.7-20.5-4.7l-53.9-17.8L669.56,443,819,420.1s-10.8-133.4-4.2-140.4c3-4,12.9-5.5,18.1-11.5,5.9-6.9,22.8-6.5,27.9-8.5,2.8-1.1,25-5.5,35.6-3.5,8.5,1.6,11.5,10.8,17.2,11.5,12.8,1.7,14.9,16.4,14.9,16.4l53.4,76.8s10.2-8.8,18.8-8.5,31.2,14.9,31.2,14.9l96.4,74.4a70.18,70.18,0,0,0,3.5,14.2c2.6,6.9,4.2,6,7.3,10.3.9,1.3,9.4,5.1,12.2,13.5,6.2,18.9,8.6,49.9,8.6,49.9Z"/><path class="cls-31" d="M841.36,513c4.3-2.6,2.9,8.8,10.1,13.6s32.3,32.3,35.4,38.8,9.5,2.2,8.9-4.6,5.8-11.1,15.3-13.1,17.3,3.3,24.5,0,3.7-21.2,10.5-22.5,20.1,8.4,16.5,22.5-33.4,44.1-34.3,49-12.9,18.5-22.1,16.7-28.4-14.9-41.6-30.9S833.66,517.76,841.36,513Z"/><path class="cls-31" d="M1014.26,360.26s-10.3,8-17.3,10.4-19.8,4.8-19.8,4.8l-22.4,95.1s34.3-1.7,43.1-20.6S1014.26,360.26,1014.26,360.26Z"/><path class="cls-33" d="M957.66,488.16s14.2-3.5,15.8-14.7-1.6-24,0-37.2,10.3-19.6,9.1-29.9-4.5-14.5-16.3-13.4S957.66,488.16,957.66,488.16Z"/><path class="cls-31" d="M805,502.76c3.1,5.7-15.1,36.7-28.7,37.2s-22.7-7.7-47.7-10.5-30.1-13.4-46-13.6-36.7-1.6-41-8.8-23.1-7.5-23.1-7.5,8.2-17.9,6.9-34,16.5-31.8,17.6-43,1.6-25.3,1.6-25.3,21.6,15,34.1,16.5,39.1-11.3,46.4-5.7c.4.3,5.2-8.4,10.5-22.2,1.9-4.8,11.4-20.2,11.4-32,0-6.8,9.9,8,16.3,6.2,8.2-2.3,8.4-16.3,10.3-16.2,3.9.2,5,17,5,17.3-.1,6.3-57.5,69.2-62.5,82.3-5.1,13.3-10,27.6-9.3,37.6,1.5,22.7,18.1,36.1,31.5,34.8s10.5,6.4,16.6,6,11-9.6,21.5-13.4C786.76,504.46,800.06,493.86,805,502.76Z"/><path class="cls-31" d="M1139.16,470.66s-7.9,8.1-7,13-4.9,10-3.6,14.8-.1,19.1-.2,23.4,6.7,32.1,6.7,32.1l15.9-19.2v-60.3Z"/><path class="cls-32" d="M1142.26,619.56a102.31,102.31,0,0,0,11.5,40c10.7,19.8,18.4,28.5,22.7,31.6s35.1,13.9,45.6,14.2,19,165.3,21.2,158.5c1.1-3.2,227.4-43.6,290.1-63.8,69.6-22.4,18.7-82.6,18.7-82.6s-356.2-238.6-360.5-246.9-12.9-4-29.6-4.6-24.4-1.9-24.4,7.3,7.2,5.5,9.5,8.6C1149.56,485.16,1142.26,619.56,1142.26,619.56Z"/><path class="cls-31" d="M1254.36,515.76s33.7-4.4,42-9.7,23.1-13.5,36.4-13.8,31.5,151.7,31.5,151.7-4.8,27.9-11.2,37.6-25.7,22.3-36.4,20-16.8,3.9-20.2,2.4,7.2-9,5.8-15.6-26.8,3.1-23.3,9.5,9.2,5.4,8.2,9.9-30.9-.5-39.7-6.7-6.1-14.2-11.2-17.8-33.3-.7-45-5.8,5.3,1.2,13.2-2.8,14.3,3.3,20.1,0,10.5-7.6,13.6-18.5,21.2-14.5,28.3-17.8,18.5-12.6,17.8-15.8S1254.36,515.76,1254.36,515.76Z"/><path class="cls-31" d="M1485.16,462.06s86.6-27.6,88.9-30.3,2.2-7.2,9.1-6.7,13.8,15.7,20.7,37,10.3,47.5,15.8,61.7,5.5,29,14.6,48.4,17.3,216.9,13.5,277.7-16.1,164.1-16.1,164.1l-150.3,8.3s14.3-174.9,9.5-180.8-26.9-4.5-36.4,0-44.4,2.8-56.1-3-13.6-26.9-24.9-34.6-60.2-1.4-67.1-8.8,19.3-23.1,32.5-21.4,39.7,2.2,49.3-2,14.4-22.6,21.6-22.4,25.5,1.2,27.1,10.5,10.9,18.3,27.4,16.1,26.9-16.1,32.7-16.1,12.4,10.4,25.4,13,29.4-18.8,26.7-34.7-24.9-18.8-39.8-14.5-22.5,17.1-36.9,15.7-38.7-3.2-42-2.4-9.9-.4-9.9-.4,9.7-8,20.4-6,23.6-.9,28.9-.8,19.2-1.2,18.8-4-5.2-3.7-8.5-3.7-12.7-3-23.1-2.1-18.2,2.3-24.5,1.3-12.6.9-15.2.6-7.2-1.7-11.7-2-12.6.2-13.2-1.9,8.2-5.4,14.5-6.9,14-7.6,14-7.6Z"/><path class="cls-30" d="M1446.5,444.46s21.7,1.2,25.6-1,7.6-4.3,13.3-4.6,10.9,7.3,18.5,7.6,19.8-5.1,22.9-8.6,10.4-5.2,15.4-6,13.1,6.4,18.6,2.8,12.1-7,16.2-7.6,7.6-.5,8.8,2.9-3.4,17-1.7,26,6.4,16.3,6.9,22.1-2.6,12.1-6.5,12.8-7.8,2.2-7.4,4.4c0,0,10-1.7,14-.7s3.2,2.4,3.2,2.4-1.9,4.1-.9,7.8,1.3,9.2-.7,12.1-5.4,3.3-9.4,3.2-9.1,3.7-14.3,3.5-14.9,3.6-25.9,2-15.6-5.7-17.7-11.2,17.5-5.5,18.8-9.8-6.9-15.3-6.9-15.3l-79-3.4-28-34.4Z"/><path class="cls-30" d="M1591.06,551.36s-.5-8.4,3.2-12.7,6.9-.9,6.3-5.4-6.5-2.8-8-5.2-3.8-4.6-6.1-4.6-8.3,2.9-14.6,4.6-22.5,3.3-25.9,3-8.6.8-8.5,2.4,4.6,10.6,13.3,14.4,18.1,3.7,21.3,4.2,6.8,2.6,11.2,1.8A28.78,28.78,0,0,0,1591.06,551.36Z"/><path class="cls-30" d="M1592.5,563.46s-3.2-3-6.9-3.3-13.7-.3-17.9,1.3-9.7,1.5-10.3,2.1-3,2.8-.5,5.4,9,1.7,15.7,1.6,10.3-.1,10.9,1,3.1,2.6,4.8.6S1594.66,565.16,1592.5,563.46Z"/><path class="cls-30" d="M1506.66,540.86s17.4.9,25.4,11.4,1.4,14.4,5.5,20.8,19.1,12.2,24.9,19.2,13.4,5.3,13,11.4-12.3,4.3-20.9,5.9a43.18,43.18,0,0,0-13.5,4.6,174.27,174.27,0,0,1,21.3-1.1c9.2.3,12.1,2.1,14.1,12.3s-3.1,13.2,0,19.7,13.2,9.4,15,16.7-21.9,12.9-30.7,7.6-6.5-10.9-11.7-15.2-14.7-7.4-16.3-4,.4,17.3-8.3,20-40.9-16.7-40.9-16.7Z"/><path class="cls-33" d="M1122.66,584.56c-4.4-.8-5.7-4.9-7.5-7.9-3.5-5.8-8.5-8.4-14.8-9.2-12-1.5-24.1-2.3-35.7-6.1-3.3-1.1-6.6-2.5-10.1-3.3-3-.7-2.3-3.2-3.2-5.2-8,.1-14.9-4.6-22.9-5.3-2-2.4-.6-3.6,1.7-4.2,2.9-.7,5.9-.6,8.8-1.7,5.1.7,10.3.5,15.1,3,10.4,1.5,20.6,4,31.3,2.3,11.5-1.8,17.5-7.6,18.4-19.3.4-5.8,0-11.6.6-17.4.4-3.9,1.3-7.1,6.2-6.7,2,0,4,.6,5.9-.2,1.6-1.6-.7-2.6-.5-4.3,5.7-2.3,9.7,1.4,14,4.1a2.55,2.55,0,0,1,2.1-.3c4,5.3,5.2,18.7,2.3,28.3,2.7,1.3,6.6-1,8.6,2.6,1.7,3,.2,5.9.2,8.9-2.6,6.9-3.3,14.3-5.4,21.2C1135.26,572.06,1132.16,581.06,1122.66,584.56Z"/><path class="cls-31" d="M562.26,555.36s25-2,30.3,2.7.8,7.7,8.1,14,26,1.3,29.4,3.8,8.9,21.9,2.3,25.1-26-2.5-23,7.6,31.2-3.7,53.8-1,38.2,12.8,59.3,19,47.5,15.6,47.5,15.6-26.5.3-47.5-4.3-42.4-12.5-41.6-7.5,75.7,24.4,89.8,25.8,4.7,21.4.5,30.9-12,10.6-27.6,9.8-60.6-20.1-85.1-16.9-1.6,9,15.6,12.4,87.9,10.1,89.5,16.2-29.8,135.1-29.8,135.1l-171.5-34Z"/><path class="cls-31" d="M636.06,508.66s-2.2,9.5-6.3,14.9-13.4,3.9-17,5.6-8.4,12.1-13.3,15.2-16.3,7.2-16.7,5.7,11.2-7.8,12-12.7,10.6-5.3,12.4-10.1,13.8-8.2,15.9-11.5S634.16,502,636.06,508.66Z"/><path class="cls-31" d="M710,574.36a148.91,148.91,0,0,1,25.4,4.7c11.7,3.5,21,8.7,22.1,12s-11,22.4-3.9,29.7-9.1,3.8-15.2,0-7.2-17-14.5-21.1-19.4,5.5-27.3,5.5-27.3-.7-28.4-5.5,27.3-6.2,33.8-10.3C708.66,585.36,703.26,573.56,710,574.36Z"/><path class="cls-31" d="M812.5,816.46c-1.6,5.4-5.1,8.4-3.8,12.4s0,0-.3,4.4,35,3.8,39.7,12.4,10.7,22.3,27.1,29.7,27.5-2.4,46.5,0,28.8,16.7,41.6,22.5,39.7,2.1,49.5,8.9-4.4,18.7-15,16.5S965,908.86,940.6,908s-63.5-2.6-60.7,5.3,64.2,1.7,72.5,10.2,1.1,17,7,26.4,34.7,25.5,58,18.6,52.4-6.2,63.9,3.6,43.2,31.7,97.7,31.3,101.9-11,118.8-37.8,10.6-52.1,17.5-65.2,26.3-29.8,23.2-46.2-26.8-28-51.4-22-43.8-27.1-45.4-39.5,6.7-53.2,12.2-59.8,20.6-1.6,20.6-6.9-7.5-12.8-20.6-13.9-33.3-9.3-41.5-9.7-35.3-11.8-43.2-5.3,1.6,8.3-2.4,13.9-12,1.2-11.4,7.1,20.3,4.6,24.3,16,1.2,22.2-8.9,22.5-18.5-5-25.6.5-9.2,8-4.4,12.2,18.9,6.5,19.8,9.9-12.7,6.2-12.7,6.2,27.2.2,26.5,11.2-32,.1-35.1,3.6,20.7,15.2,20.7,15.2,14.6,23.4-21.6,24.3-22.5-21.6-17-25.4-5.9-7.5-11.8-7.6-12.3,7.2-14.8,11.2-16.7,19.4-22.8,20.2-9.8-18.4-17.7-21.9-10.6-14-14.4-14.3-15.8,8.3-32.8,6.9-48.5-12.4-53.6-15.5-20.7-29.8-14.6-34.7,5.6-8.7,2.3-10.3-11.1-1-10.9,7.3-8.6,17.2-19.2,23.3-30.6,8.5-41,13-15.6,19.7-15.8,24.2-18,3.5-21.5,1.1S814.06,811,812.5,816.46Z"/><path class="cls-31" d="M759.76,794.36c4.6,2.8,26.3,8.5,41.2,8.9s32,2.3,32.8-1.3-5.8-4.1-9.9-4.1-11.7-3-13.2-13.7,41.3-1,48.2-2.8,8.9-15.5-8.6-17.2-17.9,3.5-25.9,3.3-20.5-11.4-19.5-17.5,5-11,14-11.4,20-2,19.2-6.8-11.4-10.3-18.3-10.3-19.3,4.2-27.9,2.2-17.5-7-22-4.5-6.1,35.2-7.1,42.1S752.16,789.76,759.76,794.36Z"/><path class="cls-31" d="M767.66,704.26s.8-7.4,2.5-11.3,5.9-2.9,8.1-7.8,4.8-18.1,10.7-20.1,9.8-8.6,11.6-13.4.9-8,3-10.3,13.4-5.8,15.9-9.2,6.8-10.6,10.2-14.6,10.6-7,14.4-7.3,12.7,2.6,16.6,6.7,14.2,7.1,14.5,10.9-2.5,5.8-8.7,5.4-8.9-7.9-18.8-8.5,14.7,11.4,13.2,17.1-12.8,18.7-18.4,19.2-21.5-5.6-28-3.7,9.2,4.7,10.2,10.1-18.5,7.5-26.1,13.3-12.4,21.1-19.3,23.6S767.66,704.26,767.66,704.26Z"/><path class="cls-31" d="M791.76,708.16a42.7,42.7,0,0,1,8.6-12.5c5.9-5.9,15.6-8.4,19.8-11.5s20.4-17.2,28.5-18.5,8.3,1.3,11.6-1.7,2.9-3.6,9.5-2.2,27.7,1.9,29.2,3.9-4.7,2.6-4.7,4,10.6,3.6,9.9,6.9-15.4-3-19.7-.8,9.1,11.1,17.3,13.4,32.4,11.7,32.4,14.4-1.7,4.3-8.8,4.5-41.1-17.3-52.3-16.4-12.3,3-10.1,7.1,22,7.7,24.1,12-11.9,3.5-19.5,2.3-26.2-9.5-32.5-7.9,15.5,7.1,16.6,11.1-12,3.9-20.5,2.5-21.8-8.3-25.2-8S796.16,715.46,791.76,708.16Z"/></g><path class="cls-34" d="M1276.56,551.26s5.9-.2,6.4-1.2-1.7-8.1-.2-9.3,7,0,7.2,1.2,1.4,9.8.1,11.5-6,2.1-7,1.1.4-2.4-.5-2.6-5.5.7-5.5.7Z"/><path class="cls-35" d="M1273.56,486.56s7.9,7.6,10,21.4-2.8,19.4-.4,25.9,6.9,2.3,9.2,6,1.4,18.3-.6,24,4.6,20.9,4.1,26.3,3.7,27.9-4.6,36.2-15.7-1.8-45.2,1.6-46.6,3.3-51.9,8-29.1,1.6-36.6-2-25.3-16.9-25.3-16.9Z"/><path class="cls-36" d="M1184.56,632.36c6.9-1,7.8-7.6,9.7-10.6s84.6-3.8,87.1-6.5,1-26.4,1.4-28.6,3.5-4.5,4.2-6.5.1-2.9-2.1-5-.9-8.6-3.2-11.2-2.2-21.1-3.1-34.5.5-24.1,0-30.9-2.9-10-4.8-12-2.6-4.9-3.7-6.5-7.3-3.2-9.6-4.9-4-4.6-4.7-5.5-14.9-5.2-18.7-6.1-7.3-2-9.6.4-14,0-14,0-21.1,3.6-31.3,6.2-30.9,8.7-34.7,12.1-7.2,16.2-7.2,16.2c-1.7,11.1-5.5,67.5-10,72.6-9.4,10.6-11.1,22-3.6,27.7,5.8,4.4,2.4,14.7,5.8,18.5,1.9,2.1,26.1,11.3,32.1,13.4Z"/><path class="cls-37" d="M1192.26,488.36c3.2-2.2,8.2-2.7,8.2-2.7s21.5,3.3,36.7,7,32,6.9,34.1,9.5,3,18.1,5.2,24.9,4.1,15.2,4.3,21.7-.4,10.5-5.3,11.8-19.6-4.9-31-5-43.1,2.1-51.1,2-10.1-11.9-10.1-14.5C1183.36,540.66,1186.76,492.16,1192.26,488.36Z"/><path d="M1183.36,543.16s5.2-21.4,5.8-35.5,2.6-17.5,5.3-18.3,16.7-.4,25.9,1,19.7,5.9,26.9,7.1,19.5,5.7,21.5,9.2,4.2,12.1,6.1,12.4.9-14.2-1.5-17.3-7.6-4.8-11.3-5.6-5.8-.8-24.6-4.4-30.1-7.8-36.4-8-11.6,4-12.7,8.3-5.7,28.8-5.3,32.4S1181.16,540.86,1183.36,543.16Z"/><path class="cls-38" d="M1172.16,571c-2,1.4-2.3,10.2-1,12.5s21.4,2.8,23.6,2.4,3.6-3.8,3.6-6.8-2.5-6.5-4.3-7.2S1174.76,569.06,1172.16,571Z"/><path class="cls-38" d="M1200.76,578.76c-.1,4.2,1.1,9,8.6,10.7s12.4-1.1,13.9-2.4,2.7-3.6,6.9-3.5,14.6,2,17.6,1.8,6.9-2.5,11.3-2.2,5.6,3,8.5,5,10.6-.2,12.4-2.5,5.8-1.5,7.2-3.6,1.4-6.7-1-7.7-3.3-.5-6.5-2.6-11.8-2.4-13.7-.9-2.3,2.3-6.6,2.3-8.1-3.6-13.4-3.6-5.4,2.6-12.9,2.5-11.9-2.9-16.4-3.6S1201,568.26,1200.76,578.76Z"/><path class="cls-39" d="M1187.86,578.76c-.4,2.7,1,4.2,3.1,4.4a4.12,4.12,0,0,0,4.4-3.82h0v-.08a4.43,4.43,0,0,0-3.7-4.9C1189.5,574.06,1188.36,576.06,1187.86,578.76Z"/><path d="M1240.26,582.16c.4,1.2,3.2-8.2,3.7-8.7s4,.4,4.5.7.9,2.5,1.6,2.5.3-3.7-.8-4.3-5.7-2.3-6.3-1C1242.16,572.66,1239.56,579.66,1240.26,582.16Z"/><path class="cls-35" d="M1283.86,576.36s2-.5,2,2.4-.9,3.6-1.8,3.8-2.1-1.3-2-2.9S1282,576.56,1283.86,576.36Z"/><path d="M1213,579.76c.7.1-.4-6.5-4.8-6.4s-5.2,6.5-4.8,7.4,4.1,5,4.5,4.4-3.1-3.6-3.3-6.4,3.7-5.3,5.3-3.2S1211.66,579.56,1213,579.76Z"/><path d="M1223.26,579.56c.7.1-1.4-5.2-4.7-5.6s-4.4,3-4.4,6.3,3.2,5.8,4.3,5.6-2.6-1.3-3-4,.2-6.4,1.3-6.5,3.2.1,4,1.6S1221.76,579.36,1223.26,579.56Z"/><path d="M1272.86,579.46c1.1.5-.8-3.7-2-4.3s-6,.8-5.3,4.4,1.8,4.9,2.8,5.1,1.5.3.9-.8-3.5-2.7-2.3-6.3S1270.36,578.26,1272.86,579.46Z"/><path d="M1280.16,579.56s-.1-5.2-2.8-5.1-3.4,3.4-3.3,5.5,1.1,4.5,2.8,4.4.4-2-.2-2.2-2.3-3.8-1.3-4.9,2.5-1.6,3.1-.1S1278.16,579.36,1280.16,579.56Z"/><path class="cls-34" d="M1179.76,616.16s-.2,10.3,1.8,10.8a97.3,97.3,0,0,0,16.6,1.4c5.9-.1,36.9-4.1,44.4-4.8s38.4-3.5,40.9-4.3,4.8-5.1,4.9-10.6,1.1-6.4-2.3-6.9-8.9,2.9-23.6,3.9-65.4,3.3-69.8,3-6.8-3.7-8.7-2.4C1182.16,607.76,1179.76,612.56,1179.76,616.16Z"/><path d="M1171.76,499.66s-1.3-4.3-5.4-3.2-4.9,4.6-5.4,6.9-1.9,38.3-1.9,38.3-.6,5.7,1,8.2a4.33,4.33,0,0,0,4.6,1.7c1.2-1.9,2.3-1.8-.8-2.5s-2.7-2.4-2.8-4.4,1.7-39.7,1.7-39.7.4-4.7,4.3-5.9S1171.76,499.66,1171.76,499.66Z"/><path d="M1156.56,503.46s-.7-4.1-5.2-2.5-4.4,6.6-4.4,6.6l-1.4,36.4a6.76,6.76,0,0,0,2.7,6.4c3.4,2.3.6-3.6.2-9s.6-33.6.6-33.6.2-4,3.6-4.9S1156.56,503.46,1156.56,503.46Z"/><path d="M1168.06,569.46a4.75,4.75,0,0,0-5.5-3.6c-4.5.7-4.6,2.8-5,5.2s-1.5,30.8-1.5,30.8a7.64,7.64,0,0,0,1.9,5.4c2.1,2.1,2.8-2.4,1.9-3.5s-1.5-2.8-.7-17.3,0-18,4-18.4S1168.06,569.46,1168.06,569.46Z"/><path d="M1153.16,568.06a5.71,5.71,0,0,0-5.5-3.6c-4.3,0-4,10.9-4.5,18.6s-1.7,16.8.1,19.2,2.6-2.2,2.3-3.9a137.37,137.37,0,0,1-.5-17.8c.3-6.5,1-13.3,3.9-13.3A8.56,8.56,0,0,1,1153.16,568.06Z"/><path class="cls-34" d="M1171.76,499.66s4.1-4.3,6.7-3.1,1.5,4.4,1.5,4.4,3.9,1.7,4,7.7-4.4,7.4-7.3,7.7-7.5-4.2-7.6-7.6.8-6.2,3.2-6.9S1169.56,501.56,1171.76,499.66Z"/><path d="M1268.76,485.66s1.3-2.5.6-3.5-15.2-7-27.5-9.9-27.9-5.1-27.9-5.1a3.83,3.83,0,0,0-2.1.6c-.7.6-4.4,9.6-4.6,10.7s-.9,2.9.4,3.3,1.3-4.1,2.8-8.3,1.8-4.2,3.1-4.6,16.1,3.7,23.4,4.3,13.7,4.2,17.5,5.1,12.3,3.1,12.7,4.4S1266.76,485,1268.76,485.66Z"/><polygon class="cls-36" points="1111.06 502.66 1111.06 460.06 1112.86 460.06 1112.86 454.26 1112.86 449.96 1092.06 449.26 1062.66 448.56 1064.86 490.86 1100.36 494.46 1107.46 501.76 1111.06 502.66"/><path class="cls-35" d="M1131.56,445.06s-8.4,2.7-12,4.9-5.9,6.2-7.2,6.1,1.6-4.6-3.3-5.5-35.9-1.2-38.9.7,0-11.5,0-11.5l57.9,2.2Z"/><path class="cls-35" d="M1133.16,541.56c-1.3,3.3-.3,9.9-2.5,15.2s-7.3,12.4-10.2,12.7-11.5,1.3-14.8,0-3.9-8-8.1-8-6.6,5.8-21,5-24.8-4.5-26.3-7.1-13.4-6.8-17.3-4.7-5.2,12.3-8.6,14.5-10.8,4.8-13.8,3.7-10.1-6.9-10.1-10.2v-16.5l10.1-12.2s116.94-26,120.94-22C1137.66,518,1134.36,538.26,1133.16,541.56Z"/><path class="cls-36" d="M1021.06,344.56a25.74,25.74,0,0,0-8,6.9c-3.3,4.5-8,17.5-10,21.7s-15.8,36.8-15.8,36.8-3.9,21.7-4.1,27.5-1.5,77.3-1.5,77.3l2.6,5,.4,8.9h3s4.1,9.7,5.4,11,5,5.2,5,5.2.3,9.8,2.4,14.3c5.6,12.3,5.6,12.3,17.5,11,8.6-.9,6-28.6,6-28.6Z"/><path class="cls-36" d="M1129,535.16s2.2,10.2,0,18.6-5,10.8-7.6,12.6-14.1,1.7-15.2,0-5.1-11-6-21.2S1129,535.16,1129,535.16Z"/><path d="M1068,458.66l35,1.1s2.7,0,3.5,1,1.1,21.8,0,21.9-.5-14.8-.8-17.3-.1-3.5-.9-4.1-36-1.3-36-1.3Z"/><path class="cls-37" d="M1131.56,445.06s-3.5-82.3-14.3-90.5-38.1-12.1-48.5-13-41.2-2.2-47.7,3-8.5,94.9-8.5,94.9l-1.6,96.2s-2.1,4.3,3.8,8.2,44.6,10.8,44.6,10.8v4.5h32.3l.2-5.7s14.5-.4,15.6-2.2.6-4.9.6-4.9,20.3-5.5,22.5-7.5,1.9-16.6-.4-22.4-6.2-11.6-11.4-13.5a60.75,60.75,0,0,0-7.7-2.4l-2.8-.3s-1.7-5.4-4.5-8-3.2-1.5-3.2-1.5-11.7-1.2-18.2-1.5-12-.4-12-.4l-.2-39.3a9.26,9.26,0,0,1,1.3-4,4,4,0,0,1,2.3-1.7Z"/><path d="M1017.36,485.76v-37.9s.1-2.8,1.2-3.7a6,6,0,0,1,3-1l41.2,1.2s2.5.3,3.3,1.4,1.4,13.9,1.3,23.4-.4-20.6-1.7-22.1-2.2-2-21.5-2.3-22.1-1-23.8.3-1.2,33.6-1.6,36A23.31,23.31,0,0,1,1017.36,485.76Z"/><path d="M1033.06,529.06c1.2,1,1.9-5.3,1-6.9s-4.2-3.5-7.7-3.2-7.1,4.3-7.1,6.5-.1,6.4,2.7,8.1,5,1.6,4.9.6-4.4-1.4-5.4-4a6.74,6.74,0,0,1,2-7.7c2.5-1.9,6.9-1.7,8.1.6S1031.56,528,1033.06,529.06Z"/><path d="M1125.86,527.66c-1,.3,1-4.9-2.9-5.9-3.3-.9-5.5-.3-6.5,2.3s-2,4.6,0,6.5,4.3,1.7,4.2,2.9-5.7-.6-6.7-3.9.3-8.9,3.8-10.6,8.4,1.8,9.1,3.6S1127.36,527.26,1125.86,527.66Z"/><path class="cls-40" d="M1048.76,549.16V519a2.23,2.23,0,0,1,1.2-2.4,5,5,0,0,1,2.7-1.2h16.9s2.6-.1,4.5,3.1,1,5.8,2.6,6.3,2-5.5,3.5-7.5a4.43,4.43,0,0,1,3.6-1.9h17.8s2,.6,2.5,1.7,1.3,28.9-.9,31.2-5.6-3.3-9.1-4-19.3,2.9-27.3,3.6-13-6.9-15.4-6.8C1048.76,541.26,1051.26,547.86,1048.76,549.16Z"/><path class="cls-41" d="M1061.36,556.56c.9.6,0-5.2,0-5.2h27.9v5.2s-4.1-2.8-8.4-2.6-8.4,2.5-10.6,2.6A82.57,82.57,0,0,1,1061.36,556.56Z"/><path d="M1065.5,474.56l-45.3-1.1s3.2,1.5,10.8,2.2,9.1-.4,16,0S1065.5,474.56,1065.5,474.56Z"/><path d="M1021.26,355.86l99.3,7.8s-4.7,1.5-13.4.9-24.1-2.9-41-4.2C1049.26,358.86,1030.86,357.66,1021.26,355.86Z"/><path d="M1022.26,383l-.9-21.7a3.61,3.61,0,0,1,1.6-2.3c1.3-.7,5.5-.7,5.5-.7l38.1,3.3a5.48,5.48,0,0,1,3.2,1.3c1.2,1.2,1.1,3.6,1.1,3.6s.7,8.8,0,9,0-8.2-1.3-10.8-5.6-2.3-10.2-2.2-19.4-2.6-27.9-3-8.5.9-8.8,2S1023.86,381.86,1022.26,383Z"/><path d="M1077.06,387.56c1.5,1.4-1.2-8.1-1.4-14.4s.1-8.3,1-8.5,39.3,2.7,40.8,3.4,2,3,2.5,5.8-1,9,0,10,1.2-11.6.1-14-.8-3-5.4-3.5-35.4-3.3-35.4-3.3-3.9-.4-4.3.9C1074.36,365.16,1074.76,385.46,1077.06,387.56Z"/><path d="M1046.36,416.16a41.93,41.93,0,0,1,8.2-.9c3.6.1,8.7,2.2,20.1,2.5s21.7-.6,23.5,0,1.9,2.7,3.5,2.3,2.8-2.2,0-3.6-14.3-.1-26.8-.6-18.6-2.2-22.5-2.2a38.78,38.78,0,0,0-7.2.7Z"/><path d="M1101.16,397.26s-11.8.1-20.2,0-12.8-2.3-13.7-1,1.2,8.5.7,11.7-1.7,3.3-2.5,2.7-.9-9.8-.8-12.4a4,4,0,0,1,2.2-3.5l19.9.1Z"/><path d="M1045.16,421V396.9s.4-2.6,1.1-3a18.78,18.78,0,0,1,3.6-.9c.9-.1,48.7,2.6,48.7,2.6s2.5.9,2.7,1.7.9,5.1,0,4.9,0-4-2.2-5.3-49.9-2.8-51.1-2.3c-2.5.9-2.1,10.7-1.7,18.5S1046.66,420.46,1045.16,421Z"/><path d="M1123.76,436.86c2.8.6,8,.7,6.2,2.9s-5.3,2-10.7,1.8-30.9-1.8-44.6-2.3-35.2,1.4-42.3.5-14.2-.9-15-4.2,7.4-2.4,11.3-1.5,29.5,1.5,34,1.1,39.3,0,44.4.4Z"/><path class="cls-35" d="M722.36,491.06l52.7-20.5,1.1,4.7s-2.7,15.5-13.6,22.4c-9.7,6.2-24.6,4.9-31.5,2.5C724.66,497.86,722.36,491.06,722.36,491.06Z"/><path class="cls-35" d="M789.66,303.06l-1.4,9.6s-2.9-.8-3.3,3.7,2.2,3.6,2.2,3.6l-.5,3.6s-6.6-1.5-7.9.2-2.7,6.2-3.4,14.5.1,14.2,2.3,15.3a8.38,8.38,0,0,0,4.6.7l-.9,5.9,92.4,9.6,66.3,2.7,11.3-7.5,7.8-24.8-6.5-34.9-157.3-5.1Z"/><polygon class="cls-37" points="749.76 372.36 778.56 361.06 834.66 361.86 906.16 372.26 852.56 390.76 749.76 372.36"/><path class="cls-34" d="M758,496.46c6-3,16.9-14.9,19.7-38.7s-12.3-21.6-26.9-22.3-31.4-29.7-35.9,13.1,8.2,44.1,13,47.6S752,499.46,758,496.46Z"/><path class="cls-37" d="M795.5,308.86c1.8-.8,158.1,4.5,160.1,6.9s-3.3,58.3-5.5,59.6-160.2-11.3-163.5-15.5S791.5,310.66,795.5,308.86Z"/><path class="cls-35" d="M753.56,440.06s-1.2-8.4-7.6-7.7-11,12.3-12.1,27.4,2.4,23,4.6,25.7-2.6-15.1-1.8-25.3,4.8-22.7,9.1-24.8S749.86,439.16,753.56,440.06Z"/><path class="cls-35" d="M712.06,412.36s-5.4,5.9-5.4,17.8,1.2,13.5,2.7,15.1,41.3,6.7,47,13.5,13.2,15,20.8,20.6,12.4,1.7,38.1,5.8,53.5,6.3,55.5,4.9c1-.7-6.6,23.2,4.6,32.3s35.1,7.1,37.2,4.7c7.3-8.4,11.1-21,11.1-21l8.4-3.9,9.5-51.7L926,410.86l-200.8-3Z"/><path class="cls-36" d="M789.76,299.06s3-10.1,14.8-17.3,53.3-10.1,72.1-9.5,41.6,3.4,60.3,12,20.9,22.5,20.9,22.5-.4,2.4,2.5,5.8,14.6,8.9,21.1,15,9.2,11.6,10.3,22.3S990,373,990,373l-14.1,34.1-8.2,65.7-5.2,28.7-30.6.8s4.2-33.7,1.2-60.8-16.3-23-23.2-18.5-3.7,6.2-8.5,10-73.4-3.7-124.4-9.7-65-10.9-65-10.9,3.6-15.2,12.6-19.2,15.8-2.9,15.8-2.9,3.2-15,9.3-17.8,39.8-.3,56.1,1.7,27.2,4,27.2,4,64.3-3.2,63.9-5.4-27.9-5.5-51.4-7.9-66.1.2-67-3.8,84.4,2.9,97.2,3.7,60.2,9.5,69.7,2.1,10.7-49.3,5.9-54.5-51.8-5.5-87-6.4c-30.9-.8-62.3-1.2-71.9-2.3-1.4-.2-9.3,59.2-9.7,59-1.1-.5-7.7-.8-9.2-9.8-1.9-11.7,2.3-33.4,9.6-40.2C787.5,308.76,789.76,299.06,789.76,299.06Z"/><path class="cls-34" d="M706.5,423.86c3.3,4.1,38.2,3.7,83.6,8.9s81.7,13.3,83.6,12.2,2-5,1-6.9-64.9-8.4-90.2-11.4-57.2-8-63.5-9.3-8.6-4.1-11.5-2.9S704.76,421.86,706.5,423.86Z"/><path class="cls-34" d="M908.76,524.76c6-3,13.5-15.6,16.3-39.3s-1.7-48.3-16.3-49-34.2-1.1-38.7,41.7,3.9,43,8.6,46.5S902.66,527.76,908.76,524.76Z"/><path class="cls-35" d="M917.26,461.86s-1.2-8.4-7.6-7.7-11,12.3-12.1,27.4,2.4,23,4.6,25.7-2.6-15.1-1.8-25.3,4.8-22.7,9.1-24.8S913.5,461,917.26,461.86Z"/><path class="cls-42" d="M862.36,283.66c-.4-1.6-1.4-3.1-3.2-2.8s-2.1,2-2,3.5c.2,2.9.5,5.9.8,8.8a5.66,5.66,0,0,0,.8,2.5,2.56,2.56,0,0,0,2.7,1.4c1.2-.2,1.6-1.1,1.8-2.2.4-1.9-.1-3.8-.2-6C862.86,287.26,862.76,285.46,862.36,283.66Zm-.7,10c0,.5,0,1.2-.7,1.3s-1.1-.6-1.1-1.2c-.4-3.2-.7-6.4-1-9.6-.1-.6,0-1.4.8-1.4s1,.7,1,1.3c.2,1.6.3,3.3.4,4.9h.3c.1,1.6.2,3.1.3,4.7Z"/><path class="cls-42" d="M851.16,288.36c-.2-2.2-.3-4.4-.5-6.6,0-.5-.3-1.2.6-1.2.7,0,1,.3,1,1,.1,1.5.3,3,.4,4.5.1.8.4,1.3,1.3,1.2,1.1,0,.7-.8.6-1.4l-.3-3.9c0-.5-.2-1.2.6-1.3s1,.3,1,1c.4,4.5.9,9,1.3,13.5,0,.6.2,1.3-.8,1.3s-.9-.7-.9-1.3c-.1-1.6-.3-3.1-.4-4.7-.1-.7-.3-1.2-1.1-1.2-1.1,0-.7.8-.7,1.3.1,1.3.3,2.6.3,3.9,0,.6.7,1.7-.6,1.8s-1.1-1-1.1-1.8c-.2-2.1-.3-4.2-.5-6.4C851.36,288.36,851.26,288.36,851.16,288.36Z"/><path class="cls-42" d="M864.66,295.26c.5,1.3,1.3,2.2,2.7,2.1s2-1.3,2.1-2.6a44,44,0,0,0-.7-8.8,8.22,8.22,0,0,0-.7-3c-.6-1.2-1.5-2.1-2.9-1.9s-1.8,1.4-1.9,2.6a23.55,23.55,0,0,0,.4,5.3C864.16,291.06,864,293.26,864.66,295.26Zm.6-11c0-.5,0-1,.6-1.2s1,.4,1.1,1c.4,3.3.7,6.6,1,10,0,.5-.1,1.2-.8,1.3s-1-.5-1-1.1c-.2-1.7-.3-3.4-.4-5.1h-.2c-.06-1.7-.2-3.3-.3-4.9Z"/><path class="cls-42" d="M878.76,289.76c.2,2,.3,4.1.4,6.1.1,1.1.3,1.8,1.6,1.8s2.7.2,3-1.6a9.08,9.08,0,0,0-.5-5.4,3.38,3.38,0,0,1-.2-2.4,7.93,7.93,0,0,0-.7-5c-.8-1.6-2.4-1.5-3.8-1.2s-.5,1.5-.5,2.2c.1,1.8.2,3.7.4,5.5a.2.2,0,0,0,.26,0h0Zm2.2,1.1c1.3-.1,1.2,1.4,1.4,2.3,0,.2.1.4,0,.6-.1.7.1,1.7-.9,1.9-1.2.1-.8-1-.9-1.7-.1-.3,0-.5-.1-1,.3-.6-.8-2,.5-2.1Zm-.7-6.6c1.2-.1,1.1,1.3,1.2,2.2s.4,2-.7,1.9c-1.5,0-.3-1.6-1-2.2C880.16,285.46,879.26,284.26,880.26,284.26Z"/><path class="cls-42" d="M889.56,289.66c.1,1.9.4,3.8.4,5.7,0,1.4-.3,2.7-2,2.9a2.4,2.4,0,0,1-2.76-2v0h0a1.61,1.61,0,0,1,0-.31c-.5-4.2-.9-8.4-1.4-12.6,0-.4-.1-.9.5-1a.87.87,0,0,1,1.07.58.86.86,0,0,1,0,.32c.1,1.7.3,3.4.5,5.1l.6,6.3c.1.6.3,1.5,1.2,1.4s.7-1,.7-1.7c-.3-3.3-.6-6.7-.8-10,0-.6-.5-1.6.5-1.7s1,1,1,1.7c.2,1.8.3,3.5.4,5.3Z"/><path class="cls-42" d="M839.86,279.86c1.9-.2,3.9,2.3,3.5,4-.1.4-.4.5-.7.6-.6,0-.8-.3-1-.8s-.3-1.8-1.3-1.4-.5,1.5-.2,2.4a15.58,15.58,0,0,0,2.7,3.5,7.46,7.46,0,0,1,1.7,5.7,2.44,2.44,0,0,1-2.34,2.53h-.46c-1.5-.2-3-2.3-2.7-3.6.1-.3.2-.5.5-.5.5,0,1,.1,1.2.6.3.8.5,1.9,1.6,1.3s.7-1.8.2-2.6a17.14,17.14,0,0,0-2.4-3.1,8.3,8.3,0,0,1-2.3-6C838,281.06,838.56,280.06,839.86,279.86Z"/><path class="cls-42" d="M846.56,287.36c.3,2,.6,4.1.9,6.1.1.6.3,1.1,1,1.1s.7-.6.7-1.1-.1-1.3.9-1.3.8.8.9,1.4c.1,1.4-.3,2.7-1.8,3a2.77,2.77,0,0,1-3.1-1.8,13.06,13.06,0,0,1-.8-4.8c-.2-2.1-.4-4.2-.5-6.3-.1-1.6.1-3.1,2.2-3.3,1.6-.2,2.8,1,3.1,2.9.1.4.3,1-.3,1.2a.88.88,0,0,1-1.2-.35.77.77,0,0,1-.1-.25c-.2-.6-.3-1.6-1.2-1.3s-.6,1.3-.6,2a13.13,13.13,0,0,0-.1,2.8Z"/><path class="cls-42" d="M891.76,286a6.77,6.77,0,0,0,2.1,3.7,8.19,8.19,0,0,1,2.3,5.5c0,1.5-.2,3.1-2.1,3.2s-2.6-1.3-3-2.8c-.1-.4-.3-1,.4-1.2a.83.83,0,0,1,1.06.48h0V295c.2.7.5,1.7,1.5,1.1s.6-1.5.3-2.2a12.37,12.37,0,0,0-2.5-3.5,8.59,8.59,0,0,1-1.9-5.3,2.48,2.48,0,0,1,1.3-2.6c.9-.5,1.7,0,2.4.6a4.72,4.72,0,0,1,1.2,3.2c0,.3-.3.4-.6.4-.8.1-.8-.6-1-1.1s-.3-1.2-1-1.1C891.66,284.76,891.76,285.46,891.76,286Z"/><path class="cls-42" d="M869.86,289.16c-.2-2-.3-4.1-.4-6.1,0-.5-.4-1.3.5-1.5s1,.7,1.1,1.4c.4,3.5.8,6.9,1.1,10.4.1,1.2.2,2.2,1.8,2,.9-.1,1.5.3,1.4,1.3s-1,.8-1.6.8c-3,.1-3,.1-3.2-2.9-.1-1.8-.3-3.5-.4-5.3A.37.37,0,0,0,869.86,289.16Z"/><path d="M823.5,288.16c1.3-.8-3.1-4.1-6.3-2.8a7.47,7.47,0,0,0-4.7,6.1c-.2,2-.5,6,2,6.7s-3.3-2.5-.4-8.5S822.16,289,823.5,288.16Z"/><path d="M810.26,287.46c1.2-1-3.2-2.3-5.5-1.2s-3.9,3.3-3.6,6.8,1.8,6,2.6,5.5-2.9-5.5-.9-8.9S808.76,288.66,810.26,287.46Z"/><path d="M923.36,290.56c1.4.5-2.4-4.3-6.6-3.3s-6.8,4.2-6.7,6.9,1.5,7.6,3.7,6.2-4.7-3.6-1.6-8.7S921.36,289.76,923.36,290.56Z"/><path d="M939,292.36c.9-.4-2.7-3.8-5.5-4s-6.8,1.7-6.9,4.7-1.4,6.1,1.1,8.4-1.7-5.8.1-9.6S937.16,293.26,939,292.36Z"/><path class="cls-42" d="M770,401.46c1.7-9,3.3-17,5.4-24.9.1-.6,1.1-1.5-.4-1.7-1-.1-2.1-.6-2.5.9a18.41,18.41,0,0,0-.6,3.2c-.7,7.2-2.6,14.1-3.7,21.2-.6,3.8-1.1,7.6-1.6,11.4-.1.7-.5,1.8.7,2s1.1-1,1.2-1.7C769.06,408.06,769.56,404.26,770,401.46Z"/><path class="cls-42" d="M816,417.26c0,.5-.4,1.1.4,1.1a1,1,0,0,0,1.26-.64v-.16c.5-1.3.9-2.6,1.4-3.9a266.73,266.73,0,0,1,13.5-31.5c.3-.5.4-.9-.2-1.1-.8-.2-1.8-.8-2.4.3s-.8,2-1.3,3c-4.5,10.4-8.8,20.9-12.4,31.7A6.11,6.11,0,0,1,816,417.26Z"/><path class="cls-42" d="M763.06,398.56a181,181,0,0,1,3.9-21.8c.1-.6,1-1.7-.4-2-1.2-.3-1.6.5-1.8,1.6-2.1,9.7-3.7,19.5-4.9,29.3-.3,2.4-.4,4.9-.7,7.4-.1.6-.2,1.3.7,1.4,1.1.2.9-.7,1-1.3C761.66,408.36,762.36,403.46,763.06,398.56Z"/><path class="cls-42" d="M767,397.36c1-5.5,2.3-12.9,4.1-20.1.2-.7,1.2-2-.4-2.3s-1.5.9-1.8,1.9c-1.6,7.8-3.3,15.7-4.5,23.6-.6,4.3-1.1,8.7-1.6,13-.1.7-.4,1.7.6,1.9,1.3.2,1-1,1.1-1.7C765.26,408.76,766,404,767,397.36Z"/><path class="cls-42" d="M811.06,418.36c0,.8-.6,1.6.5,1.8s.9-.6,1.1-1.3c2.9-8.8,6-17.6,9.6-26.1,1.5-3.7,3.2-7.3,4.7-10.9.2-.5,1.3-1.1.1-1.6-.9-.3-1.7-.4-2.2.8-1,2.6-2.1,5.1-3.1,7.6-2.4,6.3-4.8,12.5-7.1,18.8C813.36,411.16,812.16,415,811.06,418.36Z"/><path class="cls-42" d="M771.5,404.66c-.5,3.3-1,6.5-1.4,9.8-.1.6-.4,1.5.6,1.7,1.2.2,1-.8,1.1-1.5a276.63,276.63,0,0,1,7.4-35.8,4.74,4.74,0,0,1,.5-1.6c.6-1,.2-1.5-.8-1.8s-1.5.2-1.7,1.2c-1,4.7-2.1,9.4-3.1,14S772.16,400.06,771.5,404.66Z"/><path class="cls-42" d="M806.66,418.66c-.2.5-.1,1,.5,1.1s.9,0,1.1-.8a300.24,300.24,0,0,1,13.7-37.8c.2-.5,1.5-1.2,0-1.7-1.1-.4-1.7,0-2.1,1.2-1.6,4.4-3.3,8.7-4.9,13.1-3,8-5.8,16.1-8,24.4C806.86,418.36,806.76,418.46,806.66,418.66Z"/><path class="cls-42" d="M774.66,408.06c-.3,2.3-.7,4.6-1,6.9-.1.6-.4,1.5.6,1.6,1.2.2,1.1-.8,1.2-1.4a290.58,290.58,0,0,1,6.9-32.1c.3-1.3,1.6-2.6.1-4-.3-.3-.5-.9-1.1-.8-.4.1-.4.7-.5,1C778.66,388.86,776.16,398.36,774.66,408.06Z"/><path class="cls-42" d="M802.5,418.56c.1.4-.5,1,.4,1.1.6,0,1.1.1,1.3-.8a273.31,273.31,0,0,1,12.4-36.4l.9-1.8c.3-.5.8-1.2,0-1.6a1.22,1.22,0,0,0-1.7.16,1.27,1.27,0,0,0-.2.34,3.64,3.64,0,0,0-.4.9,385.12,385.12,0,0,0-12.5,37.6A.7.7,0,0,0,802.5,418.56Z"/><path class="cls-42" d="M784.5,382.36c-1.1,4.3-2.2,8.5-3.1,12.6-1.5,6.6-3,13.2-3.9,19.9,0,.1-.1.3-.1.4,0,.7-.5,1.6.8,1.7,1.1.1.9-.8,1.1-1.4,1.4-4.7,1.7-9.7,2.9-14.4,1.2-5.1,2.4-10.1,3.9-15.1C786.56,384.36,786,383.36,784.5,382.36Z"/><path class="cls-42" d="M801,414.56c1.1-4.1,2.4-8.2,3.7-12.3,2.3-7.8,5.1-15.3,8-22.8.2-.5.4-.9-.3-1.1a1.3,1.3,0,0,0-1.73.6,1.18,1.18,0,0,0-.07.2c-.8,2.5-1.7,4.9-2.6,7.4-3.5,10.2-6.9,20.4-9.4,30.8-.1.6-.6,1.5.3,1.7,1.2.4,1-.7,1.1-1.4C800.16,416.66,801.16,415.76,801,414.56Z"/><path class="cls-42" d="M760.26,378.76c-1.6,7.5-2.7,15.6-3.7,23.7-.4,3.4-.5,6.8-.8,10.2-.1.7-.2,1.5.9,1.4s.7-.8.7-1.4a254.32,254.32,0,0,1,5.4-35.9c.1-.7.9-1.7-.5-2s-1.6.6-1.7,1.7C760.5,377.06,760.36,377.66,760.26,378.76Z"/><path class="cls-42" d="M751.26,384.06c-1,8.2-2.1,16.4-2.4,24.7,0,.6-.5,1.7.7,1.8,1.4.1,1-1.1,1-1.8a245.66,245.66,0,0,1,3.4-28.5c.2-1.3.9-2.5.7-3.9-.1-.6.4-1.4-.7-1.5a1.28,1.28,0,0,0-1.56.86h0a1,1,0,0,0,0,.43C752.06,378.76,751.66,381.36,751.26,384.06Z"/><path class="cls-42" d="M754.56,389.26a170.73,170.73,0,0,0-2.2,21.4c0,.9-1,2.6.6,2.7s1-1.8,1.1-2.7a263.67,263.67,0,0,1,4.3-31.9,3.27,3.27,0,0,1,.6-1.7c.6-.8.3-1.4-.1-2.1a1.25,1.25,0,0,0-1.3-.3c-.9.2-.9.9-1,1.6C755.86,380.56,755.16,385,754.56,389.26Z"/><path class="cls-42" d="M797,413.66c1.2-4.9,2.6-10.2,4.3-15.5,2.1-6.4,4.1-12.9,6.7-19.2.2-.4.7-.8-.1-1.1-.6-.2-1.2-.4-1.7.3a7.66,7.66,0,0,0-.6,1.3c-3.8,11.4-7.6,22.9-10.4,34.6-.2.8-1.2,2.3.2,2.6C796.86,416.76,796.76,415.16,797,413.66Z"/><path class="cls-42" d="M793.86,408.86c1.6-6.4,3.5-13,5.6-19.5,1.2-3.8,2.6-7.5,4-11.2.4-1-.1-1.1-.8-1a2.19,2.19,0,0,0-1.6,1.5c-3.8,12-7.5,24-10.2,36.3-.2,1.1-1.2,3,.1,3.2,1.6.3.9-1.8,1.2-2.8C792.66,413.26,793.86,411.26,793.86,408.86Z"/><path class="cls-42" d="M821.16,416.56c5.7-10.5,10.8-21.2,13.6-32.9C829.5,394.26,824.56,405.16,821.16,416.56Z"/><path class="cls-42" d="M797.76,379.76a2.65,2.65,0,0,0-2.2,2.2c-2.5,8.2-4.8,16.4-6.7,24.7l-2.1,9.6c-.1.6-.6,1.4.4,1.7s1-.6,1.1-1.3c1.7-10.6,4.7-20.9,7.8-31.2C796.66,383.76,797.76,382.06,797.76,379.76Z"/><path class="cls-42" d="M792.06,383.06c-2.9,1-2.4,3.7-3,5.7q-3.76,13.14-6.2,26.6c-.1.4-.1.8-.2,1.2a.84.84,0,0,0,.48,1.07h.12c.6.1.6-.5.7-1,2.1-9.9,4.1-19.9,7.2-29.6C791.56,385.76,792.36,384.56,792.06,383.06Z"/><path class="cls-42" d="M747,410c.7-11.1,2.1-22,3.9-33.3C747.26,381,744.56,404.36,747,410Z"/><path class="cls-35" d="M980.66,334.16c1.1,2.4-18.2,160.5-21.4,163.9s-20.4,1.9-23.3.7,20.9-172.3,23.1-174.4S979.76,332.36,980.66,334.16Z"/><path class="cls-36" d="M966.26,330.16c.5,1.1-9.1,78.3-10.5,79.9s-9.3,1-10.7.4,10.3-84,11.3-85S966,329.26,966.26,330.16Z"/><path class="cls-36" d="M979.66,336.06c.5,1.1-9,77.6-10.4,79.2s-9.3,1-10.7.4,10.2-83.2,11.2-84.3S979.36,335.16,979.66,336.06Z"/><path class="cls-36" d="M954.76,417.56c.5,1.2-9.4,80.7-10.9,82.4s-9.3,1.1-10.7.5,10.7-86.6,11.7-87.7S954.36,416.66,954.76,417.56Z"/><path class="cls-36" d="M968.06,423.66c.5,1.1-8.5,74.8-10,76.4s-9.3.9-10.7.3,9.8-80.3,10.8-81.3S967.66,422.76,968.06,423.66Z"/><path class="cls-35" d="M783.26,360l-.5-5.1a7.41,7.41,0,0,1-4.6-.7c-2.2-1.1-3-7-2.3-15.3s2.1-12.8,3.4-14.5,7.9-.2,7.9-.2l.5-3.6s-2.6.9-2.2-3.6,3.3-3.7,3.3-3.7l3.6-9.8.5,4.2-4.7,25.4Z"/><path class="cls-35" d="M1516.16,651.16s4.5,6.4-12.9,20.6-39.9,15.2-47,19.8-21.1,25.9-37.6,18.8-27.5-25.7-54.5-35.4-55.9-7.7-55.9-15.4-6-79.9-6-121.1c0-28.3,16.4-53.6,57.3-53.6S1516.16,651.16,1516.16,651.16Z"/><path class="cls-36" d="M1320.66,496a635.18,635.18,0,0,0-1.7,69.4c1.3,35.3,4.7,70.5,6.9,73.9a13.23,13.23,0,0,0,4.7,4.7s20.2,10.3,39.5,16.7,62,22.6,68.7,16.8c3.5-3,73.9-15.1,75-35.1,1-18.8-2-121.1-2-145.6,0-50.5-67.2-12.3-67.2-12.3l-26.5-12.1L1337.5,481Z"/><path class="cls-34" d="M1510.86,499.46s3.4,5.1,14.4,6.2,7.1-.7,10.7-.4,3.7,3.2,9.3,3.7,9.2-.6,9.3-3.6-3.7-10.3-3.7-10.3l-37.1-14.7-7.2,10.6Z"/><path class="cls-34" d="M1442.76,494.86s-1.9,45.7,0,50,1.4,3,6.6,4.7,51.9.9,54.5,0,3.4-38.6,2.6-44.2-3.9-18.4-3.9-18.4l-58.8-6Z"/><path class="cls-37" d="M1320.66,496s4.3-15,10.3-22.7,12.8-8.6,12.8-8.6.1-12.9,3.1-15.9,37.3-12.4,42.9-13.1,23.2,6.4,26.8,7.3,27.7-.4,44,3.6,35.5,12.9,38.6,14.2,54.7,27,55.8,29.2,2.9,7.7,1.3,10.3-2.1,3.6-3.6,1.9a21,21,0,0,0-8.3-5c-3.4-1.1-5-1-6.1.9s.1,5.3-1.7,5-2-6.7-3-8.4-5.7-4.7-9.3-6-7.7-2.9-9.3-1.4-1.6,8.9-3.1,9.7-12.2-1.6-24.7-4.7-32-6.7-36.6-4.1-4.7,7.3-7.6,6.9-7.3-8.1-12.9-10.9-12.3-3.4-18.6-3-29.9.6-49.6,3.4C1341.86,487.16,1332.5,493.46,1320.66,496Z"/><path class="cls-38" d="M1425.5,563.06c-.1,2.9-16.7,3.4-33.5,2.3s-25.7-2.2-25.4,0,16.4,3.1,25.4,3.4,30.9-.6,31.2,3.2-20.3,3.8-33.5,2.7-21.9-2.7-23.2-2.1-10.9-1-14.8-1.3-7.7-1.5-8.7-2.2-20.8-1.2-24.2-3.8-1.1-5,2.4-4.9,10.3,2.9,14.6,3.6,6.7.3,6.9-1-4.9-2.6-11.3-3.3-14.1-2.1-14.3-4.4,14.2,0,20.2.6,8-.1,10-.1,20.2,1,20.6,1.6,16.4,1.7,29.9,2.3S1425.66,558.66,1425.5,563.06Z"/><path class="cls-40" d="M1415.36,609.26c1.8.6,4-5.7-.7-13s-14.6-7-18.2-4.4-5.6,10.2-3.7,16.9,6.7,10.7,8.1,11,5.4.6,5.6-1.3-3.1-1.6-6.6-4.7-5.9-10.7-5-15.2,8-6.6,11.4-4.1,7.4,4.9,7.6,7.9S1413.36,608.46,1415.36,609.26Z"/><path class="cls-40" d="M1330.06,594.66c1,.4,1.5-5.6,0-10.5s-3.2-6.9-5.4-6.6-3.2,9.8-2.8,12.6,1.5,10.7,4.5,11.6,2.1-1.1,1.5-2.8-2.1,1.8-4.1-4.4-.3-13.7.2-14,2.4-2.1,3.6,1.1,2.5,6.4,2.4,8.1S1329.06,594.26,1330.06,594.66Z"/><path class="cls-39" d="M1336.5,603s-.9,1.3,2.6,3.2,10.1,3.6,11.2,3.2,1.9-4.1,1.5-6.4.5.2-1.5,3.2C1348.26,609.36,1336.5,603,1336.5,603Z"/><path class="cls-39" d="M1361.86,609.46l14.7,3.5s1.7.9,2.9,0,1.2-7.6,1.1-8.9,1.7,6.4,1.3,9.3-1.6,3.3-3.1,3.3-15.1-3.3-16.3-4.7A2.26,2.26,0,0,1,1361.86,609.46Z"/><path class="cls-34" d="M1312.06,629.36s19.6,12.9,49.7,21,55,17.2,63.8,17.2,13.7-.9,16.4,5.6.5,6.9-7.6,9.4-52.1-12.9-80.5-24-40.9-18-41.7-21.4A19,19,0,0,1,1312.06,629.36Z"/><path class="cls-35" d="M1448.86,653s26.2-3.9,38.2-9,21-12.9,22.3-11.6-15,12.9-27.4,16.3S1454.5,655.16,1448.86,653Z"/><path class="cls-34" d="M1326.36,504.76s-.3,7.3,1.6,12.2a40.32,40.32,0,0,1,3,14c.2,5.1,11.2,5.7,11.2,5.7l11.9-25.4-4.8-6.4h-22.9Z"/><path class="cls-37" d="M1430.26,540.86s.3,3.5-4.8,6.1-59.2,1.3-61.4,0-1.3-9.7-4.5-9.7-2.6,8-7.7,9.3-22.9,1.9-25.8-1.3,16.4-36.3,23.2-40.5,42.9-7.4,42.9-7.4l35.9,8.7Z"/><path class="cls-35" d="M1430.26,540.86c1.6,1.3,1.3-32.5,0-37.8s-6.1-8.2-10-9.5-41.4.6-48.5,1.3-42.8,6.8-45.4,10,9.3,3.2,19.6,2.3,23.8-5.5,34.4-6.1,33.9,5.2,42.1,5.5C1430.76,506.66,1426.76,538,1430.26,540.86Z"/><path class="cls-40" d="M1408.5,467.76c4,2.8,3.9-9.3,0-10.3s-26.1,1.6-43.7,5.1-31.3,11.3-33.7,14.5-3.9,9.6-1.8,11.2,5.3-3.8,5.6-7.4,10.3-10.3,22.5-13.2,37.3-8.4,43.7-7.1S1405.26,465.56,1408.5,467.76Z"/><path class="cls-43" d="M1392.06,439.16c4.3.7,3.3,7.7,0,10.3s-42,13.6-45.1,12.5-3.2-8,0-10.3S1386.36,438.16,1392.06,439.16Z"/><path class="cls-43" d="M1494,467.16s-18-1.5-25.1-5.1-4.6-2.4-4.4-4.8,7-4.9,11.5-3S1489.26,461.76,1494,467.16Z"/></g><g id="Mushrooms_Back" data-name="Mushrooms Back"><path class="cls-44" d="M1077.26,814a121.65,121.65,0,0,1-3.4,16.8c-2.2,6.7-8.5,18.1-10.1,19s-9.6-.7-13.9-2.1-11.8-6.3-12.3-9.1,9.5-8.7,15.6-15.2a59.83,59.83,0,0,0,10-15.3l9.1-11.9Z"/><path class="cls-45" d="M1043.76,794.66s-2.3,1.5,4.1,6.5,24.7,9.5,26.8,10.9,10.3,8.1,16.1,8.7l-17.3-29.7Z"/><path class="cls-7" d="M1043.76,794.66c-.9,3.7,7.6,5.7,11.8,6.8s8.9-3.4,14.2-1,13.9,20.1,20.9,20.4,8.2-13.7,6.6-17.2-7.8-14.4-18.5-18.9-19.9-3.4-23.7-1.7C1051.5,784.76,1045.26,788.26,1043.76,794.66Z"/><path class="cls-44" d="M923.66,767.46s-3.8,17-1.4,28.8,15.4,38.1,18,39.5,7.9,2.6,14.5,1.5,8.8-4.8,9.5-6.8-18.2-17.4-23.9-35.1-1.6-30.5-1.6-30.5l-8.2-9Z"/><path class="cls-8" d="M893.5,759.86s2.4,8.4,10.9,10,28.4-5.7,34.4-5,25.8,1.6,35.6-1l-25.5-13.2Z"/><path class="cls-46" d="M893.5,759.86c3.6,6.7,9.6,7.6,18.1,7.6s24-8.9,34.3-7.6,24,6.8,28.4,4,.2-16-17.1-21.7-23.8-9.9-37-7.5S890.5,754.46,893.5,759.86Z"/><path class="cls-44" d="M1029.36,864.46s3.7,5.5-.4,14-8.4,13.2-6.6,16.7,18.1,9.4,24.1,9.7,20.8-1.7,20.7-4.7-.5-20.1-3.1-24.8-12.1-14.1-12.1-14.1l-14.7-11.6Z"/><path class="cls-47" d="M1068.06,849.46s-.3,11.7-5.2,12.4-15.7-2.4-23.8,0-24.6,6.8-32.5-.2l28-21Z"/><path class="cls-48" d="M1006.56,861.66c3.1,5,24.5.7,27.4,0s18.5-4.5,22.2-3.5,12-1.8,12-8.7-6.1-13.8-15.9-13.8-17.8-7.7-24.8-6.3-19.5,14.5-20.8,19.2S1004.06,857.46,1006.56,861.66Z"/><path class="cls-44" d="M928.66,857s-1.9,15.2,2.3,25.1,16.7,23.8,16.4,29.9-11.5,16.2-19.1,15.8-26.9-1.3-30-6.3-8.5-27.5-8.5-40.7S900,852.5,900,852.5l12.4-22Z"/><path class="cls-49" d="M962.16,845.16s-7.2,16.8-21.1,17.1-52.2-8.4-60.5-8.5-29.4-6.1-29.6-18.9l61.4-5.4Z"/><path class="cls-50" d="M966.5,835.76c-3.4,11.4-13.5,23.5-25.8,21s-36.5-6.7-52.8-5.5-40.6-8-36.5-22.2,21-27.8,41.4-30.2c15.9-1.9,46.4,9.8,54.1,14.1S968.26,829.56,966.5,835.76Z"/><path class="cls-44" d="M1059.86,903.66s-3.2,15.2-2.1,23.1,6.9,20,10.2,22.6,11.2,3,19.6,2.6,16.3-5.2,16.5-7.3-13.3-11.8-19.6-20.9a34.8,34.8,0,0,1-6.2-18.4l-8.3-14.1Z"/><path class="cls-4" d="M1023.76,897.36s27.8,10.8,44.4,11.3,41-4.6,40.8-15.9l-43.3-6.3Z"/><path class="cls-51" d="M1109,892.76c-1.1,6.4-13.9,11.3-27.7,11.7s-30.4-6.7-34.9-6.2-18.1,4-22.6-.9,1.7-16.6,19.3-22,34.5,6.7,43.1,6.3S1110.06,886.46,1109,892.76Z"/><path class="cls-44" d="M765.5,765s9,18.9,6.7,26.4-9.2,28.9-15.5,30.5-26.6,2.6-30.3,0,12-24.2,14.6-32.5-.9-22.5-.9-22.5l3.7-26.1Z"/><path class="cls-49" d="M787,762.46s-34.7,4.4-46.9,4.4-33.5-2.2-43-2.2-11.8-4.3-11.4-11,58.1-12.9,58.1-12.9Z"/><path class="cls-3" d="M736.26,720c23-7,38.8,5.2,50.8,7.2s23.5,7.4,21.5,14.5-13.6,25.8-33.5,20.6-50.3-5.1-59.7-2.3-32.1,3.2-29.7-6.2,25.5-19.1,29.7-21.3S721.56,724.36,736.26,720Z"/><path class="cls-44" d="M804.06,798.46s-6.3,12-5.2,25.7,7.1,34.4,9.6,37,26.8,2.6,29.6,0-12.7-23.2-16-37.6,3.8-28.2,3.8-28.2Z"/><path class="cls-45" d="M864.86,784.76s-8.3,14.9-19.8,16.5-34.1-1-39.3,0-29.1,2.3-33.5-3.7l44-19.3Z"/><path class="cls-7" d="M864.86,784.76c-2.6,8.6-21.4,10.5-27.4,10.6s-25.7-3.2-35.3-3.1-22.7,8.3-30,5.2-6.3-21.4,0-22.7,25.2-4.8,34.6-7.8,22.5-3.3,35.6,0S867.5,776.16,864.86,784.76Z"/><path class="cls-52" d="M1286.36,839.56s3,9.7,2.1,16.3-10.3,21.1-8.5,22.8,18.6,6.2,22.8,3.7,6.6-20.9,5.7-26.4-8.7-19.6-8.7-19.6Z"/><path class="cls-52" d="M1352,794.06s5,13,4.5,22.9-13.4,34.5-11.4,38.7,21.6,11.1,29.8,9.3,6.8-43.2,4.7-55.9-7.6-19.2-7.6-19.2Z"/><path class="cls-53" d="M1308.06,782.86s5.4,14.6,30.6,12.5,33.7-4.8,51.5-5.5,22.2,5.2,33.3-2l-58.2-13.9Z"/><path class="cls-54" d="M1305.06,772.46c0,7.7,9.6,20.9,25.2,19.3s23.3-8.8,34.9-8.1,56.5,9.9,58.2,4.3-12-22.3-44.4-23.6-38.6,3.3-48.6,4.4C1320.26,769.66,1305.06,762.16,1305.06,772.46Z"/><path class="cls-55" d="M1439.16,744.06s16.7,26.4,9.9,46-41.2,64.4-35.3,78.2,59.4,25.8,69.7,22.5,38.8-87,32.6-104.5-23-47.8-23-47.8l-37.5-33.3Z"/><path class="cls-56" d="M1332.16,740.26s60.9,10.9,81.6,7.5,89.8-13.8,112.1-6.2,65.9,11.7,69.7,1.8l-87.4-47.8Z"/><path class="cls-57" d="M1447.66,671.26c81.4-13.8,118.8,12.1,132.7,17.8s34.9,62.9,0,58.8-73-25-116.1-20.2-107.6,16-132.1,12.7S1363.86,685.46,1447.66,671.26Z"/></g><g id="Mushrooms_Middle" data-name="Mushrooms Middle"><path class="cls-23" d="M483.16,636.56s-19.2,39.3-13.5,65.3,73.8,95.6,64,113.7-136.9,49.8-152.8,37.8S348,780.66,351.56,730s51-108.3,51-108.3l45.7-51Z"/><path class="cls-58" d="M303.86,581.46s42.6,42.2,77,39.9,80.8,11.9,102.2,15.2,81.8,8.8,100.1-10.5l-122.9-86Z"/><path class="cls-59" d="M515.5,520.26c54.4,7.4,83.4,37.1,91.2,59.2s-26.7,63.6-54,53.8-64.9-42.3-99.8-42.9-58.2,30.1-123,7.1-14.8-66.2,42.1-78.4S463.36,513.06,515.5,520.26Z"/><path class="cls-55" d="M592.56,712s-20.6,19.3-23.1,36.4,22.7,74.6,12.6,83.3-94.1-1.3-100.9-12.2-3.2-51.4,10.6-81.2,55.6-53.7,55.6-53.7l39.3-20.3Z"/><path class="cls-60" d="M497,637.66s16,35.2,37.4,41.7,46.1,25.7,58.2,32.6,47.4,24,62.9,16.6l-54.6-80.1Z"/><path class="cls-61" d="M638.76,649.26c31.1,16.9,41.8,41.5,41.5,56.7s-30.7,32.3-44.9,20.1-29.5-40.4-50.4-48.8-42.1,4.8-75.9-23.9,6.2-43.4,43.4-37.7S608.86,633,638.76,649.26Z"/><path class="cls-23" d="M1620.76,304.16s43.6,56.4,48,107-12.8,173.9,5.9,204.5,105.2,36.1,117.8,23.8-7.3-227.5-29-267-68.4-105.4-68.4-105.4l-78.9-63.9Z"/><path class="cls-62" d="M1462.36,342.16s96.6-.5,124.2-17.7,120.4-72.9,158.5-64.3,104.4-.6,102.6-26.4l-162-77.1Z"/><path class="cls-63" d="M1579.76,124.36c108.2-69.2,181.6-22.9,206.1-15.3s96.8,136.8,43,142.1-124.5-28.4-183.7,2.3-144.8,86-182.8,88.8S1468.26,195.66,1579.76,124.36Z"/><path class="cls-23" d="M1700.16,554.36s17.5,38.7,24.3,67,9.3,82.8,5.3,89.3-35.7,18.5-53.7,22.7-55.5,3.3-63.5-5.5,14.7-51.4,22.3-87.9,2.2-75.8,2.2-75.8l6.6-62Z"/><path class="cls-64" d="M1539.36,558.56s-4.7,10.4,28.7,14.2,108.3-19.9,118.7-19.5,54.2,6.2,75.9-4.1l-126.1-67.7Z"/><path class="cls-65" d="M1539.36,558.56c5,15.1,39.5,3.8,56.7-1.7s24.2-31.4,48-34.5,93.2,41,118.6,26.9-.9-66.6-14.1-75.3-58.9-34-106.6-26.7-78.1,31.2-87.8,45.7C1545,506.66,1530.86,532.86,1539.36,558.56Z"/><path class="cls-23" d="M129.86,480.46s-21.8,20.7-28.1,38.5S68,613.56,73.36,625s30.7,28.1,55,34.2,42,5.7,52.8-5.5-7.2-61.9-5-92.4,32.1-72.6,32.1-72.6l-29.1-52.2Z"/><path class="cls-66" d="M298.06,461.86s-29.3,40.3-43.4,43.4-33.5-10.5-46.4-16.4-55.1-.8-78.4-8.3-69.8-36.4-69.1-59.7l129.3-41.8Z"/><path class="cls-67" d="M61.5,397.46c-7.2,34.6,12,52.1,33.3,56.8s54.9-9.5,79.9-3.2,68.1,46.2,91.1,37.3,56.3-48.2,42.2-71.6-59.5-84.2-101.2-85.4-74.3,22.8-94.5,29S66.66,372.16,61.5,397.46Z"/><path class="cls-23" d="M344.5,552.76s19.4,40.7,14.4,56.7-19.7,62.3-33.3,65.6-57.2,5.6-65.3,0,25.9-52,31.5-70-2-48.3-2-48.3l7.9-56.2Z"/><path class="cls-68" d="M390.76,547.36s-74.8,9.5-101,9.4-72-4.8-92.6-4.7-25.4-9.2-24.6-23.7,125.1-27.8,125.1-27.8Z"/><path class="cls-69" d="M281.56,455.76c49.4-15.1,83.5,11.2,109.4,15.4s50.7,16,46.2,31.2-29.4,55.6-72.2,44.2-108.2-11.1-128.5-5-69.1,6.9-63.9-13.3,54.9-41.2,63.9-45.9S250,465.46,281.56,455.76Z"/></g><g id="Road_Front" data-name="Road Front"><path class="cls-70" d="M1776.86,1500.76l-1830.6-15.9-12.1-894s292.1,80.6,414.2,173.6,223.6,215.1,422.9,222.1S1219.5,880.36,1385.5,811s412.3-85.6,412.3-85.6l20,157.3Z"/><polygon class="cls-11" points="-5.14 611.16 1015.46 1308.66 1097.66 1308.66 1097.66 980.66 -5.14 478.26 -5.14 611.16"/><polygon class="cls-71" points="1097.66 1118.76 -5.14 536.46 -5.14 551.66 1097.66 1164.46 1097.66 1118.76"/></g><g id="Bison"><path class="cls-72" d="M1150.76,912.66s14.5,13.2,14.5,18.3,5.5,7.4,8.7,9.3a20,20,0,0,0,11.2,2.9c3.8-.3,5.1-14.7,8-17.6s4.5.6,8.3-1.6,1.9-18,5.8-20.8,12.2-8,16.4-4.8-1.3,18.9,0,27.6,3.2,23.7,0,30.5-8.3,22.8-8.3,22.8,10.9,1.6,13.8,0a74.73,74.73,0,0,0,8-5.8s-.6-17.3,0-19.9,9.9-2.6,15.4-11.5,3.2-36.9,3.2-36.9l-2.6-31.4-53.2-5.1-32.1,20.5Z"/><path class="cls-73" d="M1482.86,842.26s15.4-78.7-8.5-101.7-45.3-26.5-52.2-25.6-23.9-.9-41-5.1-49.6-18.8-81.2-20.5-71.8,12-82.1,19.7-28.2,56.8-28.2,56.8-31.6-1.6-43.6,5.6-6.4,19.7-6.8,26.5-6,29.5-5.6,33.8,5.6,6.8,6,14.1,3.8,25.6,2.6,34.6-7.7,15.8-4.7,23.1,11.1,9,19.7,10.7,16.2-3.4,15-15.4,2.6-11.1,3.8-3.4-3,16-.4,19.1,22.7-5.9,27.4-14,2.6-20.9.9-24.4,4.7,1.3,11.5,3.4,11.5-.4,15.8.4,7.3,15.4,20.1,22.7,24.8,10.3,32.5,7.7,14.5-25.2,30.3-23.9,8.5,32.5,13.7,38,29.5,12.8,32.9,11.1,6.4-26.1,6-32.1-4.7-18.8-3.4-20.5,9.4,3.4,20.1-.9,24.4-22.7,30.3-23.1,9.8,13.3,16.7,21.4,14.1,12.8,15.4,15.8,4.3,37.2-1.7,47a267.63,267.63,0,0,0-12.4,23.9,22.49,22.49,0,0,0,12.8,0,24.38,24.38,0,0,0,10.3-6s.4-15.4,1.7-23.1,10.7-26.1,12.4-36.8,1.8-13.6,1.8-13.6-9.9-13.1-13.7-18.2-4.7-15.2-3-16,11.5,10.6,15.3,13.6,9,10.9,10.3,13.5,1.3,24.6-.4,35.7-6.4,21.4-5.6,31.2,1.3,22.7,1.3,22.7,12.4-.4,17.1-3.4,4.3-13.7,4.3-13.7a96.76,96.76,0,0,1-8.5-26.1c-2.1-13.7,9.8-48.3,11.5-56.4s0-13.3,0-13.3Z"/><path class="cls-72" d="M1264.06,844.06s2.9-10.1,2.9-14.5.3-11.5,7.1-12.1,9.9,6.7,13.5,9.9-.3,7.7,4.2,12.5,17.3-2.6,22.1,1.9,1.3,15.4,6.1,20.2,18.9,11.5,22.8,21.2,19.2,28.2,19.2,32.7,1.9,23.1-2.2,25.6-13.5-4.8-13.5-4.8-.2,9.6,2.8,16.7,6.8,16.7,6.8,16.7a42.46,42.46,0,0,1-8.3,6.1c-5.1,2.9-12.2,3.6-12.2,3.6s-1.6-15.1-1.9-25.4a152.8,152.8,0,0,1,1.3-21.8s-9-1-10.3-6.1-.1-25.8-3.8-32.7-16.7-6.7-18.3-.6-2.2,26.7-9.6,31-13.1-6-19.2-7.9-10.3-9.3-9.3-12.2,11.9,7.1,17,4.2,8.3-12.2,3.8-18.3-17.9-5.1-21-8.7,1.5-8.7,0-12.8-18.8-2.2-22.3-11.9,1-12.8,5.8-12.5C1252.16,844.36,1262.66,849.36,1264.06,844.06Z"/><path class="cls-72" d="M1335.86,790.46s19.2,14.4,26.4,23.4,11.1,24.7,14,26.6,17.3-3.8,23.4,1.9,10.3,18.6,8.7,23.4-11.2,6.7-16,10.3-10,12.5-13.5,12.5-10.9-9.6-10.9-16.7-6.7-8.3-9-12.5,1-9.6-.3-19.9-17.2-13.1-16.4-19.2C1344.86,801.76,1330.06,789.86,1335.86,790.46Z"/><path class="cls-72" d="M1438.16,800.76c3.2-.1,4.8,12.4,2.9,16.6s-2.8,5.8.8,8.1.5,11.8,4.9,14.1,11.5-.9,16.7,4.5,7.7,17.3,12.5,21.5,17.6,8.7,16.7,12.8-.6,14.4-3.2,13.1-1.6-9.9-3.8-9.9-.5,12.8-3.2,12.8-3.8-6.7-4.2-12.8-8.8-6.1-12.8-12-7.5-14.5-10.3-14.1,2.5,12.6,6.6,16.4,9.7,8.4,9.7,8.4,2.1,11.8,1.4,13.6-5.3,9.3-7.3,9.3-4.8-12.5-7.4-12.5,2.1,12,.2,13.7-4.1,10.3-7.1,10.3-5.3-15.2-7.4-16.8-15.1-13.2-16.2-15.3-1.9-6.6-4-9.1-7.4-5.8-8.2-8.8-.3-9.3,7.7-11.5,15.5-3.5,14.3-10.7-4.8-7-6.1-12.7-1.9-12.6.6-15.6C1434.5,810.86,1434.5,801,1438.16,800.76Z"/><path class="cls-72" d="M1148,886.06c7.6-1.3,14,3,14.4,6.4s-12.8,8-16.7,8-8.6-5.2-7.2-8.8S1142.16,887,1148,886.06Z"/><path class="cls-72" d="M1156,860.36c5.5-.2,15.1,2.6,14.4,8s-1.9,9.3-5.1,9.6-4.2-4.8-9.3-5.5-13.5-1.4-14-6.3C1141.5,861.46,1148.26,860.76,1156,860.36Z"/><path class="cls-72" d="M1187.06,848.26c3.5.2,10.3.3,10.3-2.6s-4.8-1-7.7-1.6-7.1-5.5-7.4-2.9S1184.16,848.06,1187.06,848.26Z"/><path class="cls-72" d="M1200.26,837c2.1,1.5,5.8,3.8,9.6,0s1.9-10.9,5.8-14.4,13.1-10.3,12.5-14.4.6-14.2-8.3-17.7-14.1,6.8-12.8,12.2,2.6,9.6-1.3,10.3-1.6-6.7-5.5-7.1-11.9,4.8-10.4,8.6,4.7,6.4,7.5,5.8,5.8,6.3,4.5,9.2S1197.16,834.86,1200.26,837Z"/><path class="cls-72" d="M1189.66,765.66s10.7-1.5,13.8,0,4.8,4.7,8.9,4.7,2.2-20.8,4.8-25.3,8.7-8,8.7-11.5-1.6-9.6,0-11.2,7.4-3.2,2.3-7.1-12.3,4.3-16.4,6.4-9,5.1-11.5,10.3-2.6,17.6-5.5,21.2S1187.76,762.86,1189.66,765.66Z"/><path class="cls-74" d="M1135.56,756.36s-5.6,8.3-5.6,13-.8,12.8,1.3,16.2a31.72,31.72,0,0,0,5.1,6.1l5.6,9.5-6.1,7.3s-7.9-7.7-11.6-13.5-3.8-19.2-.4-25.6S1135.56,756.36,1135.56,756.36Z"/><path class="cls-72" d="M1154.06,776.36a64.78,64.78,0,0,0-3.7,13.4c-.8,6.2-5.6,13.9-6.2,17.7s1.9,19.4,1.3,22-.5,12.4-3.5,12.6-11.6-3.2-11.9-10.3,3.8-10.8,4.8-17.4,2.6-13.2,2.6-17-5-17.2-.6-21C1141.06,772.56,1151.16,770.46,1154.06,776.36Z"/><path class="cls-74" d="M1211.5,763.16s16.7,6.2,20.9,15.2,2.5,20.7-2.2,26.5-14.1,10.9-16.9,9.6-6-8.5-4.5-13.4,17.3-8.2,18-12.1-5.1-16.3-7.3-18.6A99.4,99.4,0,0,0,1211.5,763.16Z"/></g><g id="Mushrooms_Front" data-name="Mushrooms Front"><path class="cls-23" d="M1716.16,688.76s11.8,30.2-2,77.2-27.9,72.7-22.3,91.8,58.2,52.3,77.4,54.5,67.2-8.9,67.3-25.5-.6-110.7-8.7-136.7-38.2-78.1-38.2-78.1l-46.9-64.4Z"/><path class="cls-68" d="M1841.86,627.16s-1.2,33.4-17.1,35.2-50.7-7.5-76.8-.8-79.6,18.7-105.2-1.7l91.1-58.8Z"/><path class="cls-69" d="M1642.76,660c9.8,14.4,79.3,2.8,88.4.9s59.8-12.2,71.8-9.2,38.7-4.6,38.9-24.4-19.3-39.4-51-39.7-57.3-22.5-80.1-18.6-63.4,40.8-67.6,54S1634.66,648,1642.76,660Z"/><path class="cls-23" d="M1739.86,840.56s17.9,23.6,21.1,41.9,17.8,97.4,10.8,107.6-34.3,22.4-59,24.5-41.7-1.2-50.4-13.7,16.9-59.1,19.6-89-19.7-75.7-19.7-75.7l36.6-46.1Z"/><path class="cls-62" d="M1579.36,795.56s22.1,43.8,35.3,49.1,34.3-4.8,47.7-8.6,53.7,8,77.6,4.5,73.7-24.2,76.7-47l-119-61.3Z"/><path class="cls-63" d="M1819.66,770.66c1.4,34.8-19.9,48.8-41.5,49.9s-51.8-18-77.2-15.9-73.6,34.1-94.6,21.7-47.1-55.8-29.6-76.4,71.2-72.3,112-66.9,68.6,34,87.2,43.3S1818.56,745.26,1819.66,770.66Z"/><path class="cls-23" d="M1552,864.86s10.5,19.6,12.6,49.1-12.5,90.8-4.5,103.7,37.2,15.3,48.2,15.3,36.9-15.2,40-23.9-13.4-90.1-22.1-115-32.2-54.6-32.2-54.6Z"/><path class="cls-66" d="M1497.56,853.26s1.2,17.9,30.1,16.4c40-2.1,46-8.6,66.9-5.9s66.5,18.7,80.5,13.1,23.1-23.5,21.6-37.8l-110.1-16.4Z"/><path class="cls-67" d="M1562.5,798.36c51.6.6,106.1-18.6,121.1.4s21.9,61.8-5.5,66.5-65.7-10.3-98-7.3-82.8,17.5-82.5-4.7S1522.26,797.86,1562.5,798.36Z"/><path class="cls-23" d="M356.76,854.66s2.6,27.6.7,46.5-11.9,53.1-15.7,56.2-26,3.8-38,2.5-34.9-9.8-38-16.9,20-28.6,32.5-49.5,17.5-46.3,17.5-46.3l17.3-36.8Z"/><path class="cls-68" d="M256.66,823s-5.2,5.4,14.7,14.9,71,10.8,77.4,13.3,32.1,15.3,47.7,13.7l-63.3-68.6Z"/><path class="cls-69" d="M256.66,823c-.1,10.4,23.5,10.8,35.4,11.1s21.6-14.2,36.9-11.1,48.7,45.2,67.4,41.9,13.7-41.2,7.3-49.5-29.1-33.5-60.1-39.2-54.8,2.6-63.9,9.5C271.16,792.16,256.86,805.26,256.66,823Z"/><path class="cls-23" d="M231.36,867.16s10.7,21.1,10.7,35.9.3,78.9-6.7,86-30.1,12.8-49.7,10.9-32.6-6.8-37.7-17.9,21.6-44,27.9-67.1-4.8-62.2-4.8-62.2l35.3-31Z"/><path class="cls-62" d="M111.66,809.26s11.2,37.5,20.8,43.5,27.6,1,38.7,0,41,13.8,60.2,14.4,61.3-8.6,66.8-26.1l-84.8-64.8Z"/><path class="cls-63" d="M303.86,823.56c-3.8,27.5-22.5,35.5-39.6,33.3s-38.1-21.4-58.4-23.3-62.5,16.4-77.3,3.7-29.1-50.4-12.5-64.1,66.1-46.8,97.3-36.7,49.1,36.3,62.4,46.2S306.56,803.46,303.86,823.56Z"/><path class="cls-23" d="M1.06,662.26s-6.8,16.9-6.1,41.2,16.8,73.4,11.5,84.6-28.2,15.5-36.8,16.4-30.3-9.5-33.4-16.4,3.7-74.8,8.7-96,21.1-47.2,21.1-47.2Z"/><path class="cls-58" d="M-104.74,645.46s0,15.5,24.9,16c34.7.6,40.2-4.6,58.1-1s56.2,20.2,68.6,16.2,21.4-18.8,21-31.2L-26,624.56Z"/><path class="cls-59" d="M-45.44,602.06c44.5,3.7,92.6-9.5,104.4,7.8s15.1,54.6-8.8,57-56-12.9-84-12.3-72.5,10-70.9-9.1S-80,599.26-45.44,602.06Z"/><path class="cls-23" d="M40.86,739.86s20.9,32.9,12.3,57.4-51.4,80.3-44,97.5,74.1,32.1,86.9,28.1,48.4-108.5,40.7-130.3-28.7-59.6-28.7-59.6l-46.8-41.5Z"/><path class="cls-64" d="M-92.64,735.16s76,13.6,101.8,9.4,112-17.2,139.8-7.7,82.2,14.6,86.9,2.2l-109-59.6Z"/><path class="cls-65" d="M51.5,649.06c101.5-17.2,148.1,15.1,165.6,22.2s43.6,78.5,0,73.3-91.1-31.2-144.9-25.2S-62,739.26-92.6,735.16-53.14,666.76,51.5,649.06Z"/><path class="cls-23" d="M81,814.76s7.4,9.7-1,24.8-17.1,23.3-13.6,29.4,36.3,17,48.3,17.7,41.8-2.7,41.8-8-.7-35.5-5.8-43.9-24-25.2-24-25.2l-29.4-20.8Z"/><path class="cls-75" d="M159.06,789.06s-.8,20.8-10.6,21.9-31.6-4.6-47.7-.5-49.5,11.6-65.4-1.1L92,772.86Z"/><path class="cls-76" d="M35.26,809.46c6.1,8.9,49.3,1.7,55,.5s37.2-7.6,44.6-5.7,24.1-2.9,24.2-15.2-12-24.5-31.7-24.7-35.6-14-49.8-11.6-39.4,25.4-42.1,33.5S30.16,802,35.26,809.46Z"/><path class="cls-23" d="M5.16,853.26s-7,38.8-4.7,59,15.1,50.9,22.6,57.6,24.9,7.7,43.5,6.5,36-13.2,36.6-18.5-29.5-30.2-43.5-53.2a98.16,98.16,0,0,1-13.8-46.9l-18.3-36Z"/><path class="cls-24" d="M-51.84,834s49.7,23.9,79.4,25.1,73.3-10.2,73-35.2L23.16,810Z"/><path class="cls-25" d="M100.56,823.86c-2,14.1-24.8,25-49.5,25.8s-54.4-14.9-62.4-13.7-32.3,9-40.5-1.9,3-36.8,34.5-48.8,61.7,14.8,77,13.9S102.56,809.76,100.56,823.86Z"/><path class="cls-23" d="M419.36,963s21.2,44.4,15.6,61.8-21.5,67.9-36.3,71.6-62.4,6.1-71.2,0,28.2-56.7,34.3-76.3-2.2-52.7-2.2-52.7l8.6-61.3Z"/><path class="cls-66" d="M469.76,957.16s-81.5,10.3-110.1,10.2-78.5-5.2-100.9-5.1-27.6-10-26.8-25.9,136.3-30.3,136.3-30.3Z"/><path class="cls-67" d="M350.76,857.36c53.9-16.4,91,12.2,119.3,16.8s55.2,17.4,50.4,34-32,60.6-78.7,48.2-117.9-12.1-140.1-5.5-75.4,7.5-69.7-14.4,59.9-44.9,69.7-50S316.36,867.86,350.76,857.36Z"/><path class="cls-23" d="M126.5,962.56s-14.6,30-10.3,49.9,56.4,73.1,49,86.9-104.7,38.1-116.8,28.9-25.2-55.6-22.4-94.4,39-82.8,39-82.8l35-39Z"/><path class="cls-58" d="M-10.5,920.46S22,952.76,48.4,951s61.8,9.1,78.1,11.6,62.5,6.7,76.5-8.1l-94-65.6Z"/><path class="cls-59" d="M151.26,873.66c41.6,5.7,63.7,28.3,69.7,45.3s-20.4,48.6-41.3,41.1-49.6-32.4-76.3-32.8-44.5,23-94,5.4-11.3-50.6,32.1-60S111.36,868.26,151.26,873.66Z"/><path class="cls-23" d="M1462.16,948.26s11.1,10.3,3.9,30.5-16.1,32-10.5,38.8,47.9,13.1,62.7,11.6,50.5-12,49.3-18.5-8.3-43.3-16.3-52.5-34.6-25.8-34.6-25.8l-40.2-19.3Z"/><path class="cls-58" d="M1552.26,900.56s3.4,25.5-8.4,29-39.5.9-58.4,9.4-58.1,24.6-80.2,12.4l61.6-56.5Z"/><path class="cls-59" d="M1405.26,951.36c9.3,9.7,60.6-8.2,67.3-10.9s43.9-17.1,53.3-16.3,28.8-8.6,26.4-23.6-19.8-27.4-43.9-23.5-46.5-9.7-63.3-3.7-42.8,39.2-44.4,49.8S1397.5,943.26,1405.26,951.36Z"/><path class="cls-23" d="M1336.26,991.76s-7,38.8-4.7,59,15.2,50.9,22.7,57.6,24.9,7.7,43.5,6.5,36-13.2,36.6-18.5-29.5-30.2-43.5-53.2a98.16,98.16,0,0,1-13.8-46.9l-18.3-36Z"/><path class="cls-24" d="M1279.26,972.46s49.7,23.9,79.4,25.1,73.3-10.2,72.9-35.3l-77.4-13.9Z"/><path class="cls-25" d="M1431.66,962.26c-2,14.1-24.8,25-49.5,25.8s-54.4-14.9-62.4-13.7-32.3,9-40.5-1.9,3-36.8,34.5-48.8,61.7,14.8,77,13.9S1433.66,948.26,1431.66,962.26Z"/></g></svg>