<svg id="Layer_1" enable-background="new 0 0 512 512" height="50" width="50" viewBox="0 0 512 512" xmlns="http://www.w3.org/2000/svg"><path d="m504.001 276v32h-34.001c-14.296 0-21.297-17.311-11.322-27.32 2.9-2.89 6.902-4.68 11.322-4.68z" fill="#fee8b4"/><path d="m495.3 173.07-31.875-40.07h-354.516c-15.69 0-29.24 10.97-32.51 26.32l-5.86 27.53c-4.4 20.68 11.371 40.15 32.511 40.15h400.95v-29.03c.001-9.05-3.07-17.82-8.7-24.9z" fill="#ade4f9"/><g fill="#d6f7ff"><path d="m158.342 133-39.82 94c-15.691 0-25.724 1.513-36.74-7.69l36.56-86.31z"/><path d="m382.152 133-39.81 94h-40l39.81-94z"/><path d="m504.001 197.97v29.03h-63.309l33.88-79.99 20.728 26.06c5.63 7.08 8.701 15.85 8.701 24.9z"/><path d="m258.342 133-39.82 94h-19.994l39.814-94z"/><path d="m462.905 133-39.82 94h-14.994l39.814-94z"/></g><path d="m470 276h34.001v-49h-97.999v-94h57.423l-17.415-21.9c-7.59-9.54-19.11-15.1-31.3-15.1h-366.71c-22.09 0-40.001 17.91-40.001 40v184c0 22.09 17.911 40 40.001 40h25.999c0-30.92 25.061-56 56.001-56 30.93 0 55.999 25.08 55.999 56h130c0-30.92 25.061-56 56.001-56 30.93 0 55.999 25.08 55.999 56h36.001c22.09 0 40.001-17.91 40.001-40v-12h-34.001c-8.84 0-16-7.16-16-16 0-8.85 7.16-16 16-16zm-299.998-49h-66.951c-21.14 0-36.911-19.47-32.511-40.15l5.86-27.53c3.27-15.35 16.82-26.32 32.51-26.32h61.093v94zm100 0h-84v-94h84zm16 0v-94h104v94z" fill="#71a2e6"/><path d="m503.798 324c-2 20.21-19.058 36-39.798 36h-36.001c0-13.71-4.931-26.26-13.111-36z" fill="#497fbc"/><path d="m90.168 320.64c-10 10.12-16.169 24.02-16.169 39.36h-25.999c-22.09 0-40.001-17.91-40.001-40v-59.67l5.039 7.4c18.35 26.98 46.04 45.65 77.13 52.91z" fill="#497fbc"/><path d="m172.888 324h156.22c-8.18 9.74-13.109 22.29-13.109 36h-130c0-13.71-4.931-26.26-13.111-36z" fill="#497fbc"/><path d="m463.425 133h-354.516c-15.69 0-29.241 10.97-32.51 26.32-6.306 29.611-6.47 29.534-6.591 33.56-24.692-6.664-45.731-19.827-61.809-37.06 0-19.957-.972-26.79 3.829-36.9 6.4-13.55 20.192-22.92 36.172-22.92h366.71c12.19 0 23.71 5.56 31.3 15.1z" fill="#aac7f0"/><path d="m372 304c30.93 0 55.999 25.07 55.999 56s-25.071 56-56.001 56-55.999-25.07-55.999-56 25.071-56 56.001-56zm7.998 56c0-4.42-3.58-8-8-8s-8 3.58-8 8 3.58 8 8 8 8-3.58 8-8z" fill="#414754"/><path d="m130 304c30.93 0 55.999 25.07 55.999 56s-25.071 56-56.001 56-55.999-25.07-55.999-56 25.071-56 56.001-56zm7.998 56c0-4.42-3.58-8-8-8s-8 3.58-8 8 3.58 8 8 8 8-3.58 8-8z" fill="#414754"/><path d="m501.565 168.088-49.293-61.969c-9.16-11.515-22.852-18.119-37.565-18.119h-366.707c-26.467 0-48 21.533-48 48v21c0 4.418 3.582 8 8 8s8-3.582 8-8v-21c0-17.645 14.355-32 32-32h366.707c17.638 0 24.905 11.905 32.14 21h-337.94c-19.344 0-36.306 13.732-40.331 32.653l-5.858 27.532c-5.464 25.68 14.132 49.815 40.331 49.815h392.951v33h-26c-13.234 0-24 10.766-24 24s10.766 24 24 24h26v4c0 17.645-14.355 32-32 32h-28.518c-3.951-31.525-30.903-56-63.482-56s-59.531 24.475-63.482 56h-86.518c-4.418 0-8 3.582-8 8s3.582 8 8 8h86.518c3.951 31.525 30.903 56 63.482 56s59.531-24.475 63.482-56h28.518c26.467 0 48-21.533 48-48v-122.031c0-10.809-3.706-21.421-10.435-29.881zm-129.565 239.912c-26.467 0-48-21.533-48-48s21.533-48 48-48 48 21.533 48 48-21.533 48-48 48zm-86-267h104v78h-104zm-16 78h-84v-78h84zm-191.633-30.485 5.858-27.532c2.464-11.579 12.844-19.983 24.682-19.983h61.093v78h-66.951c-16.065 0-28.018-14.801-24.682-30.485zm327.633 30.485v-78h53.573c40.67 51.128 36.427 39.317 36.427 78zm64 81c-4.411 0-8-3.589-8-8s3.589-8 8-8h26v16z"/><path d="m4.94 197.39c7.977 3.327 14.846-6.757 8.72-13.05-5.012-5.011-13.66-1.459-13.66 5.66 0 3.135 1.849 6.104 4.94 7.39z"/><path d="m130 296c-32.579 0-59.531 24.475-63.482 56h-18.518c-17.645 0-32-14.355-32-32v-13h23c4.418 0 8-3.582 8-8s-3.582-8-8-8h-23v-14h33c4.418 0 8-3.582 8-8s-3.582-8-8-8h-33v-41.75c0-4.418-3.582-8-8-8s-8 3.582-8 8v100.75c0 26.467 21.533 48 48 48h18.518c3.951 31.525 30.903 56 63.482 56 35.29 0 64-28.71 64-64s-28.71-64-64-64zm0 112c-26.467 0-48-21.533-48-48s21.533-48 48-48 48 21.533 48 48-21.533 48-48 48z"/><path d="m130 344c-8.822 0-16 7.178-16 16s7.178 16 16 16 16-7.178 16-16-7.178-16-16-16z"/><path d="m372 344c-8.822 0-16 7.178-16 16s7.178 16 16 16 16-7.178 16-16-7.178-16-16-16z"/><path d="m334 277h16c4.418 0 8-3.582 8-8s-3.582-8-8-8h-16c-4.418 0-8 3.582-8 8s3.582 8 8 8z"/></svg>