<svg height="40" role="img" viewBox="0 0 60 36" width="66.66666666666667" fill="none" xmlns="http://www.w3.org/2000/svg">
<path d="M52.9488 4.08075C50.8651 2.40943 48.4367 1.22082 45.8386 0.600453C44.3512 0.261144 42.834 0.0697775 41.3089 0.0291482C40.1702 0 39.0295 0 37.8928 0H21.7641C20.6234 0 19.4827 0 18.344 0.0291482C16.8132 0.0688799 15.29 0.26025 13.7969 0.600453C11.2002 1.22166 8.77333 2.41022 6.69056 4.08075C4.60305 5.75071 2.91789 7.86881 1.75983 10.2782C0.601774 12.6877 0.000488281 15.3267 0.000488281 18C0.000488281 20.6733 0.601774 23.3123 1.75983 25.7218C2.91789 28.1312 4.60305 30.2493 6.69056 31.9192C8.77333 33.5898 11.2002 34.7783 13.7969 35.3995C15.285 35.7381 16.8029 35.9288 18.3285 35.9689C19.4672 36 20.6079 36 21.7485 36H37.8772C39.0179 36 40.1586 36 41.2973 35.9689C42.8222 35.9289 44.3395 35.7382 45.8269 35.3995C48.4251 34.7792 50.8534 33.5906 52.9371 31.9192C55.0246 30.2493 56.7098 28.1312 57.8679 25.7218C59.0259 23.3123 59.6272 20.6733 59.6272 18C59.6272 15.3267 59.0259 12.6877 57.8679 10.2782C56.7098 7.86881 55.0246 5.75071 52.9371 4.08075H52.9488ZM45.0827 22.8289C44.2894 23.3601 43.3881 23.7086 42.4438 23.8491C41.4838 24.0006 40.553 23.9696 39.5931 23.9696H20.0404C19.0805 23.9696 18.1497 24.0006 17.1898 23.8491C16.2449 23.7083 15.343 23.3599 14.5489 22.8289C13.7667 22.2886 13.1264 21.5675 12.6825 20.7268C12.2386 19.8861 12.0043 18.9507 11.9994 18C11.9975 17.0478 12.2289 16.1096 12.6734 15.2675C13.1178 14.4254 13.7617 13.7049 14.5489 13.1692C15.3434 12.639 16.2451 12.2906 17.1898 12.149C18.1497 11.9994 19.0805 12.0304 20.0404 12.0304H39.5989C40.5589 12.0304 41.4897 11.9994 42.4496 12.149C43.3917 12.2912 44.2907 12.6395 45.0827 13.1692C45.8653 13.7096 46.506 14.431 46.9502 15.272C47.3944 16.1131 47.629 17.0489 47.6341 18C47.6355 18.952 47.4036 19.8899 46.9589 20.7317C46.5141 21.5735 45.8699 22.2935 45.0827 22.8289Z" fill="#ffffff"/>
</svg>
