<svg xmlns="http://www.w3.org/2000/svg" viewBox="0 0 199.26 182.23"><defs><style>.cls-1{fill:none;}</style></defs><g id="Layer_2" data-name="Layer 2"><g id="Layer_1-2" data-name="Layer 1"><g id="_90" data-name="90"><path d="M76.79,23.05A49.24,49.24,0,0,1,123,72.13h8.25c0-1.5,0-3-.17-4.51l1.83-.14c.12,1.54.18,3.1.18,4.65h8.26A67.48,67.48,0,0,0,76.9,4.68L83,13.81Zm54.62,35.23-1.78.43a57.17,57.17,0,0,0-2.79-8.57l1.7-.7A59.6,59.6,0,0,1,131.41,58.28Zm-7.1-17.12-1.56,1a57.53,57.53,0,0,0-5.31-7.29l1.4-1.19A59.4,59.4,0,0,1,124.31,41.16Zm-12-14.1-1.19,1.4a56.49,56.49,0,0,0-7.29-5.3l1-1.57A59.4,59.4,0,0,1,112.26,27.06Zm-15.8-9.7-.7,1.7a57.55,57.55,0,0,0-8.57-2.79l.42-1.78A59.72,59.72,0,0,1,96.46,17.36Z"/><path d="M73.77,27.54a44.64,44.64,0,0,1,44.59,44.59h2.75A47.39,47.39,0,0,0,75.6,24.83Z"/><path d="M100.77,8.23a69.28,69.28,0,0,1,42.36,63.9h2.75A72.06,72.06,0,0,0,73.81,0L75.65,2.8A68.75,68.75,0,0,1,100.77,8.23Z"/><path d="M73.79,0V0h0Z"/><polygon class="cls-1" points="118.36 72.09 118.38 72.09 118.38 72.1 118.36 72.09"/><polygon class="cls-1" points="141.32 75.14 141.32 72.09 143.15 72.09 143.15 73.91 141.32 75.14"/><polygon class="cls-1" points="121.14 73.93 121.14 72.09 122.97 72.09 122.97 75.15 121.14 73.93"/><rect class="cls-1" x="131.23" y="72.09" width="1.83" height="4.59"/><polygon points="143.15 72.09 145.88 72.09 143.15 73.91 143.15 72.09"/><polygon points="118.38 72.1 118.38 72.09 121.14 72.09 121.14 73.93 118.38 72.1"/><polygon points="132.16 81.26 122.97 75.15 122.97 72.09 131.23 72.09 131.23 76.67 133.06 76.67 133.06 72.09 141.32 72.09 141.32 75.14 132.16 81.26"/></g><polygon class="cls-1" points="74.73 27.64 74.73 27.61 74.75 27.61 74.73 27.64"/><polygon class="cls-1" points="77.78 4.68 74.73 4.68 74.73 2.84 76.55 2.84 77.78 4.68"/><polygon class="cls-1" points="76.58 24.86 74.73 24.86 74.73 23.03 77.8 23.03 76.58 24.86"/><rect class="cls-1" x="74.73" y="12.94" width="4.59" height="1.83"/><polygon points="74.73 2.84 74.73 0.12 76.55 2.84 74.73 2.84"/><polygon points="74.75 27.61 74.73 27.61 74.73 24.86 76.58 24.86 74.75 27.61"/><polygon points="83.9 13.83 77.8 23.03 74.73 23.03 74.73 14.77 79.32 14.77 79.32 12.94 74.73 12.94 74.73 4.68 77.78 4.68 83.9 13.83"/><polygon points="74.73 0.09 0.11 0.09 1.96 2.84 74.73 2.84 74.73 0.09"/><polygon points="1.79 24.86 0 27.56 0 27.61 74.73 27.61 74.73 24.86 1.79 24.86"/><path d="M74.73,12.94V4.68H3.19l6,9L3,23H74.73V14.77H70.14V12.94ZM24.27,14.77H15.1V12.94h9.17Zm18.35,0H33.44V12.94h9.18Zm18.35,0H51.79V12.94H61Z"/><polygon class="cls-1" points="156.58 163.99 156.6 163.97 156.61 163.98 156.58 163.99"/><polygon class="cls-1" points="174.97 149.91 172.81 147.75 174.11 146.45 175.4 147.74 174.97 149.91"/><polygon class="cls-1" points="159.85 163.33 158.54 162.02 159.84 160.72 162.01 162.89 159.85 163.33"/><rect class="cls-1" x="167.03" y="153.56" width="1.83" height="4.59" transform="translate(-61.02 164.41) rotate(-45)"/><polygon points="174.11 146.45 176.04 144.52 175.4 147.74 174.11 146.45"/><polygon points="156.61 163.98 156.6 163.97 158.54 162.02 159.85 163.33 156.61 163.98"/><polygon points="172.83 160.71 162.01 162.89 159.84 160.72 165.68 154.88 168.92 158.13 170.22 156.83 166.98 153.59 172.81 147.75 174.97 149.91 172.83 160.71"/><path d="M118.37,71.74a130.36,130.36,0,0,0,9.55,49.08A129.62,129.62,0,0,0,156.58,164l1.94-1.94a127.61,127.61,0,0,1-37.39-88.45l-2.76-1.85Z"/><path d="M174.09,146.47l1.95-1.95a102.26,102.26,0,0,1-30.15-72.78h0l-2.73,1.81A105,105,0,0,0,174.09,146.47Z"/><path d="M123,74.83a126.29,126.29,0,0,0,9.18,44.27,125.18,125.18,0,0,0,27.65,41.64l5.84-5.84c-1.09-1.08-2.16-2.2-3.2-3.33l1.34-1.24c1,1.1,2.09,2.21,3.16,3.28l5.84-5.84a106.75,106.75,0,0,1-31.45-73l-9.27,6.16Zm29.55,61.24c1.68,2.5,3.48,5,5.35,7.35l-1.44,1.14c-1.9-2.41-3.73-4.93-5.44-7.47Zm-8.89-15.85c1.27,2.74,2.66,5.47,4.13,8.1l-1.6.9c-1.5-2.68-2.91-5.45-4.19-8.23Zm-6.28-17c.82,2.91,1.76,5.82,2.81,8.65l-1.73.63c-1-2.87-2-5.83-2.84-8.78Zm-2.11-8.84-1.8.36c-.6-3-1.08-6.08-1.44-9.13l1.82-.21C134.2,88.35,134.67,91.37,135.26,94.33Z"/><path d="M174.66,149.54l-2.22,10.89-10.76,2.1a67,67,0,0,0,20,12.79,67.84,67.84,0,0,0,9.83,3.18l7.27-7c-1.85-.28-3.69-.61-5.5-1.06l.44-1.78c1.82.45,3.67.79,5.54,1.06l-3.7-9.14A48.91,48.91,0,0,1,174.66,149.54Zm9.79,18a57.67,57.67,0,0,1-8.26-4.28l1-1.55a56.53,56.53,0,0,0,8,4.13Z"/><path d="M175.74,144.23l-.65,3.21a47,47,0,0,0,19.61,11l-1.32-3.28A44.19,44.19,0,0,1,175.74,144.23Z"/><path d="M181,177a68.88,68.88,0,0,1-21.52-14l-3.27.64a71.57,71.57,0,0,0,31.45,18.62l2.3-2.22A68.78,68.78,0,0,1,181,177Z"/><polygon points="176.17 163.61 176.18 163.6 176.19 163.61 176.17 163.61"/></g></g></svg>