<svg xmlns="http://www.w3.org/2000/svg" viewBox="0 0 200.09 185.01"><defs><style>.cls-1{fill:none;}</style></defs><g id="Layer_2" data-name="Layer 2"><g id="Layer_1-2" data-name="Layer 1"><path d="M12.2,161.45c-1.44-.22-2.86-.52-4.28-.87l3.7,9.14.54.09Z"/><path d="M3.87,178.5A67.52,67.52,0,0,0,12.12,180l0-8.31c-.34,0-.67-.11-1-.16Z"/><path d="M12.22,156.8a42.94,42.94,0,0,1-6.48-1.62l1.33,3.28a47.59,47.59,0,0,0,5.14,1.13Z"/><path d="M0,182.24a73,73,0,0,0,12.09,2.35l0-2.77A68.75,68.75,0,0,1,2.31,180Z"/><path d="M61.48,155.05c-1.1,1.09-2.26,2.14-3.44,3.14l-1.18-1.4c1.14-1,2.26-2,3.33-3l-5.81-5.87A49.13,49.13,0,0,1,12.2,161.45l0,8.36c.94.12,1.87.23,2.81.31L14.82,172c-.89-.07-1.78-.17-2.67-.29l0,8.31a70.81,70.81,0,0,0,7.3.45,67.38,67.38,0,0,0,47.86-19.5ZM24.12,172,24,170.18a57.89,57.89,0,0,0,8.91-1.35l.42,1.78A60.52,60.52,0,0,1,24.12,172Zm18.05-4.21-.69-1.7a57.13,57.13,0,0,0,8.05-4l.95,1.57A59.2,59.2,0,0,1,42.17,167.8Z"/><path d="M53.09,146.56l-1.93-1.95A44.55,44.55,0,0,1,12.22,156.8v2.79A47.26,47.26,0,0,0,53.09,146.56Z"/><path d="M68.57,162.22a69.21,69.21,0,0,1-49.16,20,70.8,70.8,0,0,1-7.3-.43l0,2.77a71,71,0,0,0,7.3.41,71.94,71.94,0,0,0,51.12-20.82Z"/><polygon class="cls-1" points="51.13 144.64 51.14 144.66 51.15 144.64 51.13 144.64"/><polygon class="cls-1" points="69.44 158.82 67.27 160.97 68.56 162.27 69.85 160.99 69.44 158.82"/><polygon class="cls-1" points="54.39 145.31 53.08 146.61 54.37 147.92 56.55 145.76 54.39 145.31"/><rect class="cls-1" x="60.15" y="151.91" width="4.59" height="1.83" transform="translate(-89.4 88.03) rotate(-44.67)"/><polygon points="68.56 162.27 70.47 164.21 69.85 160.99 68.56 162.27"/><polygon points="51.15 144.64 51.14 144.66 53.08 146.61 54.39 145.31 51.15 144.64"/><polygon points="67.36 148.01 56.55 145.76 54.37 147.92 60.17 153.79 63.43 150.56 64.72 151.87 61.46 155.09 67.27 160.97 69.44 158.82 67.36 148.01"/><polygon class="cls-1" points="108.73 71.91 108.71 71.91 108.71 71.89 108.73 71.91"/><polygon class="cls-1" points="85.77 68.86 85.77 71.91 83.94 71.91 83.94 70.09 85.77 68.86"/><polygon class="cls-1" points="105.95 70.06 105.95 71.91 104.12 71.91 104.12 68.85 105.95 70.06"/><rect class="cls-1" x="94.03" y="67.32" width="1.83" height="4.59"/><polygon points="83.94 71.91 81.21 71.91 83.94 70.09 83.94 71.91"/><polygon points="108.71 71.89 108.71 71.91 105.95 71.91 105.95 70.06 108.71 71.89"/><polygon points="94.92 62.74 104.12 68.85 104.12 71.91 95.86 71.91 95.86 67.32 94.03 67.32 94.03 71.91 85.77 71.91 85.77 68.86 94.92 62.74"/><path d="M70.52,164.16a130.76,130.76,0,0,0,15.92-19.3,130.47,130.47,0,0,0,12-22.16,129.63,129.63,0,0,0,10.26-50.79H106a126.92,126.92,0,0,1-10,49.71,127.93,127.93,0,0,1-11.78,21.7,128,128,0,0,1-14.29,17.57l.65,3.27Z"/><path d="M84,71.91H81.21A102.27,102.27,0,0,1,51.06,144.7h0l3.22.65A105,105,0,0,0,84,71.91Z"/><path d="M69.44,158.7a126.78,126.78,0,0,0,13.2-16.41,126,126,0,0,0,11.61-21.38,125.19,125.19,0,0,0,9.89-49H95.89c0,1.54,0,3.09-.09,4.62L94,76.46c.06-1.51.09-3,.09-4.55H85.79a106.81,106.81,0,0,1-29.38,73.87L67.31,148ZM91.85,94.51c.58-3,1.06-6,1.41-9l1.82.21c-.35,3.05-.84,6.12-1.43,9.12ZM86.93,112c1-2.84,2-5.75,2.8-8.65l1.77.5c-.83,3-1.79,5.9-2.85,8.78Zm-7.62,16.49c1.48-2.63,2.87-5.36,4.13-8.1l1.67.77c-1.29,2.79-2.7,5.55-4.2,8.23Zm-4.76,7.75,1.53,1c-1.71,2.55-3.54,5.06-5.44,7.47l-1.44-1.14C71.07,141.22,72.87,138.75,74.55,136.24Z"/><g id="_90" data-name="90"><path d="M104.22,69.2A49.23,49.23,0,0,1,153.3,23.05V14.79c-1.5,0-3,.06-4.51.17l-.14-1.83c1.53-.12,3.1-.18,4.65-.18V4.7A67.47,67.47,0,0,0,85.85,69.09L95,63Zm35.23-54.62.43,1.79a56,56,0,0,0-8.57,2.78l-.7-1.7A59.23,59.23,0,0,1,139.45,14.58Zm-17.13,7.1,1,1.57a56.49,56.49,0,0,0-7.29,5.3l-1.19-1.4A60,60,0,0,1,122.32,21.68Zm-14.09,12,1.4,1.19a58.26,58.26,0,0,0-5.31,7.29l-1.56-1A59.4,59.4,0,0,1,108.23,33.73Zm-9.7,15.8,1.7.71a57.17,57.17,0,0,0-2.79,8.57l-1.78-.43A59.72,59.72,0,0,1,98.53,49.53Z"/><path d="M108.71,72.22A44.64,44.64,0,0,1,153.3,27.63V24.88A47.39,47.39,0,0,0,106,70.39Z"/><path d="M89.4,45.22A69.33,69.33,0,0,1,153.3,2.86V.11A72.06,72.06,0,0,0,81.19,72.18L84,70.34A68.75,68.75,0,0,1,89.4,45.22Z"/><path d="M81.17,72.2h0v0Z"/><polygon class="cls-1" points="153.25 27.64 153.25 27.61 153.27 27.61 153.25 27.64"/><polygon class="cls-1" points="156.31 4.67 153.25 4.67 153.25 2.84 155.08 2.84 156.31 4.67"/><polygon class="cls-1" points="155.1 24.86 153.25 24.86 153.25 23.02 156.32 23.02 155.1 24.86"/><rect class="cls-1" x="153.26" y="12.93" width="4.59" height="1.83"/><polygon points="153.25 2.84 153.25 0.11 155.08 2.84 153.25 2.84"/><polygon points="153.27 27.61 153.25 27.61 153.25 24.86 155.1 24.86 153.27 27.61"/><polygon points="162.43 13.83 156.32 23.02 153.25 23.02 153.25 14.77 157.84 14.77 157.84 12.93 153.25 12.93 153.25 4.67 156.31 4.67 162.43 13.83"/></g><polygon points="190.85 0 152.79 0 152.79 0.03 154.61 2.75 192.71 2.75 190.85 0"/><polygon points="154.65 24.77 152.81 27.52 190.82 27.52 192.68 24.77 154.65 24.77"/><path d="M200.09,13.65,194,4.59H155.83L162,13.83l-6.09,9.11h38l6.17-9.15Zm-24.36,1h-9.17V12.84h9.17Zm9.17,0V12.84h9.18v1.84Z"/><polygon points="152.79 27.55 152.81 27.52 152.79 27.52 152.79 27.55"/></g></g></svg>