<svg xmlns="http://www.w3.org/2000/svg" viewBox="0 0 199.99 176.65"><defs><style>.cls-1{fill:none;}</style></defs><g id="Layer_2" data-name="Layer 2"><g id="Layer_1-2" data-name="Layer 1"><path d="M15,16.06,5.15,20.82a48.41,48.41,0,0,1,10,7.38Z"/><path d="M15,5.27l-.61-.34L15,15.48Z"/><path d="M0,23.3a44.31,44.31,0,0,1,12.59,8.84l1.94-1.95a47,47,0,0,0-11.39-8.4Z"/><path d="M23,21.76l5.84-5.84A67.51,67.51,0,0,0,15,5.27L15.1,28.2c.25.23.49.45.73.69l5.84-5.84C20.61,22,19.49,21,18.36,20l1.19-1.4C20.72,19.6,21.87,20.66,23,21.76Z"/><polygon class="cls-1" points="190.81 176.65 190.81 176.62 190.83 176.62 190.81 176.65"/><polygon class="cls-1" points="193.87 153.68 190.81 153.68 190.81 151.85 192.64 151.85 193.87 153.68"/><polygon class="cls-1" points="192.66 173.87 190.81 173.87 190.81 172.03 193.88 172.03 192.66 173.87"/><rect class="cls-1" x="190.81" y="161.94" width="4.59" height="1.83"/><polygon points="190.81 151.85 190.81 149.12 192.64 151.85 190.81 151.85"/><polygon points="190.83 176.62 190.81 176.62 190.81 173.87 192.66 173.87 190.83 176.62"/><polygon points="199.99 162.84 193.88 172.03 190.81 172.03 190.81 163.78 195.4 163.78 195.4 161.94 190.81 161.94 190.81 153.68 193.87 153.68 199.99 162.84"/><polygon points="114.46 149.1 114.46 149.12 116.27 151.85 190.81 151.85 190.81 149.1 114.46 149.1"/><polygon points="116.31 173.87 114.47 176.62 190.81 176.62 190.81 173.87 116.31 173.87"/><path d="M183.26,163.78v-1.84h7.55v-8.26H117.49l6.14,9.25-6.09,9.1h73.27v-8.25Zm-45.87,0h-9.17v-1.84h9.17Zm18.35,0h-9.17v-1.84h9.17Zm18.35,0h-9.17v-1.84h9.17Z"/><polygon points="114.46 176.65 114.47 176.62 114.46 176.62 114.46 176.65"/><g id="_90" data-name="90"><path d="M65.48,107.54a49.23,49.23,0,0,0,49.08,46.16V162c-1.5,0-3-.06-4.51-.18l-.14,1.83c1.53.12,3.1.18,4.65.18v8.26a67.48,67.48,0,0,1-67.45-64.39l9.13,6.06Zm35.23,54.63.43-1.79a57.13,57.13,0,0,1-8.57-2.78l-.71,1.69A58.62,58.62,0,0,0,100.71,162.17Zm-17.13-7.11,1-1.56a58.08,58.08,0,0,1-7.28-5.3l-1.19,1.39A58.07,58.07,0,0,0,83.58,155.06ZM69.49,143l1.4-1.19a59,59,0,0,1-5.31-7.29l-1.56,1A60.87,60.87,0,0,0,69.49,143Zm-9.7-15.8,1.7-.71a57.17,57.17,0,0,1-2.79-8.57l-1.78.43A59.72,59.72,0,0,0,59.79,127.22Z"/><path d="M70,104.53a44.63,44.63,0,0,0,44.59,44.58v2.76a47.41,47.41,0,0,1-47.31-45.52Z"/><path d="M50.66,131.53a69.33,69.33,0,0,0,63.9,42.36v2.75a72.06,72.06,0,0,1-72.11-72.08l2.78,1.85A68.84,68.84,0,0,0,50.66,131.53Z"/><path d="M42.43,104.55h0Z"/><polygon class="cls-1" points="114.52 149.11 114.52 149.14 114.53 149.14 114.52 149.11"/><polygon class="cls-1" points="117.57 172.07 114.52 172.07 114.52 173.91 116.34 173.91 117.57 172.07"/><polygon class="cls-1" points="116.36 151.89 114.52 151.89 114.52 153.72 117.58 153.72 116.36 151.89"/><rect class="cls-1" x="114.51" y="161.98" width="4.59" height="1.83"/><polygon points="114.52 173.91 114.52 176.64 116.34 173.91 114.52 173.91"/><polygon points="114.53 149.14 114.52 149.14 114.52 151.89 116.36 151.89 114.53 149.14"/><polygon points="123.69 162.92 117.58 153.72 114.52 153.72 114.52 161.98 119.1 161.98 119.1 163.82 114.52 163.82 114.52 172.07 117.57 172.07 123.69 162.92"/></g><path d="M32.05,12.67A71.93,71.93,0,0,0,15,0l0,3.16A69,69,0,0,1,30.1,14.62Z"/><polygon class="cls-1" points="12.55 32.1 12.57 32.09 12.58 32.1 12.55 32.1"/><polygon class="cls-1" points="30.95 18.03 28.79 15.87 30.09 14.57 31.38 15.86 30.95 18.03"/><polygon class="cls-1" points="14.52 30.14 15.12 30.74 15.11 29.55 14.52 30.14"/><polygon class="cls-1" points="17.98 31.01 15.82 28.84 15.11 29.55 15.12 30.74 15.82 31.45 17.98 31.01"/><rect class="cls-1" x="23.01" y="21.68" width="1.83" height="4.59" transform="translate(-9.95 23.94) rotate(-45)"/><polygon points="30.09 14.57 32.02 12.64 31.38 15.86 30.09 14.57"/><polygon points="14.52 30.14 12.57 32.09 12.58 32.1 15.12 31.59 15.12 30.74 14.52 30.14"/><polygon points="15.12 30.74 15.12 31.59 15.82 31.45 15.12 30.74"/><polygon points="28.8 28.83 17.98 31.01 15.82 28.84 21.65 23 24.9 26.25 26.2 24.95 22.95 21.71 28.79 15.87 30.95 18.03 28.8 28.83"/><polygon class="cls-1" points="69.97 104.56 69.95 104.56 69.95 104.58 69.97 104.56"/><polygon class="cls-1" points="47.01 107.61 47.01 104.56 45.18 104.56 45.18 106.39 47.01 107.61"/><polygon class="cls-1" points="67.2 106.41 67.2 104.56 65.36 104.56 65.36 107.63 67.2 106.41"/><rect class="cls-1" x="55.27" y="104.56" width="1.83" height="4.59"/><polygon points="45.18 104.56 42.45 104.56 45.18 106.39 45.18 104.56"/><polygon points="69.95 104.58 69.95 104.56 67.2 104.56 67.2 106.41 69.95 104.58"/><polygon points="56.17 113.74 65.36 107.63 65.36 104.56 57.1 104.56 57.1 109.15 55.27 109.15 55.27 104.56 47.01 104.56 47.01 107.61 56.17 113.74"/><path d="M31.76,12.31a132,132,0,0,1,15.93,19.3,130.56,130.56,0,0,1,12,22.17A129.75,129.75,0,0,1,70,104.56H67.22a127,127,0,0,0-10-49.71,127.88,127.88,0,0,0-11.77-21.7A129.5,129.5,0,0,0,31.12,15.58l.64-3.27Z"/><path d="M45.2,104.56H42.45A102.3,102.3,0,0,0,12.3,31.77h0l3.22-.64A104.92,104.92,0,0,1,45.2,104.56Z"/><path d="M30.68,17.77a125.94,125.94,0,0,1,13.2,16.41A125.27,125.27,0,0,1,55.49,55.56a125.05,125.05,0,0,1,9.9,49H57.13c0-1.53,0-3.09-.09-4.62l-1.83.07c.06,1.51.09,3,.09,4.55H47A106.78,106.78,0,0,0,17.65,30.7l10.9-2.2ZM53.09,82c.59,3,1.06,6,1.41,9l1.83-.22c-.36-3-.84-6.12-1.44-9.12ZM48.17,64.48c1,2.83,2,5.74,2.81,8.64l1.76-.49c-.83-3-1.79-5.91-2.85-8.79ZM40.55,48c1.48,2.64,2.87,5.36,4.14,8.1l1.66-.77c-1.28-2.78-2.7-5.55-4.2-8.23ZM35.8,40.23l1.52-1c-1.7-2.54-3.53-5.06-5.43-7.46l-1.44,1.13C32.32,35.25,34.12,37.73,35.8,40.23Z"/></g></g></svg>