<svg width="58" height="33" viewBox="0 0 58 33" fill="none" xmlns="http://www.w3.org/2000/svg">
<path d="M2.309 14.5808L2.309 17.7367H0.912598L0.912598 26.4307L57.9126 26.4307V17.7367H56.5163V14.5808H57.9126V5.8869L0.912598 5.8869L0.912598 14.5808H2.309ZM50.4932 14.5808V17.7367H44.4702V14.5808H50.4932ZM38.4471 14.5808V17.7367H32.4241V14.5808H38.4471ZM26.4012 14.5808V17.7367H20.3781V14.5808H26.4012ZM14.3551 14.5808V17.7367H8.33199V14.5808H14.3551Z" fill="black"/>
<path d="M0.912598 28.6297L0.912598 32.271H57.9126V28.6297L0.912598 28.6297Z" fill="black"/>
<path d="M0.912598 0.0462341L0.912598 3.6875L57.9126 3.6875V0.0462341L0.912598 0.0462341Z" fill="black"/>
</svg>
