<svg xmlns="http://www.w3.org/2000/svg" viewBox="0 0 199.93 185.26"><defs><style>.cls-1{fill:none;}</style></defs><g id="Layer_2" data-name="Layer 2"><g id="Layer_1-2" data-name="Layer 1"><polygon points="0 185.19 9.27 185.19 9.27 182.44 1.86 182.44 0 185.19"/><rect x="9.27" y="182.44" width="23.17" height="2.75"/><polygon points="9.27 160.42 9.27 157.67 0.03 157.67 1.89 160.42 9.27 160.42"/><polygon points="9.27 162.26 3.13 162.26 9.27 171.32 9.27 162.26"/><polygon points="9.27 171.46 3.1 180.6 9.27 180.6 9.27 171.46"/><polygon class="cls-1" points="115.15 21.11 115.17 21.12 115.18 21.11 115.15 21.11"/><polygon class="cls-1" points="133.54 35.19 131.38 37.34 132.68 38.64 133.97 37.35 133.54 35.19"/><polygon class="cls-1" points="118.42 21.77 117.11 23.07 118.41 24.37 120.58 22.2 118.42 21.77"/><rect class="cls-1" x="124.22" y="28.32" width="4.59" height="1.83" transform="translate(16.39 98.02) rotate(-45)"/><polygon points="132.68 38.64 134.61 40.57 133.97 37.35 132.68 38.64"/><polygon points="115.18 21.11 115.17 21.12 117.11 23.07 118.42 21.77 115.18 21.11"/><polygon points="131.4 24.38 120.58 22.2 118.41 24.37 124.25 30.21 127.49 26.96 128.79 28.26 125.55 31.5 131.38 37.34 133.54 35.19 131.4 24.38"/><path d="M76.94,113.36a131.65,131.65,0,0,1,2.38-24.91,129.93,129.93,0,0,1,35.83-67.34l1.94,1.94A127.61,127.61,0,0,0,79.7,111.51l-2.76,1.85Z"/><path d="M132.66,38.62l2,2a102.27,102.27,0,0,0-30.15,72.79h0l-2.74-1.82A105,105,0,0,1,132.66,38.62Z"/><path d="M81.56,110.26a125.46,125.46,0,0,1,36.83-85.91l5.84,5.84c-1.09,1.08-2.16,2.21-3.21,3.33l1.35,1.25c1-1.11,2.09-2.21,3.16-3.28l5.84,5.83a106.81,106.81,0,0,0-31.46,73l-9.26-6.16ZM111.11,49c1.67-2.5,3.48-5,5.35-7.35L115,40.54c-1.9,2.4-3.73,4.92-5.44,7.46Zm-8.89,15.85c1.27-2.74,2.65-5.47,4.13-8.1l-1.6-.9c-1.5,2.68-2.91,5.45-4.19,8.23Zm-6.28,17c.82-2.91,1.76-5.82,2.81-8.65L97,72.64c-1.06,2.87-2,5.83-2.84,8.78Zm-2.11,8.84L92,90.4c-.6,3-1.08,6.08-1.44,9.13l1.82.21C92.77,96.74,93.24,93.72,93.83,90.76Z"/><polygon class="cls-1" points="32.44 185.22 32.44 185.19 32.46 185.19 32.44 185.22"/><polygon class="cls-1" points="35.49 162.26 32.44 162.26 32.44 160.42 34.27 160.42 35.49 162.26"/><polygon class="cls-1" points="34.29 182.44 32.44 182.44 32.44 180.6 35.51 180.6 34.29 182.44"/><rect class="cls-1" x="32.44" y="170.51" width="4.59" height="1.83"/><polygon points="32.44 160.42 32.44 157.69 34.27 160.42 32.44 160.42"/><polygon points="32.46 185.19 32.44 185.19 32.44 182.44 34.29 182.44 32.46 185.19"/><polygon points="41.62 171.41 35.51 180.6 32.44 180.6 32.44 172.35 37.03 172.35 37.03 170.51 32.44 170.51 32.44 162.26 35.49 162.26 41.62 171.41"/><rect x="9.27" y="157.67" width="23.17" height="2.75"/><path d="M32.44,170.51v-8.25H9.27v18.35H32.44v-8.26H27.85v-1.84Zm-13.76,1.84H9.51v-1.84h9.17Z"/><g id="_90" data-name="90"><path d="M35.3,162.21a49.24,49.24,0,0,0,46.16-49.08h8.25c0,1.5,0,3-.17,4.51l1.83.14c.12-1.54.18-3.1.18-4.65h8.26A67.37,67.37,0,0,1,80,160.88a67.37,67.37,0,0,1-44.62,19.7l6.07-9.13ZM89.92,127l-1.78-.43a57.17,57.17,0,0,1-2.79,8.57l1.7.7A59.6,59.6,0,0,0,89.92,127Zm-7.1,17.12-1.56-1A57.53,57.53,0,0,1,76,150.43l1.4,1.19A59.4,59.4,0,0,0,82.82,144.1Zm-12,14.1-1.19-1.4a56.49,56.49,0,0,1-7.29,5.3l1,1.57A59.4,59.4,0,0,0,70.77,158.2ZM55,167.9l-.7-1.7A57.55,57.55,0,0,1,45.7,169l.42,1.78A59.72,59.72,0,0,0,55,167.9Z"/><path d="M32.28,157.72a44.64,44.64,0,0,0,44.59-44.59h2.75a47.39,47.39,0,0,1-45.51,47.3Z"/><path d="M59.28,177a69.28,69.28,0,0,0,42.36-63.9h2.75a71.92,71.92,0,0,1-21.12,51,71.87,71.87,0,0,1-50.95,21.12l1.84-2.78A68.75,68.75,0,0,0,59.28,177Z"/><path d="M32.31,185.26v0h0Z"/><polygon class="cls-1" points="76.87 113.17 76.89 113.17 76.89 113.16 76.87 113.17"/><polygon class="cls-1" points="99.83 110.12 99.83 113.17 101.66 113.17 101.66 111.35 99.83 110.12"/><polygon class="cls-1" points="79.64 111.33 79.64 113.17 81.48 113.17 81.48 110.11 79.64 111.33"/><rect class="cls-1" x="89.74" y="108.59" width="1.83" height="4.59"/><polygon points="101.66 113.17 104.39 113.17 101.66 111.35 101.66 113.17"/><polygon points="76.89 113.16 76.89 113.17 79.64 113.17 79.64 111.33 76.89 113.16"/><polygon points="90.67 104 81.48 110.11 81.48 113.17 89.74 113.17 89.74 108.59 91.57 108.59 91.57 113.17 99.83 113.17 99.83 110.12 90.67 104"/></g><path d="M199.93,23.92l-.67-10.54a67.62,67.62,0,0,0-58.71-3.85A67.12,67.12,0,0,0,120.47,22.2l10.74,2.17,2.17,10.9a49.26,49.26,0,0,1,56.67-6l9.88-4.76Zm-64-.79-1-1.57a59.81,59.81,0,0,1,8.29-4.22L144,19A56.66,56.66,0,0,0,135.94,23.13Zm16.6-6.87-.42-1.79A59.05,59.05,0,0,1,161.3,13l.14,1.83A57,57,0,0,0,152.54,16.26Zm26.82,0a58.26,58.26,0,0,0-8.9-1.41L170.6,13a59.05,59.05,0,0,1,9.18,1.44ZM196,23.12a58.85,58.85,0,0,0-8-4.09l.7-1.69a58.73,58.73,0,0,1,8.29,4.22Z"/><path d="M133.79,37.37l.63,3.21a44.66,44.66,0,0,1,50.47-8.83L188,30.24A47.43,47.43,0,0,0,133.79,37.37Z"/><path d="M198.92,8c-1.9-1-3.84-1.9-5.84-2.71A72,72,0,0,0,115,21.1l3.27.65a69,69,0,0,1,80.87-10.54Z"/><polygon points="114.96 21.09 114.98 21.11 114.99 21.09 114.96 21.09"/></g></g></svg>