<svg width="31" height="25" viewBox="0 0 31 25" fill="none" xmlns="http://www.w3.org/2000/svg">
<path d="M0.446963 22.237C3.29591 24.0448 6.61156 25 10.0349 25C15.0481 25 19.6421 23.0742 22.9719 19.5778C26.158 16.2313 27.9107 11.7348 27.8235 7.17164C29.0313 6.13822 30.452 4.16499 30.452 2.24175C30.452 1.50451 29.6519 1.03653 29.0031 1.4122C27.8684 2.07892 26.8337 2.25329 25.7695 1.95455C23.5963 -0.163568 20.3614 -0.609758 17.6355 0.859591C15.2533 2.14175 13.9288 4.48809 14.0481 7.0524C10.0234 6.56133 6.30513 4.54322 3.71261 1.40707C3.28694 0.895491 2.47918 0.955753 2.14069 1.53529C0.89187 3.67392 0.904692 6.15233 1.99068 8.15377C1.47397 8.2448 1.15471 8.67945 1.15471 9.15C1.15471 11.1617 2.05991 13.0106 3.51772 14.2722C3.24591 14.5338 3.15616 14.9223 3.27155 15.2684C3.91263 17.1942 5.36403 18.6995 7.17828 19.4534C5.20504 20.3958 3.02281 20.7099 1.08035 20.4714C0.0751377 20.3355 -0.421056 21.6869 0.446963 22.237ZM10.2978 19.7829C11.017 19.2303 10.635 18.0789 9.73233 18.0597C8.14246 18.0264 6.6949 17.243 5.79355 16.0108C6.2282 15.9826 6.67823 15.9159 7.10647 15.8005C8.08219 15.5364 8.03604 14.1286 7.04493 13.9299C5.24607 13.5683 3.83442 12.2579 3.30489 10.5706C3.78826 10.6899 4.28061 10.7565 4.77167 10.7655C5.74483 10.7706 6.1128 9.52311 5.31915 9.00127C3.53054 7.82297 2.76766 5.74204 3.27283 3.78547C6.39616 6.94983 10.6337 8.85639 15.1161 9.07179C15.7585 9.11154 16.2405 8.50764 16.0995 7.89606C15.4905 5.2561 16.965 3.40595 18.5484 2.55332C20.1152 1.7071 22.6308 1.44297 24.5592 3.46621C25.1323 4.07011 27.0658 4.09319 28.0492 3.86368C27.6081 4.69452 26.9299 5.48304 26.2952 5.92667C26.0247 6.11643 25.8695 6.43184 25.8862 6.76135C26.0926 10.9732 24.5233 15.1607 21.5807 18.2495C18.6164 21.3612 14.5173 23.0755 10.0362 23.0755C8.254 23.0755 6.50643 22.7857 4.85501 22.2267C6.82953 21.8446 8.70532 21.0087 10.2978 19.7829Z" fill="black"/>
</svg>
