<svg width="30" height="30" viewBox="0 0 30 30" fill="none" xmlns="http://www.w3.org/2000/svg">
<path d="M29.4141 0H5.74219C5.41863 0 5.15625 0.262324 5.15625 0.585938V3.16406H3.16406C2.84051 3.16406 2.57812 3.42645 2.57812 3.75V6.91406H0.585938C0.262324 6.91406 0 7.17645 0 7.5V26.8359C0 28.5806 1.41943 30 3.16406 30H26.8359C28.5806 30 30 28.5806 30 26.8359V0.585938C30 0.262324 29.7376 0 29.4141 0ZM28.8281 26.8359C28.8281 27.9345 27.9345 28.8281 26.8359 28.8281H5.61984C6.06223 28.2838 6.32812 27.5904 6.32812 26.8359V18.926C6.32812 18.6024 6.06574 18.34 5.74219 18.34C5.41863 18.34 5.15625 18.6024 5.15625 18.926V26.8359C5.15625 27.9345 4.26258 28.8281 3.16406 28.8281C2.06555 28.8281 1.17188 27.9345 1.17188 26.8359V8.08594H2.57812V26.25C2.57812 26.5736 2.84051 26.8359 3.16406 26.8359C3.48762 26.8359 3.75 26.5736 3.75 26.25V4.33594H5.15625V13.6525C5.15625 13.9761 5.41863 14.2385 5.74219 14.2385C6.06574 14.2385 6.32812 13.9761 6.32812 13.6525V1.17188H28.8281V26.8359Z" fill="black"/>
<path d="M8.55469 9.25781H26.6016C26.9251 9.25781 27.1875 8.99549 27.1875 8.67188V4.45312C27.1875 4.12957 26.9251 3.86719 26.6016 3.86719H8.55469C8.23107 3.86719 7.96875 4.12957 7.96875 4.45312V8.67188C7.96875 8.99549 8.23107 9.25781 8.55469 9.25781ZM9.14062 5.03906H26.0156V8.08594H9.14062V5.03906Z" fill="black"/>
<path d="M8.55469 23.3203H17.5781C17.9017 23.3203 18.1641 23.0579 18.1641 22.7344V11.4844C18.1641 11.1608 17.9017 10.8984 17.5781 10.8984H8.55469C8.23107 10.8984 7.96875 11.1608 7.96875 11.4844V22.7344C7.96875 23.0579 8.23107 23.3203 8.55469 23.3203ZM9.14062 12.0703H16.9922V22.1484H9.14062V12.0703Z" fill="black"/>
<path d="M26.6016 10.8984H20.3906C20.0671 10.8984 19.8047 11.1608 19.8047 11.4844C19.8047 11.808 20.0671 12.0703 20.3906 12.0703H26.6016C26.9251 12.0703 27.1875 11.808 27.1875 11.4844C27.1875 11.1608 26.9251 10.8984 26.6016 10.8984Z" fill="black"/>
<path d="M26.6016 13.7109H20.3906C20.0671 13.7109 19.8047 13.9733 19.8047 14.2969C19.8047 14.6205 20.0671 14.8828 20.3906 14.8828H26.6016C26.9251 14.8828 27.1875 14.6205 27.1875 14.2969C27.1875 13.9733 26.9251 13.7109 26.6016 13.7109Z" fill="black"/>
<path d="M26.6016 16.5234H20.3906C20.0671 16.5234 19.8047 16.7858 19.8047 17.1094C19.8047 17.4329 20.0671 17.6953 20.3906 17.6953H26.6016C26.9251 17.6953 27.1875 17.4329 27.1875 17.1094C27.1875 16.7858 26.9251 16.5234 26.6016 16.5234Z" fill="black"/>
<path d="M26.6016 19.3359H20.3906C20.0671 19.3359 19.8047 19.5983 19.8047 19.9219C19.8047 20.2454 20.0671 20.5078 20.3906 20.5078H26.6016C26.9251 20.5078 27.1875 20.2454 27.1875 19.9219C27.1875 19.5983 26.9251 19.3359 26.6016 19.3359Z" fill="black"/>
<path d="M26.6016 22.1484H20.3906C20.0671 22.1484 19.8047 22.4108 19.8047 22.7344C19.8047 23.0579 20.0671 23.3203 20.3906 23.3203H26.6016C26.9251 23.3203 27.1875 23.0579 27.1875 22.7344C27.1875 22.4108 26.9251 22.1484 26.6016 22.1484Z" fill="black"/>
<path d="M8.55469 26.1328H26.6016C26.9251 26.1328 27.1875 25.8704 27.1875 25.5469C27.1875 25.2233 26.9251 24.9609 26.6016 24.9609H8.55469C8.23107 24.9609 7.96875 25.2233 7.96875 25.5469C7.96875 25.8704 8.23107 26.1328 8.55469 26.1328Z" fill="black"/>
<path d="M5.77148 15.7031C5.61738 15.7031 5.46621 15.7658 5.35723 15.8748C5.24824 15.9838 5.18555 16.135 5.18555 16.2891C5.18555 16.4438 5.24818 16.5943 5.35723 16.7033C5.46621 16.8128 5.61738 16.875 5.77148 16.875C5.92559 16.875 6.07676 16.8129 6.18568 16.7033C6.29467 16.5943 6.35742 16.4432 6.35742 16.2891C6.35742 16.135 6.29473 15.9838 6.18568 15.8748C6.07676 15.7658 5.92559 15.7031 5.77148 15.7031Z" fill="black"/>
</svg>
