<svg width="34" height="25" viewBox="0 0 34 25" fill="none" xmlns="http://www.w3.org/2000/svg">
<path d="M21.5839 11.0233L14.2919 7.0334C13.8726 6.80398 13.377 6.81255 12.9661 7.05606C12.5548 7.29982 12.3096 7.73044 12.3096 8.2084V16.1197C12.3096 16.5954 12.5533 17.0252 12.9618 17.2693C13.1751 17.3967 13.4115 17.4606 13.6485 17.4606C13.8656 17.4606 14.0832 17.407 14.2834 17.2992L21.5756 13.3781C22.0085 13.1451 22.2787 12.6951 22.2807 12.2033C22.2825 11.7115 22.0156 11.2595 21.5839 11.0233ZM14.2438 15.1245V9.21167L19.6938 12.1938L14.2438 15.1245Z" fill="black"/>
<path d="M32.7642 5.90047L32.7627 5.88536C32.7347 5.61969 32.4565 3.25658 31.3077 2.05463C29.9798 0.64089 28.4744 0.469147 27.7504 0.3868C27.6905 0.380001 27.6356 0.373706 27.5865 0.367158L27.5288 0.361114C23.1652 0.0438173 16.5753 0.000503646 16.5093 0.000251823L16.5035 0L16.4977 0.000251823C16.4317 0.000503646 9.84175 0.0438173 5.43888 0.361114L5.38071 0.367158C5.33387 0.373454 5.28224 0.379246 5.22609 0.385793C4.51041 0.468391 3.02112 0.640386 1.68948 2.10524C0.59531 3.29435 0.27902 5.60684 0.246535 5.86672L0.242758 5.90047C0.232936 6.01102 0 8.64282 0 11.285V13.7548C0 16.397 0.232936 19.0288 0.242758 19.1396L0.24452 19.1562C0.272473 19.4176 0.550485 21.7374 1.69401 22.9398C2.94255 24.3062 4.52123 24.487 5.37038 24.5842C5.5046 24.5996 5.62019 24.6127 5.69901 24.6265L5.77531 24.6371C8.2948 24.8769 16.1942 24.995 16.5292 24.9997L16.5392 25L16.5493 24.9997C16.6153 24.9995 23.205 24.9562 27.5686 24.6389L27.6263 24.6328C27.6814 24.6255 27.7434 24.619 27.8114 24.6119C28.523 24.5364 30.0042 24.3795 31.3175 22.9345C32.4117 21.7452 32.7282 19.4327 32.7604 19.1731L32.7642 19.1393C32.774 19.0285 33.0072 16.397 33.0072 13.7548V11.285C33.007 8.64282 32.774 6.01127 32.7642 5.90047ZM31.0727 13.7548C31.0727 16.2003 30.8592 18.7188 30.839 18.9499C30.7569 19.5868 30.4233 21.0499 29.8902 21.6293C29.0682 22.5336 28.2238 22.6233 27.6074 22.6885C27.5328 22.6963 27.4638 22.7039 27.4014 22.7117C23.1808 23.0169 16.8397 23.0637 16.5476 23.0655C16.2199 23.0607 8.43608 22.9416 5.99339 22.7147C5.86824 22.6943 5.73301 22.6787 5.59048 22.6626C4.86749 22.5797 3.87783 22.4664 3.11682 21.6293L3.09894 21.6102C2.57514 21.0645 2.25105 19.6964 2.1687 18.9575C2.15334 18.7827 1.93425 16.2345 1.93425 13.7548V11.285C1.93425 8.84227 2.1473 6.32655 2.16795 6.0906C2.26591 5.34041 2.60587 3.96596 3.11682 3.41044C3.96395 2.4787 4.85717 2.37545 5.44794 2.3072C5.50435 2.30066 5.55698 2.29461 5.60558 2.28832C9.88759 1.9816 16.2743 1.93602 16.5035 1.93425C16.7326 1.93576 23.1171 1.9816 27.3611 2.28832C27.4132 2.29486 27.4701 2.30141 27.5313 2.30846C28.139 2.37771 29.0574 2.48247 29.9002 3.38148L29.908 3.38979C30.4318 3.93549 30.7559 5.32757 30.8383 6.08128C30.8529 6.24622 31.0727 8.79996 31.0727 11.285V13.7548Z" fill="black"/>
</svg>
